<svg width="182" height="159" viewBox="0 0 182 159" fill="none" xmlns="http://www.w3.org/2000/svg">
<g clip-path="url(#clip0)">
<path d="M1.5 114.167H71.1667" stroke="white" stroke-width="2" stroke-miterlimit="10"/>
<path d="M46.9545 130L41.7422 158.5" stroke="white" stroke-width="2" stroke-miterlimit="10"/>
<path d="M42.6654 50.8333H36.332V57.1666H42.6654V50.8333Z" fill="#0038FF"/>
<path d="M36.3333 63.5H30V69.8333H36.3333V63.5Z" fill="#0038FF"/>
<path d="M30.0013 76.1667H23.668V82.5001H30.0013V76.1667Z" fill="#0038FF"/>
<path d="M71.1667 60.3334L64.3172 49.2057C63.7598 48.3032 62.8067 47.6667 61.6667 47.6667C60.5267 47.6667 59.5735 48.3032 59.0162 49.2057L30.4813 96.7564C30.2027 97.2282 30 97.7476 30 98.3334C30 100.081 31.4187 101.5 33.1667 101.5H71.1667" stroke="#0038FF" stroke-width="4" stroke-miterlimit="10"/>
<path d="M17.3359 158.5H61.6693" stroke="#0038FF" stroke-width="4" stroke-miterlimit="10"/>
<path d="M11.0013 158.5H4.66797" stroke="#0038FF" stroke-width="4" stroke-miterlimit="10"/>
<path d="M170.917 142.667H60.0833C59.2093 142.667 58.5 143.376 58.5 144.25V156.917C58.5 157.791 59.2093 158.5 60.0833 158.5H170.917C171.791 158.5 172.5 157.791 172.5 156.917V144.25C172.5 143.376 171.791 142.667 170.917 142.667Z" stroke="#0038FF" stroke-width="4" stroke-miterlimit="10"/>
<path d="M172.357 143.585L159.836 117.333V58.7502C159.836 54.377 156.293 50.8335 151.919 50.8335H79.0861C74.7129 50.8335 71.1694 54.377 71.1694 58.7502V117.333L58.6484 143.585" stroke="#0038FF" stroke-width="4" stroke-miterlimit="10"/>
<path d="M71.168 117.333H137.668" stroke="#0038FF" stroke-width="4" stroke-miterlimit="10"/>
<path d="M144 117.333H150.333" stroke="#0038FF" stroke-width="4" stroke-miterlimit="10"/>
<path d="M130.983 96.9497L118.297 71.5878C117.775 70.5587 116.733 69.8335 115.501 69.8335C114.269 69.8335 113.228 70.5587 112.705 71.5847L100.019 96.9465C99.8105 97.3708 99.668 97.83 99.668 98.3335C99.668 100.082 101.087 101.5 102.835 101.5H128.168C129.916 101.5 131.335 100.082 131.335 98.3335C131.335 97.83 131.192 97.3708 130.983 96.9497Z" stroke="#0038FF" stroke-width="4" stroke-miterlimit="10"/>
<path d="M102.833 63.5H96.5V69.8333H102.833V63.5Z" fill="#0038FF"/>
<path d="M96.5013 76.1667H90.168V82.5001H96.5013V76.1667Z" fill="#0038FF"/>
<path d="M90.1654 88.8333H83.832V95.1666H90.1654V88.8333Z" fill="#0038FF"/>
<path d="M55.332 22.3333H109.165" stroke="white" stroke-width="3" stroke-miterlimit="10"/>
<path d="M115.5 22.3333H121.833" stroke="white" stroke-width="3" stroke-miterlimit="10"/>
<path d="M159.833 0.166748H153.5V6.50008H159.833V0.166748Z" fill="#0038FF"/>
<path d="M172.501 6.5H166.168V12.8333H172.501V6.5Z" fill="#0038FF"/>
<path d="M140.833 19.1667H134.5V25.5001H140.833V19.1667Z" fill="#0038FF"/>
<path d="M178.833 19.1667H172.5V25.5001H178.833V19.1667Z" fill="#0038FF"/>
<path d="M159.833 38.1667H153.5V44.5001H159.833V38.1667Z" fill="#0038FF"/>
<path d="M147.165 31.8333H140.832V38.1666H147.165V31.8333Z" fill="#0038FF"/>
<path d="M172.501 31.8333H166.168V38.1666H172.501V31.8333Z" fill="#0038FF"/>
<path d="M147.165 6.5H140.832V12.8333H147.165V6.5Z" fill="#0038FF"/>
<path d="M121.833 50.8333V41.3333C121.833 37.8342 118.996 35 115.5 35H7.83333C4.33733 35 1.5 37.8342 1.5 41.3333V123.667C1.5 127.163 4.33733 130 7.83333 130H65.1247" stroke="#0038FF" stroke-width="3" stroke-miterlimit="10"/>
</g>
<defs>
<clipPath id="clip0">
<rect width="182" height="159" fill="white"/>
</clipPath>
</defs>
</svg>
