<svg width="24" height="30" viewBox="0 0 24 30" fill="none" xmlns="http://www.w3.org/2000/svg">
<path d="M0 23.748H24V6.25195H0V23.748ZM13.2563 11.4258C13.0938 10.7402 12.95 8.99999 15.1125 7.82812C15.1125 7.82812 15.5687 7.61718 16.3 7.40625C16.2625 7.4707 15.9625 7.99804 15.8625 8.30273C15.8125 8.46679 15.7688 9.26953 16.25 9.8496C16.6437 10.3301 17.1187 11.3848 16.3687 12.2812C16.3312 12.3281 16.2938 12.3691 16.25 12.4101C16.7188 13.1074 16.8 14.2617 16.8 15.4101C16.8 15.4746 16.7812 22.2011 14.9625 22.2011C13.1437 22.2011 13.125 15.4804 13.125 15.4101C13.125 14.2207 13.2125 13.0254 13.7437 12.3281C13.5 12.0879 13.3375 11.7773 13.2563 11.4258ZM7.26875 10.0195L9.04375 7.99218L10.8188 10.0195V11.6426H7.26875V10.0195ZM7.26875 12.7558H10.8188V18.3047H7.26875V12.7558ZM7.26875 19.4179H10.8188V20.5312C10.8188 21.4453 10.0188 22.1953 9.04375 22.1953C8.06875 22.1953 7.26875 21.4453 7.26875 20.5312V19.4179Z" fill="#0038FF"/>
<path d="M0 30H24V25.002H0V30ZM8.66875 26.8711H15.3375C15.7062 26.8711 16.0063 27.1523 16.0063 27.498C16.0063 27.8437 15.7062 28.125 15.3375 28.125H8.66875C8.3 28.125 8 27.8437 8 27.498C8 27.1523 8.3 26.8711 8.66875 26.8711Z" fill="#0038FF"/>
<path d="M0 0V4.99804H24V0H0ZM12.6688 3.12304H8.66875V1.875H12.6688V3.12304ZM15.3312 3.12304H14V1.875H15.3312V3.12304Z" fill="#0038FF"/>
</svg>
