<svg width="37" height="32" viewBox="0 0 37 32" fill="none" xmlns="http://www.w3.org/2000/svg">
<path d="M8.96981 4.98804C4.63956 4.98804 0 6.2369 0 9.00782V22.5892C0 25.3601 4.63956 26.609 8.96981 26.609C13.3001 26.609 17.9396 25.3601 17.9396 22.5892V9.00782C17.9396 6.2369 13.3001 4.98804 8.96981 4.98804ZM8.96981 7.32966C13.1454 7.32966 15.3879 8.53949 15.6198 9.00782C15.8518 9.47614 13.1454 10.686 8.96981 10.686C4.79421 10.686 2.55176 9.51517 2.31978 9.00782C2.0878 8.50047 4.83287 7.32966 8.96981 7.32966ZM2.31978 11.8178C4.05961 12.6373 6.57271 13.0276 8.96981 13.0276C11.3669 13.0276 13.88 12.6373 15.6198 11.8178V15.6424C15.4652 16.1107 13.1841 17.3596 8.96981 17.3596C4.75555 17.3596 2.47443 16.1107 2.31978 15.6814V11.8178ZM8.96981 24.2674C4.71688 24.2674 2.47443 23.0185 2.31978 22.5892V18.4914C4.05961 19.3109 6.57271 19.7012 8.96981 19.7012C11.3669 19.7012 13.88 19.3109 15.6198 18.4914V22.5502C15.4652 23.0185 13.2227 24.2674 8.96981 24.2674Z" fill="#434343"/>
<path d="M8.54465 16.501H9.39524C10.0525 16.501 10.5551 15.9937 10.5551 15.3302C10.5551 14.6668 10.0525 14.1594 9.39524 14.1594H8.54465C7.88738 14.1594 7.38477 14.6668 7.38477 15.3302C7.38477 15.9937 7.88738 16.501 8.54465 16.501Z" fill="#434343"/>
<path d="M9.39524 20.6768H8.54465C7.88738 20.6768 7.38477 21.1841 7.38477 21.8476C7.38477 22.511 7.88738 23.0184 8.54465 23.0184H9.39524C10.0525 23.0184 10.5551 22.511 10.5551 21.8476C10.5551 21.1841 10.0525 20.6768 9.39524 20.6768Z" fill="#434343"/>
<path d="M19.873 6.90015V24.6965C19.873 27.0771 21.7675 28.9894 24.126 28.9894H25.2859V26.6478H24.126C23.0434 26.6478 22.1928 25.7892 22.1928 24.6965V16.9691H25.2859V14.6275H22.1928V6.90015C22.1928 5.80739 23.0434 4.9488 24.126 4.9488H25.2859V2.60718H24.126C21.7675 2.60718 19.873 4.5195 19.873 6.90015Z" fill="#434343"/>
<path d="M33.0179 11.7788H30.6981C28.4943 11.7788 26.7158 13.574 26.7158 15.8376C26.7158 18.1012 28.4943 19.8574 30.6981 19.8574H33.0179C35.2217 19.8574 37.0002 18.0622 37.0002 15.8376C37.0002 13.6131 35.2217 11.7788 33.0179 11.7788ZM33.0179 17.5158H30.6981C29.7702 17.5158 29.0356 16.7743 29.0356 15.8376C29.0356 14.901 29.7702 14.1204 30.6981 14.1204H33.0179C33.9458 14.1204 34.6804 14.8619 34.6804 15.8376C34.6804 16.7743 33.9458 17.5158 33.0179 17.5158Z" fill="#434343"/>
<path d="M33.0179 23.4868H30.6981C28.4943 23.4868 26.7158 25.2821 26.7158 27.5066C26.7158 29.7311 28.4943 31.5264 30.6981 31.5264H33.0179C35.2217 31.5264 37.0002 29.7311 37.0002 27.5066C37.0002 25.2821 35.2217 23.4868 33.0179 23.4868ZM33.0179 29.2238H30.6981C29.7702 29.2238 29.0356 28.4823 29.0356 27.5456C29.0356 26.609 29.7702 25.8675 30.6981 25.8675H33.0179C33.9458 25.8675 34.6804 26.609 34.6804 27.5456C34.6804 28.4823 33.9458 29.2238 33.0179 29.2238Z" fill="#434343"/>
<path d="M33.0179 0.0705566H30.6981C28.4943 0.0705566 26.7158 1.8658 26.7158 4.12936C26.7158 6.39293 28.4943 8.18817 30.6981 8.18817H33.0179C35.2217 8.18817 37.0002 6.39293 37.0002 4.12936C37.0002 1.8658 35.2217 0.0705566 33.0179 0.0705566ZM33.0179 5.80752H30.6981C29.7702 5.80752 29.0356 5.06601 29.0356 4.09034C29.0356 3.11466 29.7702 2.41218 30.6981 2.41218H33.0179C33.9458 2.41218 34.6804 3.15369 34.6804 4.09034C34.6804 5.02698 33.9458 5.80752 33.0179 5.80752Z" fill="#434343"/>
</svg>
