<svg width="45" height="53" viewBox="0 0 45 53" fill="none" xmlns="http://www.w3.org/2000/svg">
<path d="M23.8371 3.11163H21.2855V7.65476H23.8371V3.11163Z" fill="#434343"/>
<path d="M4.10889 20.164H8.65202V22.7157H4.10889V20.164Z" fill="#434343"/>
<path d="M40.9518 20.164H36.4087V22.7157H40.9518V20.164Z" fill="#434343"/>
<path d="M32.6735 14.7496C33.0469 14.5006 33.5447 14.6251 33.7937 15.0608C34.0426 15.4964 33.9182 15.9943 33.5447 16.181L24.334 21.3465V21.4087C24.334 22.4045 23.525 23.2135 22.5292 23.2135C21.5334 23.2135 20.7244 22.4045 20.7244 21.4087C20.7244 21.1598 20.7866 20.9108 20.9111 20.6619L17.426 13.3182C17.177 12.8825 17.3637 12.4469 17.7994 12.198C18.235 11.949 18.7329 12.1357 18.9196 12.5714L22.2803 19.6039H22.5292C22.9026 19.6039 23.276 19.7284 23.525 19.9151L32.6735 14.7496Z" fill="#434343"/>
<path fill-rule="evenodd" clip-rule="evenodd" d="M35.6576 28.4414C35.4709 28.5658 35.471 28.7525 35.471 28.877C35.471 30.5573 37.0268 31.802 39.0183 31.802H39.7651V45.1203H39.0183C37.0891 45.1203 35.471 46.365 35.471 48.0453C35.471 48.1698 35.4709 48.3565 35.6576 48.4809H9.3946V48.0453C9.3946 46.365 7.9632 45.1203 6.03393 45.1203H5.34934V31.802H6.03393C7.9632 31.802 9.3946 30.5573 9.3946 28.877V28.4414H35.6576ZM25.3889 41.9463C25.8868 41.5107 26.2602 41.0128 26.3224 40.3904C26.4469 39.3947 26.0735 38.6479 25.3267 38.0255C24.5799 37.4032 23.6464 37.1542 22.6506 37.1542C22.2772 37.1542 21.966 37.092 21.7171 36.843C21.4681 36.5941 21.4681 36.2207 21.6548 35.9718C22.0905 35.4739 23.1485 35.4739 23.5219 36.034C23.5219 36.0651 23.5374 36.0962 23.553 36.1273C23.5686 36.1585 23.5841 36.1896 23.5841 36.2207C23.5841 36.4074 23.7086 36.4074 23.8331 36.4074H26.3847C26.3847 35.7851 26.1357 35.2249 25.7001 34.7893C25.2645 34.2914 24.7666 33.9802 24.1442 33.7935C24.0198 33.7313 23.9575 33.6691 23.9575 33.5446V32.5489H21.157V33.4824C21.157 33.6068 21.0947 33.6691 20.9703 33.7313C20.8788 33.7771 20.7836 33.8228 20.6864 33.8694C20.3871 34.0132 20.0697 34.1657 19.7878 34.3537C18.8543 35.0382 18.4809 36.034 18.792 37.0297C19.041 37.8388 19.6011 38.3989 20.3479 38.7723C21.0325 39.1457 21.7793 39.2702 22.5261 39.2702C22.8373 39.2702 23.0862 39.3324 23.3352 39.5191C23.6464 39.8303 23.6464 40.266 23.2729 40.5771C22.5884 41.1372 21.7171 40.8261 21.4059 40.0793H18.6676C18.7298 40.6394 18.9165 41.075 19.2277 41.5107C19.6633 42.0708 20.2234 42.5064 20.908 42.6931C21.0947 42.7553 21.157 42.8798 21.157 43.0665V44.3734H23.9575V42.942C23.9575 42.8176 24.0198 42.7553 24.1442 42.6931C24.5799 42.5064 25.0155 42.2575 25.3889 41.9463Z" fill="#434343"/>
<path fill-rule="evenodd" clip-rule="evenodd" d="M43.9999 21.4087C43.9999 22.5912 43.8755 23.7114 43.6888 24.8317C44.4356 25.0806 45.0579 25.7029 44.9957 26.4498V50.4724C44.9957 51.4059 44.1244 52.1527 43.0664 52.1527H1.92928C0.871286 52.1527 0 51.4059 0 50.4724V26.3875C0 25.7029 0.622347 25.0806 1.36916 24.8317C1.24469 23.7114 1.12023 22.5912 1.12023 21.4087C1.12023 9.58415 10.7044 0 22.529 0C34.3536 0 43.9377 9.58415 43.9999 21.4087ZM41.4483 21.4087C41.4483 11.0155 32.9844 2.48939 22.529 2.48939C12.0735 2.48939 3.60961 10.9533 3.54738 21.4087C3.54738 22.529 3.67185 23.6492 3.85855 24.7072H41.1371C41.3239 23.6492 41.4483 22.529 41.4483 21.4087ZM40.0792 49.7255C40.9504 49.7255 41.8217 48.9165 41.8217 48.1697V28.7524C41.8217 28.0056 40.9504 27.3833 40.0792 27.3833H4.97878C4.10749 27.3833 3.23621 27.9434 3.23621 28.7524V48.1697C3.23621 48.9787 4.10749 49.7255 4.97878 49.7255H40.0792Z" fill="#434343"/>
</svg>
