<svg width="60" height="58" viewBox="0 0 60 58" fill="none" xmlns="http://www.w3.org/2000/svg">
<path d="M58.0814 49.3578H36.7278C36.4162 48.2113 35.8098 47.1635 34.9673 46.3159C34.1248 45.4683 33.0746 44.8497 31.9186 44.5198V38.1238C38.7039 37.7895 45.3485 35.6827 45.3485 31.4881V6.71771C45.3485 2.1257 37.3929 0 30 0C22.6071 0 14.6515 2.1257 14.6515 6.71771V31.4881C14.6515 35.689 21.2961 37.7958 28.0814 38.1238V44.5198C26.9254 44.8497 25.8752 45.4683 25.0327 46.3159C24.1902 47.1635 23.5838 48.2113 23.2722 49.3578H1.91857C1.40973 49.3578 0.921737 49.5572 0.561935 49.9121C0.202134 50.2669 0 50.7482 0 51.2501C0 51.752 0.202134 52.2333 0.561935 52.5882C0.921737 52.9431 1.40973 53.1424 1.91857 53.1424H23.3362C23.7739 54.5487 24.6574 55.7795 25.8569 56.6538C27.0563 57.5282 28.5085 58 30 58C31.4915 58 32.9437 57.5282 34.1431 56.6538C35.3426 55.7795 36.2261 54.5487 36.6638 53.1424H58.0814C58.5903 53.1424 59.0783 52.9431 59.4381 52.5882C59.7979 52.2333 60 51.752 60 51.2501C60 50.7482 59.7979 50.2669 59.4381 49.9121C59.0783 49.5572 58.5903 49.3578 58.0814 49.3578ZM18.4886 11.3539C21.488 12.7542 25.8303 13.4228 30 13.4228C34.1697 13.4228 38.512 12.7416 41.5114 11.3539V18.6645C41.294 19.4719 37.4376 21.585 30 21.585C22.5624 21.585 18.6932 19.4656 18.4886 18.6834V11.3539ZM30 3.78462C37.3865 3.78462 41.2364 5.86617 41.5114 6.68617C41.2428 7.50617 37.3929 9.58772 30 9.58772C22.6071 9.58772 18.706 7.50617 18.4886 6.74294C18.706 5.92924 22.5624 3.78462 30 3.78462ZM18.4886 31.4881V23.2881C21.488 24.6884 25.8303 25.357 30 25.357C34.1697 25.357 38.512 24.6947 41.5114 23.2881V23.6097V31.4628C41.3004 32.2702 37.4504 34.3833 30 34.3833C22.5496 34.3833 18.6932 32.2702 18.4886 31.4881ZM30 54.2463C29.1869 54.2492 28.4046 53.9397 27.819 53.3833C27.2334 52.827 26.8905 52.0675 26.863 51.266C26.8356 50.4644 27.1257 49.6839 27.672 49.0898C28.2182 48.4957 28.9775 48.1348 29.789 48.0837C29.9303 48.1122 30.0761 48.1122 30.2174 48.0837C31.0295 48.1347 31.7895 48.496 32.3359 49.0908C32.8822 49.6856 33.1721 50.467 33.1438 51.2691C33.1155 52.0713 32.7713 52.8309 32.1843 53.3868C31.5973 53.9427 30.8137 54.251 30 54.2463Z" fill="#434343"/>
</svg>
