<svg width="41" height="25" viewBox="0 0 41 25" fill="none" xmlns="http://www.w3.org/2000/svg">
<path d="M40.8565 6.49412C40.2974 2.8815 37.2009 0.129028 33.4163 0.129028C32.5561 0.129028 31.739 0.301058 30.9648 0.559102L34.1474 6.45111H40.8565V6.49412Z" fill="#0038FF"/>
<path d="M33.4169 15.2677C37.1586 15.2677 40.2551 12.5152 40.8572 8.90257H33.4169C32.9868 8.90257 32.5568 8.64452 32.3847 8.25746L28.8581 1.72034C27.0518 3.09657 25.8906 5.24694 25.8906 7.69836C25.8906 11.8701 29.2452 15.2677 33.4169 15.2677Z" fill="#0038FF"/>
<path d="M11.525 12.2571C11.826 12.2141 12.1271 12.0421 12.3421 11.784L16.9009 5.67697L18.1481 6.62313C18.4062 6.83817 18.7932 6.83817 19.0943 6.70915C19.3953 6.58013 19.6104 6.27907 19.6104 5.93502L19.7824 0.946162C19.7824 0.64511 19.6534 0.344059 19.4383 0.17203C19.1803 3.58881e-07 18.8792 -0.0430075 18.6212 0.0430072L13.9334 1.63428C13.6323 1.7633 13.3743 2.02135 13.3313 2.3654C13.2883 2.70946 13.4173 3.01052 13.6753 3.22555L14.9656 4.17171L11.1379 9.28959L7.31026 6.4511C7.05221 6.23607 6.70815 6.15005 6.4071 6.23607C6.10605 6.27907 5.805 6.4511 5.58996 6.70915L0.257049 13.8484C-0.130017 14.4075 -0.0440023 15.1816 0.515093 15.5687C0.73013 15.7407 0.988174 15.8267 1.24622 15.8267C1.63328 15.8267 2.02035 15.6547 2.23539 15.3106L6.79417 9.16057L10.6218 11.9991C10.8799 12.2141 11.1809 12.3001 11.525 12.2571Z" fill="#0038FF"/>
<path d="M4.25773 18.2351H0.860147C0.387066 18.2351 0 18.6222 0 19.0953V23.8691C0 24.3422 0.387066 24.7292 0.860147 24.7292H4.25773C4.73081 24.7292 5.11788 24.3422 5.11788 23.8691V19.0522C5.11788 18.5792 4.73081 18.2351 4.25773 18.2351Z" fill="#0038FF"/>
<path d="M11.871 14.8375H8.47343C8.00035 14.8375 7.61328 15.2246 7.61328 15.6977V23.8691C7.61328 24.3422 8.00035 24.7292 8.47343 24.7292H11.871C12.3441 24.7292 12.7312 24.3422 12.7312 23.8691V15.6977C12.7312 15.2246 12.3441 14.8375 11.871 14.8375Z" fill="#0038FF"/>
<path d="M19.5273 11.4399H16.1297C15.6566 11.4399 15.2695 11.827 15.2695 12.3001V23.8691C15.2695 24.3422 15.6566 24.7292 16.1297 24.7292H19.5273C20.0003 24.7292 20.3874 24.3422 20.3874 23.8691V12.3001C20.3874 11.827 20.0003 11.4399 19.5273 11.4399Z" fill="#0038FF"/>
<path d="M39.997 19.6113H26.7508C26.2777 19.6113 25.8906 19.9984 25.8906 20.4715V23.8691C25.8906 24.3421 26.2777 24.7292 26.7508 24.7292H40.04C40.5131 24.7292 40.9002 24.3421 40.9002 23.8691V20.4715C40.8572 19.9984 40.4701 19.6113 39.997 19.6113Z" fill="#0038FF"/>
</svg>
