<svg width="40" height="30" viewBox="0 0 40 30" fill="none" xmlns="http://www.w3.org/2000/svg">
<path d="M8.66927 8.84998L1.34794 4.97296L1.33594 13.4232L8.66927 17.3216V8.84998ZM4.0026 12.332C4.0026 12.4991 3.93237 12.6593 3.80734 12.7775C3.68232 12.8956 3.51275 12.962 3.33594 12.962C3.15913 12.962 2.98956 12.8956 2.86453 12.7775C2.73951 12.6593 2.66927 12.4991 2.66927 12.332V8.21998C2.66927 8.05289 2.73951 7.89265 2.86453 7.7745C2.98956 7.65636 3.15913 7.58998 3.33594 7.58998C3.51275 7.58998 3.68232 7.65636 3.80734 7.7745C3.93237 7.89265 4.0026 8.05289 4.0026 8.21998V12.332Z" fill="#0038FF"/>
<path d="M10 17.3153L10.6667 16.9695V16.8731C10.6663 16.6445 10.7308 16.42 10.8533 16.2229C10.9758 16.0258 11.1519 15.8633 11.3633 15.7523L17.3333 12.5928V4.96985L10 8.85002V17.3153Z" fill="#0038FF"/>
<path d="M16.622 3.89817L9.34534 0.0299683L2.02734 3.89061L9.33134 7.75566L16.622 3.89817ZM5.99801 4.58487C5.85038 4.58505 5.70685 4.53891 5.58996 4.45369C5.47306 4.36848 5.38941 4.249 5.35211 4.11401C5.31482 3.97902 5.32599 3.83615 5.38389 3.70781C5.44179 3.57947 5.54312 3.47292 5.67201 3.40488L9.00534 1.64088C9.15922 1.56416 9.33875 1.54733 9.50558 1.59397C9.67241 1.64062 9.81334 1.74706 9.89827 1.89055C9.9832 2.03405 10.0054 2.20323 9.96014 2.36199C9.91488 2.52074 9.80573 2.65648 9.65601 2.74023L6.32268 4.50423C6.22351 4.55684 6.11174 4.5846 5.99801 4.58487Z" fill="#0038FF"/>
<path d="M19.9993 20.3563L27.3046 16.4912L20.0133 12.6331L12.6953 16.4919L19.9993 20.3563ZM16.3406 16.0061L19.674 14.2421C19.8279 14.1654 20.0074 14.1486 20.1742 14.1952C20.3411 14.2419 20.482 14.3483 20.5669 14.4918C20.6518 14.6353 20.674 14.8045 20.6288 14.9632C20.5835 15.122 20.4744 15.2577 20.3246 15.3415L16.9913 17.1055C16.8374 17.1822 16.6579 17.199 16.4911 17.1524C16.3242 17.1057 16.1833 16.9993 16.0984 16.8558C16.0135 16.7123 15.9913 16.5431 16.0365 16.3844C16.0818 16.2256 16.1909 16.0899 16.3406 16.0061Z" fill="#0038FF"/>
<path d="M19.3333 21.45L12.0113 17.5736L12 26.027L19.3333 29.9204V21.45ZM14.6667 24.9352C14.6667 25.1022 14.5964 25.2625 14.4714 25.3806C14.3464 25.4988 14.1768 25.5652 14 25.5652C13.8232 25.5652 13.6536 25.4988 13.5286 25.3806C13.4036 25.2625 13.3333 25.1022 13.3333 24.9352V20.82C13.3333 20.6529 13.4036 20.4927 13.5286 20.3745C13.6536 20.2564 13.8232 20.19 14 20.19C14.1768 20.19 14.3464 20.2564 14.4714 20.3745C14.5964 20.4927 14.6667 20.6529 14.6667 20.82V24.9352Z" fill="#0038FF"/>
<path d="M27.9967 17.568L20.6641 21.4475V29.9078L27.9847 26.0478L27.9967 17.568Z" fill="#0038FF"/>
<path d="M31.3359 17.3084L38.6559 13.4471L38.6686 4.96667L31.3359 8.84684V17.3084Z" fill="#0038FF"/>
<path d="M37.958 3.89817L30.6813 0.0299683L23.3633 3.89061L30.6673 7.75566L37.958 3.89817ZM27.3339 4.58487C27.1863 4.58505 27.0428 4.53891 26.9259 4.45369C26.809 4.36848 26.7253 4.249 26.688 4.11401C26.6508 3.97902 26.6619 3.83615 26.7198 3.70781C26.7777 3.57947 26.8791 3.47292 27.008 3.40488L30.3413 1.64088C30.4952 1.56416 30.6747 1.54733 30.8415 1.59397C31.0084 1.64062 31.1493 1.74706 31.2342 1.89055C31.3191 2.03405 31.3413 2.20323 31.2961 2.36199C31.2508 2.52074 31.1417 2.65648 30.9919 2.74023L27.6586 4.50423C27.5594 4.55684 27.4477 4.5846 27.3339 4.58487Z" fill="#0038FF"/>
<path d="M29.3307 16.873V16.9726L29.9974 17.3241V8.84998L22.6761 4.97296L22.6641 12.5934L28.6354 15.7535C28.8465 15.8645 29.0223 16.0269 29.1445 16.2237C29.2668 16.4206 29.3311 16.6448 29.3307 16.873ZM25.3307 12.332C25.3307 12.4991 25.2605 12.6593 25.1355 12.7775C25.0104 12.8956 24.8409 12.962 24.6641 12.962C24.4873 12.962 24.3177 12.8956 24.1927 12.7775C24.0676 12.6593 23.9974 12.4991 23.9974 12.332V8.21998C23.9974 8.0529 24.0676 7.89265 24.1927 7.7745C24.3177 7.65636 24.4873 7.58998 24.6641 7.58998C24.8409 7.58998 25.0104 7.65636 25.1355 7.7745C25.2605 7.89265 25.3307 8.0529 25.3307 8.21998V12.332Z" fill="#0038FF"/>
</svg>
