<svg width="811" height="91" viewBox="0 0 811 91" fill="none" xmlns="http://www.w3.org/2000/svg">
<path d="M37.8482 3.87097H1V70.8602H37.8482C63.2472 70.8602 82.5926 56.314 82.5926 37.3656C82.5926 18.4172 63.2472 3.87097 37.8482 3.87097ZM37.8482 56.1226H22.0561V18.6086H37.8482C52.3243 18.6086 62.326 25.8817 62.326 37.3656C62.326 48.8495 52.3243 56.1226 37.8482 56.1226ZM111.408 52.6774H158.126C158.653 50.8591 158.916 48.9452 158.916 46.9355C158.916 32.4849 144.703 21.671 125.489 21.671C104.696 21.671 90.4835 32.6763 90.4835 46.9355C90.4835 61.1946 104.433 72.2 126.937 72.2C139.439 72.2 149.177 68.8505 155.626 62.343L139.834 55.7398C137.202 57.8452 132.596 59.3763 127.2 59.3763C119.962 59.3763 113.908 57.6538 111.408 52.6774ZM111.013 41.9591C112.856 37.0785 117.856 34.3989 125.358 34.3989C131.28 34.3989 137.202 36.4086 139.307 41.9591H111.013ZM209.523 23.0108L195.836 53.3473L182.15 23.0108H160.304L184.65 70.8602H207.022L231.368 23.0108H209.523ZM253.676 52.6774H300.394C300.92 50.8591 301.184 48.9452 301.184 46.9355C301.184 32.4849 286.971 21.671 267.757 21.671C246.964 21.671 232.751 32.6763 232.751 46.9355C232.751 61.1946 246.701 72.2 269.205 72.2C281.707 72.2 291.445 68.8505 297.894 62.343L282.102 55.7398C279.47 57.8452 274.864 59.3763 269.468 59.3763C262.23 59.3763 256.176 57.6538 253.676 52.6774ZM253.281 41.9591C255.123 37.0785 260.124 34.3989 267.625 34.3989C273.547 34.3989 279.47 36.4086 281.575 41.9591H253.281ZM312.38 70.8602H332.12V1H312.38V70.8602ZM378.15 72.2C397.495 72.2 413.024 61.1946 413.024 46.9355C413.024 32.6763 397.495 21.671 378.15 21.671C358.804 21.671 343.275 32.6763 343.275 46.9355C343.275 61.1946 358.804 72.2 378.15 72.2ZM378.15 58.228C369.596 58.228 363.016 53.7301 363.016 46.9355C363.016 40.1409 369.596 35.643 378.15 35.643C386.704 35.643 393.284 40.1409 393.284 46.9355C393.284 53.7301 386.704 58.228 378.15 58.228ZM463.538 21.671C454.721 21.671 448.272 23.872 443.93 27.5086V23.0108H424.189V90H443.93V66.3624C448.272 69.9989 454.721 72.2 463.538 72.2C480.778 72.2 494.991 61.1946 494.991 46.9355C494.991 32.6763 480.778 21.671 463.538 21.671ZM459.59 58.6108C450.51 58.6108 443.93 54.1129 443.93 46.9355C443.93 39.7581 450.51 35.2602 459.59 35.2602C468.67 35.2602 475.251 39.7581 475.251 46.9355C475.251 54.1129 468.67 58.6108 459.59 58.6108ZM579.879 21.671C570.536 21.671 564.482 24.1591 560.797 27.9871C557.112 23.9677 551.322 21.671 543.558 21.671C534.74 21.671 528.95 24.1591 525.923 27.4129V23.0108H506.183V70.8602H525.923V43.8731C525.923 38.2269 529.608 34.8774 536.188 34.8774C542.505 34.8774 545.663 37.9398 545.663 42.7247V70.8602H565.403V43.8731C565.403 38.2269 569.088 34.8774 575.668 34.8774C581.985 34.8774 585.143 37.9398 585.143 42.7247V70.8602H604.884V41.4806C604.884 29.5183 595.014 21.671 579.879 21.671ZM636.012 52.6774H682.731C683.257 50.8591 683.52 48.9452 683.52 46.9355C683.52 32.4849 669.307 21.671 650.094 21.671C629.301 21.671 615.088 32.6763 615.088 46.9355C615.088 61.1946 629.037 72.2 651.541 72.2C664.043 72.2 673.782 68.8505 680.23 62.343L664.438 55.7398C661.806 57.8452 657.2 59.3763 651.804 59.3763C644.566 59.3763 638.513 57.6538 636.012 52.6774ZM635.618 41.9591C637.46 37.0785 642.461 34.3989 649.962 34.3989C655.884 34.3989 661.806 36.4086 663.912 41.9591H635.618ZM733.276 21.671C724.59 21.671 718.01 23.9677 714.457 27.5086V23.0108H694.717V70.8602H714.457V44.7344C714.457 37.9398 719.458 34.8774 726.696 34.8774C733.012 34.8774 738.145 37.6527 738.145 43.586V70.8602H757.885V41.4806C757.885 28.5613 746.567 21.671 733.276 21.671ZM810 36.7914V23.0108H796.445V9.6129L776.705 13.9194V23.0108H766.177V36.7914H776.705V53.7301C776.705 67.128 784.206 72.7742 810 70.8602V57.8452C801.314 58.228 796.445 57.8452 796.445 53.7301V36.7914H810Z" stroke="white" stroke-opacity="0.5" stroke-width="2"/>
</svg>
