<svg width="62" height="52" viewBox="0 0 62 52" fill="none" xmlns="http://www.w3.org/2000/svg">
<path d="M5.85556 0C2.82444 0 0.344175 2.34303 0.0686195 5.30525C0.0686195 5.51192 0 5.64889 0 5.85556V36.7183C0 39.9561 2.61778 42.5739 5.85556 42.5739H56.1444C59.1756 42.5739 61.6558 40.2308 61.9314 37.2686C61.9314 37.062 62 36.925 62 36.7183V5.85556C62 2.61778 59.3822 0 56.1444 0H5.85556ZM8.33529 3.03138H54.1464C56.902 3.03138 59.1758 5.30525 59.1758 8.06081V34.5131C59.1758 37.2686 56.4889 39.5425 53.7333 39.5425H7.92222C5.16667 39.5425 2.89279 37.2686 2.89279 34.5131V8.06081C2.89279 5.30525 5.57973 3.03138 8.33529 3.03138ZM15.2928 9.43859C14.6728 9.43859 14.1222 9.98916 14.1222 10.6092C14.1222 11.2292 14.6728 11.7797 15.2928 11.7797H19.0817L22.3889 27.1425C22.1133 27.6936 21.2183 29.1397 21.2183 29.6908C21.2183 30.3108 21.7689 30.8628 22.3889 30.8628H23.5595H40.2314H41.6092C42.2292 30.8628 42.7797 30.3108 42.7797 29.6908C42.7797 29.0708 42.2292 28.5203 41.6092 28.5203H24.4556C24.5933 28.1758 24.8686 27.763 24.8686 27.3497C24.8686 26.9364 24.6617 26.4539 24.5928 26.0405L44.0203 23.7667C44.5714 23.6978 45.0536 23.2161 45.0536 22.5961V13.0203C45.0536 12.4003 44.5017 11.8497 43.8817 11.8497H21.4928C21.355 10.9541 21.2864 9.43859 20.0464 9.43859H15.2928ZM40.2314 30.8628C38.8536 30.8628 37.8203 31.965 37.8203 33.2739C37.8203 34.6517 38.9225 35.685 40.2314 35.685C41.6092 35.685 42.6425 34.6517 42.6425 33.2739C42.6425 31.8961 41.5403 30.8628 40.2314 30.8628ZM23.5595 30.8628C22.1817 30.8628 21.1484 31.965 21.1484 33.2739C21.1484 34.6517 22.2506 35.685 23.5595 35.685C24.8684 35.685 25.9706 34.6517 25.9706 33.2739C25.9706 31.8961 24.8684 30.8628 23.5595 30.8628ZM18.1183 45.398C17.3605 45.398 16.6706 46.0178 16.6706 46.8444V49.7386C16.6706 50.4964 17.2916 51.185 18.1183 51.185H43.8817C44.6395 51.185 45.3294 50.5653 45.3294 49.7386V46.8444C45.3294 46.0867 44.7084 45.398 43.8817 45.398H18.1183Z" fill="white"/>
</svg>
