<svg width="30" height="29" viewBox="0 0 30 29" fill="none" xmlns="http://www.w3.org/2000/svg">
<path d="M0 0V4.84782H30V0H0ZM18.123 3.02918H3.12305V1.81864H18.123V3.02918ZM22.5 3.02918H21.252V1.81864H22.5V3.02918ZM25.002 3.02918H23.7539V1.81864H25.002V3.02918ZM27.498 3.02918H26.25V1.81864H27.498V3.02918Z" fill="#0038FF"/>
<path d="M0 29.0983H30V6.05835H0V29.0983ZM7.5 12.7305H20.9883L18.5215 10.3378L19.4063 9.47967L23.3848 13.3386L19.4063 17.1975L18.5215 16.3394L20.9883 13.9467H7.5V12.7305ZM10.5938 17.7545L11.4785 18.6127L9.01172 21.0053H22.5V22.2215H9.01172L11.4785 24.6142L10.5938 25.4724L6.61523 21.6134L10.5938 17.7545Z" fill="#0038FF"/>
</svg>
