<svg width="48" height="48" viewBox="0 0 48 48" fill="none" xmlns="http://www.w3.org/2000/svg">
<path d="M42.9318 19.9432C42.0948 19.9455 41.279 20.2067 40.5963 20.6909C39.9136 21.1751 39.3974 21.8586 39.1184 22.6477H30.6261C30.451 21.8032 30.116 20.9999 29.639 20.2813L35.6431 14.2636C36.187 14.5271 36.7831 14.6657 37.3875 14.6693C38.4537 14.6613 39.4738 14.2338 40.2273 13.4793C40.9787 12.7198 41.4002 11.6945 41.4002 10.626C41.4002 9.55759 40.9787 8.53227 40.2273 7.77275C39.4534 7.03846 38.4272 6.62911 37.3604 6.62911C36.2936 6.62911 35.2675 7.03846 34.4936 7.77275C33.7326 8.53282 33.3046 9.56399 33.3036 10.6396C33.3072 11.244 33.4458 11.84 33.7093 12.384L27.6917 18.3881C26.9833 17.9047 26.1893 17.5605 25.3523 17.3739V8.88161C26.2545 8.56262 27.015 7.93493 27.4992 7.10949C27.9834 6.28405 28.1602 5.314 27.9984 4.3708C27.8366 3.4276 27.3465 2.57197 26.6148 1.95514C25.8832 1.33831 24.957 1 24 1C23.043 1 22.1168 1.33831 21.3852 1.95514C20.6535 2.57197 20.1634 3.4276 20.0016 4.3708C19.8398 5.314 20.0166 6.28405 20.5008 7.10949C20.985 7.93493 21.7455 8.56262 22.6477 8.88161V17.3739C21.8032 17.549 20.9999 17.884 20.2813 18.361L14.2637 12.3569C14.5271 11.813 14.6658 11.217 14.6693 10.6125C14.6613 9.54633 14.2338 8.52618 13.4793 7.77275C12.7069 7.04632 11.6864 6.64188 10.626 6.64188C9.56567 6.64188 8.54522 7.04632 7.77275 7.77275C7.2168 8.33978 6.83949 9.0575 6.6876 9.83694C6.5357 10.6164 6.6159 11.4233 6.91826 12.1575C7.22061 12.8918 7.73182 13.5212 8.38851 13.9677C9.0452 14.4142 9.8185 14.6582 10.6125 14.6693C11.217 14.6657 11.813 14.5271 12.357 14.2636L18.361 20.2813C17.8841 20.9999 17.549 21.8032 17.3739 22.6477H8.88161C8.56262 21.7455 7.93493 20.985 7.10949 20.5008C6.28405 20.0166 5.314 19.8398 4.3708 20.0016C3.4276 20.1634 2.57197 20.6535 1.95514 21.3852C1.33831 22.1168 1 23.043 1 24C1 24.957 1.33831 25.8832 1.95514 26.6148C2.57197 27.3465 3.4276 27.8366 4.3708 27.9984C5.314 28.1602 6.28405 27.9834 7.10949 27.4992C7.93493 27.015 8.56262 26.2545 8.88161 25.3523H17.3739C17.549 26.1968 17.8841 27.0001 18.361 27.7187L12.3434 33.7499C11.5876 33.4052 10.7459 33.2944 9.92662 33.4317C9.10732 33.5691 8.34781 33.9483 7.74571 34.5207C7.27349 34.9923 6.92492 35.5732 6.7309 36.2117C6.53689 36.8503 6.50342 37.5269 6.63346 38.1815C6.76351 38.8361 7.05305 39.4485 7.47641 39.9645C7.89978 40.4804 8.4439 40.8839 9.06053 41.1393C9.67717 41.3946 10.3473 41.4938 11.0114 41.4282C11.6756 41.3626 12.3133 41.1341 12.8681 40.763C13.4228 40.392 13.8774 39.8898 14.1916 39.3009C14.5058 38.7121 14.6699 38.0549 14.6693 37.3875C14.6658 36.783 14.5271 36.187 14.2637 35.6431L20.2813 29.639C20.9999 30.116 21.8032 30.451 22.6477 30.6261V39.1184C21.7455 39.4374 20.985 40.0651 20.5008 40.8905C20.0166 41.716 19.8398 42.686 20.0016 43.6292C20.1634 44.5724 20.6535 45.428 21.3852 46.0449C22.1168 46.6617 23.043 47 24 47C24.957 47 25.8832 46.6617 26.6148 46.0449C27.3465 45.428 27.8366 44.5724 27.9984 43.6292C28.1602 42.686 27.9834 41.716 27.4992 40.8905C27.015 40.0651 26.2545 39.4374 25.3523 39.1184V30.6261C26.1968 30.451 27.0001 30.116 27.7187 29.639L33.7364 35.6431C33.4729 36.187 33.3343 36.783 33.3307 37.3875C33.3387 38.4537 33.7662 39.4738 34.5207 40.2272C34.8788 40.6682 35.3255 41.0291 35.8319 41.2864C36.3383 41.5438 36.8931 41.692 37.4604 41.7213C38.0277 41.7507 38.5948 41.6605 39.125 41.4568C39.6553 41.253 40.1369 40.9402 40.5385 40.5385C40.9402 40.1368 41.253 39.6553 41.4568 39.125C41.6605 38.5948 41.7507 38.0277 41.7213 37.4604C41.692 36.8931 41.5438 36.3383 41.2865 35.8319C41.0291 35.3255 40.6682 34.8788 40.2273 34.5207C39.6251 33.9483 38.8656 33.5691 38.0463 33.4317C37.227 33.2944 36.3854 33.4052 35.6295 33.7499L29.6119 27.7187C30.0984 27.0022 30.4428 26.1988 30.6261 25.3523H39.1184C39.3665 26.0539 39.8028 26.6738 40.3796 27.1441C40.9564 27.6144 41.6514 27.917 42.3887 28.0187C43.1259 28.1204 43.8769 28.0174 44.5595 27.7209C45.2421 27.4244 45.83 26.9458 46.2589 26.3375C46.6877 25.7293 46.9409 25.0148 46.9909 24.2722C47.0408 23.5297 46.8855 22.7877 46.542 22.1275C46.1985 21.4673 45.68 20.9143 45.0432 20.529C44.4065 20.1438 43.676 19.9411 42.9318 19.9432ZM36.4274 9.65241C36.682 9.39777 37.0274 9.25471 37.3875 9.25471C37.7476 9.25471 38.093 9.39777 38.3476 9.65241C38.6022 9.90704 38.7453 10.2524 38.7453 10.6125C38.7453 10.9726 38.6022 11.318 38.3476 11.5726C38.2219 11.6994 38.0723 11.8 37.9075 11.8686C37.7428 11.9373 37.566 11.9726 37.3875 11.9726C37.209 11.9726 37.0322 11.9373 36.8674 11.8686C36.7026 11.8 36.5531 11.6994 36.4274 11.5726C36.3006 11.4469 36.2 11.2974 36.1314 11.1326C36.0627 10.9678 36.0274 10.791 36.0274 10.6125C36.0274 10.434 36.0627 10.2573 36.1314 10.0925C36.2 9.92768 36.3006 9.77812 36.4274 9.65241ZM11.5726 11.5726C11.4469 11.6994 11.2974 11.8 11.1326 11.8686C10.9678 11.9373 10.791 11.9726 10.6125 11.9726C10.434 11.9726 10.2573 11.9373 10.0925 11.8686C9.92768 11.8 9.77812 11.6994 9.65241 11.5726C9.39777 11.318 9.25472 10.9726 9.25472 10.6125C9.25472 10.2524 9.39777 9.90704 9.65241 9.65241C9.90705 9.39777 10.2524 9.25471 10.6125 9.25471C10.9726 9.25471 11.318 9.39777 11.5726 9.65241C11.6994 9.77812 11.8 9.92768 11.8686 10.0925C11.9373 10.2573 11.9726 10.434 11.9726 10.6125C11.9726 10.791 11.9373 10.9678 11.8686 11.1326C11.8 11.2974 11.6994 11.4469 11.5726 11.5726ZM5.06821 25.3523C4.80076 25.3523 4.53931 25.273 4.31693 25.1244C4.09455 24.9758 3.92122 24.7646 3.81887 24.5175C3.71652 24.2704 3.68974 23.9985 3.74192 23.7362C3.7941 23.4739 3.92289 23.2329 4.11201 23.0438C4.30113 22.8547 4.54208 22.7259 4.80439 22.6737C5.06671 22.6215 5.33861 22.6483 5.5857 22.7507C5.8328 22.853 6.04399 23.0263 6.19258 23.2487C6.34117 23.4711 6.42048 23.7325 6.42048 24C6.42048 24.3586 6.27801 24.7026 6.02441 24.9562C5.77081 25.2098 5.42685 25.3523 5.06821 25.3523ZM11.5726 38.3476C11.4469 38.4743 11.2974 38.5749 11.1326 38.6436C10.9678 38.7122 10.791 38.7476 10.6125 38.7476C10.434 38.7476 10.2573 38.7122 10.0925 38.6436C9.92768 38.5749 9.77812 38.4743 9.65241 38.3476C9.52566 38.2219 9.42506 38.0723 9.35641 37.9075C9.28775 37.7427 9.25241 37.566 9.25241 37.3875C9.25241 37.209 9.28775 37.0322 9.35641 36.8674C9.42506 36.7026 9.52566 36.5531 9.65241 36.4274C9.77849 36.3013 9.92817 36.2013 10.0929 36.133C10.2576 36.0648 10.4342 36.0297 10.6125 36.0297C10.7908 36.0297 10.9674 36.0648 11.1321 36.133C11.2969 36.2013 11.4465 36.3013 11.5726 36.4274C11.6987 36.5535 11.7987 36.7031 11.867 36.8679C11.9352 37.0326 11.9703 37.2092 11.9703 37.3875C11.9703 37.5658 11.9352 37.7424 11.867 37.9071C11.7987 38.0718 11.6987 38.2215 11.5726 38.3476ZM36.4274 36.4274C36.682 36.1727 37.0274 36.0297 37.3875 36.0297C37.7476 36.0297 38.093 36.1727 38.3476 36.4274C38.6022 36.682 38.7453 37.0274 38.7453 37.3875C38.7453 37.7476 38.6022 38.093 38.3476 38.3476C38.2219 38.4743 38.0723 38.5749 37.9075 38.6436C37.7428 38.7122 37.566 38.7476 37.3875 38.7476C37.209 38.7476 37.0322 38.7122 36.8674 38.6436C36.7026 38.5749 36.5531 38.4743 36.4274 38.3476C36.3006 38.2219 36.2 38.0723 36.1314 37.9075C36.0627 37.7427 36.0274 37.566 36.0274 37.3875C36.0274 37.209 36.0627 37.0322 36.1314 36.8674C36.2 36.7026 36.3006 36.5531 36.4274 36.4274ZM24 3.71594C24.2675 3.71594 24.5289 3.79525 24.7513 3.94384C24.9737 4.09243 25.147 4.30362 25.2493 4.55072C25.3517 4.79781 25.3785 5.06971 25.3263 5.33202C25.2741 5.59434 25.1453 5.83529 24.9562 6.02441C24.7671 6.21353 24.5261 6.34232 24.2638 6.3945C24.0015 6.44667 23.7296 6.41989 23.4825 6.31754C23.2354 6.21519 23.0242 6.04187 22.8756 5.81949C22.727 5.59711 22.6477 5.33566 22.6477 5.06821C22.6477 4.70956 22.7902 4.36561 23.0438 4.11201C23.2974 3.85841 23.6414 3.71594 24 3.71594ZM24 44.2841C23.7325 44.2841 23.4711 44.2048 23.2487 44.0562C23.0263 43.9076 22.853 43.6964 22.7507 43.4493C22.6483 43.2022 22.6215 42.9303 22.6737 42.668C22.7259 42.4057 22.8547 42.1647 23.0438 41.9756C23.2329 41.7865 23.4739 41.6577 23.7362 41.6055C23.9985 41.5533 24.2704 41.5801 24.5175 41.6825C24.7646 41.7848 24.9758 41.9581 25.1244 42.1805C25.273 42.4029 25.3523 42.6643 25.3523 42.9318C25.3523 43.2904 25.2098 43.6344 24.9562 43.888C24.7026 44.1416 24.3586 44.2841 24 44.2841ZM24 28.0568C23.1976 28.0568 22.4133 27.8189 21.7462 27.3731C21.079 26.9273 20.559 26.2938 20.252 25.5525C19.9449 24.8112 19.8646 23.9955 20.0211 23.2086C20.1777 22.4216 20.564 21.6988 21.1314 21.1314C21.6988 20.564 22.4216 20.1777 23.2086 20.0211C23.9955 19.8646 24.8112 19.9449 25.5525 20.252C26.2938 20.559 26.9274 21.079 27.3731 21.7462C27.8189 22.4133 28.0568 23.1976 28.0568 24C28.0568 25.0759 27.6294 26.1078 26.8686 26.8686C26.1078 27.6294 25.0759 28.0568 24 28.0568ZM42.9318 25.3523C42.6643 25.3523 42.4029 25.273 42.1805 25.1244C41.9581 24.9758 41.7848 24.7646 41.6825 24.5175C41.5801 24.2704 41.5533 23.9985 41.6055 23.7362C41.6577 23.4739 41.7865 23.2329 41.9756 23.0438C42.1647 22.8547 42.4057 22.7259 42.668 22.6737C42.9303 22.6215 43.2022 22.6483 43.4493 22.7507C43.6964 22.853 43.9076 23.0263 44.0562 23.2487C44.2048 23.4711 44.2841 23.7325 44.2841 24C44.2841 24.3586 44.1416 24.7026 43.888 24.9562C43.6344 25.2098 43.2904 25.3523 42.9318 25.3523Z" fill="#0038FF" stroke="white"/>
</svg>
