<svg width="30" height="27" viewBox="0 0 30 27" fill="none" xmlns="http://www.w3.org/2000/svg">
<path fill-rule="evenodd" clip-rule="evenodd" d="M2.34375 0H27.6562C28.2776 0.000741 28.8733 0.246812 29.3127 0.684236C29.7521 1.12166 29.9993 1.71472 30 2.33333V19.1333C29.9993 19.7519 29.7521 20.345 29.3127 20.7824C28.8733 21.2199 28.2776 21.4659 27.6562 21.4667H20.0536C19.8565 21.4667 19.6617 21.508 19.4817 21.5878C19.3017 21.6677 19.1406 21.7843 19.0087 21.9301L15.3483 25.9789C15.3043 26.0274 15.2506 26.0663 15.1906 26.0929C15.1306 26.1195 15.0657 26.1332 15 26.1332C14.9343 26.1332 14.8694 26.1195 14.8094 26.0929C14.7494 26.0663 14.6957 26.0274 14.6517 25.9789L10.9913 21.9301C10.8594 21.7843 10.6983 21.6677 10.5183 21.5878C10.3383 21.508 10.1435 21.4667 9.94641 21.4667H2.34375C1.72238 21.4659 1.12667 21.2199 0.687291 20.7824C0.247913 20.345 0.000744308 19.7519 0 19.1333V2.33333C0.000744308 1.71472 0.247913 1.12166 0.687291 0.684236C1.12667 0.246812 1.72238 0.000741 2.34375 0ZM15.2378 4.86506C15.1629 4.63474 14.8371 4.63474 14.7622 4.86506L13.4845 8.79744C13.4511 8.90044 13.3551 8.97018 13.2468 8.97018H9.11203C8.86984 8.97018 8.76915 9.28009 8.96508 9.42244L12.3102 11.8528C12.3978 11.9164 12.4344 12.0293 12.401 12.1323L11.1233 16.0647C11.0484 16.295 11.312 16.4865 11.508 16.3442L14.8531 13.9138C14.9407 13.8502 15.0593 13.8502 15.1469 13.9138L18.492 16.3442C18.688 16.4865 18.9516 16.295 18.8767 16.0647L17.599 12.1323C17.5656 12.0293 17.6022 11.9164 17.6898 11.8528L21.0349 9.42244C21.2309 9.28009 21.1302 8.97018 20.888 8.97018H16.7532C16.6449 8.97018 16.5489 8.90044 16.5155 8.79744L15.2378 4.86506Z" fill="#0038FF"/>
</svg>
