<svg width="14" height="14" viewBox="0 0 22 22" fill="none" xmlns="http://www.w3.org/2000/svg">
<path fill-rule="evenodd" clip-rule="evenodd" d="M15.941 0.000226815C14.3678 -0.0134437 12.8522 0.591323 11.7206 1.68427L11.7103 1.69439L9.99027 3.40439C9.59861 3.79378 9.59676 4.42694 9.98615 4.8186C10.3755 5.21026 11.0087 5.21211 11.4004 4.82272L13.115 3.1181C13.8688 2.39246 14.8771 1.99106 15.9236 2.00015C16.9724 2.00926 17.9757 2.42994 18.7173 3.17157C19.4589 3.91321 19.8796 4.91646 19.8887 5.96524C19.8978 7.01129 19.4968 8.01917 18.7717 8.77294L15.7782 11.7665L15.7781 11.7666C15.3726 12.1722 14.8846 12.4859 14.3472 12.6864C13.8097 12.8869 13.2355 12.9694 12.6634 12.9284C12.0913 12.8875 11.5347 12.7239 11.0313 12.4489C10.528 12.1739 10.0896 11.7939 9.74608 11.3346C9.41527 10.8923 8.78858 10.802 8.34633 11.1328C7.90408 11.4636 7.81374 12.0903 8.14455 12.5325C8.65989 13.2215 9.31738 13.7916 10.0724 14.2041C10.8274 14.6166 11.6624 14.8619 12.5205 14.9233C13.3787 14.9848 14.2401 14.861 15.0462 14.5603C15.8523 14.2596 16.5843 13.789 17.1925 13.1805L20.1924 10.1807L20.2046 10.1683C21.2976 9.03666 21.9023 7.52104 21.8886 5.94786C21.875 4.37468 21.244 2.86981 20.1315 1.75736C19.0191 0.644911 17.5142 0.0138973 15.941 0.000226815ZM9.36834 6.9438C8.51017 6.88234 7.64882 7.00616 6.84271 7.30686C6.03666 7.60754 5.30469 8.07805 4.69645 8.68647L4.69632 8.6866L1.69645 11.6865L1.68427 11.6989C0.591322 12.8305 -0.0134437 14.3461 0.000226815 15.9193C0.0138973 17.4925 0.644911 18.9973 1.75736 20.1098C2.86981 21.2222 4.37468 21.8532 5.94786 21.8669C7.52104 21.8806 9.03666 21.2758 10.1683 20.1829L10.1807 20.1707L11.8907 18.4607C12.2812 18.0702 12.2812 17.437 11.8907 17.0465C11.5001 16.6559 10.867 16.6559 10.4765 17.0465L8.77292 18.75C8.01915 19.475 7.01129 19.8761 5.96524 19.867C4.91646 19.8579 3.91321 19.4372 3.17157 18.6956C2.42994 17.9539 2.00926 16.9507 2.00015 15.9019C1.99106 14.8558 2.39211 13.848 3.11715 13.0942L6.11067 10.1007L6.11079 10.1006C6.5163 9.6949 7.00431 9.3812 7.54172 9.18073C8.07913 8.98026 8.65336 8.89771 9.22547 8.93869C9.79759 8.97966 10.3542 9.1432 10.8576 9.4182C11.3609 9.69321 11.7992 10.0732 12.1428 10.5326C12.4736 10.9748 13.1003 11.0651 13.5425 10.7343C13.9848 10.4035 14.0751 9.77685 13.7443 9.3346C13.229 8.64564 12.5715 8.07558 11.8165 7.66307C11.0614 7.25056 10.2265 7.00526 9.36834 6.9438Z" fill="white"/>
</svg>
