<svg width="45" height="32" viewBox="0 0 45 32" fill="none" xmlns="http://www.w3.org/2000/svg">
<rect x="0.621094" y="5.27588" width="38.6864" height="26.7241" rx="4" fill="#0038FF"/>
<path fill-rule="evenodd" clip-rule="evenodd" d="M20.4159 15.5892C19.714 15.5892 19.0279 15.7942 18.4444 16.1781C17.8608 16.562 17.406 17.1076 17.1375 17.7459C16.8689 18.3843 16.7987 19.0867 16.9356 19.7643C17.0726 20.4419 17.4106 21.0644 17.9069 21.5529C18.4033 22.0415 19.0356 22.3741 19.724 22.5089C20.4123 22.6437 21.1259 22.5745 21.7743 22.3101C22.4227 22.0456 22.9769 21.5979 23.3669 21.0234C23.7568 20.4489 23.9649 19.7735 23.9649 19.0826C23.965 18.6238 23.8732 18.1695 23.6949 17.7456C23.5165 17.3217 23.2551 16.9365 22.9255 16.6121C22.596 16.2877 22.2047 16.0304 21.7741 15.8549C21.3435 15.6794 20.8819 15.5891 20.4159 15.5892ZM20.4159 21.6444C19.9012 21.6444 19.3981 21.4941 18.9701 21.2125C18.5422 20.931 18.2087 20.5309 18.0118 20.0628C17.8148 19.5946 17.7634 19.0795 17.8638 18.5826C17.9642 18.0857 18.2121 17.6292 18.5761 17.271C18.9401 16.9127 19.4038 16.6688 19.9086 16.5699C20.4134 16.4711 20.9366 16.5219 21.4121 16.7158C21.8877 16.9097 22.2941 17.238 22.58 17.6593C22.866 18.0806 23.0186 18.5759 23.0186 19.0826C23.0178 19.7619 22.7434 20.4131 22.2554 20.8934C21.7675 21.3737 21.1059 21.6438 20.4159 21.6444Z" fill="white"/>
<path fill-rule="evenodd" clip-rule="evenodd" d="M26.2028 22.2536L26.7469 22.7894C26.9834 23.0423 27.1089 23.3768 27.0959 23.7203C27.083 24.0638 26.9327 24.3883 26.6778 24.6232L26.0457 25.2455C25.8072 25.4966 25.4776 25.6448 25.1287 25.6579C24.7797 25.671 24.4396 25.548 24.1824 25.3156L23.6374 24.7783C23.169 25.0387 22.6705 25.2424 22.1525 25.3849V26.1425C22.1382 26.4862 21.9864 26.8103 21.7301 27.0441C21.4738 27.2778 21.1339 27.4022 20.7847 27.39H19.8922C19.543 27.4022 19.203 27.2779 18.9467 27.0441C18.6903 26.8104 18.5383 26.4862 18.524 26.1425V25.3849C18.0062 25.2423 17.5077 25.0387 17.0394 24.7786L16.496 25.3146C16.2387 25.5472 15.8987 25.6705 15.5497 25.6577C15.2006 25.6448 14.8709 25.497 14.632 25.2462L13.9998 24.6237C13.7444 24.3892 13.5935 24.0648 13.5801 23.7213C13.5667 23.3777 13.6919 23.0429 13.9284 22.7899L14.4739 22.2533C14.2097 21.7922 14.0029 21.3013 13.858 20.7914H13.0886C12.7395 20.7775 12.4102 20.628 12.1727 20.3758C11.9352 20.1235 11.8088 19.7889 11.8211 19.4452V18.5661C11.8088 18.2225 11.9352 17.8879 12.1728 17.6357C12.4103 17.3836 12.7396 17.2342 13.0886 17.2203H13.858C14.0027 16.7105 14.2094 16.2197 14.4737 15.7587L13.9289 15.2225C13.6921 14.9695 13.5666 14.6345 13.5801 14.2907C13.5935 13.9469 13.7447 13.6223 14.0005 13.388L14.631 12.7665C14.8695 12.515 15.1994 12.3666 15.5486 12.3536C15.8978 12.3405 16.2381 12.4639 16.4953 12.6969L17.0391 13.2326C17.5074 12.9724 18.006 12.7689 18.524 12.6266V11.8694C18.5383 11.5256 18.6902 11.2014 18.9466 10.9675C19.203 10.7337 19.5429 10.6093 19.8922 10.6216H20.7847C21.134 10.6094 21.4739 10.7338 21.7302 10.9676C21.9865 11.2015 22.1383 11.5257 22.1525 11.8694V12.6266C22.6705 12.7689 23.1691 12.9724 23.6373 13.2327L24.1819 12.697C24.4387 12.4639 24.7789 12.3402 25.128 12.3531C25.4771 12.366 25.8069 12.5144 26.0452 12.7658L26.6774 13.3889C26.9324 13.6235 27.0829 13.9479 27.096 14.2913C27.1091 14.6346 26.9838 14.9692 26.7474 15.222L26.2028 15.7584C26.4672 16.2195 26.674 16.7103 26.8185 17.2203H27.5872C27.9363 17.2341 28.2657 17.3834 28.5033 17.6356C28.7409 17.8878 28.8674 18.2224 28.8551 18.5661V19.4452C28.8674 19.789 28.741 20.1236 28.5034 20.3759C28.2658 20.6281 27.9364 20.7775 27.5872 20.7914H26.8185C26.6736 21.3013 26.4669 21.7923 26.2028 22.2536ZM25.3771 24.5862L26.0081 23.965C26.0841 23.9036 26.1336 23.816 26.1465 23.72C26.1595 23.6239 26.1348 23.5267 26.0776 23.4478L25.2724 22.655C25.1962 22.58 25.1483 22.4815 25.1366 22.376C25.1249 22.2705 25.1502 22.1643 25.2082 22.0748C25.577 21.5089 25.8406 20.8828 25.9866 20.226C26.0097 20.1222 26.0681 20.0293 26.1522 19.9627C26.2363 19.8961 26.341 19.8598 26.4489 19.8598H27.5872C27.6843 19.844 27.7717 19.7922 27.8314 19.7152C27.8912 19.6382 27.9189 19.5416 27.9088 19.4452V18.5661C27.9188 18.4698 27.8912 18.3732 27.8314 18.2963C27.7716 18.2193 27.6843 18.1676 27.5872 18.1519H26.4489C26.3409 18.1518 26.2363 18.1155 26.1522 18.0489C26.0681 17.9823 26.0097 17.8894 25.9866 17.7856C25.8408 17.1291 25.5774 16.5034 25.2087 15.9379C25.1504 15.8485 25.125 15.7422 25.1365 15.6366C25.1481 15.531 25.196 15.4325 25.2722 15.3574L26.0776 14.5638C26.1349 14.4851 26.1595 14.3879 26.1466 14.2919C26.1336 14.1959 26.084 14.1084 26.0078 14.0472L25.3764 13.4247C25.3142 13.3497 25.2252 13.3007 25.1277 13.2879C25.0301 13.2751 24.9313 13.2993 24.8512 13.3557L24.0451 14.1487C23.9689 14.2238 23.8688 14.2709 23.7616 14.2824C23.6544 14.2938 23.5464 14.2688 23.4555 14.2116C22.8811 13.8485 22.2455 13.5892 21.5786 13.4459C21.4731 13.4232 21.3786 13.3658 21.3108 13.283C21.2431 13.2002 21.2061 13.0971 21.2062 12.9908V11.8694C21.1899 11.7738 21.1373 11.6879 21.0591 11.6291C20.9808 11.5704 20.8827 11.5432 20.7847 11.5531H19.8922C19.6635 11.5531 19.4704 11.698 19.4704 11.8694V12.9908C19.4704 13.0971 19.4334 13.2002 19.3657 13.283C19.2979 13.3658 19.2034 13.4232 19.0979 13.4459C18.431 13.5891 17.7953 13.8484 17.221 14.2116C17.1301 14.2689 17.022 14.2939 16.9147 14.2824C16.8075 14.2709 16.7074 14.2237 16.6311 14.1485L15.8262 13.3557C15.7458 13.2994 15.6467 13.2753 15.549 13.2883C15.4513 13.3013 15.3622 13.3503 15.2999 13.4255L14.6694 14.0471C14.5929 14.1082 14.5429 14.1957 14.5298 14.2919C14.5166 14.388 14.5413 14.4854 14.5987 14.5643L15.4043 15.3571C15.4806 15.4322 15.5286 15.5308 15.5402 15.6364C15.5518 15.742 15.5265 15.8483 15.4683 15.9378C15.0993 16.5031 14.8358 17.1288 14.6902 17.7854C14.6672 17.8892 14.6088 17.9822 14.5247 18.0488C14.4406 18.1155 14.3358 18.1519 14.2279 18.1519H13.0886C12.9916 18.1678 12.9044 18.2194 12.8447 18.2964C12.7851 18.3734 12.7574 18.4698 12.7675 18.5661V19.4452C12.7574 19.5415 12.785 19.638 12.8447 19.7151C12.9043 19.7921 12.9916 19.8439 13.0886 19.8598H14.2279C14.3359 19.8598 14.4406 19.8962 14.5247 19.9629C14.6088 20.0296 14.6672 20.1226 14.6902 20.2264C14.8362 20.8831 15.0998 21.509 15.4685 22.0748C15.5266 22.1643 15.5519 22.2706 15.5402 22.3762C15.5285 22.4817 15.4806 22.5802 15.4043 22.6552L14.598 23.4483C14.541 23.5272 14.5166 23.6244 14.5298 23.7204C14.5429 23.8163 14.5927 23.9037 14.6689 23.9648L15.3006 24.5869C15.3632 24.6619 15.4524 24.7107 15.5502 24.7235C15.648 24.7362 15.747 24.7119 15.8273 24.6555L16.6309 23.8627C16.7072 23.7874 16.8074 23.74 16.9148 23.7285C17.0223 23.717 17.1305 23.742 17.2214 23.7995C17.7958 24.1629 18.4314 24.4224 19.0984 24.5659C19.2038 24.5887 19.2981 24.6462 19.3658 24.729C19.4334 24.8117 19.4703 24.9148 19.4704 25.021V26.1425C19.4704 26.3138 19.6635 26.4584 19.8922 26.4584H20.7847C21.0132 26.4584 21.2062 26.3138 21.2062 26.1425V25.021C21.2062 24.9148 21.2431 24.8117 21.3107 24.729C21.3784 24.6462 21.4727 24.5887 21.5781 24.5659C22.2452 24.4223 22.8808 24.1627 23.4553 23.7995C23.5462 23.742 23.6543 23.717 23.7616 23.7284C23.869 23.7399 23.9691 23.7872 24.0454 23.8625L24.8512 24.6567C24.9317 24.7127 25.0307 24.7365 25.1283 24.7234C25.2259 24.7104 25.3148 24.6613 25.3771 24.5862Z" fill="white"/>
<mask id="path-3-outside-1_1596:2161" maskUnits="userSpaceOnUse" x="30.1602" y="0" width="15" height="15" fill="black">
<rect fill="white" x="30.1602" width="15" height="15"/>
<path fill-rule="evenodd" clip-rule="evenodd" d="M37.3243 4.80039C36.821 4.80044 36.3289 4.9572 35.9105 5.25084C35.492 5.54449 35.1658 5.96184 34.9732 6.45011C34.7807 6.93839 34.7303 7.47566 34.8285 7.99399C34.9267 8.51233 35.1691 8.98844 35.525 9.36212C35.881 9.73581 36.3344 9.99028 36.8281 10.0934C37.3217 10.1965 37.8334 10.1435 38.2984 9.94127C38.7634 9.73901 39.1609 9.39652 39.4405 8.95709C39.7202 8.51766 39.8694 8.00104 39.8694 7.47254C39.8694 7.1216 39.8036 6.77409 39.6757 6.44985C39.5479 6.12562 39.3604 5.83101 39.124 5.58287C38.8877 5.33473 38.6071 5.1379 38.2983 5.00364C37.9895 4.86938 37.6585 4.80032 37.3243 4.80039ZM37.3243 9.43212C36.9552 9.43208 36.5944 9.31711 36.2875 9.10176C35.9806 8.88641 35.7414 8.58035 35.6002 8.22228C35.459 7.86422 35.4221 7.47022 35.4941 7.09011C35.5661 6.71 35.7439 6.36086 36.0049 6.08683C36.2659 5.8128 36.5985 5.6262 36.9605 5.5506C37.3225 5.47501 37.6977 5.51383 38.0387 5.66215C38.3797 5.81047 38.6712 6.06164 38.8763 6.38388C39.0813 6.70613 39.1908 7.08499 39.1908 7.47254C39.1902 7.99213 38.9934 8.49026 38.6435 8.85764C38.2936 9.22502 37.8191 9.43163 37.3243 9.43212Z"/>
<path fill-rule="evenodd" clip-rule="evenodd" d="M41.4743 9.89806L41.8644 10.3079C42.0341 10.5013 42.124 10.7573 42.1148 11.02C42.1055 11.2827 41.9977 11.531 41.8149 11.7106L41.3616 12.1866C41.1906 12.3787 40.9542 12.492 40.704 12.5021C40.4537 12.5121 40.2098 12.418 40.0253 12.2402L39.6345 11.8293C39.2987 12.0284 38.9411 12.1842 38.5697 12.2933V12.8727C38.5594 13.1356 38.4505 13.3835 38.2667 13.5623C38.0829 13.7411 37.8392 13.8363 37.5888 13.827H36.9488C36.6983 13.8363 36.4545 13.7412 36.2707 13.5624C36.0868 13.3836 35.9778 13.1357 35.9676 12.8727V12.2933C35.5962 12.1842 35.2387 12.0284 34.9029 11.8294L34.5132 12.2395C34.3287 12.4174 34.0849 12.5117 33.8346 12.5019C33.5843 12.4921 33.3478 12.379 33.1765 12.1871L32.7232 11.711C32.5399 11.5316 32.4317 11.2835 32.4221 11.0207C32.4125 10.7579 32.5024 10.5018 32.672 10.3083L33.0631 9.89789C32.8737 9.54512 32.7253 9.16965 32.6214 8.77962H32.0697C31.8193 8.76897 31.5832 8.65467 31.4128 8.46171C31.2425 8.26875 31.1519 8.01283 31.1608 7.7499V7.07751C31.1519 6.81462 31.2426 6.55875 31.4129 6.36584C31.5832 6.17294 31.8194 6.05869 32.0697 6.04807H32.6214C32.7252 5.65808 32.8734 5.28269 33.063 4.93006L32.6723 4.51993C32.5024 4.32642 32.4125 4.07015 32.4221 3.80718C32.4317 3.54422 32.5402 3.29595 32.7237 3.1167L33.1758 2.64133C33.3468 2.44898 33.5834 2.33543 33.8338 2.32546C34.0843 2.31549 34.3283 2.40989 34.5127 2.58809L34.9027 2.99787C35.2386 2.79878 35.5961 2.64313 35.9676 2.53433V1.95511C35.9778 1.69215 36.0867 1.44414 36.2706 1.26528C36.4545 1.08643 36.6983 0.991276 36.9488 1.00063H37.5888C37.8392 0.991317 38.083 1.08649 38.2668 1.26535C38.4506 1.44421 38.5595 1.6922 38.5696 1.95511V2.53433C38.9411 2.64314 39.2987 2.79882 39.6345 2.99795L40.025 2.58817C40.2092 2.40983 40.4531 2.31526 40.7035 2.32512C40.9538 2.33498 41.1903 2.44847 41.3613 2.6408L41.8146 3.11739C41.9975 3.29685 42.1054 3.54495 42.1148 3.80762C42.1242 4.07028 42.0343 4.3262 41.8648 4.51957L41.4743 4.92987C41.6639 5.28253 41.8121 5.65799 41.9158 6.04805H42.467C42.7174 6.05862 42.9536 6.17285 43.124 6.36576C43.2944 6.55867 43.3851 6.81457 43.3763 7.07751V7.7499C43.3851 8.01288 43.2944 8.26882 43.1241 8.46178C42.9537 8.65474 42.7174 8.76902 42.467 8.77962H41.9158C41.8119 9.16968 41.6636 9.54519 41.4743 9.89806ZM40.8821 11.6823L41.3346 11.2072C41.3891 11.1602 41.4246 11.0932 41.4339 11.0197C41.4432 10.9463 41.4255 10.8719 41.3845 10.8116L40.8071 10.2051C40.7524 10.1477 40.718 10.0724 40.7097 9.99173C40.7013 9.91103 40.7194 9.82974 40.761 9.76132C41.0255 9.32842 41.2145 8.84956 41.3192 8.34713C41.3358 8.26776 41.3777 8.19672 41.438 8.14578C41.4983 8.09484 41.5733 8.06706 41.6507 8.06704H42.467C42.5367 8.05492 42.5993 8.01537 42.6422 7.95644C42.685 7.89752 42.7049 7.82365 42.6977 7.7499V7.07751C42.7049 7.00379 42.685 6.92996 42.6422 6.87108C42.5993 6.8122 42.5367 6.7727 42.467 6.76063H41.6507C41.5733 6.76061 41.4982 6.73282 41.4379 6.68187C41.3776 6.63091 41.3357 6.55984 41.3192 6.48045C41.2147 5.97829 41.0258 5.49971 40.7613 5.06714C40.7196 4.99876 40.7013 4.91745 40.7096 4.83668C40.7179 4.75592 40.7522 4.68056 40.8069 4.62309L41.3845 4.01611C41.4255 3.95591 41.4432 3.88154 41.4339 3.80813C41.4246 3.73471 41.3891 3.66778 41.3344 3.62094L40.8816 3.14479C40.837 3.08738 40.7732 3.04996 40.7033 3.04016C40.6333 3.03035 40.5624 3.04888 40.505 3.09199L39.9269 3.69861C39.8722 3.75601 39.8005 3.79206 39.7236 3.80081C39.6467 3.80956 39.5693 3.79047 39.5041 3.74671C39.0922 3.46894 38.6364 3.27058 38.1581 3.16097C38.0824 3.14367 38.0147 3.0997 37.9661 3.03638C37.9175 2.97305 37.891 2.89418 37.891 2.81286V1.95511C37.8794 1.88199 37.8417 1.81627 37.7855 1.77133C37.7294 1.72638 37.659 1.7056 37.5888 1.7132H36.9488C36.7847 1.7132 36.6462 1.82402 36.6462 1.95511V2.81287C36.6462 2.89418 36.6197 2.97305 36.5711 3.03637C36.5226 3.0997 36.4548 3.14366 36.3791 3.16097C35.9008 3.27054 35.445 3.4689 35.0331 3.74672C34.9679 3.79051 34.8904 3.8096 34.8135 3.80082C34.7366 3.79204 34.6648 3.75592 34.6101 3.69844L34.0329 3.09199C33.9753 3.04896 33.9042 3.03054 33.8341 3.04045C33.764 3.05037 33.7002 3.08788 33.6554 3.1454L33.2033 3.62085C33.1484 3.66759 33.1126 3.73456 33.1032 3.80809C33.0938 3.88162 33.1114 3.95615 33.1526 4.01645L33.7303 4.62291C33.7851 4.68036 33.8194 4.75572 33.8278 4.83649C33.8361 4.91727 33.8179 4.99861 33.7762 5.06705C33.5116 5.4995 33.3226 5.97808 33.2182 6.48028C33.2017 6.55971 33.1598 6.63083 33.0995 6.68183C33.0392 6.73282 32.9641 6.76063 32.8867 6.76063H32.0697C32.0001 6.77278 31.9376 6.81232 31.8948 6.87119C31.852 6.93006 31.8322 7.00384 31.8394 7.07751V7.7499C31.8322 7.8236 31.852 7.89742 31.8948 7.95634C31.9375 8.01526 32.0001 8.05484 32.0697 8.06705H32.8867C32.9641 8.06705 33.0392 8.09487 33.0996 8.14588C33.1599 8.1969 33.2017 8.26803 33.2182 8.34749C33.3229 8.8498 33.5119 9.32854 33.7764 9.76133C33.8181 9.82976 33.8362 9.91108 33.8278 9.99182C33.8194 10.0726 33.7851 10.1479 33.7303 10.2053L33.1521 10.8119C33.1112 10.8722 33.0937 10.9466 33.1032 11.02C33.1126 11.0934 33.1483 11.1602 33.203 11.207L33.656 11.6828C33.7009 11.7402 33.7648 11.7775 33.835 11.7873C33.9051 11.7971 33.9761 11.7785 34.0337 11.7353L34.61 11.1289C34.6647 11.0713 34.7365 11.035 34.8136 11.0262C34.8906 11.0174 34.9682 11.0366 35.0335 11.0805C35.4453 11.3585 35.9011 11.557 36.3795 11.6668C36.4551 11.6842 36.5227 11.7282 36.5712 11.7915C36.6198 11.8548 36.6462 11.9336 36.6462 12.0149V12.8727C36.6462 13.0037 36.7847 13.1144 36.9488 13.1144H37.5888C37.7527 13.1144 37.891 13.0037 37.891 12.8727V12.0149C37.891 11.9336 37.9175 11.8548 37.966 11.7915C38.0145 11.7282 38.0822 11.6842 38.1578 11.6668C38.6361 11.5569 39.092 11.3584 39.504 11.0805C39.5691 11.0366 39.6466 11.0174 39.7236 11.0262C39.8006 11.035 39.8724 11.0711 39.9271 11.1287L40.505 11.7362C40.5627 11.779 40.6337 11.7973 40.7037 11.7873C40.7737 11.7773 40.8375 11.7397 40.8821 11.6823Z"/>
</mask>
<path fill-rule="evenodd" clip-rule="evenodd" d="M37.3243 4.80039C36.821 4.80044 36.3289 4.9572 35.9105 5.25084C35.492 5.54449 35.1658 5.96184 34.9732 6.45011C34.7807 6.93839 34.7303 7.47566 34.8285 7.99399C34.9267 8.51233 35.1691 8.98844 35.525 9.36212C35.881 9.73581 36.3344 9.99028 36.8281 10.0934C37.3217 10.1965 37.8334 10.1435 38.2984 9.94127C38.7634 9.73901 39.1609 9.39652 39.4405 8.95709C39.7202 8.51766 39.8694 8.00104 39.8694 7.47254C39.8694 7.1216 39.8036 6.77409 39.6757 6.44985C39.5479 6.12562 39.3604 5.83101 39.124 5.58287C38.8877 5.33473 38.6071 5.1379 38.2983 5.00364C37.9895 4.86938 37.6585 4.80032 37.3243 4.80039ZM37.3243 9.43212C36.9552 9.43208 36.5944 9.31711 36.2875 9.10176C35.9806 8.88641 35.7414 8.58035 35.6002 8.22228C35.459 7.86422 35.4221 7.47022 35.4941 7.09011C35.5661 6.71 35.7439 6.36086 36.0049 6.08683C36.2659 5.8128 36.5985 5.6262 36.9605 5.5506C37.3225 5.47501 37.6977 5.51383 38.0387 5.66215C38.3797 5.81047 38.6712 6.06164 38.8763 6.38388C39.0813 6.70613 39.1908 7.08499 39.1908 7.47254C39.1902 7.99213 38.9934 8.49026 38.6435 8.85764C38.2936 9.22502 37.8191 9.43163 37.3243 9.43212Z" fill="white"/>
<path fill-rule="evenodd" clip-rule="evenodd" d="M41.4743 9.89806L41.8644 10.3079C42.0341 10.5013 42.124 10.7573 42.1148 11.02C42.1055 11.2827 41.9977 11.531 41.8149 11.7106L41.3616 12.1866C41.1906 12.3787 40.9542 12.492 40.704 12.5021C40.4537 12.5121 40.2098 12.418 40.0253 12.2402L39.6345 11.8293C39.2987 12.0284 38.9411 12.1842 38.5697 12.2933V12.8727C38.5594 13.1356 38.4505 13.3835 38.2667 13.5623C38.0829 13.7411 37.8392 13.8363 37.5888 13.827H36.9488C36.6983 13.8363 36.4545 13.7412 36.2707 13.5624C36.0868 13.3836 35.9778 13.1357 35.9676 12.8727V12.2933C35.5962 12.1842 35.2387 12.0284 34.9029 11.8294L34.5132 12.2395C34.3287 12.4174 34.0849 12.5117 33.8346 12.5019C33.5843 12.4921 33.3478 12.379 33.1765 12.1871L32.7232 11.711C32.5399 11.5316 32.4317 11.2835 32.4221 11.0207C32.4125 10.7579 32.5024 10.5018 32.672 10.3083L33.0631 9.89789C32.8737 9.54512 32.7253 9.16965 32.6214 8.77962H32.0697C31.8193 8.76897 31.5832 8.65467 31.4128 8.46171C31.2425 8.26875 31.1519 8.01283 31.1608 7.7499V7.07751C31.1519 6.81462 31.2426 6.55875 31.4129 6.36584C31.5832 6.17294 31.8194 6.05869 32.0697 6.04807H32.6214C32.7252 5.65808 32.8734 5.28269 33.063 4.93006L32.6723 4.51993C32.5024 4.32642 32.4125 4.07015 32.4221 3.80718C32.4317 3.54422 32.5402 3.29595 32.7237 3.1167L33.1758 2.64133C33.3468 2.44898 33.5834 2.33543 33.8338 2.32546C34.0843 2.31549 34.3283 2.40989 34.5127 2.58809L34.9027 2.99787C35.2386 2.79878 35.5961 2.64313 35.9676 2.53433V1.95511C35.9778 1.69215 36.0867 1.44414 36.2706 1.26528C36.4545 1.08643 36.6983 0.991276 36.9488 1.00063H37.5888C37.8392 0.991317 38.083 1.08649 38.2668 1.26535C38.4506 1.44421 38.5595 1.6922 38.5696 1.95511V2.53433C38.9411 2.64314 39.2987 2.79882 39.6345 2.99795L40.025 2.58817C40.2092 2.40983 40.4531 2.31526 40.7035 2.32512C40.9538 2.33498 41.1903 2.44847 41.3613 2.6408L41.8146 3.11739C41.9975 3.29685 42.1054 3.54495 42.1148 3.80762C42.1242 4.07028 42.0343 4.3262 41.8648 4.51957L41.4743 4.92987C41.6639 5.28253 41.8121 5.65799 41.9158 6.04805H42.467C42.7174 6.05862 42.9536 6.17285 43.124 6.36576C43.2944 6.55867 43.3851 6.81457 43.3763 7.07751V7.7499C43.3851 8.01288 43.2944 8.26882 43.1241 8.46178C42.9537 8.65474 42.7174 8.76902 42.467 8.77962H41.9158C41.8119 9.16968 41.6636 9.54519 41.4743 9.89806ZM40.8821 11.6823L41.3346 11.2072C41.3891 11.1602 41.4246 11.0932 41.4339 11.0197C41.4432 10.9463 41.4255 10.8719 41.3845 10.8116L40.8071 10.2051C40.7524 10.1477 40.718 10.0724 40.7097 9.99173C40.7013 9.91103 40.7194 9.82974 40.761 9.76132C41.0255 9.32842 41.2145 8.84956 41.3192 8.34713C41.3358 8.26776 41.3777 8.19672 41.438 8.14578C41.4983 8.09484 41.5733 8.06706 41.6507 8.06704H42.467C42.5367 8.05492 42.5993 8.01537 42.6422 7.95644C42.685 7.89752 42.7049 7.82365 42.6977 7.7499V7.07751C42.7049 7.00379 42.685 6.92996 42.6422 6.87108C42.5993 6.8122 42.5367 6.7727 42.467 6.76063H41.6507C41.5733 6.76061 41.4982 6.73282 41.4379 6.68187C41.3776 6.63091 41.3357 6.55984 41.3192 6.48045C41.2147 5.97829 41.0258 5.49971 40.7613 5.06714C40.7196 4.99876 40.7013 4.91745 40.7096 4.83668C40.7179 4.75592 40.7522 4.68056 40.8069 4.62309L41.3845 4.01611C41.4255 3.95591 41.4432 3.88154 41.4339 3.80813C41.4246 3.73471 41.3891 3.66778 41.3344 3.62094L40.8816 3.14479C40.837 3.08738 40.7732 3.04996 40.7033 3.04016C40.6333 3.03035 40.5624 3.04888 40.505 3.09199L39.9269 3.69861C39.8722 3.75601 39.8005 3.79206 39.7236 3.80081C39.6467 3.80956 39.5693 3.79047 39.5041 3.74671C39.0922 3.46894 38.6364 3.27058 38.1581 3.16097C38.0824 3.14367 38.0147 3.0997 37.9661 3.03638C37.9175 2.97305 37.891 2.89418 37.891 2.81286V1.95511C37.8794 1.88199 37.8417 1.81627 37.7855 1.77133C37.7294 1.72638 37.659 1.7056 37.5888 1.7132H36.9488C36.7847 1.7132 36.6462 1.82402 36.6462 1.95511V2.81287C36.6462 2.89418 36.6197 2.97305 36.5711 3.03637C36.5226 3.0997 36.4548 3.14366 36.3791 3.16097C35.9008 3.27054 35.445 3.4689 35.0331 3.74672C34.9679 3.79051 34.8904 3.8096 34.8135 3.80082C34.7366 3.79204 34.6648 3.75592 34.6101 3.69844L34.0329 3.09199C33.9753 3.04896 33.9042 3.03054 33.8341 3.04045C33.764 3.05037 33.7002 3.08788 33.6554 3.1454L33.2033 3.62085C33.1484 3.66759 33.1126 3.73456 33.1032 3.80809C33.0938 3.88162 33.1114 3.95615 33.1526 4.01645L33.7303 4.62291C33.7851 4.68036 33.8194 4.75572 33.8278 4.83649C33.8361 4.91727 33.8179 4.99861 33.7762 5.06705C33.5116 5.4995 33.3226 5.97808 33.2182 6.48028C33.2017 6.55971 33.1598 6.63083 33.0995 6.68183C33.0392 6.73282 32.9641 6.76063 32.8867 6.76063H32.0697C32.0001 6.77278 31.9376 6.81232 31.8948 6.87119C31.852 6.93006 31.8322 7.00384 31.8394 7.07751V7.7499C31.8322 7.8236 31.852 7.89742 31.8948 7.95634C31.9375 8.01526 32.0001 8.05484 32.0697 8.06705H32.8867C32.9641 8.06705 33.0392 8.09487 33.0996 8.14588C33.1599 8.1969 33.2017 8.26803 33.2182 8.34749C33.3229 8.8498 33.5119 9.32854 33.7764 9.76133C33.8181 9.82976 33.8362 9.91108 33.8278 9.99182C33.8194 10.0726 33.7851 10.1479 33.7303 10.2053L33.1521 10.8119C33.1112 10.8722 33.0937 10.9466 33.1032 11.02C33.1126 11.0934 33.1483 11.1602 33.203 11.207L33.656 11.6828C33.7009 11.7402 33.7648 11.7775 33.835 11.7873C33.9051 11.7971 33.9761 11.7785 34.0337 11.7353L34.61 11.1289C34.6647 11.0713 34.7365 11.035 34.8136 11.0262C34.8906 11.0174 34.9682 11.0366 35.0335 11.0805C35.4453 11.3585 35.9011 11.557 36.3795 11.6668C36.4551 11.6842 36.5227 11.7282 36.5712 11.7915C36.6198 11.8548 36.6462 11.9336 36.6462 12.0149V12.8727C36.6462 13.0037 36.7847 13.1144 36.9488 13.1144H37.5888C37.7527 13.1144 37.891 13.0037 37.891 12.8727V12.0149C37.891 11.9336 37.9175 11.8548 37.966 11.7915C38.0145 11.7282 38.0822 11.6842 38.1578 11.6668C38.6361 11.5569 39.092 11.3584 39.504 11.0805C39.5691 11.0366 39.6466 11.0174 39.7236 11.0262C39.8006 11.035 39.8724 11.0711 39.9271 11.1287L40.505 11.7362C40.5627 11.779 40.6337 11.7973 40.7037 11.7873C40.7737 11.7773 40.8375 11.7397 40.8821 11.6823Z" fill="white"/>
<path fill-rule="evenodd" clip-rule="evenodd" d="M37.3243 4.80039C36.821 4.80044 36.3289 4.9572 35.9105 5.25084C35.492 5.54449 35.1658 5.96184 34.9732 6.45011C34.7807 6.93839 34.7303 7.47566 34.8285 7.99399C34.9267 8.51233 35.1691 8.98844 35.525 9.36212C35.881 9.73581 36.3344 9.99028 36.8281 10.0934C37.3217 10.1965 37.8334 10.1435 38.2984 9.94127C38.7634 9.73901 39.1609 9.39652 39.4405 8.95709C39.7202 8.51766 39.8694 8.00104 39.8694 7.47254C39.8694 7.1216 39.8036 6.77409 39.6757 6.44985C39.5479 6.12562 39.3604 5.83101 39.124 5.58287C38.8877 5.33473 38.6071 5.1379 38.2983 5.00364C37.9895 4.86938 37.6585 4.80032 37.3243 4.80039ZM37.3243 9.43212C36.9552 9.43208 36.5944 9.31711 36.2875 9.10176C35.9806 8.88641 35.7414 8.58035 35.6002 8.22228C35.459 7.86422 35.4221 7.47022 35.4941 7.09011C35.5661 6.71 35.7439 6.36086 36.0049 6.08683C36.2659 5.8128 36.5985 5.6262 36.9605 5.5506C37.3225 5.47501 37.6977 5.51383 38.0387 5.66215C38.3797 5.81047 38.6712 6.06164 38.8763 6.38388C39.0813 6.70613 39.1908 7.08499 39.1908 7.47254C39.1902 7.99213 38.9934 8.49026 38.6435 8.85764C38.2936 9.22502 37.8191 9.43163 37.3243 9.43212Z" stroke="#0038FF" stroke-width="2" mask="url(#path-3-outside-1_1596:2161)"/>
<path fill-rule="evenodd" clip-rule="evenodd" d="M41.4743 9.89806L41.8644 10.3079C42.0341 10.5013 42.124 10.7573 42.1148 11.02C42.1055 11.2827 41.9977 11.531 41.8149 11.7106L41.3616 12.1866C41.1906 12.3787 40.9542 12.492 40.704 12.5021C40.4537 12.5121 40.2098 12.418 40.0253 12.2402L39.6345 11.8293C39.2987 12.0284 38.9411 12.1842 38.5697 12.2933V12.8727C38.5594 13.1356 38.4505 13.3835 38.2667 13.5623C38.0829 13.7411 37.8392 13.8363 37.5888 13.827H36.9488C36.6983 13.8363 36.4545 13.7412 36.2707 13.5624C36.0868 13.3836 35.9778 13.1357 35.9676 12.8727V12.2933C35.5962 12.1842 35.2387 12.0284 34.9029 11.8294L34.5132 12.2395C34.3287 12.4174 34.0849 12.5117 33.8346 12.5019C33.5843 12.4921 33.3478 12.379 33.1765 12.1871L32.7232 11.711C32.5399 11.5316 32.4317 11.2835 32.4221 11.0207C32.4125 10.7579 32.5024 10.5018 32.672 10.3083L33.0631 9.89789C32.8737 9.54512 32.7253 9.16965 32.6214 8.77962H32.0697C31.8193 8.76897 31.5832 8.65467 31.4128 8.46171C31.2425 8.26875 31.1519 8.01283 31.1608 7.7499V7.07751C31.1519 6.81462 31.2426 6.55875 31.4129 6.36584C31.5832 6.17294 31.8194 6.05869 32.0697 6.04807H32.6214C32.7252 5.65808 32.8734 5.28269 33.063 4.93006L32.6723 4.51993C32.5024 4.32642 32.4125 4.07015 32.4221 3.80718C32.4317 3.54422 32.5402 3.29595 32.7237 3.1167L33.1758 2.64133C33.3468 2.44898 33.5834 2.33543 33.8338 2.32546C34.0843 2.31549 34.3283 2.40989 34.5127 2.58809L34.9027 2.99787C35.2386 2.79878 35.5961 2.64313 35.9676 2.53433V1.95511C35.9778 1.69215 36.0867 1.44414 36.2706 1.26528C36.4545 1.08643 36.6983 0.991276 36.9488 1.00063H37.5888C37.8392 0.991317 38.083 1.08649 38.2668 1.26535C38.4506 1.44421 38.5595 1.6922 38.5696 1.95511V2.53433C38.9411 2.64314 39.2987 2.79882 39.6345 2.99795L40.025 2.58817C40.2092 2.40983 40.4531 2.31526 40.7035 2.32512C40.9538 2.33498 41.1903 2.44847 41.3613 2.6408L41.8146 3.11739C41.9975 3.29685 42.1054 3.54495 42.1148 3.80762C42.1242 4.07028 42.0343 4.3262 41.8648 4.51957L41.4743 4.92987C41.6639 5.28253 41.8121 5.65799 41.9158 6.04805H42.467C42.7174 6.05862 42.9536 6.17285 43.124 6.36576C43.2944 6.55867 43.3851 6.81457 43.3763 7.07751V7.7499C43.3851 8.01288 43.2944 8.26882 43.1241 8.46178C42.9537 8.65474 42.7174 8.76902 42.467 8.77962H41.9158C41.8119 9.16968 41.6636 9.54519 41.4743 9.89806ZM40.8821 11.6823L41.3346 11.2072C41.3891 11.1602 41.4246 11.0932 41.4339 11.0197C41.4432 10.9463 41.4255 10.8719 41.3845 10.8116L40.8071 10.2051C40.7524 10.1477 40.718 10.0724 40.7097 9.99173C40.7013 9.91103 40.7194 9.82974 40.761 9.76132C41.0255 9.32842 41.2145 8.84956 41.3192 8.34713C41.3358 8.26776 41.3777 8.19672 41.438 8.14578C41.4983 8.09484 41.5733 8.06706 41.6507 8.06704H42.467C42.5367 8.05492 42.5993 8.01537 42.6422 7.95644C42.685 7.89752 42.7049 7.82365 42.6977 7.7499V7.07751C42.7049 7.00379 42.685 6.92996 42.6422 6.87108C42.5993 6.8122 42.5367 6.7727 42.467 6.76063H41.6507C41.5733 6.76061 41.4982 6.73282 41.4379 6.68187C41.3776 6.63091 41.3357 6.55984 41.3192 6.48045C41.2147 5.97829 41.0258 5.49971 40.7613 5.06714C40.7196 4.99876 40.7013 4.91745 40.7096 4.83668C40.7179 4.75592 40.7522 4.68056 40.8069 4.62309L41.3845 4.01611C41.4255 3.95591 41.4432 3.88154 41.4339 3.80813C41.4246 3.73471 41.3891 3.66778 41.3344 3.62094L40.8816 3.14479C40.837 3.08738 40.7732 3.04996 40.7033 3.04016C40.6333 3.03035 40.5624 3.04888 40.505 3.09199L39.9269 3.69861C39.8722 3.75601 39.8005 3.79206 39.7236 3.80081C39.6467 3.80956 39.5693 3.79047 39.5041 3.74671C39.0922 3.46894 38.6364 3.27058 38.1581 3.16097C38.0824 3.14367 38.0147 3.0997 37.9661 3.03638C37.9175 2.97305 37.891 2.89418 37.891 2.81286V1.95511C37.8794 1.88199 37.8417 1.81627 37.7855 1.77133C37.7294 1.72638 37.659 1.7056 37.5888 1.7132H36.9488C36.7847 1.7132 36.6462 1.82402 36.6462 1.95511V2.81287C36.6462 2.89418 36.6197 2.97305 36.5711 3.03637C36.5226 3.0997 36.4548 3.14366 36.3791 3.16097C35.9008 3.27054 35.445 3.4689 35.0331 3.74672C34.9679 3.79051 34.8904 3.8096 34.8135 3.80082C34.7366 3.79204 34.6648 3.75592 34.6101 3.69844L34.0329 3.09199C33.9753 3.04896 33.9042 3.03054 33.8341 3.04045C33.764 3.05037 33.7002 3.08788 33.6554 3.1454L33.2033 3.62085C33.1484 3.66759 33.1126 3.73456 33.1032 3.80809C33.0938 3.88162 33.1114 3.95615 33.1526 4.01645L33.7303 4.62291C33.7851 4.68036 33.8194 4.75572 33.8278 4.83649C33.8361 4.91727 33.8179 4.99861 33.7762 5.06705C33.5116 5.4995 33.3226 5.97808 33.2182 6.48028C33.2017 6.55971 33.1598 6.63083 33.0995 6.68183C33.0392 6.73282 32.9641 6.76063 32.8867 6.76063H32.0697C32.0001 6.77278 31.9376 6.81232 31.8948 6.87119C31.852 6.93006 31.8322 7.00384 31.8394 7.07751V7.7499C31.8322 7.8236 31.852 7.89742 31.8948 7.95634C31.9375 8.01526 32.0001 8.05484 32.0697 8.06705H32.8867C32.9641 8.06705 33.0392 8.09487 33.0996 8.14588C33.1599 8.1969 33.2017 8.26803 33.2182 8.34749C33.3229 8.8498 33.5119 9.32854 33.7764 9.76133C33.8181 9.82976 33.8362 9.91108 33.8278 9.99182C33.8194 10.0726 33.7851 10.1479 33.7303 10.2053L33.1521 10.8119C33.1112 10.8722 33.0937 10.9466 33.1032 11.02C33.1126 11.0934 33.1483 11.1602 33.203 11.207L33.656 11.6828C33.7009 11.7402 33.7648 11.7775 33.835 11.7873C33.9051 11.7971 33.9761 11.7785 34.0337 11.7353L34.61 11.1289C34.6647 11.0713 34.7365 11.035 34.8136 11.0262C34.8906 11.0174 34.9682 11.0366 35.0335 11.0805C35.4453 11.3585 35.9011 11.557 36.3795 11.6668C36.4551 11.6842 36.5227 11.7282 36.5712 11.7915C36.6198 11.8548 36.6462 11.9336 36.6462 12.0149V12.8727C36.6462 13.0037 36.7847 13.1144 36.9488 13.1144H37.5888C37.7527 13.1144 37.891 13.0037 37.891 12.8727V12.0149C37.891 11.9336 37.9175 11.8548 37.966 11.7915C38.0145 11.7282 38.0822 11.6842 38.1578 11.6668C38.6361 11.5569 39.092 11.3584 39.504 11.0805C39.5691 11.0366 39.6466 11.0174 39.7236 11.0262C39.8006 11.035 39.8724 11.0711 39.9271 11.1287L40.505 11.7362C40.5627 11.779 40.6337 11.7973 40.7037 11.7873C40.7737 11.7773 40.8375 11.7397 40.8821 11.6823Z" stroke="#0038FF" stroke-width="2" mask="url(#path-3-outside-1_1596:2161)"/>
</svg>
