<svg width="30" height="28" viewBox="0 0 30 28" fill="none" xmlns="http://www.w3.org/2000/svg">
<path d="M0 23.9149H9.375V26.8352H6.87305V28.0001H23.127V26.8352H20.625V23.9149H30V20.4149H0V23.9149Z" fill="#0038FF"/>
<path d="M6.24414 13.4149H4.99609V14.5798H6.24414V13.4149Z" fill="#0038FF"/>
<path d="M15.6191 3.5H14.3711V4.66484H15.6191V3.5Z" fill="#0038FF"/>
<path d="M4.99805 3.5H3.75V4.66484H4.99805V3.5Z" fill="#0038FF"/>
<path d="M26.252 3.5H25.0039V4.66484H26.252V3.5Z" fill="#0038FF"/>
<path d="M24.9941 13.4149H23.7461V14.5798H24.9941V13.4149Z" fill="#0038FF"/>
<path d="M0 0V19.25H12.8203C12.4277 16.893 9.76758 15.7117 9.73828 15.6953L9.1582 15.4437L13.6113 7.00547H14.373V11.4406C13.7871 11.6703 13.3711 12.2063 13.3711 12.8406C13.3711 13.6773 14.1035 14.3555 14.9941 14.3555C15.8848 14.3555 16.6172 13.6719 16.6172 12.8406C16.6172 12.2063 16.2012 11.6703 15.6152 11.4406V7H16.377L20.8301 15.4383L20.25 15.6898C20.2207 15.7062 17.5605 16.9039 17.168 19.2445H30V0H0ZM27.498 5.83516H23.748V4.66484H19.834C22.7578 6.17969 24.7559 9.01797 24.9727 12.25H26.25V15.75H22.5V12.25H23.7188C23.4434 8.65156 20.6367 5.62734 16.875 4.85625V5.82969H13.125V4.85625C9.36328 5.62188 6.55664 8.65156 6.28125 12.25H7.5V15.75H3.75V12.25H5.02734C5.24414 9.01797 7.24219 6.17969 10.166 4.66484H6.25195V5.82969H2.50195V2.32969H6.25195V3.5H13.125V2.33516H16.875V3.5H23.748V2.33516H27.498V5.83516Z" fill="#0038FF"/>
</svg>
