<svg width="37" height="39" viewBox="0 0 37 39" fill="none" xmlns="http://www.w3.org/2000/svg">
<path d="M19.1561 0.331728C18.7314 -0.110576 18.0429 -0.110576 17.6183 0.331728L0.318481 18.3511C-0.10616 18.7934 -0.10616 19.5106 0.318481 19.9529L17.6183 37.9723C18.0429 38.4146 18.7314 38.4146 19.1561 37.9723L36.4559 19.9529C36.8805 19.5106 36.8805 18.7934 36.4559 18.3511L19.1561 0.331728Z" fill="#0038FF"/>
<path d="M19.9713 12.8421C20.374 12.5759 20.9124 12.6924 21.1739 13.1024L22.2639 14.8113C22.5254 15.2213 22.4109 15.7695 22.0083 16.0358C21.6056 16.302 21.0671 16.1855 20.8056 15.7755L19.7157 14.0666C19.4542 13.6566 19.5686 13.1084 19.9713 12.8421Z" fill="white"/>
<path fill-rule="evenodd" clip-rule="evenodd" d="M18.82 22.888C15.0534 22.888 12 19.7791 12 15.944C12 12.1089 15.0534 9 18.82 9C22.5866 9 25.64 12.1089 25.64 15.944C25.64 19.7791 22.5866 22.888 18.82 22.888ZM18.82 20.872C21.4931 20.872 23.66 18.6657 23.66 15.944C23.66 13.2223 21.4931 11.016 18.82 11.016C16.1469 11.016 13.98 13.2223 13.98 15.944C13.98 18.6657 16.1469 20.872 18.82 20.872Z" fill="white"/>
<path d="M16.729 23.5601H20.909C21.3342 23.5601 21.679 23.9111 21.679 24.3441C21.679 24.7771 21.3342 25.1281 20.909 25.1281H16.729C16.3037 25.1281 15.959 24.7771 15.959 24.3441C15.959 23.9111 16.3037 23.5601 16.729 23.5601Z" fill="white"/>
<path d="M16.729 25.8001H20.909C21.3342 25.8001 21.679 26.1511 21.679 26.5841C21.679 27.0171 21.3342 27.3681 20.909 27.3681H16.729C16.3037 27.3681 15.959 27.0171 15.959 26.5841C15.959 26.1511 16.3037 25.8001 16.729 25.8001Z" fill="white"/>
<path d="M18.049 28.0401H19.589C20.0142 28.0401 20.359 28.3911 20.359 28.8241C20.359 29.2571 20.0142 29.6081 19.589 29.6081H18.049C17.6237 29.6081 17.279 29.2571 17.279 28.8241C17.279 28.3911 17.6237 28.0401 18.049 28.0401Z" fill="white"/>
</svg>
