<svg width="27" height="26" viewBox="0 0 27 26" fill="none" xmlns="http://www.w3.org/2000/svg">
<path fill-rule="evenodd" clip-rule="evenodd" d="M6.75 0H20.25C23.9779 0 27 2.91015 27 6.5V19.5C27 23.0898 23.9779 26 20.25 26H6.75C3.02208 26 0 23.0898 0 19.5V6.5C0 2.91015 3.02208 0 6.75 0ZM18.5243 4.91996C18.4549 5.3881 18.5349 5.86621 18.7528 6.28628C18.9708 6.70636 19.3157 7.047 19.7384 7.25978C20.1612 7.47255 20.6402 7.54661 21.1075 7.47142C21.5747 7.39624 22.0063 7.17563 22.341 6.84099C22.6756 6.50635 22.8962 6.0747 22.9714 5.60746C23.0466 5.14021 22.9725 4.66115 22.7598 4.23842C22.547 3.81569 22.2064 3.47082 21.7863 3.25285C21.3662 3.03488 20.8881 2.95492 20.42 3.02434C19.9424 3.09515 19.5004 3.31766 19.159 3.65901C18.8177 4.00036 18.5951 4.44244 18.5243 4.91996ZM18.9405 12.6932C19.1102 13.8376 18.9147 15.0063 18.3819 16.0331C17.8491 17.06 17.0061 17.8927 15.9727 18.4128C14.9394 18.9329 13.7684 19.1139 12.6262 18.9301C11.4841 18.7464 10.4289 18.2071 9.61092 17.3891C8.7929 16.5711 8.25365 15.5159 8.06986 14.3738C7.88607 13.2316 8.06711 12.0606 8.58721 11.0273C9.10732 9.99392 9.94002 9.15089 10.9669 8.61808C11.9937 8.08527 13.1624 7.88981 14.3068 8.0595C15.474 8.23259 16.5547 8.77651 17.3891 9.61092C18.2235 10.4453 18.7674 11.526 18.9405 12.6932Z" fill="#666666"/>
</svg>
