<svg width="130" height="125" viewBox="0 0 130 125" fill="none" xmlns="http://www.w3.org/2000/svg">
<path d="M89.48 86.1487C93.56 81.2239 96.28 75.0679 96.96 68.2279H108.928C108.792 67.4071 108.656 66.4495 108.656 65.4919C108.656 64.5343 108.792 63.5767 108.928 62.7559H96.96C96.28 55.7791 93.56 49.6231 89.48 44.6983L97.912 36.2167C96.416 35.2591 95.056 33.8911 94.104 32.3863L85.672 40.7311C80.64 36.6271 74.52 33.8911 67.72 33.3439V21.3055C66.904 21.4423 65.952 21.5791 65 21.5791C64.048 21.5791 63.096 21.4423 62.28 21.3055V33.3439C55.48 33.8911 49.36 36.6271 44.464 40.7311L36.032 32.2495C34.944 33.7543 33.72 35.1223 32.088 36.0799L40.52 44.5615C36.44 49.6231 33.72 55.7791 33.176 62.6191H21.208C21.344 63.4399 21.48 64.3975 21.48 65.3551C21.48 66.3127 21.344 67.2703 21.208 68.0911H33.176C33.72 74.9311 36.44 81.0871 40.52 86.0119L32.088 94.4935C33.584 95.4511 34.944 96.8191 35.896 98.3239L44.328 89.8423C49.36 94.0831 55.48 96.8191 62.28 97.3663V109.405C63.096 109.268 64.048 109.131 65 109.131C65.952 109.131 66.904 109.268 67.72 109.405V97.3663C74.52 96.8191 80.64 94.0831 85.536 89.9791L93.968 98.4607C94.92 96.9559 96.28 95.5879 97.776 94.6303L89.48 86.1487ZM65 92.0311C50.312 92.0311 38.48 79.9927 38.48 65.3551C38.48 50.7175 50.312 38.6791 65 38.6791C79.688 38.6791 91.52 50.7175 91.52 65.3551C91.52 79.9927 79.688 92.0311 65 92.0311Z" fill="#FDDC6E"/>
<path d="M75.8809 115.014C76.8329 116.518 77.6489 118.16 77.9209 120.075L94.2409 113.235C93.2889 111.73 92.4729 110.089 92.2009 108.174L75.8809 115.014Z" fill="#FDDC6E"/>
<path d="M35.7607 113.235L51.9447 120.075C52.3527 118.297 53.0327 116.518 53.9847 115.014L37.8007 108.174C37.5287 110.089 36.7127 111.73 35.7607 113.235Z" fill="#FDDC6E"/>
<path d="M54.1205 15.6967C53.1685 14.1919 52.3525 12.5503 52.0805 10.6351L35.8965 17.3383C36.8485 18.8431 37.6645 20.4847 37.9365 22.3999L54.1205 15.6967Z" fill="#FDDC6E"/>
<path d="M22.4326 92.5783L15.6326 76.2991C14.1366 77.2567 12.5046 78.0775 10.6006 78.3511L17.2646 94.6303C18.7606 93.6727 20.5286 92.9887 22.4326 92.5783Z" fill="#FDDC6E"/>
<path d="M22.4323 37.9951C20.6643 37.5847 18.8963 36.9007 17.4003 35.9431L10.7363 52.2223C12.5043 52.6327 14.2723 53.3167 15.7683 54.2743L22.4323 37.9951Z" fill="#FDDC6E"/>
<path d="M107.704 38.1319L114.368 54.4111C115.864 53.4535 117.496 52.6327 119.4 52.3591L112.6 35.9431C111.104 37.0375 109.472 37.7215 107.704 38.1319Z" fill="#FDDC6E"/>
<path d="M94.2406 17.4752L78.0566 10.772C77.6486 12.5504 76.9686 14.3288 76.0166 15.8336L92.2006 22.5368C92.4726 20.6216 93.2886 18.98 94.2406 17.4752Z" fill="#FDDC6E"/>
<path d="M107.568 92.7151C109.336 93.1255 111.104 93.8095 112.6 94.7671L119.4 78.4879C117.632 78.0775 115.864 77.3935 114.368 76.4359L107.568 92.7151Z" fill="#FDDC6E"/>
<path d="M65 16.1072C69.352 16.1072 72.752 12.5504 72.752 8.30956C72.752 3.93196 69.216 0.511963 65 0.511963C60.648 0.511963 57.248 4.06876 57.248 8.30956C57.248 12.5504 60.784 16.1072 65 16.1072Z" fill="#FDDC6E"/>
<path d="M24.8808 32.7967C29.2328 32.7967 32.6328 29.2399 32.6328 24.9991C32.6328 20.6215 29.0968 17.2015 24.8808 17.2015C20.6648 17.2015 17.1288 20.7583 17.1288 24.9991C16.9928 29.2399 20.5288 32.7967 24.8808 32.7967Z" fill="#FDDC6E"/>
<path d="M16.0404 65.3551C16.0404 60.9775 12.5044 57.5575 8.28839 57.5575C4.07239 57.5575 0.400391 60.9775 0.400391 65.3551C0.400391 69.7327 3.93639 73.1527 8.15239 73.1527C12.3684 73.1527 16.0404 69.5959 16.0404 65.3551Z" fill="#FDDC6E"/>
<path d="M24.8799 97.9136C20.5279 97.9136 17.1279 101.47 17.1279 105.711C17.1279 110.089 20.6639 113.509 24.8799 113.509C29.0959 113.509 32.6319 109.952 32.6319 105.711C32.6319 101.334 29.0959 97.9136 24.8799 97.9136Z" fill="#FDDC6E"/>
<path d="M65 114.603C60.648 114.603 57.248 118.16 57.248 122.401C57.248 126.778 60.784 130.198 65 130.198C69.352 130.198 72.752 126.642 72.752 122.401C72.752 118.16 69.216 114.603 65 114.603Z" fill="#FDDC6E"/>
<path d="M105.12 97.9136C100.768 97.9136 97.3682 101.47 97.3682 105.711C97.3682 110.089 100.904 113.509 105.12 113.509C109.336 113.509 112.872 109.952 112.872 105.711C113.008 101.47 109.472 97.9136 105.12 97.9136Z" fill="#FDDC6E"/>
<path d="M121.849 57.5575C117.497 57.5575 114.097 61.1143 114.097 65.3551C114.097 69.7327 117.633 73.1527 121.849 73.1527C126.065 73.1527 129.601 69.5959 129.601 65.3551C129.601 61.1143 126.065 57.5575 121.849 57.5575Z" fill="#FDDC6E"/>
<path d="M105.12 32.7967C109.472 32.7967 112.872 29.2399 112.872 24.9991C112.872 20.6215 109.336 17.2015 105.12 17.2015C100.904 17.2015 97.3682 20.7583 97.3682 24.9991C97.3682 29.3767 100.904 32.7967 105.12 32.7967Z" fill="#FDDC6E"/>
<path d="M80.6403 54.0007L66.2243 46.7503C65.4083 46.3399 64.5923 46.3399 63.7763 46.7503L49.3603 54.0007C48.4083 54.4111 47.8643 55.3687 47.8643 56.4631V74.2471C47.8643 75.3415 48.4083 76.1623 49.3603 76.7095L63.7763 83.9599C64.1843 84.0967 64.5923 84.2335 65.0003 84.2335C65.4083 84.2335 65.8163 84.0967 66.2243 83.9599L80.6403 76.7095C81.5923 76.2991 82.1363 75.3415 82.1363 74.2471V56.4631C82.1363 55.5055 81.4563 54.5479 80.6403 54.0007ZM62.2803 77.1199L53.3043 72.6055V60.9775L62.2803 65.4919V77.1199ZM65.0003 60.7039L56.7043 56.4631L65.0003 52.2223L73.2963 56.4631L65.0003 60.7039ZM76.6963 72.4687L67.7203 77.1199V65.4919L76.6963 60.9775V72.4687Z" fill="#FDDC6E"/>
</svg>
