<svg width="87" height="106" viewBox="0 0 87 106" fill="none" xmlns="http://www.w3.org/2000/svg">
<path d="M41.2626 59.0935C42.9677 58.7975 44.7795 58.3477 46.6544 57.758L46.6603 57.7499L47.1639 57.5832C50.6117 56.4505 54.2586 55.1383 57.1865 53.5732C51.859 45.9332 42.9911 40.9221 32.9381 40.9221H29.5091C13.2116 40.9221 0 54.0685 0 70.2868C0 74.6988 3.59538 78.2788 8.03163 78.2788H38.4471C38.4389 78.0119 38.4108 77.7509 38.4108 77.4829V62.4556C38.4097 60.7938 39.6101 59.379 41.2626 59.0935ZM31.2236 38.7091C41.6982 38.7091 50.1889 30.2603 50.1889 19.8361C50.1889 9.41319 41.6982 0.964355 31.2236 0.964355C20.749 0.964355 12.2583 9.41319 12.2583 19.8361C12.2571 30.2591 20.7478 38.7091 31.2236 38.7091ZM85.9881 61.2751C83.982 60.9278 81.8728 60.3848 79.7847 59.6902C73.758 57.7149 67.8145 55.4331 64.6817 52.148C64.444 51.8998 64.1301 51.7751 63.8174 51.7751C63.5047 51.7751 63.1909 51.8998 62.9531 52.148C59.8192 55.432 53.8792 57.7138 47.8607 59.6902L47.849 59.703C45.7503 60.3894 43.6423 60.9301 41.6443 61.2774C41.0611 61.3776 40.636 61.8694 40.636 62.4591V77.4887C40.636 89.7378 49.8364 100.383 63.3548 105.76C63.5012 105.819 63.6593 105.848 63.8174 105.848C63.9755 105.848 64.1348 105.819 64.2812 105.761C77.7996 100.396 87 89.7494 87 77.4887V62.4556C87 61.8659 86.5714 61.3753 85.9881 61.2751ZM74.6059 74.5706L62.569 86.5517C62.1005 87.0155 61.4681 87.2777 60.8064 87.2777C60.1447 87.2777 59.5123 87.0155 59.045 86.5517L53.0231 80.5606C52.0522 79.5933 52.0522 78.0236 53.0231 77.0552C53.9963 76.0879 55.575 76.0879 56.547 77.0552L60.8064 81.2959L71.0831 71.0664C72.0575 70.098 73.6339 70.098 74.6059 71.0652C75.5814 72.0348 75.5814 73.6034 74.6059 74.5706Z" fill="#FD8E3E"/>
</svg>
