<svg width="27" height="26" viewBox="0 0 27 26" fill="none" xmlns="http://www.w3.org/2000/svg">
<path fill-rule="evenodd" clip-rule="evenodd" d="M6.75 3.5C6.75 5.36396 5.23896 6.875 3.375 6.875C1.51104 6.875 0 5.36396 0 3.5C0 1.63604 1.51104 0.125 3.375 0.125C5.23896 0.125 6.75 1.63604 6.75 3.5ZM19.125 9.125C21.2136 9.125 23.2166 9.94557 24.6935 11.4062C26.1703 12.8668 27 14.8478 27 16.9135V26H21.75V16.9135C21.75 16.2249 21.4734 15.5646 20.9812 15.0777C20.4889 14.5908 19.8212 14.3173 19.125 14.3173C18.4288 14.3173 17.7611 14.5908 17.2688 15.0777C16.7766 15.5646 16.5 16.2249 16.5 16.9135V26H11.25V16.9135C11.25 14.8478 12.0797 12.8668 13.5565 11.4062C15.0334 9.94557 17.0364 9.125 19.125 9.125ZM6.75 26V10.25H0V26H6.75Z" fill="#666666"/>
</svg>
