<svg width="22" height="33" viewBox="0 0 22 33" fill="none" xmlns="http://www.w3.org/2000/svg">
<path d="M6.98402 17.576H14.5454C15.8341 14.8505 19.3508 13.4688 19.3974 13.4498L20.1349 13.1709L12.9617 0H11.5954V7.56154C12.558 7.84043 13.2489 8.582 13.2489 9.46302C13.2489 10.5786 12.131 11.4913 10.7647 11.4913C9.39837 11.4913 8.28048 10.5786 8.28048 9.46302C8.28048 8.582 8.97916 7.84043 9.93403 7.56154V0H8.56771L1.39453 13.1772L2.13203 13.4561C2.17861 13.4688 5.69534 14.8505 6.98402 17.576Z" fill="#0038FF"/>
<path d="M18.2202 22.3107H17.8087V18.9324H3.72633V22.3107H3.31488C1.48277 22.3107 0 23.5213 0 25.0172V32.4519H21.5273V25.0172C21.5351 23.5213 20.0523 22.3107 18.2202 22.3107ZM14.9053 29.7455H7.45266V28.3955H14.9053V29.7455ZM17.3895 27.0391H4.96844V25.689H17.3895V27.0391Z" fill="#0038FF"/>
</svg>
