<svg width="56" height="43" viewBox="0 0 56 43" fill="none" xmlns="http://www.w3.org/2000/svg">
<path fill-rule="evenodd" clip-rule="evenodd" d="M34 31C34 27.6863 31.3137 25 28 25C24.6863 25 22 27.6863 22 31C22 34.3137 24.6863 37 28 37C31.3137 37 34 34.3137 34 31ZM26 31C26 29.8954 26.8954 29 28 29C29.1046 29 30 29.8954 30 31C30 32.1046 29.1046 33 28 33C26.8954 33 26 32.1046 26 31Z" fill="#434343"/>
<path fill-rule="evenodd" clip-rule="evenodd" d="M40.0123 20.5645C40.7613 19.7526 40.7104 18.4873 39.8985 17.7383C39.0867 16.9893 37.8214 17.0402 37.0724 17.8521L29.1844 26.4018C28.4354 27.2136 28.4863 28.4789 29.2981 29.2279C30.11 29.9769 31.3753 29.926 32.1243 29.1142L40.0123 20.5645Z" fill="#434343"/>
<path fill-rule="evenodd" clip-rule="evenodd" d="M54 43C55.1046 43 56 42.1046 56 41C56 39.8954 55.1046 39 54 39H2C0.89543 39 0 39.8954 0 41C0 42.1046 0.89543 43 2 43H54Z" fill="#434343"/>
<path fill-rule="evenodd" clip-rule="evenodd" d="M26 7C26 8.10457 26.8954 9 28 9C29.1046 9 30 8.10457 30 7V2C30 0.89543 29.1046 0 28 0C26.8954 0 26 0.89543 26 2V7Z" fill="#434343"/>
<path fill-rule="evenodd" clip-rule="evenodd" d="M8.81386 19.232C9.77044 19.7843 10.9936 19.4566 11.5459 18.5C12.0982 17.5434 11.7704 16.3202 10.8139 15.7679L6.48373 13.2679C5.52715 12.7156 4.30397 13.0434 3.75168 14C3.1994 14.9566 3.52715 16.1797 4.48373 16.732L8.81386 19.232Z" fill="#434343"/>
<path fill-rule="evenodd" clip-rule="evenodd" d="M45.1869 15.7679C44.2303 16.3202 43.9025 17.5434 44.4548 18.5C45.0071 19.4566 46.2303 19.7843 47.1869 19.232L51.517 16.732C52.4736 16.1797 52.8013 14.9566 52.249 14C51.6967 13.0434 50.4736 12.7156 49.517 13.2679L45.1869 15.7679Z" fill="#434343"/>
<path fill-rule="evenodd" clip-rule="evenodd" d="M15.7683 10.8135C16.3206 11.7701 17.5437 12.0978 18.5003 11.5455C19.4569 10.9933 19.7847 9.77008 19.2324 8.81349L16.7324 4.48337C16.1801 3.52678 14.9569 3.19903 14.0003 3.75132C13.0437 4.3036 12.716 5.52678 13.2683 6.48337L15.7683 10.8135Z" fill="#434343"/>
<path fill-rule="evenodd" clip-rule="evenodd" d="M36.7683 8.81349C36.216 9.77008 36.5437 10.9933 37.5003 11.5455C38.4569 12.0978 39.6801 11.7701 40.2324 10.8135L42.7324 6.48337C43.2847 5.52678 42.9569 4.3036 42.0003 3.75132C41.0437 3.19903 39.8206 3.52678 39.2683 4.48337L36.7683 8.81349Z" fill="#434343"/>
<path fill-rule="evenodd" clip-rule="evenodd" d="M49 26C47.8954 26 47 26.8954 47 28C47 29.1046 47.8954 30 49 30H54C55.1046 30 56 29.1046 56 28C56 26.8954 55.1046 26 54 26H49Z" fill="#434343"/>
<path fill-rule="evenodd" clip-rule="evenodd" d="M2 26C0.89543 26 0 26.8954 0 28C0 29.1046 0.89543 30 2 30H7C8.10457 30 9 29.1046 9 28C9 26.8954 8.10457 26 7 26H2Z" fill="#434343"/>
</svg>
