<svg width="33" height="33" viewBox="0 0 33 33" fill="none" xmlns="http://www.w3.org/2000/svg">
<path d="M22.1267 24.6213H20.7539V25.9985H22.1267V24.6213Z" fill="#0038FF"/>
<path d="M22.1267 27.3822H20.7539V28.7594H22.1267V27.3822Z" fill="#0038FF"/>
<path d="M24.8413 18.7828L21.4382 15.3689L18.0352 18.7828L19.0084 19.7591L20.755 18.0134V23.2441H22.1279V18.0134L23.8745 19.7591L24.8413 18.7828Z" fill="#0038FF"/>
<path d="M15.9392 28.7594H14.5664V30.1366H15.9392V28.7594Z" fill="#0038FF"/>
<path d="M15.9392 31.5203H14.5664V32.8975H15.9392V31.5203Z" fill="#0038FF"/>
<path d="M11.8477 22.921L12.8209 23.8973L14.5675 22.1516V27.3823H15.9404V22.1516L17.687 23.8973L18.6538 22.921L15.2507 19.5071L11.8477 22.921Z" fill="#0038FF"/>
<path d="M28.7393 7.58427V3.79537H13.1741L9.21669 0H0V21.8929L4.76303 7.58427H28.7393Z" fill="#0038FF"/>
<path d="M5.85267 9.10376L0.296875 25.7982H12.7684L9.90672 22.921L15.2498 17.5609L16.2811 18.5954L21.4373 13.4228L26.7868 18.7829L23.8736 21.7119L23.4997 22.0804V23.2442V24.6214V25.7982H27.412L33 9.10376H5.85267Z" fill="#0038FF"/>
</svg>
