<svg width="26" height="26" viewBox="0 0 26 26" fill="none" xmlns="http://www.w3.org/2000/svg">
<circle cx="13" cy="13" r="12.5" stroke="#FD8E3E"/>
<path d="M18.0332 13.3536C18.2285 13.1583 18.2285 12.8417 18.0332 12.6464L14.8513 9.46447C14.656 9.2692 14.3394 9.2692 14.1442 9.46447C13.9489 9.65973 13.9489 9.97631 14.1442 10.1716L16.9726 13L14.1442 15.8284C13.9489 16.0237 13.9489 16.3403 14.1442 16.5355C14.3394 16.7308 14.656 16.7308 14.8513 16.5355L18.0332 13.3536ZM8.31968 12.5C8.04354 12.5 7.81968 12.7239 7.81968 13C7.81968 13.2761 8.04354 13.5 8.31968 13.5V12.5ZM17.6797 12.5L8.31968 12.5V13.5L17.6797 13.5V12.5Z" fill="#FD8E3E"/>
</svg>
