<svg width="100" height="101" viewBox="0 0 100 101" fill="none" xmlns="http://www.w3.org/2000/svg">
<path fill-rule="evenodd" clip-rule="evenodd" d="M6.66667 43.9163C2.99 43.9163 0 46.903 0 50.5756C0 54.2482 2.99 57.2349 6.66667 57.2349C10.3433 57.2349 13.3333 54.2482 13.3333 50.5756C13.3333 46.903 10.3433 43.9163 6.66667 43.9163Z" fill="#0038FF"/>
<path fill-rule="evenodd" clip-rule="evenodd" d="M93.3337 43.9163C89.657 43.9163 86.667 46.903 86.667 50.5756C86.667 54.2482 89.657 57.2349 93.3337 57.2349C97.0103 57.2349 100 54.2482 100 50.5756C100 46.903 97.0103 43.9163 93.3337 43.9163Z" fill="#0038FF"/>
<path fill-rule="evenodd" clip-rule="evenodd" d="M49.9997 13.9497C53.6763 13.9497 56.6664 10.963 56.6664 7.29041C56.6664 3.6178 53.6763 0.631104 49.9997 0.631104C46.323 0.631104 43.333 3.6178 43.333 7.29041C43.333 10.963 46.323 13.9497 49.9997 13.9497Z" fill="#0038FF"/>
<path fill-rule="evenodd" clip-rule="evenodd" d="M49.9997 87.2014C46.323 87.2014 43.333 90.1881 43.333 93.8607C43.333 97.5333 46.323 100.52 49.9997 100.52C53.6763 100.52 56.6664 97.5333 56.6664 93.8607C56.6664 90.1881 53.6763 87.2014 49.9997 87.2014Z" fill="#0038FF"/>
<path fill-rule="evenodd" clip-rule="evenodd" d="M14.6457 76.4743C13.3857 77.7313 12.6924 79.4044 12.6924 81.1825C12.6924 82.9605 13.3857 84.6337 14.6457 85.8906C15.904 87.1492 17.579 87.8418 19.359 87.8418C21.139 87.8418 22.814 87.1492 24.0724 85.8906C25.3324 84.6337 26.0257 82.9605 26.0257 81.1825C26.0257 79.4044 25.3324 77.7313 24.0724 76.4743C21.5557 73.9571 17.164 73.9571 14.6457 76.4743Z" fill="#0038FF"/>
<path fill-rule="evenodd" clip-rule="evenodd" d="M80.6413 26.6274C82.4213 26.6274 84.0963 25.9349 85.3546 24.6763C86.6146 23.4194 87.308 21.7463 87.308 19.9682C87.308 18.1902 86.6146 16.5171 85.3546 15.2602C82.8363 12.743 78.4463 12.743 75.9279 15.2602C74.6679 16.5171 73.9746 18.1902 73.9746 19.9682C73.9746 21.7463 74.6679 23.4194 75.9279 24.6763C77.1863 25.9349 78.8613 26.6274 80.6413 26.6274Z" fill="#0038FF"/>
<path fill-rule="evenodd" clip-rule="evenodd" d="M19.359 26.6274C21.139 26.6274 22.814 25.9349 24.0724 24.6763C25.3324 23.4194 26.0257 21.7463 26.0257 19.9682C26.0257 18.1902 25.3324 16.5171 24.0724 15.2602C21.554 12.743 17.164 12.743 14.6457 15.2602C13.3857 16.5171 12.6924 18.1902 12.6924 19.9682C12.6924 21.7463 13.3857 23.4194 14.6457 24.6763C15.904 25.9349 17.579 26.6274 19.359 26.6274Z" fill="#0038FF"/>
<path fill-rule="evenodd" clip-rule="evenodd" d="M75.9279 76.4743C74.6679 77.7313 73.9746 79.4044 73.9746 81.1825C73.9746 82.9605 74.6679 84.6337 75.9279 85.8906C77.1863 87.1492 78.8613 87.8418 80.6413 87.8418C82.4213 87.8418 84.0963 87.1492 85.3546 85.8906C86.6146 84.6337 87.308 82.9605 87.308 81.1825C87.308 79.4044 86.6146 77.7313 85.3546 76.4743C82.8379 73.9571 78.4463 73.9571 75.9279 76.4743Z" fill="#0038FF"/>
<path fill-rule="evenodd" clip-rule="evenodd" d="M50.0003 17.2793C31.6203 17.2793 16.667 32.2159 16.667 50.5754C16.667 68.9349 31.6203 83.8716 50.0003 83.8716C68.3803 83.8716 83.3336 68.9349 83.3336 50.5754C83.3336 32.2159 68.3803 17.2793 50.0003 17.2793Z" fill="#0038FF"/>
</svg>
