<svg width="106" height="107" viewBox="0 0 106 107" fill="none" xmlns="http://www.w3.org/2000/svg">
<path fill-rule="evenodd" clip-rule="evenodd" d="M77.2171 49.0542C76.9332 42.0773 71.2887 36.3899 64.3078 36.0496C59.7346 35.8265 55.6309 37.8647 53.0074 41.1357C50.4558 37.9403 46.4922 35.9172 42.0553 36.0193C34.764 36.1857 28.8469 42.1756 28.7712 49.4626C28.7334 53.1874 30.1984 56.568 32.5948 59.0411L51.1297 75.6722C52.1935 76.629 53.8062 76.629 54.8738 75.6722L73.4238 59.0411C75.8997 56.4735 77.3761 52.9378 77.2171 49.0542ZM72.8749 51.8147C72.8029 52.3743 72.6818 52.9227 72.5077 53.4559C71.83 55.5811 70.399 57.4302 68.5099 58.3567C69.3541 56.4508 69.8198 54.6773 69.8955 52.9454C69.9371 52.0832 69.8955 51.2323 69.7441 50.4117C69.6154 49.5949 69.4072 48.7933 69.0854 48.0407C68.4872 46.513 67.5332 45.1252 66.2991 43.9113C65.6744 43.3138 64.9779 42.758 64.198 42.2512C63.4106 41.7559 62.5512 41.3323 61.5896 40.8975C62.5929 40.5912 63.6756 40.542 64.7545 40.6781C65.8296 40.837 66.8821 41.2113 67.8626 41.7483C69.8046 42.8449 71.4136 44.6449 72.2427 46.7853C72.4622 47.3147 72.6061 47.8706 72.7499 48.4265C72.8332 48.9937 72.9544 49.5533 72.9506 50.1243C72.9733 50.6916 72.9582 51.255 72.8749 51.8147Z" fill="#E54887"/>
<path d="M53.2278 106.874C51.5545 106.874 50.1992 105.52 50.1992 103.848V92.9084C50.1992 91.237 51.5545 89.8832 53.2278 89.8832C54.9011 89.8832 56.2563 91.237 56.2563 92.9084V103.848C56.2563 105.52 54.9011 106.874 53.2278 106.874Z" fill="#E54887"/>
<path d="M52.7727 17.9816C51.0994 17.9816 49.7441 16.6278 49.7441 14.9564V4.01642C49.7441 2.34499 51.0994 0.991211 52.7727 0.991211C54.446 0.991211 55.8013 2.34499 55.8013 4.01642V14.9564C55.8013 16.6278 54.446 17.9816 52.7727 17.9816Z" fill="#E54887"/>
<path d="M13.9806 57.1842H3.02857C1.35529 57.1842 0 55.8304 0 54.159C0 52.4876 1.35529 51.1338 3.02857 51.1338H13.9806C15.6539 51.1338 17.0092 52.4876 17.0092 54.159C17.0092 55.8304 15.6539 57.1842 13.9806 57.1842Z" fill="#E54887"/>
<path d="M102.972 56.7308H92.0198C90.3465 56.7308 88.9912 55.3771 88.9912 53.7056C88.9912 52.0342 90.3465 50.6804 92.0198 50.6804H102.972C104.645 50.6804 106 52.0342 106 53.7056C106 55.3771 104.645 56.7308 102.972 56.7308Z" fill="#E54887"/>
<path d="M17.8264 92.4132C17.0504 92.4132 16.2781 92.1182 15.6837 91.5283C14.5026 90.3447 14.5026 88.4313 15.6837 87.2514L23.4293 79.5144C24.6104 78.3346 26.5298 78.3346 27.7109 79.5144C28.8921 80.698 28.8921 82.6115 27.7109 83.7913L19.9654 91.5283C19.3748 92.1182 18.6025 92.4132 17.8264 92.4132Z" fill="#E54887"/>
<path d="M80.428 29.2355C79.6519 29.2355 78.8796 28.9405 78.2853 28.3506C77.1041 27.1708 77.1041 25.2536 78.2853 24.0737L86.0309 16.3368C87.2158 15.1569 89.1314 15.1569 90.3125 16.3368C91.4937 17.5166 91.4937 19.4338 90.3125 20.6137L82.5669 28.3506C81.9801 28.9405 81.2041 29.2355 80.428 29.2355Z" fill="#E54887"/>
<path d="M25.2469 29.5607C24.4709 29.5607 23.6986 29.2657 23.1042 28.6758L15.3624 20.9351C14.1813 19.7552 14.1813 17.838 15.3624 16.6582C16.5474 15.4784 18.4629 15.4784 19.6441 16.6582L27.3897 24.3951C28.5708 25.575 28.5708 27.4922 27.3897 28.672C26.7991 29.2619 26.023 29.5607 25.2469 29.5607Z" fill="#E54887"/>
<path d="M88.4949 92.0918C87.7188 92.0918 86.9465 91.7968 86.3521 91.2069L78.6066 83.47C77.4254 82.2864 77.4254 80.3729 78.6066 79.1931C79.7915 78.0133 81.7071 78.0133 82.8882 79.1931L90.6338 86.93C91.8149 88.1137 91.8149 90.0271 90.6338 91.2069C90.047 91.7968 89.2709 92.0918 88.4949 92.0918Z" fill="#E54887"/>
</svg>
