<svg width="51" height="49" viewBox="0 0 51 49" fill="none" xmlns="http://www.w3.org/2000/svg">
<path d="M23.1495 20.8435C23.8638 20.8435 24.4565 20.2645 24.4565 19.5358C24.4565 18.8151 23.8702 18.2288 23.1495 18.2288C22.4281 18.2288 21.8418 18.8151 21.8418 19.5358C21.8418 20.2449 22.4144 20.8435 23.1495 20.8435ZM23.4238 19.5358C23.4238 19.6872 23.3009 19.8108 23.1495 19.8108C22.9981 19.8108 22.8745 19.6872 22.8745 19.5358C22.8746 19.1685 23.4238 19.1725 23.4238 19.5358Z" fill="#0038FF"/>
<path d="M34.6923 27.482H32.3186C31.8813 27.482 31.5276 27.8358 31.5276 28.273V29.0872H29.5752L26.6567 21.4564C26.9813 20.8752 27.1594 20.2222 27.1594 19.5367C27.1594 17.5959 25.7738 15.9739 23.9406 15.6047V14.6409H24.7586C25.1958 14.6409 25.5496 14.2871 25.5496 13.8499V11.4631C25.5496 10.1445 24.4767 9.07159 23.1581 9.07159C21.8318 9.07159 20.7527 10.1445 20.7527 11.4631V13.8499C20.7527 14.2871 21.1065 14.6409 21.5437 14.6409H22.3586V15.6045C20.5258 15.9727 19.1406 17.595 19.1406 19.5367C19.1406 20.2228 19.3191 20.8771 19.6393 21.4547L16.7203 29.0872H14.7392V28.273C14.7392 27.8358 14.3855 27.482 13.9483 27.482H11.5614C10.2429 27.482 9.16992 28.555 9.16992 29.8735C9.16992 31.1998 10.2429 32.2781 11.5614 32.2781H13.9483C14.3855 32.2781 14.7392 31.9244 14.7392 31.4872V30.6691H16.1154L14.8536 33.9682C14.6002 34.6281 14.6921 35.3968 15.2224 36.0072L14.3106 38.4175C14.1561 38.8261 14.3623 39.2827 14.7709 39.4371C15.1749 39.5899 15.6347 39.3889 15.7906 38.9768L16.6528 36.6977C16.6797 36.6988 16.7069 36.705 16.7337 36.705C17.5448 36.705 18.3126 36.2114 18.6192 35.4096L23.148 23.5701L27.6715 35.4073C27.9789 36.2099 28.7468 36.705 29.5594 36.705C29.5869 36.705 29.6146 36.6987 29.6422 36.6975L30.5126 38.9791C30.6713 39.3942 31.135 39.5892 31.5337 39.4364C31.9416 39.2804 32.1463 38.8231 31.991 38.4152L31.0722 36.0065C31.605 35.3933 31.6941 34.626 31.4411 33.9659L30.1802 30.6691H31.5276V31.4872C31.5276 31.9244 31.8814 32.2781 32.3186 32.2781H34.6923C36.0186 32.2781 37.0969 31.1998 37.0969 29.8735C37.0969 28.555 36.0186 27.482 34.6923 27.482ZM22.3347 11.4631C22.3347 11.0166 22.7039 10.6536 23.1581 10.6536C23.6046 10.6536 23.9677 11.0166 23.9677 11.4631V13.059H23.1535C23.1521 13.059 23.151 13.0582 23.1496 13.0582C23.1483 13.0582 23.1471 13.059 23.1458 13.059H22.3347V11.4631H22.3347ZM13.1573 30.6962H11.5614C11.115 30.6962 10.7519 30.327 10.7519 29.8735C10.7519 29.4271 11.1149 29.064 11.5614 29.064H13.1573V30.6962ZM23.144 17.107C23.146 17.107 23.1477 17.1081 23.1496 17.1081C23.1513 17.1081 23.1525 17.1072 23.1543 17.1072C24.4908 17.1106 25.5774 18.1986 25.5774 19.5367C25.5774 21.0652 24.1583 22.1926 22.7526 21.9258C21.6033 21.7476 20.7226 20.7368 20.7226 19.5367C20.7226 18.1979 21.8089 17.1093 23.144 17.107ZM17.1423 34.8442C17.0566 35.0674 16.8017 35.1787 16.5823 35.0945C16.3601 35.011 16.2444 34.7611 16.3305 34.5337C18.0472 30.0456 19.2294 26.955 20.8192 22.7987C20.8697 22.8349 21.4942 23.1882 21.5854 23.2267L17.1423 34.8442ZM29.15 34.8427L24.7108 23.2266C24.7372 23.2155 25.4003 22.8537 25.477 22.7987C27.0623 26.9438 28.251 30.052 29.9641 34.5314C30.0489 34.7526 29.9411 35.0072 29.7115 35.0945C29.4875 35.1794 29.2349 35.0659 29.15 34.8427ZM34.6923 30.6962H33.1095V29.064H34.6923C35.1457 29.064 35.5149 29.427 35.5149 29.8735C35.5149 30.3347 35.1534 30.6962 34.6923 30.6962Z" fill="#0038FF"/>
<path d="M46.0323 0H41.3814C40.9442 0 40.5904 0.353783 40.5904 0.790983V6.54723H3.81974C1.71328 6.54723 0 8.25665 0 10.3585V45.0768C0 47.2404 1.76349 49 3.93174 49H9.5953C10.0325 49 10.3863 48.6462 10.3863 48.209V42.7347H45.6067C48.3728 42.7347 50.6229 40.4846 50.6229 37.7184V4.59064C50.6229 2.04312 48.5416 0 46.0323 0ZM42.1724 1.58197H46.0323C47.6609 1.58197 49.0409 2.91096 49.0409 4.59064V34.0594C48.1665 33.2324 46.9581 32.6937 45.6067 32.6937H42.1724C42.1724 22.1192 42.1724 7.66438 42.1724 1.58197ZM8.80432 47.418H3.93174C2.63635 47.418 1.58197 46.3675 1.58197 45.0768C1.58197 43.7737 2.63529 42.7347 3.93174 42.7347H8.80432V47.418ZM45.6067 41.1527C33.5623 41.1527 15.973 41.1527 3.93174 41.1527C3.07129 41.1527 2.16706 41.4947 1.58197 41.9283V10.3585C1.58197 9.12952 2.58614 8.1292 3.81974 8.1292H40.5904V33.4847C40.5904 33.9219 40.9442 34.2757 41.3814 34.2757H45.6067C47.3603 34.2757 49.0409 35.7062 49.0409 37.7184C49.0409 39.6125 47.5007 41.1527 45.6067 41.1527Z" fill="#0038FF"/>
</svg>
