<svg width="32" height="29" viewBox="0 0 32 29" fill="none" xmlns="http://www.w3.org/2000/svg">
<path d="M29.8543 0H27.2618L27.2618 19.6829H29.5684C30.4761 19.6829 31.2877 20.0237 31.875 20.5469V1.90344C31.875 0.840792 30.9481 0 29.8543 0Z" fill="#0038FF"/>
<path d="M1.57818 28.9983H4.85077V26.0354H1.57818C0.707442 26.0354 -0.000139039 26.6717 0 27.5171C0.000139017 28.3624 0.708154 28.9983 1.57818 28.9983Z" fill="#0038FF"/>
<path d="M1.57818 25.0346H29.5684C30.8405 25.0346 31.875 24.0601 31.875 22.8619C31.875 21.5888 30.7462 20.6838 29.5684 20.6838H26.7306C26.4369 20.6838 26.1993 20.4599 26.1993 20.1833V4.14213H1.50296C0.674437 4.14213 0 4.77498 0 5.55249V25.5252C0.392966 25.2509 1.00028 25.0346 1.57818 25.0346Z" fill="#0038FF"/>
<path d="M21.4737 15.6844H20.0288C19.7626 15.6844 19.5473 15.8705 19.5473 16.1005V16.5288H18.3588L16.5822 12.5148C16.7799 12.209 16.8882 11.8655 16.8882 11.5049C16.8882 10.484 16.0448 9.63082 14.9289 9.43662V8.92962H15.4268C15.693 8.92962 15.9083 8.74352 15.9083 8.51354V7.25799C15.9083 6.56439 15.2552 6 14.4525 6C13.6452 6 12.9883 6.56439 12.9883 7.25799V8.51354C12.9883 8.74352 13.2037 8.92962 13.4698 8.92962H13.9659V9.43649C12.8502 9.63018 12.007 10.4836 12.007 11.5049C12.007 11.8659 12.1156 12.2101 12.3105 12.5139L10.5336 16.5288H9.32772V16.1005C9.32772 15.8705 9.11236 15.6844 8.84622 15.6844H7.39327C6.59062 15.6844 5.9375 16.2488 5.9375 16.9424C5.9375 17.6401 6.59062 18.2073 7.39327 18.2073H8.84622C9.11236 18.2073 9.32772 18.0212 9.32772 17.7912V17.3609H10.1654L9.39731 19.0963C9.24307 19.4434 9.29901 19.8478 9.62184 20.1689L9.06676 21.4368C8.97272 21.6517 9.09826 21.8919 9.347 21.9731C9.59294 22.0535 9.87283 21.9478 9.96768 21.731L10.4926 20.5321C10.509 20.5327 10.5255 20.536 10.5418 20.536C11.0355 20.536 11.5029 20.2763 11.6896 19.8546L14.4464 13.6266L17.2 19.8533C17.3871 20.2755 17.8545 20.536 18.3492 20.536C18.3659 20.536 18.3828 20.5326 18.3996 20.532L18.9294 21.7322C19.026 21.9506 19.3083 22.0531 19.551 21.9727C19.7993 21.8907 19.9239 21.6501 19.8294 21.4356L19.2701 20.1685C19.5944 19.8459 19.6487 19.4423 19.4946 19.0951L18.7271 17.3609H19.5473V17.7912C19.5473 18.0212 19.7626 18.2073 20.0288 18.2073H21.4737C22.2811 18.2073 22.9375 17.6401 22.9375 16.9424C22.9375 16.2488 22.2811 15.6844 21.4737 15.6844ZM13.9513 7.258C13.9513 7.02314 14.1761 6.83216 14.4526 6.83216C14.7243 6.83216 14.9453 7.02314 14.9453 7.258V8.09747H14.4497C14.4489 8.09747 14.4482 8.09706 14.4474 8.09706C14.4466 8.09706 14.4459 8.09747 14.445 8.09747H13.9513V7.258H13.9513ZM8.36474 17.3751H7.39328C7.1215 17.3751 6.9005 17.1809 6.9005 16.9424C6.9005 16.7076 7.1215 16.5166 7.39328 16.5166H8.36474V17.3751ZM14.444 10.2269C14.4451 10.2269 14.4462 10.2274 14.4474 10.2274C14.4484 10.2274 14.4491 10.227 14.4502 10.227C15.2638 10.2287 15.9252 10.8011 15.9252 11.5049C15.9252 12.309 15.0614 12.902 14.2057 12.7617C13.5061 12.668 12.97 12.1362 12.97 11.5049C12.97 10.8007 13.6312 10.2281 14.444 10.2269ZM10.7906 19.5571C10.7384 19.6746 10.5832 19.7331 10.4497 19.6888C10.3144 19.6448 10.2439 19.5134 10.2964 19.3938C11.3414 17.0329 12.061 15.4072 13.0288 13.2209C13.0595 13.2399 13.4397 13.4257 13.4952 13.446L10.7906 19.5571ZM18.1 19.5563L15.3977 13.446C15.4138 13.4401 15.8174 13.2498 15.8641 13.2208C16.8291 15.4013 17.5527 17.0363 18.5956 19.3926C18.6472 19.509 18.5816 19.6428 18.4418 19.6888C18.3055 19.7335 18.1517 19.6737 18.1 19.5563ZM21.4737 17.3751H20.5103V16.5166H21.4737C21.7497 16.5166 21.9745 16.7075 21.9745 16.9424C21.9745 17.185 21.7544 17.3751 21.4737 17.3751Z" fill="white"/>
</svg>
