<svg width="26" height="36" viewBox="0 0 26 36" fill="none" xmlns="http://www.w3.org/2000/svg">
<path fill-rule="evenodd" clip-rule="evenodd" d="M19.084 2H23.2C24.524 2 25.6 3.07599 25.6 4.39999V33.6C25.6 34.924 24.524 36 23.2 36H2.40002C1.07599 36 0 34.924 0 33.6V4.39999C0 3.07599 1.07599 2 2.40002 2H6.52002C6.86401 0.843994 7.93597 0 9.20001 0H16.4C17.668 0 18.736 0.843994 19.084 2ZM16.4 1.60001H9.20001C8.53998 1.60001 8 2.13599 8 2.79999C8 2.8681 8.00574 2.93491 8.01678 3H17.5833C17.5943 2.93491 17.6 2.8681 17.6 2.79999C17.6 2.13599 17.064 1.60001 16.4 1.60001Z" fill="#0038FF"/>
<path fill-rule="evenodd" clip-rule="evenodd" d="M23.0665 12.9333C23.0665 11.3887 21.8112 10.1333 20.2665 10.1333C19.6552 10.1333 19.0858 10.334 18.6238 10.67L15.5018 8.52332C15.5625 8.28999 15.5998 8.05199 15.5998 7.79999C15.5998 6.25533 14.3445 5 12.7998 5C11.2552 5 9.99985 6.25533 9.99985 7.79999C9.99985 8.05199 10.0372 8.28999 10.0979 8.52332L6.97586 10.67C6.51386 10.334 5.9492 10.1333 5.3332 10.1333C3.78853 10.1333 2.5332 11.3887 2.5332 12.9333C2.5332 14.1466 3.3172 15.1826 4.39987 15.57V17.7633C3.3172 18.146 2.5332 19.182 2.5332 20.4C2.5332 21.9446 3.78853 23.2 5.3332 23.2C5.9492 23.2 6.51386 22.9993 6.97586 22.6633L10.0979 24.81C10.0372 25.0386 9.99985 25.2813 9.99985 25.5333C9.99985 27.0779 11.2552 28.3333 12.7998 28.3333C14.3445 28.3333 15.5998 27.0779 15.5998 25.5333C15.5998 25.2813 15.5625 25.0386 15.5018 24.81L18.6238 22.6633C19.0858 22.9993 19.6552 23.2 20.2665 23.2C21.8112 23.2 23.0665 21.9446 23.0665 20.4C23.0665 19.182 22.2872 18.146 21.1998 17.7633V15.57C22.2872 15.1826 23.0665 14.1466 23.0665 12.9333ZM12.7998 6.86666C13.3178 6.86666 13.7332 7.28666 13.7332 7.79999C13.7332 8.31333 13.3178 8.73332 12.7998 8.73332C12.2865 8.73332 11.8665 8.31333 11.8665 7.79999C11.8665 7.28666 12.2865 6.86666 12.7998 6.86666ZM5.3332 12C5.8512 12 6.26653 12.42 6.26653 12.9333C6.26653 13.4466 5.8512 13.8666 5.3332 13.8666C4.81986 13.8666 4.39987 13.4466 4.39987 12.9333C4.39987 12.42 4.81986 12 5.3332 12ZM5.3332 21.3333C4.81986 21.3333 4.39987 20.9133 4.39987 20.4C4.39987 19.8866 4.81986 19.4666 5.3332 19.4666C5.8512 19.4666 6.26653 19.8866 6.26653 20.4C6.26653 20.9133 5.8512 21.3333 5.3332 21.3333ZM12.7998 26.4666C12.2865 26.4666 11.8665 26.0466 11.8665 25.5333C11.8665 25.02 12.2865 24.6 12.7998 24.6C13.3178 24.6 13.7332 25.02 13.7332 25.5333C13.7332 26.0466 13.3178 26.4666 12.7998 26.4666ZM17.4665 20.4C17.4665 20.652 17.5038 20.89 17.5645 21.1233L14.4425 23.27C13.9805 22.934 13.4158 22.7333 12.7998 22.7333C12.1885 22.7333 11.6192 22.934 11.1572 23.27L8.03519 21.1233C8.10052 20.89 8.13319 20.652 8.13319 20.4C8.13319 19.182 7.35386 18.146 6.26653 17.7633V15.57C7.35386 15.1826 8.13319 14.1466 8.13319 12.9333C8.13319 12.6813 8.10052 12.4386 8.03519 12.21L11.1572 10.0633C11.6192 10.3993 12.1885 10.6 12.7998 10.6C13.4158 10.6 13.9805 10.3993 14.4425 10.0633L17.5645 12.21C17.5038 12.4386 17.4665 12.6813 17.4665 12.9333C17.4665 14.1466 18.2505 15.1826 19.3332 15.57V17.7633C18.2505 18.146 17.4665 19.182 17.4665 20.4ZM20.2665 21.3333C19.7532 21.3333 19.3332 20.9133 19.3332 20.4C19.3332 19.8866 19.7532 19.4666 20.2665 19.4666C20.7845 19.4666 21.1998 19.8866 21.1998 20.4C21.1998 20.9133 20.7845 21.3333 20.2665 21.3333ZM20.2665 13.8666C19.7532 13.8666 19.3332 13.4466 19.3332 12.9333C19.3332 12.42 19.7532 12 20.2665 12C20.7845 12 21.1998 12.42 21.1998 12.9333C21.1998 13.4466 20.7845 13.8666 20.2665 13.8666ZM10.4665 31.1333H5.79986C5.28653 31.1333 4.86653 31.5486 4.86653 32.0666C4.86653 32.58 5.28653 33 5.79986 33H10.4665C10.9845 33 11.3998 32.58 11.3998 32.0666C11.3998 31.5486 10.9845 31.1333 10.4665 31.1333ZM14.1998 32.0666C14.1998 31.5486 14.6198 31.1333 15.1332 31.1333H19.7998C20.3178 31.1333 20.7332 31.5486 20.7332 32.0666C20.7332 32.58 20.3178 33 19.7998 33H15.1332C14.6198 33 14.1998 32.58 14.1998 32.0666Z" fill="white"/>
</svg>
