<svg width="498" height="69" viewBox="0 0 498 69" fill="none" xmlns="http://www.w3.org/2000/svg">
<path d="M44.8403 66.6863H65.3309L47.5803 42.57C56.7534 38.9104 62.9482 31.591 62.9482 23.521C62.9482 11.0406 50.2012 1 34.3567 1H1V66.6863H20.061V45.1036H29.115L44.8403 66.6863ZM20.061 15.0756H34.3567C39.5985 15.0756 43.8872 18.7353 43.8872 23.521C43.8872 28.3067 39.5985 31.9664 34.3567 31.9664H20.061V15.0756ZM86.6367 48.8571H128.928C129.405 47.0742 129.643 45.1975 129.643 43.2269C129.643 29.0574 116.777 18.4538 99.3838 18.4538C80.561 18.4538 67.6949 29.2451 67.6949 43.2269C67.6949 57.2087 80.3228 68 100.694 68C112.012 68 120.827 64.7157 126.665 58.3347L112.369 51.8599C109.986 53.9244 105.817 55.4258 100.932 55.4258C94.3803 55.4258 88.9002 53.7367 86.6367 48.8571ZM86.2793 38.3473C87.9472 33.5616 92.4742 30.9342 99.2646 30.9342C104.626 30.9342 109.986 32.9048 111.893 38.3473H86.2793ZM154.368 33.4678C154.368 31.7787 156.275 30.8403 159.372 30.8403C163.303 30.8403 165.686 32.5294 167.354 34.9692L182.603 28.4944C177.599 21.8319 169.022 18.4538 159.372 18.4538C146.982 18.4538 136.022 23.6148 136.022 33.8431C136.022 50.077 165.328 47.3557 165.328 52.5168C165.328 54.3936 163.184 55.4258 158.895 55.4258C153.654 55.4258 150.318 53.4552 148.769 49.8894L133.282 56.8333C137.928 64.4342 146.982 68 158.895 68C171.762 68 183.675 63.402 183.675 52.6106C183.675 35.2507 154.368 38.8165 154.368 33.4678ZM207.978 48.8571H250.27C250.746 47.0742 250.985 45.1975 250.985 43.2269C250.985 29.0574 238.119 18.4538 220.725 18.4538C201.903 18.4538 189.037 29.2451 189.037 43.2269C189.037 57.2087 201.664 68 222.036 68C233.353 68 242.169 64.7157 248.006 58.3347L233.711 51.8599C231.328 53.9244 227.159 55.4258 222.274 55.4258C215.722 55.4258 210.242 53.7367 207.978 48.8571ZM207.621 38.3473C209.289 33.5616 213.816 30.9342 220.606 30.9342C225.967 30.9342 231.328 32.9048 233.234 38.3473H207.621ZM303.783 19.7675V24.1779C299.852 20.612 294.014 18.4538 286.033 18.4538C270.426 18.4538 257.56 29.2451 257.56 43.2269C257.56 57.2087 270.426 68 286.033 68C294.014 68 299.852 65.8417 303.783 62.2759V66.6863H321.653V19.7675H303.783ZM289.607 54.6751C281.386 54.6751 275.43 50.2647 275.43 43.2269C275.43 36.1891 281.386 31.7787 289.607 31.7787C297.827 31.7787 303.783 36.1891 303.783 43.2269C303.783 50.2647 297.827 54.6751 289.607 54.6751ZM352.633 28.119V19.7675H334.763V66.6863H352.633V45.479C352.633 36.1891 363.116 33.8431 370.502 34.7815V18.8291C362.997 18.8291 355.015 21.8319 352.633 28.119ZM405.702 68C417.377 68 427.503 63.2143 432.625 55.895L417.019 48.8571C415.113 52.1415 410.705 54.112 405.464 54.112C397.72 54.112 392.002 49.7017 392.002 43.2269C392.002 36.7521 397.72 32.3417 405.464 32.3417C410.705 32.3417 414.994 34.3123 417.019 37.5966L432.625 30.465C427.503 23.2395 417.257 18.4538 405.702 18.4538C387.594 18.4538 374.132 29.2451 374.132 43.2269C374.132 57.2087 387.594 68 405.702 68ZM474.722 18.4538C466.86 18.4538 460.903 20.7059 457.687 24.1779V1H439.817V66.6863H457.687V41.0686C457.687 34.4062 462.214 31.4034 468.766 31.4034C474.484 31.4034 479.13 34.1247 479.13 39.9426V66.6863H497V37.8782C497 25.2101 486.755 18.4538 474.722 18.4538Z" stroke="white" stroke-opacity="0.5" stroke-width="2"/>
</svg>
