<svg width="679" height="675" viewBox="0 0 679 675" fill="none" xmlns="http://www.w3.org/2000/svg">
<path d="M197.228 265.284C199.861 139.955 311.081 41.9839 438.803 57.9016C537.221 69.721 615.991 150.786 625.834 248.513C635.007 344.834 580.02 430.752 495.996 466.602L485.55 430.857C482.943 421.747 471.111 418.712 464.655 426.239L388.729 509.627C382.987 516.472 385.565 526.975 394.614 529.254L503.129 560.093C512.178 562.373 520.747 554.194 518.139 545.084L508.349 511.443C614.188 469.781 684.331 361.891 672.158 241.824C659.971 122.453 564.736 25.7178 444.679 11.3542C289.038 -7.93633 153.568 111.816 150.365 264.3L150.029 280.314C149.956 283.795 152.68 287.336 156.877 287.424L189.751 288.114C193.248 288.188 196.804 285.476 196.892 281.298L197.228 265.284Z" fill="#194CFF"/>
<path d="M395.744 408.771L422.323 409.329C427.219 409.432 431.489 406.039 431.591 401.165L435.776 368.514C444.213 366.601 452.68 363.296 461.176 358.599L486.617 380.03C490.055 382.889 495.651 383.006 499.221 379.599L518.502 361.196C522.072 357.788 522.189 352.218 519.464 348.678L499.022 322.475C503.379 314.904 507.052 306.622 510.04 297.629L542.987 294.839C547.898 294.245 551.469 290.837 551.571 285.963L552.127 259.505C552.229 254.631 548.82 250.38 543.923 250.277L511.122 246.105C509.214 237.01 505.892 228.581 501.157 220.819L522.682 195.498C525.553 192.075 525.67 186.505 522.246 182.95L503.755 163.754C500.331 160.199 494.735 160.082 491.18 162.793L464.861 183.138C457.255 178.799 448.935 175.141 439.9 172.165L437.09 139.367C436.493 134.478 433.069 130.923 428.173 130.82L401.594 130.262C396.698 130.159 392.428 133.552 392.326 138.426L388.141 171.078C379.704 172.99 371.237 176.295 362.741 180.993L337.3 159.561C333.862 156.703 328.266 156.585 324.696 159.993L305.416 178.396C301.845 181.804 301.728 187.374 304.453 190.914L324.895 217.117C320.538 224.688 316.865 232.969 313.877 241.962L280.93 244.753C276.019 245.346 272.449 248.754 272.346 253.628L271.79 280.087C271.688 284.96 275.097 289.212 279.994 289.314L312.795 293.486C314.703 302.582 318.025 311.011 322.76 318.772L301.235 344.094C298.364 347.516 298.247 353.087 301.672 356.641L320.162 375.837C323.586 379.392 329.182 379.51 332.737 376.798L359.056 356.454C366.647 361.489 374.982 364.45 384.017 367.427L386.827 400.225C386.724 405.099 390.848 408.668 395.744 408.771ZM362.997 268.767C363.553 242.309 385.689 221.18 412.968 221.753C439.547 222.311 461.476 244.366 460.92 270.824C460.364 297.283 438.213 319.108 410.935 318.535C384.356 317.977 362.441 295.226 362.997 268.767Z" fill="#194CFF"/>
<path d="M10.5249 525.367L52.4042 530.426C54.9826 540.929 58.9746 550.765 63.6806 559.919L36.4287 591.39C33.5578 594.812 34.1695 599.005 36.9088 601.848L62.2473 628.154C64.9866 630.998 69.8828 631.101 72.7245 629.071L105.455 603.288C114.431 609.049 124.15 612.736 134.583 615.742L137.917 656.91C138.529 661.102 141.968 663.961 145.465 664.034L182.536 664.813C186.733 664.901 190.288 662.19 190.376 658.012L195.436 617.02C205.986 614.455 215.866 610.483 225.061 605.801L256.68 632.935C260.119 635.793 264.33 635.185 267.187 632.459L293.607 607.24C296.464 604.514 296.566 599.64 294.526 596.811L268.62 564.224C273.706 555.275 278.108 545.616 281.125 535.23L323.18 531.934C327.391 531.326 330.262 527.904 330.335 524.422L331.096 488.216C331.183 484.038 328.459 480.498 324.262 480.41L282.383 475.351C279.804 464.848 275.812 455.012 271.106 445.858L298.373 413.691C301.244 410.269 300.632 406.076 297.893 403.232L272.554 376.927C269.815 374.083 264.919 373.98 262.077 376.01L229.361 401.096C220.37 396.032 210.666 391.648 200.233 388.643L196.899 347.475C196.287 343.282 192.848 340.424 189.351 340.35L152.28 339.572C148.083 339.483 144.528 342.195 144.44 346.373L139.38 387.365C128.83 389.929 118.95 393.901 109.755 398.584L78.1211 372.146C74.6823 369.288 70.471 369.896 67.6147 372.622L41.1939 397.841C38.3376 400.567 37.5358 405.426 40.2751 408.27L66.1668 441.553C61.0806 450.502 56.6791 460.161 53.6619 470.547L11.6071 473.843C7.39577 474.451 4.52483 477.874 4.45171 481.355L3.69121 517.561C3.60346 521.739 6.34277 524.583 10.5249 525.367ZM169.642 445.816C201.117 446.477 226.47 472.087 225.812 503.419C225.154 534.751 198.733 559.97 167.258 559.309C135.783 558.648 110.444 532.342 111.102 501.01C111.76 469.677 137.467 445.141 169.642 445.816Z" fill="#194CFF"/>
</svg>
