<svg width="23" height="29" viewBox="0 0 23 29" fill="none" xmlns="http://www.w3.org/2000/svg">
<path d="M6.62353 5.31182V2.113C6.62352 2.04889 6.63671 1.98541 6.66234 1.92618C6.68796 1.86695 6.72552 1.81313 6.77287 1.7678C6.82022 1.72246 6.87643 1.6865 6.93829 1.66197C7.00016 1.63744 7.06646 1.62481 7.13342 1.62481H9.57631C9.6352 1.17612 9.86314 0.763435 10.2173 0.464261C10.5715 0.165087 11.0276 0 11.4999 0C11.9723 0 12.4284 0.165087 12.7826 0.464261C13.1368 0.763435 13.3647 1.17612 13.4236 1.62481H15.8665C15.9334 1.62481 15.9997 1.63744 16.0616 1.66197C16.1235 1.68651 16.1797 1.72247 16.227 1.7678C16.2744 1.81313 16.3119 1.86695 16.3375 1.92618C16.3632 1.98541 16.3763 2.04889 16.3763 2.113V5.31182C16.3763 5.37593 16.3632 5.43941 16.3375 5.49864C16.3119 5.55787 16.2744 5.61169 16.227 5.65702C16.1797 5.70235 16.1235 5.73831 16.0616 5.76285C15.9997 5.78738 15.9334 5.80001 15.8665 5.80001H7.13342C7.06646 5.80001 7.00016 5.78738 6.93829 5.76285C6.87643 5.73831 6.82022 5.70235 6.77287 5.65702C6.72552 5.61169 6.68796 5.55787 6.66234 5.49864C6.63671 5.43941 6.62352 5.37593 6.62353 5.31182ZM0 28.3556V3.54445C8.92508e-06 3.37354 0.0709276 3.20963 0.197157 3.08877C0.323386 2.96792 0.494587 2.90002 0.673102 2.90001H5.27734V5.3118C5.2779 5.78295 5.47364 6.23465 5.82161 6.5678C6.16958 6.90096 6.64136 7.08836 7.13346 7.0889H15.8664C16.3585 7.08837 16.8303 6.90097 17.1783 6.56782C17.5263 6.23467 17.7221 5.78296 17.7227 5.3118V2.90001H22.3269C22.5054 2.90002 22.6766 2.96792 22.8028 3.08877C22.9291 3.20963 23 3.37354 23 3.54445V28.3556C23 28.5265 22.9291 28.6904 22.8028 28.8112C22.6766 28.9321 22.5054 29 22.3269 29H0.673102C0.494587 29 0.323386 28.9321 0.197157 28.8112C0.0709276 28.6904 8.92508e-06 28.5265 0 28.3556ZM11.1758 12.5213C11.1758 12.5688 11.1956 12.6143 11.2306 12.6479C11.2657 12.6815 11.3132 12.7003 11.3628 12.7003H19.6679C19.7175 12.7003 19.765 12.6815 19.8001 12.6479C19.8352 12.6143 19.8549 12.5688 19.8549 12.5213V11.5905C19.8549 11.567 19.85 11.5437 19.8406 11.522C19.8312 11.5003 19.8175 11.4805 19.8001 11.4639C19.7827 11.4473 19.7621 11.4341 19.7394 11.4251C19.7168 11.4161 19.6924 11.4114 19.6679 11.4114H11.3628C11.3132 11.4114 11.2657 11.4303 11.2306 11.4639C11.1956 11.4975 11.1759 11.543 11.1759 11.5905L11.1758 12.5213ZM11.1758 18.8715C11.1758 18.919 11.1956 18.9645 11.2306 18.9981C11.2657 19.0317 11.3132 19.0505 11.3628 19.0505H19.6679C19.7175 19.0505 19.765 19.0317 19.8001 18.9981C19.8352 18.9645 19.8549 18.919 19.8549 18.8715V17.9407C19.8549 17.9172 19.85 17.8939 19.8406 17.8722C19.8312 17.8505 19.8175 17.8307 19.8001 17.8141C19.7827 17.7975 19.7621 17.7843 19.7394 17.7753C19.7168 17.7663 19.6924 17.7616 19.6679 17.7616H11.3628C11.3132 17.7616 11.2657 17.7805 11.2306 17.8141C11.1956 17.8477 11.1759 17.8932 11.1759 17.9407L11.1758 18.8715ZM11.1758 25.2217C11.1758 25.2692 11.1956 25.3147 11.2306 25.3483C11.2657 25.3819 11.3132 25.4007 11.3628 25.4007H19.6679C19.7175 25.4007 19.765 25.3819 19.8001 25.3483C19.8352 25.3147 19.8549 25.2692 19.8549 25.2217V24.2909C19.8549 24.2674 19.85 24.2441 19.8406 24.2224C19.8312 24.2007 19.8175 24.1809 19.8001 24.1643C19.7827 24.1477 19.7621 24.1345 19.7394 24.1255C19.7168 24.1165 19.6924 24.1118 19.6679 24.1118H11.3628C11.3132 24.1118 11.2657 24.1307 11.2306 24.1643C11.1956 24.1979 11.1759 24.2434 11.1759 24.2909L11.1758 25.2217ZM3.19978 11.3424L5.5093 13.5538C5.54437 13.5874 5.59192 13.6062 5.64151 13.6062C5.6911 13.6062 5.73866 13.5874 5.77372 13.5538L10.0524 9.4571C10.0698 9.44048 10.0835 9.42075 10.0929 9.39903C10.1023 9.37731 10.1072 9.35404 10.1072 9.33053C10.1072 9.30702 10.1023 9.28374 10.0929 9.26202C10.0835 9.2403 10.0698 9.22057 10.0524 9.20395L9.36502 8.54582C9.32996 8.51225 9.2824 8.4934 9.23281 8.4934C9.18322 8.4934 9.13567 8.51225 9.1006 8.54582L5.6415 11.8575L4.15161 10.4312C4.11654 10.3976 4.06898 10.3787 4.01939 10.3787C3.96981 10.3787 3.92225 10.3976 3.88718 10.4312L3.1998 11.0893C3.18244 11.1059 3.16866 11.1256 3.15926 11.1474C3.14986 11.1691 3.14502 11.1924 3.14502 11.2159C3.14502 11.2394 3.14986 11.2626 3.15925 11.2844C3.16865 11.3061 3.18242 11.3258 3.19978 11.3424ZM3.19978 17.6926L5.5093 19.904C5.54437 19.9376 5.59192 19.9564 5.64151 19.9564C5.6911 19.9564 5.73866 19.9376 5.77372 19.904L10.0524 15.8073C10.0698 15.7907 10.0835 15.7709 10.0929 15.7492C10.1023 15.7275 10.1072 15.7042 10.1072 15.6807C10.1072 15.6572 10.1023 15.6339 10.0929 15.6122C10.0835 15.5905 10.0698 15.5708 10.0524 15.5541L9.36502 14.896C9.32996 14.8625 9.2824 14.8436 9.23281 14.8436C9.18322 14.8436 9.13567 14.8625 9.1006 14.896L5.6415 18.2077L4.15161 16.7814C4.11654 16.7478 4.06898 16.7289 4.01939 16.7289C3.96981 16.7289 3.92225 16.7478 3.88718 16.7814L3.1998 17.4395C3.18244 17.4561 3.16866 17.4758 3.15927 17.4976C3.14987 17.5193 3.14503 17.5426 3.14503 17.5661C3.14503 17.5896 3.14986 17.6129 3.15926 17.6346C3.16865 17.6563 3.18242 17.676 3.19978 17.6926ZM3.19978 24.0427L5.50928 26.2542C5.54435 26.2877 5.59191 26.3066 5.6415 26.3066C5.69109 26.3066 5.73865 26.2877 5.77372 26.2542L10.0524 22.1573C10.0698 22.1407 10.0835 22.121 10.0929 22.0993C10.1023 22.0776 10.1072 22.0543 10.1072 22.0308C10.1072 22.0073 10.1023 21.984 10.0929 21.9623C10.0835 21.9405 10.0698 21.9208 10.0524 21.9042L9.36502 21.246C9.32996 21.2125 9.2824 21.1936 9.23281 21.1936C9.18322 21.1936 9.13567 21.2125 9.1006 21.246L5.6415 24.5579L4.15161 23.1314C4.11654 23.0978 4.06898 23.079 4.01939 23.079C3.96981 23.079 3.92225 23.0978 3.88718 23.1314L3.19978 23.7895C3.16472 23.8231 3.14503 23.8686 3.14503 23.9161C3.14503 23.9636 3.16472 24.0091 3.19978 24.0427Z" fill="#0038FF"/>
</svg>
