<svg width="715" height="714" viewBox="0 0 715 714" fill="none" xmlns="http://www.w3.org/2000/svg">
<path d="M6.4088 495.184L36.3905 514.201C34.1967 527.367 34.9279 541.265 36.3905 555.162L6.4088 574.179C1.28998 577.105 -0.903803 584.42 2.02124 590.271L8.60258 606.363L15.1839 622.454C18.109 628.306 24.6903 631.232 30.5404 629.769L64.9096 621.723C73.6847 632.694 83.1911 642.203 94.16 650.249L86.8474 684.627C85.3849 691.21 89.0412 697.793 94.8913 699.987L110.979 706.57L127.067 713.153C132.917 715.347 140.229 713.153 143.154 708.033L162.167 678.044C176.061 680.238 189.955 680.238 203.849 677.312L222.862 707.301C226.518 713.153 233.099 715.347 239.681 712.421L255.769 705.838L271.856 699.255C277.706 697.061 281.363 690.478 279.9 683.895L271.856 648.786C282.825 640.009 292.332 630.5 300.375 619.529L334.745 627.574C341.326 629.037 347.907 625.38 350.101 619.529L356.682 603.437L363.264 587.345C365.458 581.494 363.264 574.179 358.145 571.254L327.432 552.236C328.895 539.07 328.895 525.173 326.701 511.276L356.682 492.258C362.533 488.601 364.726 482.018 361.801 475.435L355.22 459.344L348.639 443.252C346.445 437.4 339.863 433.743 333.282 435.206L298.182 443.252C289.407 432.28 279.9 422.772 268.931 414.726L276.244 380.348C277.706 373.765 274.05 367.182 268.2 364.988L252.112 358.405L236.025 351.822C230.174 349.628 222.862 351.822 219.937 356.942L200.924 387.663C187.761 386.2 174.599 386.2 160.705 388.394L141.692 358.405C138.036 352.553 130.723 350.359 124.873 353.285L108.785 359.868L92.6975 366.451C86.8474 368.645 83.1911 375.228 84.6536 381.811L92.6975 416.189C81.7286 424.966 72.2222 434.475 64.1784 445.446L29.8091 438.132C23.2278 436.669 16.6464 440.326 14.4527 446.178L7.87132 462.269L1.28998 478.361C-1.63506 484.944 0.558717 491.527 6.4088 495.184ZM153.392 469.584C188.493 454.955 229.443 471.047 244.8 506.156C259.425 541.265 243.337 582.225 208.237 597.585C173.136 612.214 132.186 596.123 116.829 561.013C101.473 525.173 118.292 484.212 153.392 469.584ZM317.194 369.377L331.82 384.005L346.445 398.634C351.564 403.754 361.07 405.217 366.92 400.097L402.021 375.228C416.646 383.274 432.002 389.857 447.359 393.514L454.671 435.206C456.134 443.252 462.715 448.372 470.759 448.372H491.966H513.172C521.216 448.372 527.797 442.52 529.26 435.206L536.572 392.783C551.929 389.125 566.554 382.542 580.448 374.497L614.817 399.366C621.399 403.754 630.174 403.023 635.293 397.903L649.918 383.274L664.543 368.645C669.662 363.525 671.124 354.016 666.005 348.165L641.143 313.787C649.918 299.158 655.768 284.53 660.155 268.438L701.837 261.124C709.881 259.661 715 253.078 715 245.032V223.82V202.609C715 194.563 709.15 187.98 701.837 186.517L660.155 179.202C656.499 163.111 649.918 148.482 641.143 133.853L666.005 99.4757C670.393 92.8927 669.662 84.1154 664.543 78.9954L649.918 64.3666L635.293 49.7378C629.443 44.6178 620.667 43.8863 614.817 48.275L580.448 73.1439C565.823 64.3666 551.198 58.5151 535.11 54.1265L527.797 12.4345C525.604 5.85151 519.022 0 510.978 0H489.772H468.565C460.521 0 453.94 5.85151 452.478 13.1659L445.165 54.8579C429.077 58.5151 413.721 65.098 399.096 74.6067L366.189 50.4693C359.608 46.0806 350.832 46.8121 345.714 51.9321L331.088 66.5609L316.463 81.1897C311.344 86.3098 309.882 95.8185 315.001 101.67L339.863 136.779C331.82 151.408 325.238 166.768 321.582 182.128L279.169 189.443C271.125 190.905 266.006 197.488 266.006 205.534V226.746V247.958C266.006 256.004 271.856 262.587 279.169 264.049L321.582 271.364C325.97 286.724 331.82 302.084 340.595 315.982L316.463 350.359C311.344 355.479 312.076 364.256 317.194 369.377ZM435.659 197.488L467.834 229.672L544.616 153.602L578.254 187.248L501.472 263.318L467.834 296.964L434.196 263.318L402.021 231.135L435.659 197.488Z" fill="#194CFF"/>
</svg>
