<svg width="46" height="46" viewBox="0 0 46 46" fill="none" xmlns="http://www.w3.org/2000/svg">
<path d="M19.2905 13.3548H17.8066V14.8387H19.2905V13.3548Z" fill="#0038FF"/>
<path d="M22.2573 13.3548H20.7734V14.8387H22.2573V13.3548Z" fill="#0038FF"/>
<path d="M28.1948 22.258H26.7109V23.7419H28.1948V22.258Z" fill="#0038FF"/>
<path d="M25.2261 22.258H23.7422V23.7419H25.2261V22.258Z" fill="#0038FF"/>
<path d="M28.1948 31.1612H26.7109V32.6451H28.1948V31.1612Z" fill="#0038FF"/>
<path d="M25.2261 31.1612H23.7422V32.6451H25.2261V31.1612Z" fill="#0038FF"/>
<path d="M10.3862 2.9677H2.9668V4.45158H10.3862V2.9677Z" fill="#0038FF"/>
<path d="M10.3862 5.93552H2.9668V7.41939H10.3862V5.93552Z" fill="#0038FF"/>
<path d="M10.3862 41.5484H2.9668V43.0323H10.3862V41.5484Z" fill="#0038FF"/>
<path d="M10.3862 38.5806H2.9668V40.0645H10.3862V38.5806Z" fill="#0038FF"/>
<path d="M43.0326 2.9677H35.6133V4.45158H43.0326V2.9677Z" fill="#0038FF"/>
<path d="M43.0326 5.93552H35.6133V7.41939H43.0326V5.93552Z" fill="#0038FF"/>
<path d="M36.3548 22.2581C38.4004 22.2581 40.0645 20.5939 40.0645 18.5484V10.3871H46V0H32.6452V10.3871H38.5806V18.5484C38.5806 19.7755 37.582 20.7742 36.3548 20.7742H31.0248C30.8007 20.1458 30.3058 19.6509 29.6774 19.4268V17.6692C30.5388 17.362 31.1613 16.5459 31.1613 15.5799V12.6122C31.1613 11.385 30.1626 10.3864 28.9355 10.3864H17.0645C15.8374 10.3864 14.8387 11.385 14.8387 12.6122V15.5799C14.8387 16.5459 15.4612 17.362 16.3226 17.6692V19.4268C15.6942 19.6509 15.1993 20.1458 14.9752 20.7742H9.64516C8.418 20.7742 7.41935 19.7755 7.41935 18.5484V10.3871H13.3548V0H0V10.3871H5.93548V18.5484C5.93548 20.5939 7.59965 22.2581 9.64516 22.2581H14.8387V23.7419H9.64516C7.59965 23.7419 5.93548 25.4061 5.93548 27.4516V35.6129H0V46H13.3548V35.6129H7.41935V27.4516C7.41935 26.2245 8.418 25.2258 9.64516 25.2258H14.9752C15.1993 25.8542 15.6942 26.3491 16.3226 26.5732V28.3308C15.4612 28.638 14.8387 29.4541 14.8387 30.4201V33.3878C14.8387 34.615 15.8374 35.6136 17.0645 35.6136H28.9355C30.1626 35.6136 31.1613 34.615 31.1613 33.3878V30.4201C31.1613 29.4541 30.5388 28.638 29.6774 28.3308V26.5732C30.3058 26.3491 30.8007 25.8542 31.0248 25.2258H36.3548C37.582 25.2258 38.5806 26.2245 38.5806 27.4516V35.6129H32.6452V46H46V35.6129H40.0645V27.4516C40.0645 25.4061 38.4004 23.7419 36.3548 23.7419H31.1613V22.2581H36.3548ZM34.129 1.48387H44.5161V8.90323H34.129V1.48387ZM1.48387 1.48387H11.871V8.90323H1.48387V1.48387ZM11.871 44.5161H1.48387V37.0968H11.871V44.5161ZM44.5161 44.5161H34.129V37.0968H44.5161V44.5161ZM28.1935 17.8065V19.2903H17.8065V17.8065H28.1935ZM16.3226 12.6129C16.3226 12.2041 16.655 11.871 17.0645 11.871H28.9355C29.345 11.871 29.6774 12.2041 29.6774 12.6129V15.5806C29.6774 15.9895 29.345 16.3226 28.9355 16.3226H17.0645C16.655 16.3226 16.3226 15.9895 16.3226 15.5806V12.6129ZM17.8065 28.1935V26.7097H28.1935V28.1935H17.8065ZM29.6774 33.3871C29.6774 33.7966 29.345 34.129 28.9355 34.129H17.0645C16.655 34.129 16.3226 33.7966 16.3226 33.3871V30.4194C16.3226 30.0098 16.655 29.6774 17.0645 29.6774H28.9355C29.345 29.6774 29.6774 30.0098 29.6774 30.4194V33.3871ZM29.6774 24.4839C29.6774 24.8934 29.345 25.2258 28.9355 25.2258H17.0645C16.655 25.2258 16.3226 24.8934 16.3226 24.4839V21.5161C16.3226 21.1073 16.655 20.7742 17.0645 20.7742H28.9355C29.345 20.7742 29.6774 21.1073 29.6774 21.5161V24.4839Z" fill="#0038FF"/>
<path d="M43.0326 41.5484H35.6133V43.0323H43.0326V41.5484Z" fill="#0038FF"/>
<path d="M43.0326 38.5806H35.6133V40.0645H43.0326V38.5806Z" fill="#0038FF"/>
</svg>
