<svg width="34" height="33" viewBox="0 0 34 33" fill="none" xmlns="http://www.w3.org/2000/svg">
<path d="M25.148 19.4472L27.625 19.0324V15.2126L25.148 14.7978C24.9688 14.1623 24.7164 13.5468 24.391 12.9648L25.8586 10.9043L23.1758 8.20832L21.1305 9.68677C20.5527 9.35897 19.9418 9.10476 19.3109 8.92413L18.8926 6.42883H15.1074L14.6891 8.92413C14.0582 9.10476 13.4473 9.35897 12.8695 9.68677L10.8242 8.20832L8.14805 10.9043L9.61563 12.9648C9.29023 13.5468 9.03789 14.1623 8.85859 14.7978L6.375 15.2126V19.0324L8.85195 19.4472C9.03125 20.0894 9.28359 20.7049 9.60898 21.2802L8.14141 23.3407L10.8176 26.0367L12.8629 24.5649C13.4406 24.8927 14.0516 25.1402 14.6824 25.3276L15.1008 27.8229H18.8859L19.3043 25.3276C19.9352 25.1402 20.5461 24.8927 21.1238 24.5649L23.1691 26.0367L25.8453 23.3407L24.3777 21.2802C24.7164 20.6982 24.9688 20.0894 25.148 19.4472ZM17 20.9056C14.9215 20.9056 13.2414 19.2064 13.2414 17.1258C13.2414 15.0319 14.9281 13.3394 17 13.3394C19.0719 13.3394 20.7586 15.0386 20.7586 17.1258C20.7586 19.2064 19.0785 20.9056 17 20.9056Z" fill="#0038FF"/>
<path d="M34 4.28148V0H29.75V1.42493H19.125V0H14.875V1.42493H4.25V0H0V4.28148H4.25V2.85655H10.5121C5.75742 5.04412 2.29102 9.57313 1.56055 14.9852H0V19.2667H4.25V14.9852H2.98828C3.91133 8.81049 8.7457 3.9403 14.875 3.01042V4.28148H19.125V3.01042C25.2543 3.9403 30.0887 8.81049 31.0117 14.9852H29.75V19.2667H34V14.9852H32.4395C31.709 9.57313 28.2359 5.04412 23.4879 2.85655H29.75V4.28148H34Z" fill="#0038FF"/>
<path d="M8.98047 30.5859C9.41875 30.8535 9.87031 31.0943 10.3352 31.3151L10.9395 30.024C10.5211 29.8233 10.1094 29.6025 9.71094 29.3617L8.98047 30.5859Z" fill="#0038FF"/>
<path d="M12.4766 32.1512C12.9613 32.2984 13.466 32.4255 13.9641 32.5258L14.2363 31.1277C13.7781 31.034 13.3266 30.9203 12.8816 30.7865L12.4766 32.1512Z" fill="#0038FF"/>
<path d="M3.42891 21.2335L2.07422 21.6416C2.22031 22.1366 2.39297 22.625 2.58555 23.1L3.89375 22.5581C3.72109 22.1233 3.56172 21.6817 3.42891 21.2335Z" fill="#0038FF"/>
<path d="M5.96094 28.211C6.31953 28.5722 6.70469 28.9201 7.09648 29.2479L7.99961 28.1441C7.64102 27.8497 7.2957 27.5286 6.97031 27.2008L5.96094 28.211Z" fill="#0038FF"/>
<path d="M16.3152 31.3752L16.2422 32.8002C16.4945 32.8136 16.7469 32.8202 16.9992 32.8202C17.2582 32.8202 17.5172 32.8136 17.7762 32.8002L17.7098 31.3752C17.2449 31.402 16.7734 31.402 16.3152 31.3752Z" fill="#0038FF"/>
<path d="M3.61719 25.167C3.87617 25.6086 4.16172 26.0367 4.46719 26.4515L5.60273 25.6019C5.32383 25.2272 5.06484 24.8325 4.83242 24.4312L3.61719 25.167Z" fill="#0038FF"/>
<path d="M30.1094 22.538L31.4176 23.0798C31.6102 22.6049 31.7828 22.1165 31.9289 21.6215L30.5742 21.2134C30.4414 21.6616 30.2887 22.1031 30.1094 22.538Z" fill="#0038FF"/>
<path d="M28.4023 25.5886L29.5445 26.4382C29.85 26.0234 30.1355 25.5886 30.3945 25.1538L29.1793 24.4246C28.9402 24.8193 28.6812 25.214 28.4023 25.5886Z" fill="#0038FF"/>
<path d="M23.082 30.0173L23.693 31.3084C24.1512 31.0876 24.6027 30.8401 25.041 30.5792L24.3105 29.355C23.9055 29.5958 23.4937 29.8166 23.082 30.0173Z" fill="#0038FF"/>
<path d="M26.0117 28.1374L26.9148 29.2412C27.3066 28.9134 27.6852 28.5655 28.0504 28.1976L27.0477 27.1941C26.7156 27.5219 26.3703 27.843 26.0117 28.1374Z" fill="#0038FF"/>
<path d="M19.7812 31.121L20.0602 32.5191C20.5582 32.4188 21.0629 32.2917 21.5477 32.1445L21.1359 30.7798C20.691 30.9136 20.2328 31.0273 19.7812 31.121Z" fill="#0038FF"/>
</svg>
