<svg width="37" height="26" viewBox="0 0 37 26" fill="none" xmlns="http://www.w3.org/2000/svg">
<path fill-rule="evenodd" clip-rule="evenodd" d="M35.046 1.94984C35.6188 2.54042 36.0257 3.27171 36.2254 4.06986C36.7589 7.02757 37.0179 10.0283 36.999 13.0336C37.0097 15.9941 36.7507 18.9494 36.2254 21.8629C36.0257 22.661 35.6188 23.3923 35.046 23.9829C34.4731 24.5735 33.7546 25.0024 32.9629 25.2264C30.0703 26 18.5 26 18.5 26C18.5 26 6.92969 26 4.03712 25.2264C3.26154 25.0142 2.5538 24.6055 1.98228 24.0399C1.41077 23.4742 0.994796 22.7708 0.774558 21.9974C0.241058 19.0397 -0.0179089 16.039 0.000961352 13.0336C-0.0137775 10.0507 0.245173 7.07273 0.774558 4.13713C0.974328 3.33898 1.38118 2.60769 1.95403 2.01711C2.52688 1.42654 3.24544 0.997594 4.03712 0.773609C6.92969 0 18.5 0 18.5 0C18.5 0 30.0703 0 32.9629 0.706339C33.7546 0.930324 34.4731 1.35927 35.046 1.94984ZM15.4819 18.1849C14.8155 18.5515 14 18.0693 14 17.3087V9.69127C14 8.93067 14.8155 8.44851 15.4819 8.81505L22.4069 12.6238C23.0977 13.0037 23.0977 13.9963 22.4069 14.3762L15.4819 18.1849Z" fill="#666666"/>
</svg>
