<svg width="12" height="15" viewBox="0 0 12 15" fill="none" xmlns="http://www.w3.org/2000/svg">
<path d="M10.9002 0.866699C11.0469 0.866699 11.1736 0.920034 11.2802 1.0267C11.3869 1.13337 11.4402 1.26004 11.4402 1.40671V14.327C11.4402 14.4736 11.3869 14.6003 11.2802 14.707C11.1736 14.8137 11.0469 14.867 10.9002 14.867H9.28019C9.13352 14.867 9.00685 14.8137 8.90018 14.707C8.79351 14.6003 8.74018 14.4736 8.74018 14.327V9.04687H2.70006V14.327C2.70006 14.4736 2.64672 14.6003 2.54005 14.707C2.43338 14.8137 2.30671 14.867 2.16004 14.867H0.540011C0.393341 14.867 0.266672 14.8203 0.160003 14.727C0.0533344 14.6203 0 14.487 0 14.327V1.40671C0 1.26004 0.0533344 1.13337 0.160003 1.0267C0.266672 0.920034 0.393341 0.866699 0.540011 0.866699H2.16004C2.30671 0.866699 2.43338 0.920034 2.54005 1.0267C2.64672 1.13337 2.70006 1.26004 2.70006 1.40671V6.54682H8.74018V1.40671C8.74018 1.26004 8.79351 1.13337 8.90018 1.0267C9.00685 0.920034 9.13352 0.866699 9.28019 0.866699H10.9002Z" fill="#0038FF"/>
</svg>
