<svg width="425" height="628" viewBox="0 0 425 628" fill="none" xmlns="http://www.w3.org/2000/svg">
<path d="M272.352 318.68C272.352 257.326 225.932 205.82 165.131 199.365L165.071 99.364C164.9 91.8408 163.872 89.1113 158.917 81.8801L134.222 46.9021H188.134L196.121 125.308C221.612 132.268 235.158 137.897 258.091 151.031L319.204 101.197L369.823 151.816L319.98 212.95C332.549 234.855 339.095 250.526 345.712 274.909L424.118 282.886V354.474L345.712 362.45C339.075 386.803 332.518 402.504 319.97 424.41L369.823 485.543L319.204 536.162L258.071 486.319C236.165 498.888 220.494 505.424 196.121 512.052L188.134 590.457H159.219C162.049 582.843 164.537 572.712 164.859 564.594C165.338 556.774 165.262 548.91 165.187 541.047C165.159 538.146 165.131 535.245 165.131 532.345V437.996C225.933 431.541 272.352 380.046 272.352 318.68Z" fill="#F1F1F1"/>
<path d="M165.131 412.244V225.117C211.782 231.432 246.77 271.385 246.77 318.681C246.77 365.976 211.782 405.93 165.131 412.244Z" fill="#F1F1F1"/>
<path d="M0 117.806H139.55V519.556H82.5656V189.807C82.5656 182.777 76.8148 177.026 69.7749 177.026C62.745 177.026 56.9841 182.767 56.9841 189.807V519.556H0V117.806Z" fill="#F1F1F1"/>
<path d="M37.808 45.1907H101.742L134.252 91.1567L134.302 91.207L134.463 91.4285L134.453 91.4387L134.604 91.6501L134.745 91.8616L134.896 92.063L135.007 92.2241H4.54211C11.783 81.9548 19.0845 71.6418 26.3784 61.3398C30.1936 55.9512 34.0067 50.5657 37.808 45.1907Z" fill="#F1F1F1"/>
<path d="M55.9065 19.6091L69.7749 0L83.6432 19.6091H55.9065Z" fill="#F1F1F1"/>
<path d="M0 545.137H139.55C139.55 546.595 139.561 548.059 139.573 549.525C139.607 553.852 139.642 558.202 139.379 562.49C137.183 598.758 105.871 627.31 69.7749 627.31C31.4229 627.31 0 595.897 0 557.545V545.137Z" fill="#F1F1F1"/>
</svg>
