<svg width="770" height="93" viewBox="0 0 770 93" fill="none" xmlns="http://www.w3.org/2000/svg">
<path d="M70.4008 70.779H94.104L61.8676 3.31311H34.2364L2 70.779H25.7032L30.4439 60.1772H65.6602L70.4008 70.779ZM36.9454 45.7202L48.052 20.9506L59.1587 45.7202H36.9454ZM121.828 31.1669V22.5891H101.511V70.779H121.828V48.9971C121.828 39.4555 133.748 37.046 142.145 38.0098V21.6253C133.612 21.6253 124.537 24.7094 121.828 31.1669ZM182.166 72.1283C195.44 72.1283 206.953 67.2129 212.777 59.6953L195.033 52.4668C192.866 55.8401 187.855 57.8641 181.895 57.8641C173.091 57.8641 166.589 53.3342 166.589 46.684C166.589 40.0338 173.091 35.504 181.895 35.504C187.855 35.504 192.731 37.5279 195.033 40.9012L212.777 33.5764C206.953 26.1551 195.304 21.2398 182.166 21.2398C161.578 21.2398 146.272 32.3234 146.272 46.684C146.272 61.0446 161.578 72.1283 182.166 72.1283ZM260.639 21.2398C251.7 21.2398 244.928 23.5529 241.271 27.1189V3.31311H220.953V70.779H241.271V44.4673C241.271 37.6243 246.418 34.5402 253.867 34.5402C260.369 34.5402 265.651 37.3352 265.651 43.3107V70.779H285.968V41.1904C285.968 28.1791 274.32 21.2398 260.639 21.2398ZM310.079 18.3484C316.716 18.3484 322.269 14.3968 322.269 9.67419C322.269 4.95157 316.716 1 310.079 1C303.442 1 297.888 4.95157 297.888 9.67419C297.888 14.3968 303.442 18.3484 310.079 18.3484ZM299.92 70.779H320.237V22.5891H299.92V70.779ZM374.791 36.4678V22.5891H360.84V9.0959L340.523 13.433V22.5891H329.687V36.4678H340.523V53.527C340.523 67.0202 348.243 72.7066 374.791 70.779V57.6713C365.851 58.0568 360.84 57.6713 360.84 53.527V36.4678H374.791ZM403.121 52.4668H451.205C451.747 50.6356 452.018 48.708 452.018 46.684C452.018 32.1307 437.39 21.2398 417.614 21.2398C396.214 21.2398 381.585 32.3234 381.585 46.684C381.585 61.0446 395.943 72.1283 419.104 72.1283C431.972 72.1283 441.995 68.755 448.632 62.2012L432.378 55.551C429.669 57.6713 424.928 59.2134 419.375 59.2134C411.925 59.2134 405.695 57.4786 403.121 52.4668ZM402.715 41.6723C404.611 36.7569 409.758 34.0583 417.479 34.0583C423.574 34.0583 429.669 36.0822 431.836 41.6723H402.715ZM495.387 72.1283C508.661 72.1283 520.174 67.2129 525.998 59.6953L508.255 52.4668C506.088 55.8401 501.076 57.8641 495.116 57.8641C486.312 57.8641 479.811 53.3342 479.811 46.684C479.811 40.0338 486.312 35.504 495.116 35.504C501.076 35.504 505.952 37.5279 508.255 40.9012L525.998 33.5764C520.174 26.1551 508.526 21.2398 495.387 21.2398C474.799 21.2398 459.494 32.3234 459.494 46.684C459.494 61.0446 474.799 72.1283 495.387 72.1283ZM573.861 36.4678V22.5891H559.91V9.0959L539.593 13.433V22.5891H528.757V36.4678H539.593V53.527C539.593 67.0202 547.313 72.7066 573.861 70.779V57.6713C564.921 58.0568 559.91 57.6713 559.91 53.527V36.4678H573.861ZM595.523 18.3484C602.16 18.3484 607.713 14.3968 607.713 9.67419C607.713 4.95157 602.16 1 595.523 1C588.886 1 583.333 4.95157 583.333 9.67419C583.333 14.3968 588.886 18.3484 595.523 18.3484ZM585.364 70.779H605.681V22.5891H585.364V70.779ZM660.235 21.2398C651.295 21.2398 644.523 23.5529 640.866 27.1189V22.5891H620.549V70.779H640.866V44.4673C640.866 37.6243 646.013 34.5402 653.463 34.5402C659.964 34.5402 665.246 37.3352 665.246 43.3107V70.779H685.564V41.1904C685.564 28.1791 673.915 21.2398 660.235 21.2398ZM749.225 22.5891V27.5044C744.755 23.5529 738.253 21.2398 729.449 21.2398C710.216 21.2398 696.129 32.4198 696.129 45.7202C696.129 59.0206 710.216 70.2007 729.449 70.2007C738.253 70.2007 744.755 67.8876 749.225 63.936V68.3695C749.225 75.2124 743.4 78.6821 733.919 78.6821C724.98 78.6821 721.052 75.9835 718.478 72.6102L701.141 79.7423C707.372 87.6454 719.156 91.4043 733.242 91.4043C751.256 91.4043 769 84.5613 769 68.3695V22.5891H749.225ZM732.836 56.9003C723.219 56.9003 716.447 52.3704 716.447 45.7202C716.447 39.07 723.219 34.5402 732.836 34.5402C742.452 34.5402 749.225 39.07 749.225 45.7202C749.225 52.3704 742.452 56.9003 732.836 56.9003Z" stroke="white" stroke-opacity="0.5" stroke-width="2"/>
</svg>
