<svg width="173" height="153" viewBox="0 0 173 153" fill="none" xmlns="http://www.w3.org/2000/svg">
<g clip-path="url(#clip0)">
<path d="M109.568 134.482C111.191 82.71 135.46 83.0387 135.518 50.8483C135.564 24.893 114.175 1.8273 86.5126 1.82153C59.4352 1.81577 37.4844 23.7682 37.4844 50.8483C37.4844 84.2932 61.8082 82.5629 63.4344 134.482C63.5295 137.594 65.9804 140.25 69.0944 140.25H103.908C107.019 140.25 109.473 137.591 109.568 134.482Z" stroke="#FD8E3E" stroke-width="4" stroke-miterlimit="10"/>
<path d="M69.0938 140.25L69.7339 141.507C72.9459 147.815 79.4219 151.786 86.5004 151.786C93.579 151.786 100.055 147.815 103.264 141.507L103.907 140.25" stroke="#FD8E3E" stroke-width="4" stroke-miterlimit="10"/>
<path d="M62.2617 120.062H80.7324" stroke="#FD8E3E" stroke-width="4" stroke-miterlimit="10"/>
<path d="M86.5 120.062H92.2667" stroke="#FD8E3E" stroke-width="4" stroke-miterlimit="10"/>
<path d="M59.9688 108.527H112.999" stroke="#FD8E3E" stroke-width="4" stroke-miterlimit="10"/>
<path d="M100.918 108.527V96.9912" stroke="#FD8E3E" stroke-width="4" stroke-miterlimit="10"/>
<path d="M100.918 91.2234V85.4556" stroke="#FD8E3E" stroke-width="4" stroke-miterlimit="10"/>
<path d="M72.082 99.875V94.1072" stroke="#FD8E3E" stroke-width="4" stroke-miterlimit="10"/>
<path d="M72.082 88.3394V76.8037" stroke="#FD8E3E" stroke-width="4" stroke-miterlimit="10"/>
<path d="M86.5 99.875V94.1072" stroke="#FD8E3E" stroke-width="4" stroke-miterlimit="10"/>
<path d="M86.5 88.3393V33.5447" stroke="#FD8E3E" stroke-width="4" stroke-miterlimit="10"/>
<path d="M86.477 58.3575L68.3438 51.7188" stroke="#FD8E3E" stroke-width="4" stroke-miterlimit="10"/>
<path d="M95.8555 75.3704L112.452 68.1519V56.6162" stroke="#FD8E3E" stroke-width="4" stroke-miterlimit="10"/>
<path d="M86.5016 33.5448C91.2788 33.5448 95.1516 29.6712 95.1516 24.893C95.1516 20.1147 91.2788 16.2412 86.5016 16.2412C81.7243 16.2412 77.8516 20.1147 77.8516 24.893C77.8516 29.6712 81.7243 33.5448 86.5016 33.5448Z" stroke="#FD8E3E" stroke-width="4" stroke-miterlimit="10"/>
<path d="M60.5484 56.6161C65.3257 56.6161 69.1984 52.7425 69.1984 47.9643C69.1984 43.186 65.3257 39.3125 60.5484 39.3125C55.7712 39.3125 51.8984 43.186 51.8984 47.9643C51.8984 52.7425 55.7712 56.6161 60.5484 56.6161Z" stroke="#FD8E3E" stroke-width="4" stroke-miterlimit="10"/>
<path d="M112.451 56.6161C117.228 56.6161 121.101 52.7425 121.101 47.9643C121.101 43.186 117.228 39.3125 112.451 39.3125C107.674 39.3125 103.801 43.186 103.801 47.9643C103.801 52.7425 107.674 56.6161 112.451 56.6161Z" stroke="#FD8E3E" stroke-width="4" stroke-miterlimit="10"/>
<path d="M0 56.6162H11.5333" stroke="#FD8E3E" stroke-width="4" stroke-miterlimit="10"/>
<path d="M17.3008 56.6162H23.0674" stroke="#FD8E3E" stroke-width="4" stroke-miterlimit="10"/>
<path d="M30.5225 23.6995L27.1836 20.3599" stroke="#FD8E3E" stroke-width="4" stroke-miterlimit="10"/>
<path d="M18.8891 12.0621L9.86719 3.03833" stroke="#FD8E3E" stroke-width="4" stroke-miterlimit="10"/>
<path d="M30.3926 92.5442L27.3594 95.581" stroke="#FD8E3E" stroke-width="4" stroke-miterlimit="10"/>
<path d="M19.0705 103.873L10.0312 112.914" stroke="#FD8E3E" stroke-width="4" stroke-miterlimit="10"/>
<path d="M172.998 56.6162H161.465" stroke="#FD8E3E" stroke-width="4" stroke-miterlimit="10"/>
<path d="M155.7 56.6162H149.934" stroke="#FD8E3E" stroke-width="4" stroke-miterlimit="10"/>
<path d="M142.488 23.6874L145.79 20.3882" stroke="#FD8E3E" stroke-width="4" stroke-miterlimit="10"/>
<path d="M154.031 12.1401L163.143 3.02686" stroke="#FD8E3E" stroke-width="4" stroke-miterlimit="10"/>
<path d="M142.637 92.5725L145.67 95.6093" stroke="#FD8E3E" stroke-width="4" stroke-miterlimit="10"/>
<path d="M153.961 103.901L163 112.939" stroke="#FD8E3E" stroke-width="4" stroke-miterlimit="10"/>
</g>
<defs>
<clipPath id="clip0">
<rect width="173" height="153" fill="white"/>
</clipPath>
</defs>
</svg>
