<svg width="36" height="32" viewBox="0 0 36 32" fill="none" xmlns="http://www.w3.org/2000/svg">
<path d="M25.7693 10.2521L20.7495 9.50919L18.5063 4.89031C18.4546 4.80121 18.3809 4.72735 18.2925 4.67604C18.2041 4.62473 18.1041 4.59774 18.0023 4.59774C17.9004 4.59774 17.8004 4.62473 17.712 4.67604C17.6236 4.72735 17.5499 4.80121 17.4982 4.89031L15.2527 9.51148L10.2324 10.2543C10.1285 10.2697 10.0309 10.3142 9.95068 10.383C9.87042 10.4517 9.8107 10.5419 9.77828 10.6433C9.74585 10.7448 9.74202 10.8534 9.76721 10.9569C9.7924 11.0605 9.8456 11.1548 9.92081 11.2292L13.5534 14.8292L12.6956 19.9087C12.6778 20.0138 12.6894 20.122 12.7289 20.2208C12.7685 20.3197 12.8345 20.4053 12.9196 20.4679C13.0046 20.5306 13.1051 20.5679 13.2099 20.5755C13.3147 20.5831 13.4195 20.5607 13.5124 20.511L18 18.1075L22.4899 20.5075C22.5828 20.5573 22.6876 20.5797 22.7923 20.5721C22.8971 20.5645 22.9977 20.5272 23.0827 20.4645C23.1677 20.4018 23.2337 20.3162 23.2733 20.2174C23.3129 20.1185 23.3244 20.0104 23.3066 19.9052L22.4488 14.8258L26.0814 11.2258C26.1567 11.1513 26.2099 11.057 26.235 10.9534C26.2602 10.8498 26.2563 10.7412 26.2238 10.6397C26.1913 10.5383 26.1315 10.4481 26.0512 10.3794C25.9709 10.3106 25.8732 10.2661 25.7693 10.2509V10.2521ZM21.4521 14.2155C21.3868 14.2802 21.338 14.36 21.3099 14.4481C21.2818 14.5362 21.2752 14.6299 21.2906 14.7212L22.005 18.9555L18.2616 16.9555C18.1808 16.9127 18.0911 16.8903 18 16.8903C17.9089 16.8903 17.8192 16.9127 17.7384 16.9555L13.995 18.9555L14.7094 14.7212C14.7248 14.6299 14.7182 14.5362 14.6901 14.4481C14.662 14.36 14.6132 14.2802 14.5479 14.2155L11.5194 11.2166L15.705 10.5989C15.7953 10.5855 15.8811 10.55 15.9549 10.4955C16.0286 10.4409 16.0883 10.369 16.1286 10.2858L18 6.43432L19.8714 10.2858C19.9118 10.3688 19.9715 10.4407 20.0452 10.4952C20.119 10.5496 20.2047 10.585 20.295 10.5983L24.4806 11.2161L21.4521 14.2155ZM33.1875 0H2.8125C2.06685 0.000907352 1.352 0.30222 0.824749 0.837844C0.297496 1.37347 0.00089317 2.09967 0 2.85716L0 23.4287C0.00089317 24.1862 0.297496 24.9124 0.824749 25.448C1.352 25.9836 2.06685 26.2849 2.8125 26.2859H11.9357C12.1721 26.2859 12.406 26.3365 12.622 26.4342C12.8379 26.532 13.0313 26.6747 13.1895 26.8533L17.5821 31.811C17.6348 31.8705 17.6993 31.9181 17.7713 31.9506C17.8433 31.9832 17.9212 32 18 32C18.0788 32 18.1567 31.9832 18.2287 31.9506C18.3007 31.9181 18.3652 31.8705 18.4179 31.811L22.8105 26.8533C22.9687 26.6747 23.1621 26.532 23.378 26.4342C23.594 26.3365 23.8279 26.2859 24.0643 26.2859H33.1875C33.9331 26.2849 34.648 25.9836 35.1753 25.448C35.7025 24.9124 35.9991 24.1862 36 23.4287V2.85716C35.9991 2.09967 35.7025 1.37347 35.1753 0.837844C34.648 0.30222 33.9331 0.000907352 33.1875 0ZM34.875 23.4287C34.875 23.8834 34.6972 24.3194 34.3807 24.6409C34.0643 24.9624 33.6351 25.143 33.1875 25.143H24.0643C23.6702 25.1433 23.2804 25.2276 22.9204 25.3905C22.5603 25.5534 22.2379 25.7913 21.9741 26.0887L18 30.5744L14.0259 26.0893C13.7623 25.7915 13.4399 25.5534 13.0798 25.3904C12.7197 25.2274 12.3299 25.1431 11.9357 25.143H2.8125C2.36495 25.143 1.93572 24.9624 1.61926 24.6409C1.30279 24.3194 1.125 23.8834 1.125 23.4287V2.85716C1.125 2.4025 1.30279 1.96646 1.61926 1.64497C1.93572 1.32348 2.36495 1.14286 2.8125 1.14286H33.1875C33.6351 1.14286 34.0643 1.32348 34.3807 1.64497C34.6972 1.96646 34.875 2.4025 34.875 2.85716V23.4287Z" fill="#434343"/>
</svg>
