<svg width="60" height="49" viewBox="0 0 60 49" fill="none" xmlns="http://www.w3.org/2000/svg">
<path d="M49.3361 13.6656C49.2412 13.6121 49.1382 13.57 49.0246 13.5493C48.5815 13.4691 48.1491 13.4276 47.726 13.4063C45.5865 5.59162 38.336 0 30.1805 0C20.1435 0 11.9779 8.1642 11.9779 18.1998C11.9779 18.7446 12.0053 19.2933 12.0608 19.8541C11.4346 19.6957 10.7595 19.6135 10.0437 19.6556C10.039 19.6556 10.0343 19.6549 10.0296 19.6549C10.0176 19.6549 10.0056 19.6569 9.99354 19.6569C9.98084 19.6576 9.96881 19.6569 9.95678 19.6576C9.95411 19.6576 9.95076 19.6589 9.94809 19.6589C4.45605 19.7037 0 24.1811 0 29.6825C0 35.2127 4.4995 39.7128 10.0296 39.7128H22.1299C22.2081 39.7128 22.2829 39.7015 22.3558 39.6847C28.2863 39.4963 31.6823 35.722 31.6823 29.2454V28.1987L33.2276 29.2909C33.4034 29.4158 33.6045 29.4747 33.8051 29.4747C34.1199 29.4747 34.4293 29.3269 34.6245 29.0502C34.9446 28.5984 34.8364 27.9728 34.3845 27.6533L31.3187 25.4865C31.2626 25.4464 31.2031 25.4123 31.1402 25.3849C31.1021 25.3682 31.0627 25.3568 31.0233 25.3448C31.0019 25.3381 30.9812 25.3294 30.9584 25.324C30.9143 25.3134 30.8696 25.31 30.8248 25.306C30.8054 25.304 30.786 25.2993 30.7666 25.2987C30.7252 25.2973 30.6831 25.302 30.641 25.306C30.6182 25.308 30.5955 25.3073 30.5715 25.3113C30.53 25.318 30.4906 25.3301 30.4498 25.3421C30.4278 25.3488 30.405 25.3528 30.3823 25.3601C30.3268 25.3809 30.2734 25.4076 30.2226 25.4377C30.2166 25.441 30.2105 25.443 30.2052 25.4464L30.2039 25.447C30.2025 25.4477 30.2018 25.4484 30.2005 25.4497L27.007 27.4167C26.5351 27.7075 26.3888 28.3244 26.6795 28.7963C26.8687 29.1037 27.1975 29.2728 27.5337 29.2728C27.7135 29.2728 27.8946 29.2247 28.0584 29.1238L29.6752 28.1279V29.2454C29.6752 33.1019 28.3244 37.6977 21.8913 37.6977C21.8579 37.6977 21.8264 37.7044 21.7937 37.7077H10.0296C5.60499 37.7077 2.00512 34.1072 2.00512 29.6825C2.00512 25.2592 5.60499 21.66 10.0296 21.66C10.696 21.66 11.3731 21.7576 12.0501 21.9414C13.6663 22.5122 14.8012 23.7159 14.8292 23.7453C15.0271 23.9612 15.2978 24.0708 15.5691 24.0708C15.8097 24.0708 16.0517 23.9846 16.2442 23.8095C16.6532 23.4366 16.6833 22.8029 16.3103 22.3932C16.2515 22.3284 15.4669 21.4849 14.2103 20.7477C14.0659 19.8628 13.9831 19.0206 13.9831 18.1998C13.9831 9.27036 21.249 2.00512 30.1805 2.00512C37.2839 2.00512 43.6081 6.77398 45.6594 13.4965C43.0707 13.8547 41.2474 14.993 41.1431 15.0598C40.6773 15.3572 40.5409 15.9748 40.837 16.4413C41.0275 16.7421 41.3523 16.9065 41.6852 16.9065C41.8677 16.9065 42.0535 16.8564 42.2199 16.7521C42.2426 16.7374 44.1047 15.5892 46.5924 15.4181L46.94 15.4207C53.0362 15.4722 57.9962 20.4696 57.9962 26.5605C57.9962 31.6094 51.8986 37.7077 44.3266 37.7077C43.9717 37.7077 42.4304 37.7157 40.9019 37.7231C39.4014 37.7304 37.9122 37.7378 37.574 37.7378C37.5346 37.7378 37.4978 37.7451 37.4597 37.7498C34.1158 37.8086 31.7598 38.6087 30.2867 40.2061C29.0141 41.5856 28.422 43.5526 28.5062 46.0463L26.7925 44.8352C26.3393 44.5144 25.715 44.6234 25.3949 45.0745C25.0754 45.527 25.183 46.1526 25.6348 46.4721L28.708 48.6443C28.7207 48.6537 28.7361 48.6563 28.7488 48.6644C28.8063 48.7011 28.8671 48.7305 28.9299 48.7546C28.958 48.7653 28.9841 48.7787 29.0121 48.7867C29.0977 48.8114 29.1866 48.8261 29.2761 48.8274C29.2788 48.8274 29.2822 48.8288 29.2855 48.8288H29.2862H29.2868C29.2909 48.8288 29.2949 48.8268 29.2989 48.8268C29.3791 48.8261 29.4586 48.8147 29.5361 48.7947C29.5629 48.7873 29.5876 48.7753 29.6143 48.766C29.6712 48.7466 29.726 48.7239 29.7794 48.6944C29.7895 48.6884 29.8008 48.6864 29.8115 48.6804L33.0097 46.712C33.4816 46.4213 33.6286 45.8044 33.3379 45.3332C33.0471 44.86 32.4295 44.7143 31.959 45.005L30.5013 45.902C30.4438 43.973 30.8548 42.5474 31.7598 41.5669C32.8907 40.3411 34.8825 39.7449 37.8494 39.7449C37.8521 39.7449 37.8541 39.7442 37.8567 39.7442C38.4389 39.7422 39.666 39.7355 40.9112 39.7302C42.4351 39.7222 43.971 39.7148 44.3253 39.7148C47.8416 39.7148 51.7543 38.3066 54.7914 35.9459C58.1499 33.3372 60 30.004 60 26.5625C60 20.1876 55.3942 14.8399 49.3361 13.6656Z" fill="#0038FF"/>
</svg>
