<svg width="60" height="52" viewBox="0 0 60 52" fill="none" xmlns="http://www.w3.org/2000/svg">
<path d="M55.0105 0H4.98947C2.21053 0 0 2.21053 0 4.98947V46.9263C0 49.7053 2.21053 51.9158 4.98947 51.9158H55.0105C57.7895 51.9158 60 49.7053 60 46.9263V4.98947C60 2.21053 57.7895 0 55.0105 0ZM4.98947 3.34737H55.0105C55.9579 3.34737 56.6526 4.10526 56.6526 4.98947V13.3263H3.34737V4.98947C3.34737 4.04211 4.0421 3.34737 4.98947 3.34737ZM55.0105 48.5684H4.98947C4.0421 48.5684 3.34737 47.8105 3.34737 46.9263V16.6105H56.7158V46.9263C56.6526 47.8737 55.9579 48.5684 55.0105 48.5684Z" fill="white"/>
<path d="M8.52625 10.2948C9.60757 10.2948 10.4841 9.41824 10.4841 8.33692C10.4841 7.25561 9.60757 6.37903 8.52625 6.37903C7.44494 6.37903 6.56836 7.25561 6.56836 8.33692C6.56836 9.41824 7.44494 10.2948 8.52625 10.2948Z" fill="white"/>
<path d="M14.5907 10.2948C15.672 10.2948 16.5486 9.41824 16.5486 8.33692C16.5486 7.25561 15.672 6.37903 14.5907 6.37903C13.5094 6.37903 12.6328 7.25561 12.6328 8.33692C12.6328 9.41824 13.5094 10.2948 14.5907 10.2948Z" fill="white"/>
<path d="M20.6571 10.2948C21.7384 10.2948 22.615 9.41824 22.615 8.33692C22.615 7.25561 21.7384 6.37903 20.6571 6.37903C19.5758 6.37903 18.6992 7.25561 18.6992 8.33692C18.6992 9.41824 19.5758 10.2948 20.6571 10.2948Z" fill="white"/>
<path d="M27.1608 31.1367L25.3292 30.6314C25.0766 29.9998 24.9502 29.7472 24.6976 29.1156L25.645 27.4735C25.7713 27.2209 25.7081 26.9682 25.5818 26.7788L24.3187 25.5156C24.1292 25.3261 23.8766 25.263 23.6239 25.4524L21.9818 26.3998C21.3502 26.1472 21.0976 26.0209 20.466 25.7682L19.9608 23.9367C19.8976 23.6209 19.645 23.4314 19.3924 23.4314H17.6239C17.3713 23.4314 17.1187 23.6209 17.0555 23.8735L16.5502 25.7051C15.9187 25.9577 15.666 26.084 15.0345 26.3367L13.3924 25.3893C13.1397 25.263 12.8871 25.3261 12.6976 25.4524L11.4976 26.6524C11.3081 26.8419 11.245 27.0946 11.4345 27.3472L12.3818 28.9893C12.1292 29.6209 12.0029 29.8735 11.7502 30.5051L9.91867 31.0103C9.66604 31.0735 9.47656 31.3261 9.47656 31.5788V33.3472C9.47656 33.5998 9.66604 33.8524 9.91867 33.9156L11.7502 34.4209C12.0029 35.0525 12.1292 35.3051 12.3818 35.9367L11.4345 37.5788C11.3081 37.8314 11.3713 38.084 11.4976 38.2735L12.6976 39.4735C12.8871 39.663 13.1397 39.7261 13.3924 39.5367L15.0345 38.5893C15.666 38.8419 15.9187 38.9682 16.5502 39.2209L17.0555 41.0525C17.1187 41.3051 17.3713 41.4946 17.6239 41.4946H19.3924C19.645 41.4946 19.8976 41.3051 19.9608 41.0525L20.466 39.2209C21.0976 38.9682 21.3502 38.8419 21.9818 38.5893L23.6239 39.5367C23.8766 39.663 24.1292 39.5998 24.3187 39.4735L25.5187 38.2735C25.7081 38.084 25.7713 37.8314 25.5818 37.5788L24.6976 36.063C24.9502 35.4314 25.0766 35.1788 25.3292 34.5472L27.1608 34.0419C27.4134 33.9788 27.6029 33.7261 27.6029 33.4735V31.7051C27.6029 31.4524 27.4134 31.1998 27.1608 31.1367ZM18.5081 36.3156C16.4239 36.3156 14.7187 34.6103 14.7187 32.5261C14.7187 30.4419 16.4239 28.7367 18.5081 28.7367C20.5924 28.7367 22.2976 30.4419 22.2976 32.5261C22.2976 34.6735 20.5924 36.3156 18.5081 36.3156Z" fill="white"/>
<path d="M35.3084 31.895H31.3926C31.14 31.895 31.0137 32.0845 31.0137 32.274V39.9161C31.0137 40.1687 31.2031 40.295 31.3926 40.295H35.3084C35.561 40.295 35.6874 40.1055 35.6874 39.9161V32.3371C35.6874 32.0845 35.4979 31.895 35.3084 31.895Z" fill="white"/>
<path d="M50.2127 28.7998H46.2969C46.0443 28.7998 45.918 28.9893 45.918 29.1788V39.9156C45.918 40.1682 46.1074 40.2945 46.2969 40.2945H50.2127C50.4653 40.2945 50.5917 40.1051 50.5917 39.9156V29.1788C50.5917 28.9893 50.4022 28.7998 50.2127 28.7998Z" fill="white"/>
<path d="M42.7557 24.7577H38.8399C38.5873 24.7577 38.4609 24.9472 38.4609 25.1366V39.9156C38.4609 40.1682 38.6504 40.2945 38.8399 40.2945H42.7557C43.0083 40.2945 43.1346 40.1051 43.1346 39.9156V25.1998C43.1346 24.9472 42.9451 24.7577 42.7557 24.7577Z" fill="white"/>
</svg>
