<svg width="60" height="59" viewBox="0 0 60 59" fill="none" xmlns="http://www.w3.org/2000/svg">
<path d="M45.6454 30.1871C45.6466 27.5483 44.9706 24.9533 43.6821 22.6505C42.3935 20.3476 40.5355 18.414 38.2859 17.0347C36.0363 15.6553 33.4703 14.8764 30.8335 14.7724C28.1968 14.6684 25.5774 15.2429 23.2262 16.4408C20.8749 17.6388 18.8704 19.4201 17.4046 21.6143C15.9387 23.8085 15.0605 26.3423 14.8539 28.973C14.6474 31.6037 15.1195 34.2434 16.225 36.6395C17.3305 39.0356 19.0324 41.1079 21.1679 42.6581C21.863 43.1667 22.4143 43.8469 22.7679 44.6323C22.5113 44.6383 22.2675 44.746 22.0902 44.9317C21.913 45.1174 21.8168 45.3659 21.8228 45.6226C21.8288 45.8793 21.9365 46.123 22.1222 46.3003C22.3079 46.4775 22.5564 46.5738 22.8131 46.5678H23.2583C23.2583 46.6903 23.2583 46.8129 23.2583 46.942V47.7291H22.7937C22.5371 47.7291 22.2909 47.831 22.1094 48.0125C21.928 48.194 21.826 48.4401 21.826 48.6968C21.826 48.9535 21.928 49.1996 22.1094 49.3811C22.2909 49.5626 22.5371 49.6645 22.7937 49.6645H23.2583V50.8258H22.7937C22.5371 50.8258 22.2909 50.9278 22.1094 51.1093C21.928 51.2908 21.826 51.5369 21.826 51.7936C21.826 52.0502 21.928 52.2964 22.1094 52.4779C22.2909 52.6594 22.5371 52.7613 22.7937 52.7613H23.2583V54.8839C23.2583 55.1406 23.3602 55.3867 23.5417 55.5682C23.7232 55.7497 23.9693 55.8516 24.226 55.8516H25.8454V57.742C25.8454 57.9986 25.9473 58.2448 26.1288 58.4263C26.3103 58.6077 26.5564 58.7097 26.8131 58.7097H33.626C33.8827 58.7097 34.1288 58.6077 34.3103 58.4263C34.4918 58.2448 34.5937 57.9986 34.5937 57.742V55.8452H36.2131C36.4698 55.8452 36.7159 55.7432 36.8974 55.5617C37.0789 55.3803 37.1808 55.1341 37.1808 54.8774V52.7549H37.6454C37.902 52.7549 38.1482 52.6529 38.3296 52.4714C38.5111 52.2899 38.6131 52.0438 38.6131 51.7871C38.6131 51.5305 38.5111 51.2843 38.3296 51.1028C38.1482 50.9213 37.902 50.8194 37.6454 50.8194H37.1808V49.6581H37.6454C37.902 49.6581 38.1482 49.5561 38.3296 49.3746C38.5111 49.1932 38.6131 48.947 38.6131 48.6903C38.6131 48.4337 38.5111 48.1875 38.3296 48.0061C38.1482 47.8246 37.902 47.7226 37.6454 47.7226H37.1808V46.9291C37.1808 46.8065 37.1808 46.6839 37.1808 46.5613H37.626C37.8827 46.569 38.1319 46.4744 38.3188 46.2984C38.5057 46.1224 38.6151 45.8793 38.6228 45.6226C38.6305 45.3659 38.5359 45.1167 38.3599 44.9298C38.1838 44.7429 37.9407 44.6335 37.6841 44.6258C38.0546 43.8255 38.6203 43.1312 39.3292 42.6065C41.2792 41.1738 42.8663 39.3042 43.9631 37.1474C45.06 34.9906 45.6362 32.6068 45.6454 30.1871ZM32.6583 56.7613H27.8002V55.8452H32.6583V56.7613ZM35.2389 53.9097H25.2131V52.7549H35.2454L35.2389 53.9097ZM35.2389 50.8194H25.2131V49.6581H35.2454L35.2389 50.8194ZM35.2389 46.9484V47.742H25.2131V46.9355C25.2131 46.8065 25.2131 46.6839 25.2131 46.5613H35.2647C35.2583 46.6839 35.2454 46.8065 35.2454 46.9291L35.2389 46.9484ZM38.2002 41.071C36.992 41.9678 36.0907 43.2162 35.6195 44.6452H24.8389C24.3847 43.2303 23.4979 41.9937 22.3034 41.1097C20.4392 39.7534 18.9541 37.9416 17.99 35.8474C17.026 33.7533 16.6152 31.4469 16.797 29.1486C16.9788 26.8504 17.7471 24.6373 19.0284 22.7208C20.3098 20.8042 22.0613 19.2485 24.1156 18.2021C26.1698 17.1558 28.4582 16.6539 30.7618 16.7445C33.0654 16.835 35.3073 17.515 37.2731 18.7193C39.2389 19.9236 40.8629 21.6121 41.9898 23.6233C43.1168 25.6345 43.709 27.9011 43.7099 30.2065C43.7011 32.318 43.199 34.3983 42.2435 36.2812C41.288 38.1642 39.9056 39.7978 38.2066 41.0516L38.2002 41.071Z" fill="white"/>
<path d="M33.0644 22.9935C32.0898 22.9239 31.1134 23.1015 30.2256 23.5096C29.3405 23.1004 28.366 22.9228 27.3934 22.9935C26.5354 23.0621 25.7082 23.3441 24.987 23.814C24.2659 24.2839 23.6737 24.9266 23.2644 25.6838C22.8194 26.4777 22.5788 27.3697 22.5642 28.2797C22.5495 29.1896 22.7613 30.0889 23.1805 30.8967L25.5289 35.4128C25.8103 35.9625 26.0518 36.5317 26.2514 37.1161C26.3184 37.3053 26.4425 37.4691 26.6066 37.5847C26.7708 37.7003 26.9668 37.762 27.1676 37.7612C27.2728 37.7598 27.3772 37.7424 27.4773 37.7096C27.7191 37.6259 27.9183 37.4504 28.0317 37.221C28.1452 36.9916 28.1639 36.7268 28.0837 36.4838C27.8564 35.8047 27.576 35.1446 27.245 34.5096L24.8966 29.9999C24.626 29.4756 24.4896 28.8923 24.4997 28.3023C24.5099 27.7123 24.6662 27.134 24.9547 26.6193C25.2078 26.142 25.5767 25.7359 26.0276 25.4383C26.4785 25.1407 26.997 24.9611 27.5353 24.9161C27.7841 24.8902 28.0349 24.8902 28.2837 24.9161C28.2264 24.982 28.1726 25.051 28.1224 25.1225L28.0256 25.2451C27.8966 25.4193 27.774 25.5999 27.6644 25.7806L27.6063 25.8967C27.5143 26.0548 27.4324 26.2186 27.3611 26.387L27.2966 26.5419C27.2111 26.7518 27.14 26.9674 27.0837 27.187V27.2644C27.032 27.453 26.9932 27.6448 26.9676 27.8386C26.9676 27.8967 26.9676 27.9548 26.9676 28.0128C26.9407 28.2269 26.9256 28.4423 26.9224 28.658C26.9196 29.658 27.1783 30.6413 27.6729 31.5105C28.1675 32.3797 28.8807 33.1044 29.7418 33.6128C29.8019 33.6499 29.8671 33.6782 29.9353 33.6967H29.974H29.9998C30.0691 33.7168 30.1407 33.7277 30.2127 33.729C30.289 33.7273 30.3648 33.7164 30.4385 33.6967C30.4534 33.6931 30.4689 33.6931 30.4837 33.6967C30.5489 33.6754 30.6116 33.6473 30.6708 33.6128C31.4001 33.1948 32.0274 32.6198 32.5071 31.9296C32.9869 31.2393 33.3073 30.451 33.445 29.6218C33.5827 28.7925 33.5343 27.943 33.3033 27.1347C33.0723 26.3264 32.6646 25.5796 32.1095 24.9483C32.3605 24.9226 32.6134 24.9226 32.8644 24.9483C33.4027 24.9934 33.9211 25.173 34.372 25.4706C34.8229 25.7682 35.1919 26.1743 35.445 26.6515C35.7354 27.1581 35.8978 27.7278 35.918 28.3113C35.9382 28.8949 35.8157 29.4745 35.5611 29.9999L33.2256 34.5548C32.8947 35.1898 32.6142 35.8499 32.3869 36.529C32.3068 36.772 32.3254 37.0368 32.4389 37.2662C32.5524 37.4955 32.7516 37.6711 32.9934 37.7548C33.0934 37.7876 33.1978 37.805 33.3031 37.8064C33.5038 37.8072 33.6999 37.7455 33.864 37.6299C34.0281 37.5143 34.1523 37.3505 34.2192 37.1612C34.4172 36.5762 34.6587 36.0069 34.9418 35.458L37.2902 30.9419C37.7093 30.1341 37.9211 29.2348 37.9065 28.3248C37.8918 27.4149 37.6512 26.5228 37.2063 25.729C36.8014 24.9616 36.2097 24.3087 35.4858 23.8306C34.7618 23.3525 33.929 23.0646 33.0644 22.9935ZM30.2256 31.5999C29.7883 31.2487 29.4353 30.8037 29.1928 30.2979C28.9503 29.7921 28.8244 29.2383 28.8244 28.6773C28.8244 28.1164 28.9503 27.5626 29.1928 27.0568C29.4353 26.551 29.7883 26.106 30.2256 25.7548C30.6641 26.1053 31.018 26.55 31.2613 27.0559C31.5045 27.5618 31.6308 28.116 31.6308 28.6773C31.6308 29.2387 31.5045 29.7928 31.2613 30.2988C31.018 30.8047 30.6641 31.2494 30.2256 31.5999Z" fill="white"/>
<path d="M59.0323 24.5484H52.7097C52.1363 22.1598 51.1868 19.8775 49.8968 17.7871L54.3613 13.3226C54.4518 13.2332 54.5237 13.1267 54.5727 13.0093C54.6217 12.8919 54.647 12.7659 54.647 12.6387C54.647 12.5115 54.6217 12.3855 54.5727 12.2681C54.5237 12.1507 54.4518 12.0443 54.3613 11.9548L48.0645 5.62581C47.8822 5.44614 47.6366 5.34542 47.3806 5.34542C47.1247 5.34542 46.879 5.44614 46.6968 5.62581L42.2323 10.0903C40.1412 8.79844 37.8562 7.85088 35.4645 7.28387V0.967742C35.4645 0.711081 35.3626 0.464932 35.1811 0.283445C34.9996 0.101958 34.7534 0 34.4968 0H25.529C25.2724 0 25.0262 0.101958 24.8447 0.283445C24.6632 0.464932 24.5613 0.711081 24.5613 0.967742V7.27097C22.1696 7.83798 19.8846 8.78553 17.7935 10.0774L13.329 5.6129C13.1468 5.43324 12.9011 5.33252 12.6452 5.33252C12.3892 5.33252 12.1436 5.43324 11.9613 5.6129L5.63871 11.9355C5.5482 12.0249 5.47634 12.1314 5.42729 12.2488C5.37825 12.3662 5.35299 12.4921 5.35299 12.6194C5.35299 12.7466 5.37825 12.8725 5.42729 12.9899C5.47634 13.1073 5.5482 13.2138 5.63871 13.3032L10.1032 17.7677C8.81129 19.8641 7.86174 22.1531 7.29032 24.5484H0.967742C0.711081 24.5484 0.464932 24.6503 0.283445 24.8318C0.101958 25.0133 0 25.2595 0 25.5161V34.4645C0 34.7212 0.101958 34.9673 0.283445 35.1488C0.464932 35.3303 0.711081 35.4323 0.967742 35.4323H7.29032C7.86368 37.8209 8.81317 40.1031 10.1032 42.1935L5.63871 46.6581C5.5482 46.7475 5.47634 46.854 5.42729 46.9714C5.37825 47.0887 5.35299 47.2147 5.35299 47.3419C5.35299 47.4692 5.37825 47.5951 5.42729 47.7125C5.47634 47.8299 5.5482 47.9364 5.63871 48.0258L11.9355 54.3548C12.1178 54.5345 12.3634 54.6352 12.6194 54.6352C12.8753 54.6352 13.1209 54.5345 13.3032 54.3548L18.3419 49.3548C18.5129 49.1714 18.6059 48.9287 18.6015 48.678C18.5971 48.4273 18.4955 48.1881 18.3182 48.0108C18.1409 47.8335 17.9017 47.7319 17.651 47.7275C17.4003 47.7231 17.1576 47.8162 16.9742 47.9871L12.6452 52.3097L7.69032 47.3548L12.0194 43.0258C12.1763 42.8673 12.2741 42.6597 12.2964 42.4378C12.3187 42.2159 12.2642 41.993 12.1419 41.8065C10.6241 39.5246 9.56359 36.9698 9.01935 34.2839C8.97717 34.0618 8.85858 33.8615 8.68418 33.7178C8.50977 33.574 8.29054 33.4958 8.06452 33.4968H1.95484V26.4839H8.06452C8.28761 26.4839 8.50387 26.4069 8.67669 26.2658C8.84951 26.1247 8.96828 25.9283 9.0129 25.7097C9.55713 23.0237 10.6176 20.4689 12.1355 18.1871C12.2577 18.0005 12.3123 17.7777 12.2899 17.5557C12.2676 17.3338 12.1698 17.1262 12.0129 16.9677L7.68387 12.6387L12.6387 7.68387L16.9677 12.0065C17.125 12.1656 17.3328 12.2649 17.5554 12.2872C17.7779 12.3096 18.0013 12.2537 18.1871 12.129C20.4726 10.6137 23.029 9.55348 25.7161 9.00645C25.9348 8.96336 26.1319 8.8461 26.2742 8.67449C26.4164 8.50286 26.495 8.28741 26.4968 8.06452V1.94839H33.5032V8.06452C33.5032 8.28761 33.5802 8.50387 33.7213 8.67669C33.8624 8.84951 34.0588 8.96828 34.2774 9.0129C36.9641 9.55796 39.5204 10.616 41.8065 12.129C41.9922 12.2537 42.2156 12.3096 42.4382 12.2872C42.6608 12.2649 42.8686 12.1656 43.0258 12.0065L47.3548 7.68387L52.3097 12.6387L47.9806 16.9677C47.8237 17.1262 47.7259 17.3338 47.7036 17.5557C47.6813 17.7777 47.7358 18.0005 47.8581 18.1871C49.3759 20.4689 50.4364 23.0237 50.9806 25.7097C51.0255 25.9294 51.1452 26.1266 51.3194 26.2678C51.4935 26.4091 51.7113 26.4854 51.9355 26.4839H58.0516V33.4968H51.9355C51.7124 33.4967 51.4961 33.5738 51.3233 33.7148C51.1505 33.8559 51.0317 34.0524 50.9871 34.271C50.4429 36.9569 49.3824 39.5117 47.8645 41.7935C47.7423 41.9801 47.6877 42.203 47.7101 42.4249C47.7324 42.6468 47.8302 42.8544 47.9871 43.0129L52.3161 47.3419L47.3548 52.2968L43.0258 47.9742C42.8427 47.7928 42.5951 47.6916 42.3374 47.6928C42.0797 47.694 41.833 47.7976 41.6516 47.9806C41.4702 48.1637 41.369 48.4114 41.3702 48.6691C41.3714 48.9268 41.475 49.1735 41.6581 49.3548L46.671 54.3677C46.7605 54.4579 46.8671 54.5294 46.9845 54.5782C47.1019 54.6269 47.2277 54.6519 47.3548 54.6516C47.487 54.6522 47.6179 54.6262 47.7398 54.5752C47.8617 54.5242 47.9721 54.4493 48.0645 54.3548L54.3871 48.0258C54.4776 47.9364 54.5495 47.8299 54.5985 47.7125C54.6476 47.5951 54.6728 47.4692 54.6728 47.3419C54.6728 47.2147 54.6476 47.0887 54.5985 46.9714C54.5495 46.854 54.4776 46.7475 54.3871 46.6581L49.8968 42.1935C51.1868 40.1031 52.1363 37.8209 52.7097 35.4323H59.0323C59.2889 35.4323 59.5351 35.3303 59.7166 35.1488C59.898 34.9673 60 34.7212 60 34.4645V25.5161C60 25.2595 59.898 25.0133 59.7166 24.8318C59.5351 24.6503 59.2889 24.5484 59.0323 24.5484Z" fill="white"/>
</svg>
