<svg width="133" height="144" viewBox="0 0 133 144" fill="none" xmlns="http://www.w3.org/2000/svg">
<path d="M50.3659 29.6673L37.4219 24.959" stroke="#E54887" stroke-width="4" stroke-miterlimit="10"/>
<path d="M61.3015 33.6426L56.1445 31.7681" stroke="#E54887" stroke-width="4" stroke-miterlimit="10"/>
<path d="M94.9959 45.8963L66.4648 35.2781" stroke="#E54887" stroke-width="4" stroke-miterlimit="10"/>
<path d="M35.1133 29.9927L97.8069 87.4623" stroke="#E54887" stroke-width="4" stroke-miterlimit="10"/>
<path d="M45.8288 66.4626L37.918 69.0953" stroke="#E54887" stroke-width="4" stroke-miterlimit="10"/>
<path d="M55.8273 63.4016L51.4258 64.7992" stroke="#E54887" stroke-width="4" stroke-miterlimit="10"/>
<path d="M95.001 50.9375L67.5039 59.6838" stroke="#E54887" stroke-width="4" stroke-miterlimit="10"/>
<path d="M64.4463 86.3584L35.1133 113.25" stroke="#E54887" stroke-width="4" stroke-miterlimit="10"/>
<path d="M96.8229 56.6775L72.8867 78.6231" stroke="#E54887" stroke-width="4" stroke-miterlimit="10"/>
<path d="M37.418 76.5288L94.8231 97.4043" stroke="#E54887" stroke-width="4" stroke-miterlimit="10"/>
<path d="M53.1909 117.703L38.1016 123.19" stroke="#E54887" stroke-width="4" stroke-miterlimit="10"/>
<path d="M63.1946 114.062L58.9375 115.611" stroke="#E54887" stroke-width="4" stroke-miterlimit="10"/>
<path d="M95.4979 102.315L69.3906 111.812" stroke="#E54887" stroke-width="4" stroke-miterlimit="10"/>
<path d="M20.0495 38.099C30.018 38.099 38.099 30.018 38.099 20.0495C38.099 10.081 30.018 2 20.0495 2C10.081 2 2 10.081 2 20.0495C2 30.018 10.081 38.099 20.0495 38.099Z" stroke="#E54887" stroke-width="4" stroke-miterlimit="10"/>
<path d="M112.874 66.4628C122.842 66.4628 130.923 58.3817 130.923 48.4133C130.923 38.4448 122.842 30.3638 112.874 30.3638C102.905 30.3638 94.8242 38.4448 94.8242 48.4133C94.8242 58.3817 102.905 66.4628 112.874 66.4628Z" stroke="#E54887" stroke-width="4" stroke-miterlimit="10"/>
<path d="M20.0495 89.6691C30.018 89.6691 38.099 81.588 38.099 71.6196C38.099 61.6511 30.018 53.5701 20.0495 53.5701C10.081 53.5701 2 61.6511 2 71.6196C2 81.588 10.081 89.6691 20.0495 89.6691Z" stroke="#E54887" stroke-width="4" stroke-miterlimit="10"/>
<path d="M20.0495 141.239C30.018 141.239 38.099 133.158 38.099 123.19C38.099 113.221 30.018 105.14 20.0495 105.14C10.081 105.14 2 113.221 2 123.19C2 133.158 10.081 141.239 20.0495 141.239Z" stroke="#E54887" stroke-width="4" stroke-miterlimit="10"/>
<path d="M112.874 115.454C122.842 115.454 130.923 107.373 130.923 97.4047C130.923 87.4363 122.842 79.3552 112.874 79.3552C102.905 79.3552 94.8242 87.4363 94.8242 97.4047C94.8242 107.373 102.905 115.454 112.874 115.454Z" stroke="#E54887" stroke-width="4" stroke-miterlimit="10"/>
</svg>
