<svg width="18" height="18" viewBox="0 0 18 18" fill="none" xmlns="http://www.w3.org/2000/svg">
<path fill-rule="evenodd" clip-rule="evenodd" d="M4.42755 0H13.2827C15.7279 0 17.7102 1.90886 17.7102 4.26357V12.7907C17.7102 15.1454 15.7279 17.0543 13.2827 17.0543H4.42755C1.98228 17.0543 0 15.1454 0 12.7907V4.26357C0 1.90886 1.98228 0 4.42755 0ZM12.1507 3.22717C12.1052 3.53424 12.1576 3.84784 12.3006 4.12338C12.4436 4.39892 12.6698 4.62237 12.9471 4.76193C13.2244 4.90149 13.5386 4.95007 13.8451 4.90076C14.1516 4.85144 14.4347 4.70674 14.6542 4.48723C14.8737 4.26773 15.0184 3.9846 15.0677 3.67812C15.117 3.37164 15.0685 3.05741 14.9289 2.78012C14.7893 2.50284 14.5659 2.27663 14.2904 2.13365C14.0148 1.99068 13.7012 1.93823 13.3941 1.98377C13.0809 2.03021 12.7909 2.17617 12.567 2.40007C12.3431 2.62397 12.1972 2.91395 12.1507 3.22717ZM12.4237 8.32592C12.535 9.07653 12.4068 9.84313 12.0573 10.5167C11.7078 11.1902 11.1549 11.7364 10.4771 12.0776C9.79925 12.4187 9.03114 12.5375 8.28196 12.4169C7.53278 12.2964 6.84069 11.9426 6.30412 11.4061C5.76756 10.8695 5.41384 10.1774 5.29329 9.42825C5.17274 8.67907 5.29148 7.91095 5.63264 7.23315C5.9738 6.55535 6.51999 6.00237 7.19353 5.65289C7.86708 5.3034 8.63367 5.17519 9.38428 5.28649C10.1499 5.40003 10.8588 5.75681 11.4061 6.30412C11.9534 6.85144 12.3102 7.56027 12.4237 8.32592Z" fill="#0038FF"/>
</svg>
