<svg width="19" height="17" viewBox="0 0 19 17" fill="none" xmlns="http://www.w3.org/2000/svg">
<path fill-rule="evenodd" clip-rule="evenodd" d="M5.32208 2.21378C5.32208 3.43641 4.33094 4.42755 3.10831 4.42755C1.88567 4.42755 0.894531 3.43641 0.894531 2.21378C0.894531 0.991141 1.88567 0 3.10831 0C4.33094 0 5.32208 0.991141 5.32208 2.21378ZM13.4389 5.90332C14.8089 5.90332 16.1227 6.44156 17.0915 7.39963C18.0602 8.3577 18.6044 9.65712 18.6044 11.012V16.9722H15.1607V11.012C15.1607 10.5604 14.9793 10.1273 14.6564 9.8079C14.3335 9.48854 13.8956 9.30913 13.4389 9.30913C12.9823 9.30913 12.5443 9.48854 12.2214 9.8079C11.8985 10.1273 11.7171 10.5604 11.7171 11.012V16.9722H8.27344V11.012C8.27344 9.65712 8.81766 8.3577 9.78637 7.39963C10.7551 6.44156 12.0689 5.90332 13.4389 5.90332ZM5.32214 6.64133H0.894588V16.9723H5.32214V6.64133Z" fill="#0038FF"/>
</svg>
