<svg width="144" height="23" viewBox="0 0 144 23" fill="none" xmlns="http://www.w3.org/2000/svg">
<path d="M17.381 5.72413C17.364 5.67302 17.3555 5.61339 17.3555 5.54524C17.3555 5.35783 17.4236 5.19597 17.5599 5.05967C17.6962 4.92337 17.8581 4.85522 18.0455 4.85522H19.9622C20.1496 4.85522 20.32 4.92337 20.4733 5.05967C20.6437 5.17893 20.7544 5.31523 20.8055 5.46857L24.2045 13.3654L27.6035 5.46857C27.6546 5.31523 27.7568 5.17893 27.9101 5.05967C28.0805 4.92337 28.2594 4.85522 28.4468 4.85522H30.3635C30.5509 4.85522 30.7128 4.92337 30.8491 5.05967C30.9854 5.19597 31.0535 5.35783 31.0535 5.54524C31.0535 5.61339 31.045 5.67302 31.028 5.72413L23.8467 22.3867C23.7956 22.54 23.6849 22.6763 23.5145 22.7956C23.3611 22.9319 23.1908 23 23.0034 23H21.0867C20.8992 23 20.7374 22.9319 20.6011 22.7956C20.4648 22.6593 20.3966 22.4974 20.3966 22.31C20.3966 22.2419 20.4052 22.1822 20.4222 22.1311L22.4411 17.4288L17.381 5.72413Z" fill="white"/>
<path d="M46.3334 10.6058C46.3504 10.7761 46.3589 11.0743 46.3589 11.5002C46.3589 11.9262 46.3504 12.2243 46.3334 12.3947C46.2823 13.4681 46.0182 14.4647 45.5412 15.3848C45.0641 16.2877 44.3996 17.0203 43.5478 17.5826C42.7129 18.1278 41.7418 18.4004 40.6344 18.4004C39.6803 18.4004 38.8881 18.247 38.2577 17.9404C37.6273 17.6337 37.1332 17.2759 36.7754 16.867V17.4548C36.7754 17.6422 36.7073 17.8041 36.571 17.9404C36.4347 18.0767 36.2728 18.1448 36.0854 18.1448H34.1431C33.9557 18.1448 33.7939 18.0767 33.6576 17.9404C33.5213 17.8041 33.4531 17.6422 33.4531 17.4548V0.690014C33.4531 0.502603 33.5213 0.340748 33.6576 0.204449C33.7939 0.0681498 33.9557 0 34.1431 0H36.0854C36.2728 0 36.4347 0.0681498 36.571 0.204449C36.7073 0.340748 36.7754 0.502603 36.7754 0.690014V6.13346C37.1502 5.72456 37.6528 5.36678 38.2832 5.0601C38.9136 4.75343 39.6973 4.60009 40.6344 4.60009C41.7418 4.60009 42.7129 4.88121 43.5478 5.44344C44.3996 5.98864 45.0641 6.72125 45.5412 7.64127C46.0182 8.54425 46.2823 9.53242 46.3334 10.6058ZM39.8677 7.66682C39.0329 7.66682 38.3258 7.9309 37.7465 8.45906C37.1843 8.97018 36.8606 9.6602 36.7754 10.5291C36.7584 10.6995 36.7499 11.0232 36.7499 11.5002C36.7499 11.9773 36.7584 12.301 36.7754 12.4714C36.8606 13.3743 37.1843 14.0814 37.7465 14.5925C38.3088 15.0866 39.0158 15.3336 39.8677 15.3336C40.7366 15.3336 41.4522 15.0781 42.0144 14.567C42.5766 14.0558 42.9089 13.2721 43.0111 12.2158C43.0452 11.8751 43.0622 11.6365 43.0622 11.5002C43.0622 10.2054 42.7726 9.24278 42.1933 8.6124C41.614 7.98202 40.8388 7.66682 39.8677 7.66682Z" fill="white"/>
<path d="M55.4875 7.92195C54.4652 7.92195 53.7241 8.15196 53.2641 8.61197C52.8211 9.05494 52.5996 9.78755 52.5996 10.8098V17.4544C52.5996 17.6418 52.5315 17.8036 52.3952 17.9399C52.2589 18.0762 52.097 18.1444 51.9096 18.1444H49.9674C49.7799 18.1444 49.6181 18.0762 49.4818 17.9399C49.3455 17.8036 49.2773 17.6418 49.2773 17.4544V5.54524C49.2773 5.35783 49.3455 5.19597 49.4818 5.05967C49.6181 4.92337 49.7799 4.85522 49.9674 4.85522H51.9096C52.097 4.85522 52.2589 4.92337 52.3952 5.05967C52.5315 5.19597 52.5996 5.35783 52.5996 5.54524V6.13303C53.0596 5.69006 53.5452 5.36635 54.0563 5.1619C54.5675 4.95745 55.2149 4.85522 55.9986 4.85522H57.1486C57.336 4.85522 57.4979 4.92337 57.6342 5.05967C57.7705 5.19597 57.8386 5.35783 57.8386 5.54524V7.23194C57.8386 7.41935 57.7705 7.58121 57.6342 7.71751C57.4979 7.8538 57.336 7.92195 57.1486 7.92195H55.4875Z" fill="white"/>
<path d="M72.0227 10.2228C72.0568 10.6317 72.0738 11.0662 72.0738 11.5262C72.0738 11.9691 72.0568 12.3951 72.0227 12.804C71.9375 13.8432 71.6223 14.7888 71.0771 15.6407C70.5319 16.4926 69.7823 17.1655 68.8282 17.6596C67.8911 18.1537 66.8178 18.4007 65.6081 18.4007C64.3984 18.4007 63.3166 18.1537 62.3625 17.6596C61.4254 17.1655 60.6843 16.4926 60.1391 15.6407C59.5939 14.7888 59.2787 13.8432 59.1935 12.804C59.1765 12.5995 59.168 12.1736 59.168 11.5262C59.168 10.8617 59.1765 10.4272 59.1935 10.2228C59.2787 9.16648 59.5939 8.21239 60.1391 7.36052C60.6843 6.50865 61.4254 5.83567 62.3625 5.34159C63.3166 4.84751 64.3984 4.60046 65.6081 4.60046C66.8178 4.60046 67.8911 4.84751 68.8282 5.34159C69.7823 5.83567 70.5319 6.50865 71.0771 7.36052C71.6223 8.21239 71.9375 9.16648 72.0227 10.2228ZM65.6081 7.66719C64.7903 7.66719 64.0918 7.87164 63.5125 8.28054C62.9503 8.68944 62.618 9.37945 62.5158 10.3506C62.4988 10.521 62.4903 10.9043 62.4903 11.5006C62.4903 12.0969 62.4988 12.4803 62.5158 12.6506C62.618 13.6218 62.9503 14.3118 63.5125 14.7207C64.0918 15.1296 64.7903 15.334 65.6081 15.334C66.4259 15.334 67.1159 15.1296 67.6781 14.7207C68.2574 14.3118 68.5982 13.6218 68.7004 12.6506C68.7345 12.3099 68.7515 11.9265 68.7515 11.5006C68.7515 11.0747 68.7345 10.6913 68.7004 10.3506C68.5982 9.37945 68.2574 8.68944 67.6781 8.28054C67.1159 7.87164 66.4259 7.66719 65.6081 7.66719Z" fill="white"/>
<path d="M89.8648 5.46857C89.933 5.28116 90.0182 5.13634 90.1204 5.03412C90.2226 4.91486 90.3759 4.85522 90.5804 4.85522H92.5227C92.7101 4.85522 92.8719 4.92337 93.0082 5.05967C93.1445 5.19597 93.2127 5.35783 93.2127 5.54524C93.2127 5.61339 93.2042 5.67302 93.1871 5.72413L89.3282 17.5055C89.1919 17.9314 88.9448 18.1444 88.587 18.1444H86.6448C86.4403 18.1444 86.287 18.0933 86.1847 17.991C86.0825 17.8718 85.9888 17.7099 85.9036 17.5055L83.4247 10.682L80.9458 17.5055C80.8606 17.7099 80.7669 17.8718 80.6646 17.991C80.5624 18.0933 80.4091 18.1444 80.2046 18.1444H78.2624C77.9046 18.1444 77.6575 17.9314 77.5212 17.5055L73.6623 5.72413C73.6452 5.67302 73.6367 5.61339 73.6367 5.54524C73.6367 5.35783 73.7049 5.19597 73.8412 5.05967C73.9775 4.92337 74.1393 4.85522 74.3267 4.85522H76.269C76.4734 4.85522 76.6268 4.91486 76.729 5.03412C76.8312 5.13634 76.9164 5.28116 76.9846 5.46857L79.2846 12.7776L81.738 5.46857C81.7891 5.31523 81.8743 5.17893 81.9936 5.05967C82.1299 4.92337 82.2832 4.85522 82.4536 4.85522H84.3958C84.5662 4.85522 84.711 4.92337 84.8303 5.05967C84.9666 5.17893 85.0603 5.31523 85.1114 5.46857L87.5648 12.7776L89.8648 5.46857Z" fill="white"/>
<path d="M99.1153 17.4548C99.1153 17.6422 99.0471 17.8041 98.9108 17.9404C98.7745 18.0767 98.6127 18.1448 98.4252 18.1448H96.483C96.2956 18.1448 96.1337 18.0767 95.9974 17.9404C95.8611 17.8041 95.793 17.6422 95.793 17.4548V0.690014C95.793 0.502603 95.8611 0.340748 95.9974 0.204449C96.1337 0.0681498 96.2956 0 96.483 0H98.4252C98.6127 0 98.7745 0.0681498 98.9108 0.204449C99.0471 0.340748 99.1153 0.502603 99.1153 0.690014V17.4548Z" fill="white"/>
<path d="M108.106 4.60046C109.86 4.60046 111.249 5.06047 112.271 5.98049C113.311 6.90051 113.83 8.22091 113.83 9.94168V17.4552C113.83 17.6426 113.762 17.8044 113.626 17.9407C113.489 18.077 113.328 18.1452 113.14 18.1452H111.198C111.011 18.1452 110.849 18.077 110.712 17.9407C110.576 17.8044 110.508 17.6426 110.508 17.4552V16.6118C110.116 17.157 109.571 17.5915 108.872 17.9152C108.191 18.2389 107.365 18.4007 106.393 18.4007C104.962 18.4007 103.829 18.0344 102.994 17.3018C102.16 16.5522 101.742 15.5896 101.742 14.414C101.742 13.2725 102.143 12.3695 102.943 11.7051C103.761 11.0236 104.894 10.555 106.342 10.2995L110.508 9.5839C110.508 8.93648 110.286 8.45943 109.843 8.15276C109.418 7.82905 108.838 7.66719 108.106 7.66719C107.714 7.66719 107.39 7.72682 107.135 7.84609C106.896 7.94831 106.657 8.11016 106.419 8.33165C106.163 8.57017 105.882 8.68944 105.576 8.68944H103.199C103.029 8.68944 102.884 8.63832 102.764 8.5361C102.662 8.41684 102.62 8.28054 102.637 8.1272C102.739 7.59904 103.003 7.06237 103.429 6.51717C103.872 5.97197 104.485 5.52048 105.269 5.1627C106.07 4.78787 107.015 4.60046 108.106 4.60046ZM110.508 12.2162L107.032 12.8295C106.351 12.9488 105.848 13.1277 105.524 13.3662C105.218 13.5877 105.064 13.8944 105.064 14.2862C105.064 14.627 105.235 14.891 105.576 15.0785C105.933 15.2488 106.376 15.334 106.905 15.334C107.654 15.334 108.302 15.1977 108.847 14.9251C109.392 14.6525 109.801 14.3033 110.073 13.8773C110.363 13.4343 110.508 12.9658 110.508 12.4717V12.2162Z" fill="white"/>
<path d="M130.115 10.6058C130.132 10.7761 130.14 11.0743 130.14 11.5002C130.14 11.9262 130.132 12.2243 130.115 12.3947C130.064 13.4681 129.799 14.4647 129.322 15.3848C128.845 16.2877 128.181 17.0203 127.329 17.5826C126.494 18.1278 125.523 18.4004 124.416 18.4004C123.462 18.4004 122.669 18.247 122.039 17.9404C121.409 17.6337 120.914 17.2759 120.557 16.867V17.4548C120.557 17.6422 120.489 17.8041 120.352 17.9404C120.216 18.0767 120.054 18.1448 119.867 18.1448H117.924C117.737 18.1448 117.575 18.0767 117.439 17.9404C117.303 17.8041 117.234 17.6422 117.234 17.4548V0.690014C117.234 0.502603 117.303 0.340748 117.439 0.204449C117.575 0.0681498 117.737 0 117.924 0H119.867C120.054 0 120.216 0.0681498 120.352 0.204449C120.489 0.340748 120.557 0.502603 120.557 0.690014V6.13346C120.931 5.72456 121.434 5.36678 122.064 5.0601C122.695 4.75343 123.479 4.60009 124.416 4.60009C125.523 4.60009 126.494 4.88121 127.329 5.44344C128.181 5.98864 128.845 6.72125 129.322 7.64127C129.799 8.54425 130.064 9.53242 130.115 10.6058ZM123.649 7.66682C122.814 7.66682 122.107 7.9309 121.528 8.45906C120.966 8.97018 120.642 9.6602 120.557 10.5291C120.54 10.6995 120.531 11.0232 120.531 11.5002C120.531 11.9773 120.54 12.301 120.557 12.4714C120.642 13.3743 120.966 14.0814 121.528 14.5925C122.09 15.0866 122.797 15.3336 123.649 15.3336C124.518 15.3336 125.233 15.0781 125.796 14.567C126.358 14.0558 126.69 13.2721 126.792 12.2158C126.826 11.8751 126.843 11.6365 126.843 11.5002C126.843 10.2054 126.554 9.24278 125.975 8.6124C125.395 7.98202 124.62 7.66682 123.649 7.66682Z" fill="white"/>
<path d="M136.406 12.8295C134.975 12.5058 133.97 12.0117 133.391 11.3473C132.829 10.6828 132.547 9.80538 132.547 8.71499C132.547 8.01646 132.76 7.352 133.186 6.72162C133.612 6.09123 134.226 5.58011 135.026 5.18825C135.827 4.79639 136.756 4.60046 137.812 4.60046C138.868 4.60046 139.797 4.7538 140.598 5.06047C141.415 5.36715 142.046 5.77604 142.489 6.28716C142.949 6.79829 143.196 7.33496 143.23 7.8972C143.247 8.08461 143.179 8.24646 143.025 8.38276C142.889 8.51906 142.727 8.58721 142.54 8.58721H140.572C140.368 8.58721 140.206 8.56166 140.087 8.51054C139.967 8.44239 139.839 8.34869 139.703 8.22943C139.499 8.05905 139.26 7.92275 138.988 7.82053C138.732 7.7183 138.34 7.66719 137.812 7.66719C137.25 7.66719 136.781 7.75238 136.406 7.92275C136.049 8.09313 135.87 8.35721 135.87 8.71499C135.87 8.97055 135.955 9.175 136.125 9.32834C136.313 9.46464 136.628 9.59242 137.071 9.71168C137.514 9.8139 138.315 9.9928 139.473 10.2484C140.938 10.555 141.995 11.0491 142.642 11.7306C143.29 12.4121 143.613 13.281 143.613 14.3373C143.613 15.0359 143.383 15.7003 142.923 16.3307C142.463 16.944 141.799 17.4467 140.93 17.8385C140.078 18.2133 139.081 18.4007 137.94 18.4007C136.798 18.4007 135.802 18.2304 134.95 17.8896C134.115 17.5318 133.467 17.0803 133.007 16.5352C132.564 15.99 132.326 15.4277 132.292 14.8485C132.275 14.661 132.334 14.4992 132.471 14.3629C132.624 14.2266 132.794 14.1584 132.982 14.1584H134.95C135.137 14.1584 135.29 14.1925 135.41 14.2607C135.529 14.3288 135.657 14.431 135.793 14.5673C136.032 14.8059 136.296 14.9933 136.585 15.1296C136.875 15.2659 137.326 15.334 137.94 15.334C138.553 15.334 139.098 15.2573 139.575 15.104C140.052 14.9336 140.291 14.6781 140.291 14.3373C140.291 14.1158 140.206 13.9455 140.035 13.8262C139.865 13.6899 139.601 13.5706 139.243 13.4684C138.885 13.3662 138.272 13.2214 137.403 13.034L136.406 12.8295Z" fill="white"/>
<path d="M13.9281 1.10742C14.1155 1.10742 14.2773 1.17557 14.4136 1.31187C14.5499 1.44817 14.6181 1.61002 14.6181 1.79744V18.3067C14.6181 18.4941 14.5499 18.6559 14.4136 18.7922C14.2773 18.9285 14.1155 18.9967 13.9281 18.9967H11.858C11.6706 18.9967 11.5088 18.9285 11.3725 18.7922C11.2362 18.6559 11.168 18.4941 11.168 18.3067V11.5599H3.45007V18.3067C3.45007 18.4941 3.38192 18.6559 3.24562 18.7922C3.10932 18.9285 2.94747 18.9967 2.76006 18.9967H0.690014C0.502603 18.9967 0.340748 18.937 0.204449 18.8178C0.0681495 18.6815 0 18.5111 0 18.3067V1.79744C0 1.61002 0.0681495 1.44817 0.204449 1.31187C0.340748 1.17557 0.502603 1.10742 0.690014 1.10742H2.76006C2.94747 1.10742 3.10932 1.17557 3.24562 1.31187C3.38192 1.44817 3.45007 1.61002 3.45007 1.79744V8.36535H11.168V1.79744C11.168 1.61002 11.2362 1.44817 11.3725 1.31187C11.5088 1.17557 11.6706 1.10742 11.858 1.10742H13.9281Z" fill="#0038FF"/>
</svg>
