<svg width="50" height="50" viewBox="0 0 50 50" fill="none" xmlns="http://www.w3.org/2000/svg">
<path fill-rule="evenodd" clip-rule="evenodd" d="M3 50H30C31.65 50 33 48.66 33 47V39.17H31V41.44H2V8.56H31V11.84H33V3C33 1.35004 31.65 0 30 0H3C1.34998 0 0 1.35004 0 3V47C0 48.66 1.34998 50 3 50ZM19.4395 16.8401V20.2501H49.9995V16.8401C49.9995 15.1801 48.6495 13.8401 46.9995 13.8401H22.4395C20.7795 13.8401 19.4395 15.1801 19.4395 16.8401ZM44.3094 16.6301C44.6794 16.2601 45.3395 16.2601 45.7194 16.6301C45.8995 16.8101 46.0095 17.0701 46.0095 17.3301C46.0095 17.6001 45.8995 17.86 45.7194 18.0401C45.5295 18.23 45.2695 18.3301 45.0095 18.3301C44.7495 18.3301 44.4894 18.23 44.2994 18.0401C44.1194 17.86 44.0095 17.6001 44.0095 17.3301C44.0095 17.0701 44.1194 16.8101 44.3094 16.6301ZM41.1794 16.6301C41.5494 16.2601 42.2095 16.2501 42.5895 16.6301C42.7795 16.8101 42.8895 17.0701 42.8895 17.3301C42.8895 17.6001 42.7795 17.86 42.5895 18.0401C42.4094 18.23 42.1495 18.3301 41.8895 18.3301C41.6194 18.3301 41.3694 18.23 41.1794 18.0401C40.9894 17.86 40.8895 17.6001 40.8895 17.3301C40.8895 17.0701 40.9894 16.8101 41.1794 16.6301ZM38.0494 16.6301C38.4294 16.2501 39.0994 16.2601 39.4694 16.6301C39.6495 16.8101 39.7595 17.0701 39.7595 17.3301C39.7595 17.6001 39.6495 17.86 39.4694 18.0401C39.2795 18.23 39.0195 18.3301 38.7595 18.3301C38.4995 18.3301 38.2394 18.23 38.0494 18.0401C37.8694 17.86 37.7595 17.6001 37.7595 17.3301C37.7595 17.0701 37.8694 16.8201 38.0494 16.6301ZM24.4294 16.3401H31.3395C31.8995 16.3401 32.3395 16.7801 32.3395 17.3401C32.3395 17.8901 31.8995 18.3401 31.3395 18.3401H24.4294C23.8795 18.3401 23.4294 17.8901 23.4294 17.3401C23.4294 16.7801 23.8795 16.3401 24.4294 16.3401ZM22.4395 37.1699C20.7795 37.1699 19.4395 35.8199 19.4395 34.1699V22.252H49.9995V34.1699C49.9995 35.8199 48.6495 37.1699 46.9995 37.1699H22.4395Z" fill="white"/>
</svg>
