<svg width="57" height="49" viewBox="0 0 57 49" fill="none" xmlns="http://www.w3.org/2000/svg">
<path d="M10.627 23.0588V3.84314C10.627 2.25112 11.9244 0.960785 13.5253 0.960785H53.1354C54.7353 0.960785 56.0337 2.25112 56.0337 3.84314V32.6667C56.0337 34.2587 54.7353 35.549 53.1354 35.549H36.7117" stroke="#0038FF" stroke-width="2" stroke-miterlimit="10"/>
<path d="M27.5959 35.549L24.6367 44.1961" stroke="#0038FF" stroke-width="2" stroke-miterlimit="10"/>
<path d="M40.0781 35.549L43.0218 44.1961" stroke="#0038FF" stroke-width="2" stroke-miterlimit="10"/>
<path d="M20.2891 44.1961H48.306" stroke="#0038FF" stroke-width="2" stroke-miterlimit="10"/>
<path d="M50.2383 44.1961H52.1705" stroke="#0038FF" stroke-width="2" stroke-miterlimit="10"/>
<path d="M11.5938 48.0392H37.6785" stroke="#0038FF" stroke-width="2" stroke-miterlimit="10"/>
<path d="M39.6113 48.0392H41.5435" stroke="#0038FF" stroke-width="2" stroke-miterlimit="10"/>
<path d="M43.4746 48.0392H45.4068" stroke="#0038FF" stroke-width="2" stroke-miterlimit="10"/>
<path d="M27.0508 29.7843H56.0338" stroke="#0038FF" stroke-width="2" stroke-miterlimit="10"/>
<path d="M39.3273 20.458L24.8358 6.04622C24.6609 5.87232 24.4194 5.76471 24.1528 5.76471C23.8861 5.76471 23.6446 5.87232 23.4697 6.04622L19.6053 9.88936C19.4295 10.0633 19.3223 10.3035 19.3223 10.5686C19.3223 10.8338 19.4295 11.074 19.6053 11.2479L34.0969 25.6597C34.2717 25.8336 34.5132 25.9412 34.7799 25.9412C35.0465 25.9412 35.2881 25.8336 35.4629 25.6597L39.3273 21.8165C39.5032 21.6426 39.6104 21.4024 39.6104 21.1373C39.6104 20.8721 39.5032 20.6319 39.3273 20.458Z" stroke="#0038FF" stroke-width="2" stroke-miterlimit="10"/>
<path d="M30.373 16.7542L35.2934 21.6474" stroke="#0038FF" stroke-width="2" stroke-miterlimit="10"/>
<path d="M27.5137 13.9112L28.5677 14.9594" stroke="#0038FF" stroke-width="2" stroke-miterlimit="10"/>
<path d="M21.538 7.96777L18.8396 5.2843L14.4922 9.60783L20.5738 23.0598" stroke="#0038FF" stroke-width="2" stroke-miterlimit="10"/>
<path d="M20.6837 30.7509L23.6729 27.7782C23.9801 27.4717 24.154 27.0557 24.1549 26.6224C24.1549 26.1871 23.981 25.7692 23.6729 25.4627L21.7407 23.5411C21.4315 23.2337 21.0122 23.0607 20.5746 23.0598C20.1369 23.0588 19.7147 23.2327 19.4046 23.5411L16.2773 26.6512" stroke="#0038FF" stroke-width="2" stroke-miterlimit="10"/>
<path d="M30.9136 35.549H22.4844" stroke="#0038FF" stroke-width="2" stroke-miterlimit="10"/>
<path d="M34.7799 35.549H32.8535" stroke="#0038FF" stroke-width="2" stroke-miterlimit="10"/>
<path d="M8.15929 47.7769L8.96888 46.9151C9.29156 46.575 9.49927 46.2272 9.59878 45.7718C9.79296 44.8878 9.52439 43.8954 8.86261 43.2737L4.43593 39.1203C4.09393 38.7994 3.74903 38.5938 3.29013 38.4948C2.40132 38.3007 1.39754 38.5678 0.773439 39.2269L0.232422 39.8053" stroke="#0038FF" stroke-width="2" stroke-miterlimit="10"/>
<path d="M4.08398 38.832C4.08398 38.832 5.50029 32.316 6.9021 30.5308C8.24305 28.8264 13.2349 24.4817 13.2349 24.4817C13.5788 24.1887 14.0203 24.0187 14.4879 24.0196C15.569 24.0215 16.424 24.8584 16.424 25.9412C16.424 26.5148 16.2047 26.9327 15.8704 27.2863L12.9132 30.576C12.7518 30.7384 12.6407 30.943 12.5915 31.165C12.4301 31.899 12.89 32.5024 13.5102 32.6369C13.7634 32.6926 14.0213 32.6676 14.257 32.5648L19.9136 30.9007C20.1754 30.8027 20.4565 30.7451 20.7454 30.7451C22.1356 30.7451 23.1867 31.7059 23.1867 33.1451C23.1867 35.1955 20.3985 39.6842 17.308 41.6519C16.1583 42.385 9.22365 43.7032 9.22365 43.7032" stroke="#0038FF" stroke-width="2" stroke-miterlimit="10"/>
<path d="M30.4121 6.26528L33.3877 3.30606" stroke="#0038FF" stroke-width="2" stroke-miterlimit="10"/>
<path d="M35.2578 11.0548L36.2577 10.0604" stroke="#0038FF" stroke-width="2" stroke-miterlimit="10"/>
<path d="M38.0703 8.25699L42.099 4.25052" stroke="#0038FF" stroke-width="2" stroke-miterlimit="10"/>
<path d="M40.0371 15.9096L41.1336 14.8191" stroke="#0038FF" stroke-width="2" stroke-miterlimit="10"/>
<path d="M43.9531 12.0156L51.7332 4.27838" stroke="#0038FF" stroke-width="2" stroke-miterlimit="10"/>
<path d="M42.9648 20.6847L49.773 13.9141" stroke="#0038FF" stroke-width="2" stroke-miterlimit="10"/>
<path d="M51.6016 12.0944L52.7039 10.9981" stroke="#0038FF" stroke-width="2" stroke-miterlimit="10"/>
</svg>
