<svg width="0" height="0" class="hidden">
  <symbol fill="none" xmlns="http://www.w3.org/2000/svg" viewBox="0 0 32 32" id="smokeIcon">
    <path d="M32 3V32H0V3H32ZM31 4.11539H1V30.8846H31V4.11539ZM32 0V2H0V0H32ZM2.5 0.5C2.22386 0.5 2 0.723858 2 1C2 1.27614 2.22386 1.5 2.5 1.5C2.77614 1.5 3 1.27614 3 1C3 0.723858 2.77614 0.5 2.5 0.5ZM5.5 0.5C5.22386 0.5 5 0.723858 5 1C5 1.27614 5.22386 1.5 5.5 1.5C5.77614 1.5 6 1.27614 6 1C6 0.723858 5.77614 0.5 5.5 0.5ZM8 0.5C7.72386 0.5 7.5 0.723858 7.5 1C7.5 1.27614 7.72386 1.5 8 1.5C8.27614 1.5 8.5 1.27614 8.5 1C8.5 0.723858 8.27614 0.5 8 0.5Z" fill="black"></path>
    <path d="M8 22C9.65685 22 11 23.3431 11 25C11 26.6569 9.65685 28 8 28C6.34315 28 5 26.6569 5 25C5 23.3431 6.34315 22 8 22ZM8.2 23.2H7.8V25.2H8.2V25.1995L9.8 25.2V24.8H8.2V23.2Z" fill="black"></path>
    <path d="M27 22H13V24H27V22Z" fill="black"></path>
    <path d="M27 26.5H13V28.5H27V26.5Z" fill="black"></path>
    <path d="M10.2874 8.85758C10.4344 8.85758 10.5556 8.96787 10.5722 9.10996L10.5741 9.14328V17.3843L18.8923 17.4286C19.0393 17.4294 19.16 17.5403 19.1758 17.6825L19.1775 17.7158C19.1767 17.8623 19.0654 17.9825 18.9227 17.9983L18.8892 18L10.2858 17.9543C10.1393 17.9535 10.0189 17.8434 10.0025 17.7018L10.0006 17.6686V9.14328C10.0006 8.98549 10.129 8.85758 10.2874 8.85758ZM21.6984 6.00026C21.7178 5.99943 21.7372 6.0006 21.7562 6.00364L21.7126 6.00057C21.7312 6.00057 21.7491 6.0022 21.7663 6.00528C21.7748 6.00709 21.7833 6.00915 21.7917 6.01159C21.8019 6.01389 21.8117 6.01718 21.8211 6.02095C21.8217 6.02205 21.8226 6.0224 21.8234 6.02275C21.8592 6.03656 21.8903 6.05798 21.9161 6.0841C21.9213 6.08928 21.9264 6.09468 21.9313 6.1003C21.9345 6.10457 21.9377 6.10859 21.9408 6.1127C21.9471 6.11998 21.9528 6.12813 21.958 6.13661C21.9587 6.13935 21.96 6.14153 21.9613 6.14373C21.9675 6.15277 21.9725 6.16281 21.9769 6.17323C21.9773 6.17616 21.9782 6.17849 21.9792 6.18083C21.9837 6.19022 21.9871 6.20057 21.9899 6.21124C21.9908 6.21626 21.992 6.22092 21.993 6.22561C21.9973 6.24462 21.9994 6.265 21.9994 6.28627L21.9965 6.24371C21.9994 6.26237 22.0006 6.28136 21.9997 6.30039L21.9994 14.823C21.9994 14.8988 21.9692 14.9715 21.9154 15.025L19.0591 17.8706C18.8784 18.0506 18.5695 17.9231 18.5695 17.6686L18.5695 9.4175L10.2874 9.41755C10.0478 9.41755 9.9204 9.14708 10.0543 8.96497L10.0846 8.92983L12.9409 6.08425C12.9839 6.04139 13.0392 6.01355 13.0985 6.00413L13.1437 6.00057L21.6984 6.00026ZM21.4256 6.97624L20.298 8.099L19.1425 9.2505L19.1428 16.9786L21.4256 14.7044V6.97624ZM21.0198 6.57197H13.2624L10.9799 8.84587H18.7373L21.0198 6.57197Z" fill="black"></path>
  </symbol>
  <symbol fill="none" xmlns="http://www.w3.org/2000/svg" viewBox="0 0 30 30" id="unitTest">
    <g clip-path="url(#clip0_1507:1738)">
      <path d="M5.625 15.4422V14.5576C5.625 14.5487 5.62617 14.5401 5.62627 14.5312H3.75V14.1797C3.75 14.0978 3.72853 14.0173 3.68772 13.9462C3.64692 13.8752 3.58822 13.8161 3.51746 13.7748L2.11121 12.9545C2.03951 12.9127 1.958 12.8906 1.875 12.8906C1.792 12.8906 1.71049 12.9127 1.63879 12.9545L0.232545 13.7748C0.161783 13.8161 0.103077 13.8752 0.0622756 13.9462C0.0214742 14.0173 2.39898e-06 14.0978 0 14.1797L0 15.8203C1.65072e-05 15.9022 0.0214942 15.9827 0.0622943 16.0538C0.103094 16.1248 0.161793 16.1839 0.232545 16.2252L1.63879 17.0455C1.71049 17.0873 1.792 17.1094 1.875 17.1094C1.958 17.1094 2.03951 17.0873 2.11121 17.0455L3.51746 16.2252C3.58821 16.1839 3.64691 16.1248 3.68771 16.0538C3.72851 15.9827 3.74998 15.9022 3.75 15.8203V15.4688H5.62629C5.62619 15.4598 5.625 15.4512 5.625 15.4422ZM2.8125 15.5511L1.875 16.0979L0.9375 15.5511V14.449L1.875 13.9021L2.8125 14.449V15.5511Z" fill="#434343"></path>
      <path d="M21.3155 8.05682L21.9429 8.68498C21.9487 8.69084 21.9536 8.69727 21.9593 8.70317L23.0956 7.56695L24.4095 7.91274C24.4887 7.9336 24.572 7.93333 24.6511 7.91194C24.7302 7.89056 24.8023 7.84881 24.8602 7.79086L26.0204 6.63077C26.0783 6.57286 26.1201 6.50077 26.1415 6.4217C26.1629 6.34263 26.1632 6.25934 26.1424 6.18011L25.7281 4.60563C25.707 4.52536 25.6649 4.45214 25.6062 4.39345C25.5475 4.33476 25.4742 4.2927 25.3939 4.27158L23.8195 3.8573C23.7403 3.83639 23.6569 3.83664 23.5779 3.85802C23.4988 3.87941 23.4267 3.92119 23.3688 3.97917L22.2088 5.13926C22.1509 5.19718 22.1092 5.26927 22.0878 5.34834C22.0664 5.4274 22.066 5.5107 22.0868 5.58993L22.4326 6.9042L21.2969 8.03995C21.3029 8.04586 21.3095 8.05084 21.3155 8.05682ZM23.8412 4.83245L24.8909 5.10859L25.1671 6.15825L24.3878 6.93759L23.3384 6.66144L23.0621 5.61179L23.8412 4.83245Z" fill="#434343"></path>
      <path d="M8.68347 21.9443L8.05588 21.3163C8.04966 21.3101 8.04448 21.3033 8.03834 21.297L6.90213 22.4332L5.58807 22.0874C5.50885 22.0666 5.42554 22.0669 5.34646 22.0883C5.26739 22.1097 5.19531 22.1514 5.13741 22.2094L3.9772 23.3694C3.91928 23.4273 3.87754 23.4994 3.85614 23.5784C3.83473 23.6575 3.83441 23.7408 3.85521 23.82L4.26949 25.3945C4.29064 25.4748 4.33271 25.548 4.39142 25.6067C4.45013 25.6655 4.52337 25.7075 4.60365 25.7287L6.17813 26.143C6.25736 26.1637 6.34065 26.1634 6.41971 26.142C6.49878 26.1206 6.57086 26.0789 6.6288 26.021L7.78877 24.8608C7.84669 24.8028 7.88844 24.7308 7.90984 24.6517C7.93124 24.5726 7.93156 24.4893 7.91077 24.4101L7.56497 23.096L8.7009 21.9601C8.69526 21.9546 8.68908 21.9499 8.68347 21.9443ZM6.15616 25.1677L5.10674 24.8914L4.83048 23.842L5.60982 23.0627L6.65924 23.3389L6.9355 24.3883L6.15616 25.1677Z" fill="#434343"></path>
      <path d="M21.3498 18.8076L20.8108 18.2684C21.0724 17.8042 21.2772 17.3101 21.4207 16.7969H22.1822C22.5281 16.783 22.8545 16.6326 23.0898 16.3788C23.3252 16.1249 23.4505 15.7882 23.4383 15.4422V14.5575C23.4505 14.2116 23.3251 13.8749 23.0898 13.6211C22.8544 13.3673 22.5281 13.217 22.1822 13.2031H21.4207C21.2775 12.6899 21.0727 12.196 20.8108 11.732L21.3502 11.1922C21.5845 10.9378 21.7086 10.6011 21.6956 10.2555C21.6826 9.90992 21.5336 9.5835 21.2809 9.34739L20.6546 8.72036C20.4185 8.46733 20.0918 8.31802 19.746 8.30504C19.4001 8.29207 19.0631 8.41649 18.8087 8.65113L18.2692 9.19026C17.8053 8.92827 17.3114 8.72345 16.7982 8.58029V7.81823C16.7842 7.47234 16.6338 7.14607 16.3799 6.91076C16.126 6.67544 15.7892 6.55022 15.4433 6.56247H14.5591C14.2131 6.55017 13.8762 6.67536 13.6222 6.91067C13.3682 7.14598 13.2178 7.47228 13.2036 7.81823V8.58029C12.6905 8.72344 12.1965 8.92821 11.7326 9.19015L11.1938 8.65102C10.9391 8.41657 10.6019 8.29237 10.256 8.30549C9.91001 8.31861 9.58326 8.468 9.34699 8.72107L8.72238 9.34649C8.46889 9.58232 8.31911 9.90895 8.30582 10.2549C8.29252 10.6009 8.41679 10.9381 8.65143 11.1927L9.19113 11.7322C8.92928 12.1962 8.72447 12.6901 8.58116 13.2032H7.81898C7.47317 13.2171 7.14696 13.3674 6.91166 13.6212C6.67636 13.875 6.55112 14.2117 6.56332 14.5575V15.4422C6.55107 15.7881 6.67628 16.1248 6.91157 16.3787C7.14687 16.6325 7.47311 16.7829 7.81897 16.7969H8.58115C8.72471 17.3101 8.92959 17.8041 9.19135 18.2682L8.65095 18.8081C8.41665 19.0627 8.29259 19.3997 8.30584 19.7454C8.31909 20.0912 8.46858 20.4176 8.72168 20.6536L9.3479 21.28C9.58458 21.5324 9.91128 21.6812 10.257 21.6941C10.6028 21.707 10.9397 21.583 11.1945 21.3489L11.7329 20.8094C12.1968 21.0713 12.6906 21.2761 13.2036 21.4197V22.1821C13.2178 22.528 13.3684 22.8542 13.6223 23.0894C13.8763 23.3247 14.2131 23.4498 14.5591 23.4375H15.4433C15.7892 23.4497 16.1259 23.3246 16.3798 23.0893C16.6337 22.8541 16.7841 22.5279 16.7982 22.1821V21.4197C17.3114 21.2762 17.8053 21.0712 18.2693 20.8092L18.8092 21.3498C19.064 21.5838 19.401 21.7076 19.7467 21.6944C20.0923 21.6812 20.4188 21.532 20.6551 21.2793L21.2813 20.6531C21.5339 20.4167 21.6827 20.0901 21.6956 19.7445C21.7084 19.3988 21.5841 19.0621 21.3498 18.8076ZM20.6178 19.9907L19.9927 20.6158C19.931 20.6914 19.843 20.7408 19.7463 20.754C19.6496 20.7671 19.5515 20.7431 19.4718 20.6868L18.6735 19.8875C18.5979 19.8118 18.4987 19.7642 18.3924 19.7526C18.286 19.7411 18.1789 19.7663 18.0889 19.8241C17.5198 20.1897 16.89 20.4509 16.2292 20.5954C16.1248 20.6183 16.0313 20.6762 15.9643 20.7595C15.8973 20.8428 15.8608 20.9465 15.8607 21.0534V22.182C15.8607 22.3544 15.6696 22.5 15.4433 22.5H14.5591C14.3325 22.5 14.1411 22.3544 14.1411 22.182V21.0534C14.1411 20.9465 14.1046 20.8428 14.0376 20.7595C13.9705 20.6762 13.8771 20.6183 13.7726 20.5954C13.1119 20.4511 12.4822 20.1898 11.9132 19.8241C11.8231 19.7663 11.7159 19.7411 11.6095 19.7527C11.503 19.7643 11.4038 19.8119 11.3282 19.8877L10.5321 20.6856C10.4526 20.7424 10.3545 20.7668 10.2576 20.754C10.1607 20.7412 10.0723 20.692 10.0103 20.6165L9.38452 19.9905C9.30899 19.929 9.2597 19.841 9.24665 19.7445C9.2336 19.648 9.25777 19.5501 9.31425 19.4707L10.1131 18.6726C10.1886 18.5971 10.2361 18.498 10.2477 18.3918C10.2593 18.2855 10.2342 18.1786 10.1767 18.0885C9.81134 17.5191 9.55024 16.8893 9.40558 16.2284C9.38281 16.1239 9.32496 16.0303 9.24165 15.9632C9.15834 15.896 9.05458 15.8594 8.94759 15.8594H7.81897C7.72282 15.8434 7.63641 15.7913 7.5773 15.7138C7.5182 15.6363 7.49085 15.5391 7.50082 15.4422V14.5575C7.49088 14.4606 7.51824 14.3636 7.57735 14.2861C7.63645 14.2086 7.72286 14.1566 7.81897 14.1406H8.94758C9.05455 14.1406 9.1583 14.1041 9.24161 14.037C9.32492 13.9699 9.38278 13.8763 9.40558 13.7718C9.54981 13.1111 9.81087 12.4814 10.1764 11.9125C10.2341 11.8224 10.2592 11.7154 10.2477 11.6091C10.2361 11.5029 10.1886 11.4037 10.113 11.3281L9.31494 10.5303C9.25807 10.4509 9.23366 10.3529 9.24667 10.2561C9.25969 10.1594 9.30916 10.0713 9.38497 10.0098L10.0096 9.38424C10.0714 9.30858 10.1596 9.25922 10.2564 9.24617C10.3532 9.23313 10.4514 9.25736 10.531 9.31398L11.3284 10.1119C11.404 10.1875 11.5031 10.235 11.6094 10.2466C11.7157 10.2581 11.8227 10.233 11.9127 10.1754C12.4817 9.80986 13.1114 9.54889 13.7722 9.40474C13.8767 9.38196 13.9703 9.32412 14.0374 9.2408C14.1045 9.15749 14.1411 9.05373 14.1411 8.94675V7.81823C14.1411 7.64577 14.3325 7.49997 14.5591 7.49997H15.4433C15.5403 7.48997 15.6374 7.51731 15.715 7.57644C15.7926 7.63557 15.8447 7.72204 15.8607 7.81823V8.94674C15.8607 9.05372 15.8973 9.1575 15.9644 9.24081C16.0315 9.32413 16.1251 9.38197 16.2297 9.40473C16.8904 9.54894 17.5201 9.80991 18.0891 10.1754C18.1791 10.2329 18.2861 10.258 18.3923 10.2465C18.4985 10.235 18.5976 10.1876 18.6732 10.1121L19.4718 9.31397C19.5511 9.25726 19.649 9.23288 19.7457 9.24578C19.8423 9.25869 19.9304 9.30791 19.9921 9.38344L20.6176 10.0099C20.6931 10.0715 20.7422 10.1596 20.755 10.2562C20.7679 10.3527 20.7434 10.4506 20.6867 10.5298L19.8888 11.3284C19.8133 11.404 19.7659 11.5031 19.7544 11.6094C19.743 11.7156 19.7682 11.8226 19.8259 11.9126C20.1912 12.4817 20.4521 13.1114 20.5965 13.772C20.6194 13.8765 20.6773 13.97 20.7606 14.037C20.8439 14.1041 20.9476 14.1406 21.0545 14.1406H22.1822C22.2784 14.1565 22.3649 14.2085 22.4241 14.286C22.4833 14.3634 22.5108 14.4606 22.5008 14.5575V15.4422C22.5108 15.5392 22.4834 15.6364 22.4242 15.7139C22.365 15.7914 22.2784 15.8435 22.1822 15.8594H21.0545C20.9476 15.8594 20.8439 15.896 20.7606 15.963C20.6773 16.03 20.6194 16.1235 20.5965 16.2279C20.4519 16.8889 20.1908 17.519 19.8254 18.0885C19.768 18.1785 19.7429 18.2855 19.7545 18.3916C19.7661 18.4978 19.8135 18.5969 19.8891 18.6724L20.6867 19.4703C20.7434 19.5496 20.7678 19.6475 20.755 19.7441C20.7422 19.8407 20.6932 19.9289 20.6178 19.9907L20.6178 19.9907Z" fill="#434343"></path>
      <path d="M14.9997 11.4844C14.3044 11.4844 13.6247 11.6907 13.0466 12.077C12.4685 12.4633 12.0179 13.0124 11.7519 13.6548C11.4859 14.2972 11.4163 15.0041 11.552 15.686C11.6876 16.368 12.0225 16.9944 12.5142 17.486C13.0059 17.9777 13.6323 18.3125 14.3142 18.4481C14.9962 18.5837 15.7031 18.5141 16.3454 18.248C16.9878 17.9819 17.5369 17.5313 17.9232 16.9531C18.3094 16.375 18.5156 15.6953 18.5156 15C18.5157 14.5383 18.4248 14.0811 18.2481 13.6545C18.0714 13.2279 17.8124 12.8403 17.4859 12.5138C17.1594 12.1874 16.7718 11.9284 16.3452 11.7518C15.9186 11.5751 15.4614 11.4843 14.9997 11.4844ZM14.9997 17.5781C14.4898 17.5781 13.9914 17.4268 13.5675 17.1435C13.1435 16.8602 12.8131 16.4575 12.618 15.9864C12.423 15.5153 12.3719 14.9969 12.4715 14.4968C12.571 13.9968 12.8165 13.5374 13.1771 13.1769C13.5377 12.8164 13.997 12.5708 14.4971 12.4714C14.9972 12.3719 15.5156 12.423 15.9867 12.6182C16.4577 12.8133 16.8604 13.1437 17.1437 13.5677C17.4269 13.9917 17.5781 14.4901 17.5781 15C17.5774 15.6836 17.3055 16.339 16.8221 16.8223C16.3387 17.3056 15.6833 17.5775 14.9997 17.5781Z" fill="#434343"></path>
      <path d="M13.3575 3.33458L14.5312 4.01924V5.6263C14.5403 5.6262 14.5491 5.625 14.5583 5.625H15.4424C15.4513 5.625 15.4599 5.62617 15.4688 5.62627V4.01924L16.6425 3.33458C16.7132 3.29329 16.7719 3.23419 16.8127 3.16315C16.8535 3.0921 16.875 3.01161 16.875 2.92969V1.28906C16.875 1.20714 16.8535 1.12664 16.8127 1.0556C16.7719 0.984563 16.7132 0.925455 16.6425 0.88417L15.2362 0.0638578C15.1645 0.0220366 15.083 0 15 0C14.917 0 14.8355 0.0220366 14.7638 0.0638578L13.3575 0.88417C13.2868 0.925455 13.2281 0.984563 13.1873 1.0556C13.1465 1.12664 13.125 1.20714 13.125 1.28906V2.92969C13.125 3.01161 13.1465 3.0921 13.1873 3.16315C13.2281 3.23419 13.2868 3.29329 13.3575 3.33458ZM14.0625 1.55834L15 1.01143L15.9375 1.55834V2.66041L15 3.20732L14.0625 2.66041V1.55834Z" fill="#434343"></path>
      <path d="M16.6425 26.6654L15.4688 25.9807V24.3737C15.4599 24.3738 15.4513 24.375 15.4424 24.375H14.5583C14.5491 24.375 14.5403 24.3738 14.5312 24.3737V25.9807L13.3575 26.6654C13.2868 26.7067 13.2281 26.7658 13.1873 26.8368C13.1465 26.9079 13.125 26.9884 13.125 27.0703V28.7109C13.125 28.7928 13.1465 28.8733 13.1873 28.9443C13.2281 29.0154 13.2868 29.0745 13.3575 29.1158L14.7638 29.9361C14.8355 29.9779 14.917 30 15 30C15.083 30 15.1645 29.9779 15.2362 29.9361L16.6425 29.1158C16.7132 29.0745 16.7719 29.0154 16.8127 28.9443C16.8535 28.8733 16.875 28.7928 16.875 28.7109V27.0703C16.875 26.9884 16.8535 26.9079 16.8127 26.8368C16.7719 26.7658 16.7132 26.7067 16.6425 26.6654ZM15.9375 28.4417L15 28.9885L14.0625 28.4417V27.3394L15 26.7926L15.9375 27.3394V28.4417Z" fill="#434343"></path>
      <path d="M29.7687 13.7748L28.3625 12.9545C28.2908 12.9127 28.2093 12.8906 28.1263 12.8906C28.0433 12.8906 27.9618 12.9127 27.8901 12.9545L26.4838 13.7748C26.4131 13.8161 26.3544 13.8752 26.3136 13.9462C26.2728 14.0173 26.2513 14.0978 26.2513 14.1797V14.5313H24.375C24.3751 14.5401 24.3763 14.5487 24.3763 14.5576V15.4422C24.3763 15.4512 24.3751 15.4598 24.375 15.4687H26.2513V15.8203C26.2513 15.9022 26.2728 15.9827 26.3136 16.0538C26.3544 16.1248 26.4131 16.1839 26.4838 16.2252L27.8901 17.0455C27.9618 17.0873 28.0433 17.1094 28.1263 17.1094C28.2093 17.1094 28.2908 17.0873 28.3625 17.0455L29.7687 16.2252C29.8395 16.1839 29.8982 16.1248 29.939 16.0538C29.9798 15.9827 30.0013 15.9022 30.0013 15.8203V14.1797C30.0013 14.0978 29.9798 14.0173 29.939 13.9462C29.8982 13.8752 29.8395 13.8161 29.7687 13.7748ZM29.0638 15.5511L28.1263 16.0979L27.1888 15.5511V14.449L28.1263 13.9021L29.0638 14.449V15.5511Z" fill="#434343"></path>
      <path d="M24.8601 22.2094C24.8022 22.1514 24.7302 22.1097 24.6511 22.0883C24.572 22.0669 24.4887 22.0666 24.4095 22.0874L23.0954 22.4332L21.9597 21.2975C21.9542 21.3031 21.9496 21.3093 21.944 21.3149L21.3168 21.9423C21.3104 21.9487 21.3034 21.954 21.2969 21.9603L22.4326 23.096L22.0868 24.4101C22.066 24.4893 22.0663 24.5726 22.0877 24.6517C22.1091 24.7307 22.1509 24.8028 22.2088 24.8607L23.3688 26.0209C23.4267 26.0788 23.4988 26.1206 23.5778 26.142C23.6569 26.1634 23.7402 26.1637 23.8194 26.1429L25.3939 25.7287C25.4742 25.7075 25.5474 25.6654 25.6061 25.6067C25.6648 25.548 25.7069 25.4748 25.7281 25.3945L26.1423 23.82C26.1631 23.7408 26.1628 23.6575 26.1414 23.5784C26.12 23.4994 26.0783 23.4273 26.0203 23.3694L24.8601 22.2094ZM24.8908 24.8914L23.8414 25.1677L23.0621 24.3883L23.3383 23.3389L24.3877 23.0627L25.1671 23.842L24.8908 24.8914Z" fill="#434343"></path>
      <path d="M5.13742 7.79081C5.19532 7.84876 5.26741 7.89051 5.34649 7.91189C5.42557 7.93328 5.50887 7.93355 5.58809 7.91268L6.90204 7.5669L8.0387 8.70356C8.04542 8.69669 8.05112 8.68922 8.05795 8.68241L8.68074 8.05871C8.6873 8.05217 8.69448 8.04674 8.70111 8.04029L7.56497 6.90415L7.91078 5.58988C7.93158 5.51065 7.93126 5.42735 7.90985 5.34828C7.88845 5.26922 7.84671 5.19713 7.78878 5.13921L6.62881 3.97912C6.57091 3.92117 6.49882 3.87942 6.41974 3.85804C6.34066 3.83665 6.25736 3.83638 6.17814 3.85725L4.60367 4.27152C4.52339 4.29265 4.45015 4.3347 4.39145 4.39339C4.33274 4.45208 4.29066 4.5253 4.2695 4.60557L3.85522 6.18005C3.83441 6.25928 3.83473 6.34258 3.85613 6.42165C3.87754 6.50072 3.91928 6.5728 3.97721 6.63072L5.13742 7.79081ZM5.10675 5.10854L6.1564 4.8324L6.93552 5.61174L6.65926 6.66139L5.60983 6.93754L4.83049 6.15819L5.10675 5.10854Z" fill="#434343"></path>
    </g>
    <defs>
      <clipPath id="clip0_1507:1738">
        <rect width="30" height="30" fill="white"></rect>
      </clipPath>
    </defs>
  </symbol>
  <symbol fill="none" xmlns="http://www.w3.org/2000/svg" viewBox="0 0 36 32" id="clientIcon">
    <path d="M25.7693 10.2521L20.7495 9.50919L18.5063 4.89031C18.4546 4.80121 18.3809 4.72735 18.2925 4.67604C18.2041 4.62473 18.1041 4.59774 18.0023 4.59774C17.9004 4.59774 17.8004 4.62473 17.712 4.67604C17.6236 4.72735 17.5499 4.80121 17.4982 4.89031L15.2527 9.51148L10.2324 10.2543C10.1285 10.2697 10.0309 10.3142 9.95068 10.383C9.87042 10.4517 9.8107 10.5419 9.77828 10.6433C9.74585 10.7448 9.74202 10.8534 9.76721 10.9569C9.7924 11.0605 9.8456 11.1548 9.92081 11.2292L13.5534 14.8292L12.6956 19.9087C12.6778 20.0138 12.6894 20.122 12.7289 20.2208C12.7685 20.3197 12.8345 20.4053 12.9196 20.4679C13.0046 20.5306 13.1051 20.5679 13.2099 20.5755C13.3147 20.5831 13.4195 20.5607 13.5124 20.511L18 18.1075L22.4899 20.5075C22.5828 20.5573 22.6876 20.5797 22.7923 20.5721C22.8971 20.5645 22.9977 20.5272 23.0827 20.4645C23.1677 20.4018 23.2337 20.3162 23.2733 20.2174C23.3129 20.1185 23.3244 20.0104 23.3066 19.9052L22.4488 14.8258L26.0814 11.2258C26.1567 11.1513 26.2099 11.057 26.235 10.9534C26.2602 10.8498 26.2563 10.7412 26.2238 10.6397C26.1913 10.5383 26.1315 10.4481 26.0512 10.3794C25.9709 10.3106 25.8732 10.2661 25.7693 10.2509V10.2521ZM21.4521 14.2155C21.3868 14.2802 21.338 14.36 21.3099 14.4481C21.2818 14.5362 21.2752 14.6299 21.2906 14.7212L22.005 18.9555L18.2616 16.9555C18.1808 16.9127 18.0911 16.8903 18 16.8903C17.9089 16.8903 17.8192 16.9127 17.7384 16.9555L13.995 18.9555L14.7094 14.7212C14.7248 14.6299 14.7182 14.5362 14.6901 14.4481C14.662 14.36 14.6132 14.2802 14.5479 14.2155L11.5194 11.2166L15.705 10.5989C15.7953 10.5855 15.8811 10.55 15.9549 10.4955C16.0286 10.4409 16.0883 10.369 16.1286 10.2858L18 6.43432L19.8714 10.2858C19.9118 10.3688 19.9715 10.4407 20.0452 10.4952C20.119 10.5496 20.2047 10.585 20.295 10.5983L24.4806 11.2161L21.4521 14.2155ZM33.1875 0H2.8125C2.06685 0.000907352 1.352 0.30222 0.824749 0.837844C0.297496 1.37347 0.00089317 2.09967 0 2.85716L0 23.4287C0.00089317 24.1862 0.297496 24.9124 0.824749 25.448C1.352 25.9836 2.06685 26.2849 2.8125 26.2859H11.9357C12.1721 26.2859 12.406 26.3365 12.622 26.4342C12.8379 26.532 13.0313 26.6747 13.1895 26.8533L17.5821 31.811C17.6348 31.8705 17.6993 31.9181 17.7713 31.9506C17.8433 31.9832 17.9212 32 18 32C18.0788 32 18.1567 31.9832 18.2287 31.9506C18.3007 31.9181 18.3652 31.8705 18.4179 31.811L22.8105 26.8533C22.9687 26.6747 23.1621 26.532 23.378 26.4342C23.594 26.3365 23.8279 26.2859 24.0643 26.2859H33.1875C33.9331 26.2849 34.648 25.9836 35.1753 25.448C35.7025 24.9124 35.9991 24.1862 36 23.4287V2.85716C35.9991 2.09967 35.7025 1.37347 35.1753 0.837844C34.648 0.30222 33.9331 0.000907352 33.1875 0ZM34.875 23.4287C34.875 23.8834 34.6972 24.3194 34.3807 24.6409C34.0643 24.9624 33.6351 25.143 33.1875 25.143H24.0643C23.6702 25.1433 23.2804 25.2276 22.9204 25.3905C22.5603 25.5534 22.2379 25.7913 21.9741 26.0887L18 30.5744L14.0259 26.0893C13.7623 25.7915 13.4399 25.5534 13.0798 25.3904C12.7197 25.2274 12.3299 25.1431 11.9357 25.143H2.8125C2.36495 25.143 1.93572 24.9624 1.61926 24.6409C1.30279 24.3194 1.125 23.8834 1.125 23.4287V2.85716C1.125 2.4025 1.30279 1.96646 1.61926 1.64497C1.93572 1.32348 2.36495 1.14286 2.8125 1.14286H33.1875C33.6351 1.14286 34.0643 1.32348 34.3807 1.64497C34.6972 1.96646 34.875 2.4025 34.875 2.85716V23.4287Z" fill="#434343"></path>
  </symbol>
  <symbol fill="none" xmlns="http://www.w3.org/2000/svg" viewBox="0 0 24 30" id="dbIcon">
    <path d="M0 5.132V24.877C0 28.2403 6.03704 30 12 30C17.963 30 24 28.2403 24 24.8773V5.132C24 1.76267 17.963 0 12 0C6.03704 0 0 1.76267 0 5.132ZM22.3279 24.8773C22.3279 26.7607 17.5019 28.4127 12 28.4127C6.49808 28.4127 1.6721 26.7607 1.6721 24.8773V21.139C3.76029 22.4147 7.60696 23.2727 12 23.2727C16.393 23.2727 20.2397 22.4147 22.3279 21.139V24.8773ZM22.3279 18.9423H22.3188C22.3188 19.6473 18.7709 21.6853 12 21.6853C5.22908 21.6853 1.68123 19.6473 1.68123 18.9423V14.4207C3.77188 15.6933 7.61364 16.5487 12 16.5487C16.393 16.5487 20.2397 15.6907 22.3279 14.415V18.9423ZM22.3279 12.2183H22.3188C22.3188 12.9233 18.7709 14.9613 12 14.9613C5.22908 14.9613 1.68123 12.9233 1.68123 12.2183V7.69667C3.77188 8.96933 7.61364 9.825 12 9.825C16.393 9.825 20.2397 8.967 22.3279 7.69133V12.2183ZM22.3279 5.132V5.49467H22.3188C22.3188 6.19967 18.7709 8.23767 12 8.23767C5.22908 8.23767 1.68123 6.2 1.68123 5.49467H1.6721V5.132C1.6721 3.24367 6.49808 1.587 12 1.587C17.5019 1.587 22.3279 3.24367 22.3279 5.132Z" fill="#434343"></path>
  </symbol>
  <symbol fill="none" xmlns="http://www.w3.org/2000/svg" viewBox="0 0 44 44" id="designMicroIcon">
    <g clip-path="url(#clip0_1464:3850)">
      <path d="M8.25 22.6486V21.3511C8.25 21.3381 8.25172 21.3255 8.25187 21.3125H5.5V20.7969C5.5 20.6767 5.4685 20.5587 5.40866 20.4545C5.34882 20.3503 5.26272 20.2636 5.15893 20.203L3.09643 18.9999C2.99128 18.9386 2.87173 18.9062 2.75 18.9062C2.62827 18.9062 2.50872 18.9386 2.40357 18.9999L0.341065 20.203C0.237282 20.2636 0.15118 20.3503 0.0913376 20.4545C0.0314954 20.5587 3.5185e-06 20.6767 0 20.7969L0 23.2031C2.42105e-05 23.3233 0.0315249 23.4413 0.0913649 23.5455C0.151205 23.6497 0.237296 23.7364 0.341065 23.797L2.40357 25.0001C2.50872 25.0614 2.62827 25.0938 2.75 25.0938C2.87174 25.0938 2.99129 25.0614 3.09644 25.0001L5.15894 23.797C5.26271 23.7364 5.3488 23.6497 5.40864 23.5455C5.46848 23.4413 5.49998 23.3233 5.5 23.2031V22.6875H8.25189C8.25174 22.6744 8.25 22.6617 8.25 22.6486ZM4.125 22.8083L2.75 23.6103L1.375 22.8083V21.1918L2.75 20.3897L4.125 21.1918V22.8083Z" fill="#434343"></path>
      <path d="M31.2617 11.8166L32.1818 12.7379C32.1904 12.7465 32.1975 12.7559 32.206 12.7646L33.8725 11.0981L35.7996 11.6053C35.9158 11.6359 36.038 11.6355 36.1539 11.6041C36.2699 11.5728 36.3756 11.5115 36.4606 11.4265L38.1622 9.72508C38.2472 9.64014 38.3084 9.53442 38.3398 9.41845C38.3712 9.30248 38.3716 9.18031 38.3411 9.0641L37.7335 6.75487C37.7025 6.63714 37.6408 6.52975 37.5547 6.44367C37.4686 6.35759 37.3612 6.29591 37.2434 6.26493L34.9342 5.65732C34.818 5.62665 34.6958 5.62701 34.5798 5.65838C34.4638 5.68975 34.3581 5.75102 34.2732 5.83607L32.5719 7.53753C32.487 7.62248 32.4257 7.72821 32.3943 7.84417C32.3629 7.96014 32.3625 8.08231 32.393 8.19851L32.9002 10.1261L31.2344 11.7919C31.2432 11.8005 31.2529 11.8079 31.2617 11.8166ZM34.9661 7.08754L36.5056 7.49255L36.9107 9.03204L35.7677 10.1751L34.2286 9.77006L33.8234 8.23057L34.9661 7.08754Z" fill="#434343"></path>
      <path d="M12.7368 32.185L11.8163 31.2638C11.8072 31.2547 11.7996 31.2447 11.7906 31.2355L10.1242 32.902L8.19688 32.3948C8.08068 32.3642 7.9585 32.3647 7.84252 32.3961C7.72654 32.4275 7.62082 32.4887 7.5359 32.5737L5.83427 34.275C5.74932 34.36 5.6881 34.4657 5.65671 34.5817C5.62532 34.6976 5.62485 34.8198 5.65535 34.936L6.26295 37.2452C6.29398 37.363 6.35569 37.4704 6.44179 37.5565C6.5279 37.6426 6.63531 37.7043 6.75307 37.7353L9.0623 38.3429C9.17851 38.3734 9.30066 38.3729 9.41662 38.3415C9.53258 38.3101 9.63831 38.2489 9.72328 38.164L11.4246 36.4624C11.5095 36.3774 11.5707 36.2717 11.6021 36.1557C11.6335 36.0398 11.634 35.9176 11.6035 35.8014L11.0963 33.8741L12.7624 32.2081C12.7541 32.2 12.745 32.1932 12.7368 32.185ZM9.03008 36.9125L7.49092 36.5074L7.08574 34.9682L8.22878 33.8252L9.76793 34.2304L10.1731 35.7695L9.03008 36.9125Z" fill="#434343"></path>
      <path d="M31.313 27.5846L30.5224 26.7937C30.9061 26.1128 31.2065 25.3882 31.4171 24.6355H32.5339C33.0413 24.6151 33.5199 24.3946 33.8651 24.0222C34.2103 23.6499 34.3941 23.156 34.3762 22.6486V21.3511C34.394 20.8437 34.2102 20.3499 33.865 19.9777C33.5198 19.6054 33.0412 19.385 32.5339 19.3646H31.4171C31.207 18.612 30.9066 17.8875 30.5225 17.207L31.3137 16.4152C31.6572 16.0421 31.8393 15.5483 31.8203 15.0414C31.8012 14.5346 31.5826 14.0558 31.212 13.7095L30.2935 12.7899C29.9471 12.4188 29.468 12.1998 28.9607 12.1808C28.4535 12.1617 27.9593 12.3442 27.5861 12.6884L26.7949 13.4791C26.1145 13.0948 25.39 12.7944 24.6374 12.5845V11.4668C24.6168 10.9595 24.3962 10.4809 24.0238 10.1358C23.6514 9.79068 23.1575 9.60703 22.6501 9.62499H21.3533C20.8458 9.60695 20.3518 9.79055 19.9793 10.1357C19.6068 10.4808 19.386 10.9594 19.3653 11.4668V12.5845C18.6127 12.7944 17.8882 13.0947 17.2078 13.4789L16.4176 12.6882C16.044 12.3443 15.5495 12.1622 15.0421 12.1814C14.5347 12.2007 14.0554 12.4198 13.7089 12.7909L12.7928 13.7082C12.421 14.0541 12.2014 14.5332 12.1819 15.0406C12.1624 15.548 12.3446 16.0425 12.6888 16.4159L13.4803 17.2073C13.0963 17.8878 12.7959 18.6121 12.5857 19.3647H11.4678C10.9606 19.3851 10.4822 19.6056 10.1371 19.9778C9.792 20.3501 9.60832 20.8438 9.62621 21.3511V22.6486C9.60823 23.1559 9.79187 23.6497 10.137 24.0221C10.4821 24.3944 10.9606 24.615 11.4678 24.6355H12.5857C12.7962 25.3881 13.0967 26.1126 13.4807 26.7934L12.6881 27.5852C12.3444 27.9587 12.1625 28.4529 12.1819 28.96C12.2013 29.4671 12.4206 29.9459 12.7918 30.2919L13.7103 31.2107C14.0574 31.5809 14.5365 31.7992 15.0437 31.8181C15.5508 31.837 16.0449 31.655 16.4186 31.3118L17.2082 30.5205C17.8886 30.9045 18.6129 31.205 19.3653 31.4155V32.5337C19.3861 33.041 19.6069 33.5195 19.9794 33.8645C20.3519 34.2095 20.8459 34.3931 21.3533 34.375H22.6501C23.1574 34.393 23.6513 34.2094 24.0237 33.8644C24.396 33.5194 24.6167 33.0409 24.6374 32.5337V31.4155C25.39 31.2051 26.1144 30.9045 26.7949 30.5202L27.5868 31.3131C27.9606 31.6562 28.4548 31.8378 28.9618 31.8184C29.4688 31.7991 29.9476 31.5803 30.2942 31.2097L31.2126 30.2913C31.583 29.9446 31.8013 29.4656 31.8201 28.9586C31.8389 28.4516 31.6567 27.9578 31.313 27.5846ZM30.2395 29.3198L29.3227 30.2366C29.2322 30.3475 29.103 30.4199 28.9612 30.4392C28.8194 30.4585 28.6755 30.4233 28.5587 30.3406L27.3878 29.1684C27.277 29.0573 27.1315 28.9875 26.9755 28.9706C26.8195 28.9537 26.6624 28.9907 26.5304 29.0754C25.6957 29.6116 24.7721 29.9947 23.8029 30.2067C23.6497 30.2403 23.5126 30.3252 23.4143 30.4473C23.316 30.5695 23.2624 30.7216 23.2624 30.8784V32.5337C23.2624 32.7865 22.9821 33 22.6501 33H21.3533C21.021 33 20.7403 32.7865 20.7403 32.5337V30.8784C20.7403 30.7216 20.6867 30.5695 20.5884 30.4474C20.4901 30.3252 20.353 30.2403 20.1999 30.2067C19.2307 29.9949 18.3072 29.6118 17.4727 29.0754C17.3405 28.9907 17.1833 28.9537 17.0272 28.9707C16.8711 28.9877 16.7255 29.0575 16.6147 29.1687L15.4471 30.339C15.3305 30.4222 15.1865 30.458 15.0444 30.4392C14.9024 30.4204 14.7727 30.3483 14.6817 30.2376L13.764 29.3195C13.6532 29.2292 13.5809 29.1002 13.5618 28.9587C13.5426 28.8171 13.5781 28.6735 13.6609 28.5571L14.8325 27.3865C14.9433 27.2757 15.013 27.1304 15.03 26.9746C15.0469 26.8188 15.0102 26.6619 14.9258 26.5299C14.39 25.6947 14.007 24.7709 13.7949 23.8017C13.7615 23.6484 13.6766 23.5111 13.5544 23.4127C13.4322 23.3142 13.28 23.2605 13.1231 23.2605H11.4678C11.3268 23.237 11.2001 23.1606 11.1134 23.0469C11.0267 22.9332 10.9866 22.7908 11.0012 22.6486V21.3511C10.9866 21.2089 11.0268 21.0666 11.1134 20.953C11.2001 20.8394 11.3269 20.7631 11.4678 20.7396H13.1231C13.28 20.7396 13.4322 20.686 13.5544 20.5876C13.6765 20.4892 13.7614 20.3519 13.7948 20.1987C14.0064 19.2296 14.3893 18.3061 14.9255 17.4717C15.01 17.3396 15.0468 17.1826 15.0299 17.0268C15.013 16.8709 14.9433 16.7255 14.8325 16.6146L13.6619 15.4444C13.5785 15.328 13.5427 15.1842 13.5618 15.0423C13.5809 14.9005 13.6534 14.7712 13.7646 14.681L14.6807 13.7636C14.7713 13.6526 14.9007 13.5802 15.0427 13.5611C15.1847 13.542 15.3287 13.5775 15.4454 13.6605L16.615 14.8308C16.7258 14.9417 16.8712 15.0114 17.0271 15.0283C17.183 15.0453 17.3399 15.0084 17.472 14.9239C18.3065 14.3878 19.2301 14.0051 20.1992 13.7936C20.3525 13.7602 20.4898 13.6754 20.5882 13.5532C20.6867 13.431 20.7403 13.2788 20.7403 13.1219V11.4668C20.7403 11.2138 21.021 11 21.3533 11H22.6501C22.7924 10.9853 22.9349 11.0254 23.0487 11.1121C23.1624 11.1989 23.2389 11.3257 23.2624 11.4668V13.1219C23.2624 13.2788 23.316 13.431 23.4145 13.5532C23.5129 13.6754 23.6502 13.7603 23.8035 13.7936C24.7726 14.0052 25.6961 14.3879 26.5307 14.9239C26.6627 15.0083 26.8196 15.0452 26.9754 15.0283C27.1312 15.0114 27.2765 14.9418 27.3874 14.8311L28.5586 13.6605C28.675 13.5774 28.8186 13.5416 28.9603 13.5605C29.102 13.5794 29.2313 13.6516 29.3217 13.7624L30.2391 14.6812C30.3498 14.7716 30.4219 14.9008 30.4407 15.0424C30.4596 15.1841 30.4237 15.3276 30.3405 15.4437L29.1703 16.615C29.0595 16.7259 28.99 16.8713 28.9732 17.0271C28.9564 17.183 28.9933 17.3399 29.078 17.4718C29.6137 18.3065 29.9965 19.23 30.2082 20.199C30.2418 20.3522 30.3267 20.4893 30.4489 20.5876C30.571 20.686 30.7231 20.7396 30.88 20.7396H32.5339C32.675 20.7629 32.8019 20.8391 32.8887 20.9528C32.9756 21.0664 33.0158 21.2088 33.0012 21.3511V22.6486C33.0158 22.7909 32.9756 22.9334 32.8888 23.0471C32.802 23.1608 32.6751 23.2371 32.5339 23.2605H30.88C30.7232 23.2605 30.5711 23.3141 30.4489 23.4124C30.3267 23.5107 30.2418 23.6478 30.2082 23.801C29.9961 24.7705 29.6132 25.6945 29.0773 26.5298C28.993 26.6619 28.9563 26.8187 28.9733 26.9744C28.9902 27.1302 29.0599 27.2754 29.1706 27.3862L30.3405 28.5564C30.4236 28.6727 30.4594 28.8163 30.4407 28.9581C30.4219 29.0998 30.35 29.2291 30.2395 29.3198L30.2395 29.3198Z" fill="#434343"></path>
      <path d="M21.9996 16.8438C20.9798 16.8438 19.9829 17.1463 19.135 17.7129C18.2871 18.2796 17.6263 19.0849 17.2361 20.0271C16.8459 20.9693 16.7439 22.006 16.9429 23.0062C17.1419 24.0064 17.633 24.9251 18.3541 25.6462C19.0753 26.3672 19.994 26.8583 20.9942 27.0572C21.9944 27.2561 23.0312 27.154 23.9733 26.7637C24.9155 26.3734 25.7207 25.7125 26.2873 24.8646C26.8539 24.0167 27.1562 23.0198 27.1562 22C27.1563 21.3228 27.023 20.6522 26.7639 20.0266C26.5048 19.4009 26.1249 18.8325 25.6461 18.3536C25.1672 17.8748 24.5987 17.495 23.973 17.2359C23.3473 16.9769 22.6767 16.8436 21.9996 16.8438ZM21.9996 25.7812C21.2517 25.7812 20.5207 25.5593 19.8989 25.1438C19.2772 24.7282 18.7926 24.1377 18.5065 23.4467C18.2203 22.7558 18.1455 21.9955 18.2915 21.262C18.4374 20.5286 18.7976 19.8549 19.3264 19.3261C19.8552 18.7973 20.529 18.4372 21.2625 18.2914C21.996 18.1455 22.7562 18.2204 23.4471 18.5066C24.138 18.7928 24.7286 19.2775 25.144 19.8993C25.5595 20.5211 25.7812 21.2522 25.7812 22C25.7802 23.0026 25.3814 23.9638 24.6724 24.6727C23.9634 25.3816 23.0022 25.7803 21.9996 25.7812Z" fill="#434343"></path>
      <path d="M19.5911 4.89072L21.3125 5.89488V8.25191C21.3258 8.25176 21.3387 8.25 21.3521 8.25H22.6489C22.6619 8.25 22.6745 8.25172 22.6875 8.25187V5.89488L24.4089 4.89072C24.5127 4.83017 24.5988 4.74347 24.6587 4.63928C24.7185 4.53509 24.75 4.41703 24.75 4.29688V1.89062C24.75 1.77047 24.7185 1.65241 24.6587 1.54822C24.5988 1.44403 24.5127 1.35733 24.4089 1.29678L22.3464 0.093658C22.2413 0.0323204 22.1217 0 22 0C21.8783 0 21.7587 0.0323204 21.6536 0.093658L19.5911 1.29678C19.4873 1.35733 19.4012 1.44403 19.3413 1.54822C19.2815 1.65241 19.25 1.77047 19.25 1.89062V4.29688C19.25 4.41703 19.2815 4.53509 19.3413 4.63928C19.4012 4.74347 19.4873 4.83017 19.5911 4.89072ZM20.625 2.28557L22 1.48343L23.375 2.28557V3.90193L22 4.70407L20.625 3.90193V2.28557Z" fill="#434343"></path>
      <path d="M24.4089 39.1093L22.6875 38.1051V35.7481C22.6745 35.7483 22.6619 35.75 22.6489 35.75H21.3521C21.3387 35.75 21.3258 35.7483 21.3125 35.7481V38.1051L19.5911 39.1093C19.4873 39.1699 19.4012 39.2566 19.3414 39.3608C19.2815 39.4649 19.25 39.583 19.25 39.7031V42.1094C19.25 42.2295 19.2815 42.3476 19.3414 42.4518C19.4012 42.556 19.4873 42.6427 19.5911 42.7032L21.6536 43.9064C21.7587 43.9677 21.8783 44 22 44C22.1217 44 22.2413 43.9677 22.3464 43.9064L24.4089 42.7032C24.5127 42.6427 24.5988 42.556 24.6586 42.4518C24.7185 42.3476 24.75 42.2295 24.75 42.1094V39.7031C24.75 39.583 24.7185 39.4649 24.6586 39.3608C24.5988 39.2566 24.5127 39.1699 24.4089 39.1093ZM23.375 41.7146L22 42.5166L20.625 41.7146V40.0979L22 39.2959L23.375 40.0979V41.7146Z" fill="#434343"></path>
      <path d="M43.6608 20.203L41.5983 18.9999C41.4932 18.9386 41.3736 18.9062 41.2519 18.9062C41.1302 18.9062 41.0106 18.9386 40.9055 18.9999L38.843 20.203C38.7392 20.2636 38.6531 20.3503 38.5932 20.4545C38.5334 20.5587 38.5019 20.6767 38.5019 20.7969V21.3125H35.75C35.7502 21.3255 35.7519 21.3381 35.7519 21.3511V22.6486C35.7519 22.6617 35.7501 22.6744 35.75 22.6875H38.5019V23.2031C38.5019 23.3233 38.5334 23.4413 38.5933 23.5455C38.6531 23.6497 38.7392 23.7364 38.843 23.797L40.9055 25.0001C41.0106 25.0614 41.1302 25.0938 41.2519 25.0938C41.3736 25.0938 41.4932 25.0614 41.5983 25.0001L43.6608 23.797C43.7646 23.7364 43.8507 23.6497 43.9105 23.5455C43.9704 23.4413 44.0019 23.3233 44.0019 23.2031V20.7969C44.0019 20.6767 43.9704 20.5587 43.9106 20.4545C43.8507 20.3503 43.7646 20.2636 43.6608 20.203ZM42.6269 22.8084L41.2519 23.6103L39.8769 22.8084V21.1918L41.2519 20.3897L42.6269 21.1918V22.8084Z" fill="#434343"></path>
      <path d="M36.4605 32.5737C36.3756 32.4887 36.2699 32.4274 36.1539 32.396C36.0379 32.3646 35.9157 32.3642 35.7995 32.3947L33.8723 32.9019L32.2066 31.2362C32.1985 31.2445 32.1916 31.2535 32.1834 31.2618L31.2636 32.1819C31.2542 32.1913 31.2439 32.1991 31.2344 32.2084L32.9001 33.8741L32.3929 35.8013C32.3624 35.9175 32.3629 36.0397 32.3943 36.1557C32.4257 36.2716 32.4869 36.3774 32.5718 36.4623L34.2731 38.1639C34.3581 38.2489 34.4638 38.3101 34.5798 38.3415C34.6957 38.3728 34.8179 38.3733 34.9341 38.3429L37.2433 37.7353C37.3611 37.7042 37.4685 37.6425 37.5546 37.5564C37.6407 37.4703 37.7024 37.3629 37.7335 37.2452L38.3411 34.9359C38.3716 34.8197 38.3711 34.6976 38.3397 34.5816C38.3083 34.4656 38.2471 34.3599 38.1621 34.2749L36.4605 32.5737ZM36.5055 36.5073L34.9663 36.9125L33.8233 35.7695L34.2285 34.2303L35.7676 33.8251L36.9107 34.9682L36.5055 36.5073Z" fill="#434343"></path>
      <path d="M7.53592 11.4265C7.62085 11.5115 7.72658 11.5727 7.84256 11.6041C7.95854 11.6355 8.08072 11.6359 8.1969 11.6053L10.124 11.0981L11.7911 12.7652C11.801 12.7552 11.8093 12.7442 11.8194 12.7342L12.7328 11.8194C12.7424 11.8099 12.753 11.8019 12.7627 11.7924L11.0963 10.1261L11.6035 8.1985C11.634 8.08229 11.6336 7.96012 11.6022 7.84416C11.5708 7.72819 11.5095 7.62247 11.4246 7.53752L9.7233 5.83606C9.63837 5.75106 9.53265 5.68983 9.41666 5.65847C9.30068 5.6271 9.1785 5.6267 9.06232 5.65731L6.75309 6.26491C6.63534 6.29589 6.52794 6.35757 6.44183 6.44365C6.35572 6.52973 6.294 6.63712 6.26298 6.75485L5.65536 9.06408C5.62485 9.18029 5.62531 9.30246 5.6567 9.41843C5.6881 9.5344 5.74932 9.64012 5.83429 9.72506L7.53592 11.4265ZM7.49094 7.49253L9.03043 7.08752L10.1731 8.23056L9.76795 9.77005L8.2288 10.1751L7.08576 9.03203L7.49094 7.49253Z" fill="#434343"></path>
    </g>
    <defs>
      <clipPath id="clip0_1464:3850">
        <rect width="44" height="44" fill="white"></rect>
      </clipPath>
    </defs>
  </symbol>
  <symbol fill="none" xmlns="http://www.w3.org/2000/svg" viewBox="0 0 40 36" id="endTestIcon">
    <path d="M39.3548 31.3549H37.4194V12.7742H36.129V31.3549H3.87097V12.1936H7.09677V12.7742H5.16129C4.80452 12.7742 4.51613 13.0338 4.51613 13.3549V30.1936C4.51613 30.5147 4.80452 30.7742 5.16129 30.7742H34.8387C35.1955 30.7742 35.4839 30.5147 35.4839 30.1936V13.3549H34.1935V29.6129H5.80645V13.9355H7.09677V17.4194C7.09677 17.7405 7.38516 18 7.74194 18H16.7742C17.131 18 17.4194 17.7405 17.4194 17.4194V13.9355H23.2258V12.7742H17.4194V12.1936H23.2258V11.0323H17.4194V9.29036C17.4194 8.96927 17.131 8.70972 16.7742 8.70972H7.74194C7.38516 8.70972 7.09677 8.96927 7.09677 9.29036V11.0323H3.22581C2.86903 11.0323 2.58065 11.2918 2.58065 11.6129V31.3549H0.645161C0.288387 31.3549 0 31.6144 0 31.9355V34.2581C0 35.2185 0.868387 36 1.93548 36H38.0645C39.1316 36 40 35.2185 40 34.2581V31.9355C40 31.6144 39.7116 31.3549 39.3548 31.3549ZM8.3871 9.87101H16.129V16.8387H8.3871V9.87101ZM38.7097 34.2581C38.7097 34.5786 38.4206 34.8387 38.0645 34.8387H1.93548C1.57935 34.8387 1.29032 34.5786 1.29032 34.2581V32.5162H38.7097V34.2581Z" fill="#434343"></path>
    <path d="M23.8717 8.70968H24.8175C24.9311 9.03426 25.0756 9.34839 25.2517 9.64974L24.582 10.2525C24.3298 10.4795 24.3298 10.8465 24.582 11.0735L26.4066 12.7155C26.6588 12.9426 27.0666 12.9426 27.3188 12.7155L27.9885 12.1128C28.324 12.2708 28.673 12.4014 29.033 12.5036V13.3548C29.033 13.6759 29.3214 13.9355 29.6782 13.9355H32.2588C32.6156 13.9355 32.904 13.6759 32.904 13.3548V12.5036C33.2646 12.4014 33.6137 12.2714 33.9485 12.1128L34.6182 12.7155C34.8704 12.9426 35.2782 12.9426 35.5304 12.7155L37.3549 11.0735C37.6072 10.8465 37.6072 10.4795 37.3549 10.2525L36.6853 9.64974C36.8608 9.34781 37.0059 9.03368 37.1195 8.70968H38.0653C38.422 8.70968 38.7104 8.45013 38.7104 8.12903V5.80645C38.7104 5.48535 38.422 5.22581 38.0653 5.22581H37.1195C37.0059 4.90123 36.8614 4.5871 36.6853 4.28574L37.3549 3.68303C37.6072 3.456 37.6072 3.08903 37.3549 2.862L35.5304 1.21994C35.2782 0.992903 34.8704 0.992903 34.6182 1.21994L33.9485 1.82265C33.6137 1.66413 33.2646 1.53406 32.904 1.43187V0.580645C32.904 0.259548 32.6156 0 32.2588 0H29.6782C29.3214 0 29.033 0.259548 29.033 0.580645V1.43187C28.6724 1.53406 28.3233 1.66413 27.9885 1.82265L27.3188 1.21994C27.0666 0.992903 26.6588 0.992903 26.4066 1.21994L24.582 2.862C24.3298 3.08903 24.3298 3.456 24.582 3.68303L25.2517 4.28574C25.0756 4.5871 24.9311 4.90123 24.8175 5.22581H23.8717C23.5149 5.22581 23.2266 5.48535 23.2266 5.80645V8.12903C23.2266 8.45013 23.5149 8.70968 23.8717 8.70968ZM24.5169 6.3871H25.3104C25.6117 6.3871 25.8724 6.19955 25.9395 5.93535C26.0685 5.42613 26.2917 4.94303 26.602 4.49884C26.7627 4.2689 26.7253 3.97045 26.5124 3.77884L25.9498 3.27252L26.862 2.45148L27.4246 2.95781C27.6382 3.15058 27.9704 3.1831 28.2246 3.03852C28.7182 2.75923 29.255 2.55832 29.8208 2.44219C30.115 2.38181 30.3233 2.14665 30.3233 1.87548V1.16129H31.6137V1.87548C31.6137 2.14665 31.822 2.38123 32.1156 2.44161C32.6814 2.55774 33.2182 2.75865 33.7117 3.03794C33.9666 3.18252 34.2982 3.15 34.5117 2.95723L35.0743 2.4509L35.9866 3.27194L35.424 3.77826C35.2111 3.96987 35.1737 4.2689 35.3343 4.49826C35.6446 4.94245 35.8679 5.42555 35.9969 5.93477C36.064 6.19955 36.3253 6.3871 36.6266 6.3871H37.4201V7.54839H36.6266C36.3253 7.54839 36.0646 7.73594 35.9975 8.00013C35.8685 8.50935 35.6453 8.99245 35.335 9.43665C35.1743 9.66658 35.2117 9.96503 35.4246 10.1566L35.9872 10.663L35.075 11.484L34.5124 10.9777C34.2988 10.7855 33.9666 10.7524 33.7124 10.897C33.2188 11.1763 32.682 11.3772 32.1162 11.4933C31.822 11.5537 31.6137 11.7888 31.6137 12.06V12.7742H30.3233V12.06C30.3233 11.7888 30.115 11.5543 29.8214 11.4939C29.2556 11.3777 28.7188 11.1768 28.2253 10.8975C27.9704 10.753 27.6388 10.7861 27.4253 10.9783L26.8627 11.4846L25.9504 10.6635L26.513 10.1572C26.7259 9.96561 26.7633 9.66658 26.6027 9.43723C26.2924 8.99303 26.0691 8.50994 25.9401 8.00071C25.873 7.73594 25.6117 7.54839 25.3104 7.54839H24.5169V6.3871Z" fill="#434343"></path>
    <path d="M30.9693 11.0323C33.4589 11.0323 35.4854 9.20848 35.4854 6.96778C35.4854 4.72707 33.4589 2.90326 30.9693 2.90326C28.4796 2.90326 26.4531 4.72707 26.4531 6.96778C26.4531 9.20848 28.4796 11.0323 30.9693 11.0323ZM30.9693 4.06455C32.748 4.06455 34.1951 5.36694 34.1951 6.96778C34.1951 8.56861 32.748 9.871 30.9693 9.871C29.1905 9.871 27.7434 8.56861 27.7434 6.96778C27.7434 5.36694 29.1905 4.06455 30.9693 4.06455Z" fill="#434343"></path>
    <path d="M26.2157 24.499L24.8448 22.854L23.8125 23.5508L25.748 25.8733C25.8706 26.0202 26.0615 26.1056 26.2641 26.1056C26.2731 26.1056 26.2822 26.1056 26.2912 26.105C26.5041 26.0969 26.6983 25.9953 26.8112 25.8327L30.037 21.1875L28.9435 20.5715L26.2157 24.499Z" fill="#434343"></path>
  </symbol>
  <symbol fill="none" xmlns="http://www.w3.org/2000/svg" viewBox="0 0 40 28" id="feedbackIcon">
    <g clip-path="url(#clip0_1464:3828)">
      <path d="M23.4744 10.2392L19.2913 9.6325L17.4219 5.86043C17.3788 5.78767 17.3174 5.72735 17.2437 5.68545C17.1701 5.64354 17.0867 5.6215 17.0019 5.6215C16.917 5.6215 16.8337 5.64354 16.76 5.68545C16.6863 5.72735 16.6249 5.78767 16.5819 5.86043L14.7106 9.63437L10.527 10.241C10.4405 10.2536 10.3591 10.2899 10.2922 10.3461C10.2254 10.4022 10.1756 10.4759 10.1486 10.5587C10.1215 10.6416 10.1183 10.7303 10.1393 10.8148C10.1603 10.8994 10.2047 10.9764 10.2673 11.0372L13.2945 13.9772L12.5797 18.1254C12.5649 18.2113 12.5745 18.2996 12.6075 18.3803C12.6404 18.461 12.6955 18.5309 12.7663 18.5821C12.8371 18.6333 12.921 18.6637 13.0083 18.6699C13.0956 18.6761 13.1829 18.6579 13.2603 18.6172L17 16.6544L20.7416 18.6144C20.819 18.6551 20.9063 18.6733 20.9936 18.6671C21.0809 18.6609 21.1647 18.6305 21.2356 18.5793C21.3064 18.5281 21.3614 18.4582 21.3944 18.3775C21.4274 18.2968 21.437 18.2085 21.4222 18.1226L20.7073 13.9744L23.7345 11.0344C23.7972 10.9736 23.8415 10.8965 23.8625 10.8119C23.8835 10.7273 23.8802 10.6386 23.8532 10.5557C23.8261 10.4729 23.7763 10.3992 23.7093 10.3431C23.6424 10.287 23.561 10.2507 23.4744 10.2382V10.2392ZM19.8767 13.476C19.8224 13.5288 19.7817 13.594 19.7583 13.6659C19.7348 13.7379 19.7293 13.8144 19.7422 13.889L20.3375 17.347L17.218 15.7136C17.1507 15.6787 17.0759 15.6604 17 15.6604C16.9241 15.6604 16.8493 15.6787 16.782 15.7136L13.6625 17.347L14.2578 13.889C14.2707 13.8144 14.2652 13.7379 14.2417 13.6659C14.2183 13.594 14.1776 13.5288 14.1233 13.476L11.5995 11.0269L15.0875 10.5224C15.1628 10.5115 15.2342 10.4825 15.2957 10.438C15.3572 10.3934 15.4069 10.3346 15.4405 10.2667L17 7.12137L18.5595 10.2667C18.5932 10.3345 18.6429 10.3932 18.7044 10.4377C18.7659 10.4822 18.8373 10.5111 18.9125 10.522L22.4005 11.0264L19.8767 13.476ZM29.6562 1.8667H4.34375C3.72238 1.86744 3.12667 2.11351 2.68729 2.55094C2.24791 2.98836 2.00074 3.58142 2 4.20003L2 21C2.00074 21.6186 2.24791 22.2117 2.68729 22.6491C3.12667 23.0866 3.72238 23.3326 4.34375 23.3334H11.9464C12.1435 23.3334 12.3383 23.3747 12.5183 23.4545C12.6983 23.5344 12.8594 23.651 12.9913 23.7968L16.6517 27.8456C16.6957 27.8941 16.7494 27.933 16.8094 27.9596C16.8694 27.9862 16.9343 27.9999 17 27.9999C17.0657 27.9999 17.1306 27.9862 17.1906 27.9596C17.2506 27.933 17.3043 27.8941 17.3483 27.8456L21.0087 23.7968C21.1406 23.651 21.3017 23.5344 21.4817 23.4545C21.6617 23.3747 21.8565 23.3334 22.0536 23.3334H29.6562C30.2776 23.3326 30.8733 23.0866 31.3127 22.6491C31.7521 22.2117 31.9993 21.6186 32 21V4.20003C31.9993 3.58142 31.7521 2.98836 31.3127 2.55094C30.8733 2.11351 30.2776 1.86744 29.6562 1.8667ZM31.0625 21C31.0625 21.3713 30.9143 21.7274 30.6506 21.99C30.3869 22.2525 30.0292 22.4 29.6562 22.4H22.0536C21.7251 22.4003 21.4004 22.4691 21.1003 22.6022C20.8003 22.7352 20.5316 22.9295 20.3117 23.1724L17 26.8357L13.6883 23.1728C13.4686 22.9297 13.1999 22.7352 12.8999 22.6021C12.5998 22.469 12.2749 22.4001 11.9464 22.4H4.34375C3.97079 22.4 3.6131 22.2525 3.34938 21.99C3.08566 21.7274 2.9375 21.3713 2.9375 21V4.20003C2.9375 3.82873 3.08566 3.47263 3.34938 3.21008C3.6131 2.94753 3.97079 2.80003 4.34375 2.80003H29.6562C30.0292 2.80003 30.3869 2.94753 30.6506 3.21008C30.9143 3.47263 31.0625 3.82873 31.0625 4.20003V21Z" fill="#434343"></path>
    </g>
    <defs>
      <clipPath id="clip0_1464:3828">
        <rect width="40" height="28" fill="white"></rect>
      </clipPath>
    </defs>
  </symbol>
  <symbol fill="none" xmlns="http://www.w3.org/2000/svg" viewBox="0 0 30 32" id="highIcon">
    <path d="M0 10.2333V31H24.8252C26.061 31 27.0663 29.9968 27.0663 28.7642V24.0567H27.4073C28.8613 24.0567 29.8576 22.9134 29.9819 21.7983C30.0143 21.4419 29.9933 7.38246 29.9937 2.49822C29.9937 1.67229 29.32 1 28.4921 1H24.0368V3.52347H21.4409C20.613 3.52347 19.9393 4.19576 19.9393 5.02169V25.2938C19.9393 26.54 20.958 27.5542 22.2102 27.5542H24.8235C25.4911 27.5542 26.0341 28.0959 26.0341 28.7617C26.0341 29.4275 25.4911 29.9692 24.8235 29.9692H20.4547V29.9717H1.03073V10.2333C1.03073 9.97424 1.24185 9.76387 1.50155 9.76387H14.258V8.7356H1.50155C0.673645 8.7356 0 9.40739 0 10.2333ZM25.0676 3.52347V2.02827H28.4921C28.7518 2.02827 28.963 2.23914 28.963 2.49822L28.9728 19.447C28.4667 19.0579 27.8488 18.8767 27.2989 18.8767H25.0676V3.52347ZM20.9701 5.02169C20.9701 4.76261 21.1812 4.55174 21.4409 4.55174H24.0368V19.905H27.2989C28.241 19.905 29.0502 20.6617 28.9564 21.6949C28.8847 22.336 28.2722 23.0284 27.4073 23.0284H22.2102C21.7529 23.0284 21.3269 23.164 20.9701 23.3969V5.02169ZM24.8235 26.5259H22.2102C21.5265 26.5259 20.9701 25.9731 20.9701 25.2938C20.9701 24.6115 21.5265 24.0567 22.2102 24.0567H26.0356V26.8866C25.6855 26.6606 25.2706 26.5259 24.8235 26.5259Z" fill="#434343"></path>
    <path d="M23 6H22V19H23V6Z" fill="#434343"></path>
    <path d="M18 17.42C18 16.5594 17.2664 15.86 16.3636 15.86C16.0064 15.86 15.6736 15.9718 15.4036 16.159L13.5791 14.963C13.6145 14.833 13.6364 14.7004 13.6364 14.56C13.6364 13.6994 12.9027 13 12 13C11.0973 13 10.3636 13.6994 10.3636 14.56C10.3636 14.7004 10.3855 14.833 10.4209 14.963L8.59636 16.159C8.32636 15.9718 7.99636 15.86 7.63636 15.86C6.73364 15.86 6 16.5594 6 17.42C6 18.096 6.45818 18.6732 7.09091 18.889V20.111C6.45818 20.3242 6 20.9014 6 21.58C6 22.4406 6.73364 23.14 7.63636 23.14C7.99636 23.14 8.32636 23.0282 8.59636 22.841L10.4209 24.037C10.3855 24.1644 10.3636 24.2996 10.3636 24.44C10.3636 25.3006 11.0973 26 12 26C12.9027 26 13.6364 25.3006 13.6364 24.44C13.6364 24.2996 13.6145 24.1644 13.5791 24.037L15.4036 22.841C15.6736 23.0282 16.0064 23.14 16.3636 23.14C17.2664 23.14 18 22.4406 18 21.58C18 20.9014 17.5445 20.3242 16.9091 20.111V18.889C17.5445 18.6732 18 18.096 18 17.42ZM12 14.04C12.3027 14.04 12.5455 14.274 12.5455 14.56C12.5455 14.846 12.3027 15.08 12 15.08C11.7 15.08 11.4545 14.846 11.4545 14.56C11.4545 14.274 11.7 14.04 12 14.04ZM7.63636 16.9C7.93909 16.9 8.18182 17.134 8.18182 17.42C8.18182 17.706 7.93909 17.94 7.63636 17.94C7.33636 17.94 7.09091 17.706 7.09091 17.42C7.09091 17.134 7.33636 16.9 7.63636 16.9ZM7.63636 22.1C7.33636 22.1 7.09091 21.866 7.09091 21.58C7.09091 21.294 7.33636 21.06 7.63636 21.06C7.93909 21.06 8.18182 21.294 8.18182 21.58C8.18182 21.866 7.93909 22.1 7.63636 22.1ZM12 24.96C11.7 24.96 11.4545 24.726 11.4545 24.44C11.4545 24.154 11.7 23.92 12 23.92C12.3027 23.92 12.5455 24.154 12.5455 24.44C12.5455 24.726 12.3027 24.96 12 24.96ZM14.7273 21.58C14.7273 21.7204 14.7491 21.853 14.7845 21.983L12.96 23.179C12.69 22.9918 12.36 22.88 12 22.88C11.6427 22.88 11.31 22.9918 11.04 23.179L9.21545 21.983C9.25364 21.853 9.27273 21.7204 9.27273 21.58C9.27273 20.9014 8.81727 20.3242 8.18182 20.111V18.889C8.81727 18.6732 9.27273 18.096 9.27273 17.42C9.27273 17.2796 9.25364 17.1444 9.21545 17.017L11.04 15.821C11.31 16.0082 11.6427 16.12 12 16.12C12.36 16.12 12.69 16.0082 12.96 15.821L14.7845 17.017C14.7491 17.1444 14.7273 17.2796 14.7273 17.42C14.7273 18.096 15.1855 18.6732 15.8182 18.889V20.111C15.1855 20.3242 14.7273 20.9014 14.7273 21.58ZM16.3636 22.1C16.0636 22.1 15.8182 21.866 15.8182 21.58C15.8182 21.294 16.0636 21.06 16.3636 21.06C16.6664 21.06 16.9091 21.294 16.9091 21.58C16.9091 21.866 16.6664 22.1 16.3636 22.1ZM16.3636 17.94C16.0636 17.94 15.8182 17.706 15.8182 17.42C15.8182 17.134 16.0636 16.9 16.3636 16.9C16.6664 16.9 16.9091 17.134 16.9091 17.42C16.9091 17.706 16.6664 17.94 16.3636 17.94Z" fill="#434343"></path>
  </symbol>
  <symbol fill="none" xmlns="http://www.w3.org/2000/svg" viewBox="0 0 37 39" id="ideationIcon">
    <path fill-rule="evenodd" clip-rule="evenodd" d="M17.6183 0.331728C18.0429 -0.110576 18.7314 -0.110576 19.1561 0.331728L36.4559 18.3511C36.8805 18.7934 36.8805 19.5106 36.4559 19.9529L19.1561 37.9723C18.7314 38.4146 18.0429 38.4146 17.6183 37.9723L0.318481 19.9529C-0.10616 19.5106 -0.10616 18.7934 0.318481 18.3511L17.6183 0.331728ZM18.2184 2.7692L2.97138 18.844C2.86869 18.9522 2.86869 19.1278 2.97138 19.236L18.2184 35.3108C18.3211 35.4191 18.4876 35.4191 18.5903 35.3108L33.8373 19.236C33.94 19.1278 33.94 18.9522 33.8373 18.844L18.5903 2.7692C18.4876 2.66093 18.3211 2.66093 18.2184 2.7692Z" fill="#434343"></path>
    <path fill-rule="evenodd" clip-rule="evenodd" d="M18.4802 23.072C14.7136 23.072 11.6602 19.963 11.6602 16.128C11.6602 12.2929 14.7136 9.18396 18.4802 9.18396C22.2467 9.18396 25.3002 12.2929 25.3002 16.128C25.3002 19.963 22.2467 23.072 18.4802 23.072ZM18.4802 21.056C21.1532 21.056 23.3202 18.8496 23.3202 16.128C23.3202 13.4063 21.1532 11.2 18.4802 11.2C15.8071 11.2 13.6402 13.4063 13.6402 16.128C13.6402 18.8496 15.8071 21.056 18.4802 21.056Z" fill="#434343"></path>
    <path fill-rule="evenodd" clip-rule="evenodd" d="M16.3891 23.744H20.5691C20.9944 23.744 21.3391 24.095 21.3391 24.528C21.3391 24.961 20.9944 25.312 20.5691 25.312H16.3891C15.9639 25.312 15.6191 24.961 15.6191 24.528C15.6191 24.095 15.9639 23.744 16.3891 23.744ZM16.3891 25.984H20.5691C20.9944 25.984 21.3391 26.335 21.3391 26.768C21.3391 27.201 20.9944 27.552 20.5691 27.552H16.3891C15.9639 27.552 15.6191 27.201 15.6191 26.768C15.6191 26.335 15.9639 25.984 16.3891 25.984ZM17.7091 28.224H19.2491C19.6744 28.224 20.0191 28.575 20.0191 29.008C20.0191 29.441 19.6744 29.792 19.2491 29.792H17.7091C17.2839 29.792 16.9391 29.441 16.9391 29.008C16.9391 28.575 17.2839 28.224 17.7091 28.224Z" fill="#434343"></path>
    <path d="M20.8341 13.2863C20.5726 12.8763 20.0342 12.7598 19.6315 13.0261C19.2288 13.2923 19.1143 13.8406 19.3758 14.2506L20.4658 15.9595C20.7273 16.3695 21.2657 16.486 21.6684 16.2197C22.0711 15.9535 22.1855 15.4052 21.924 14.9952L20.8341 13.2863Z" fill="#434343"></path>
  </symbol>
  <symbol fill="none" xmlns="http://www.w3.org/2000/svg" viewBox="0 0 33 33" id="lowFidIcon">
    <path d="M2.16797 12.4698V32.53H25.8937C27.0748 32.53 28.0356 31.561 28.0356 30.3703V25.8229H28.3614C29.751 25.8229 30.7031 24.7186 30.822 23.6414C30.8529 23.2971 30.8329 9.71597 30.8333 4.9979C30.8333 4.20008 30.1894 3.55066 29.3982 3.55066H25.1402V5.98828H22.6593C21.868 5.98828 21.2242 6.6377 21.2242 7.43552V27.018C21.2242 28.2217 22.1977 29.2014 23.3945 29.2014H25.892C26.53 29.2014 27.049 29.7247 27.049 30.3679C27.049 31.011 26.53 31.5343 25.892 31.5343H21.7167V31.5367H3.15304V12.4698C3.15304 12.2196 3.35482 12.0164 3.60301 12.0164H15.7945V11.0231H3.60301C2.81178 11.0231 2.16797 11.672 2.16797 12.4698ZM26.1253 5.98828V4.54394H29.3982C29.6464 4.54394 29.8482 4.74764 29.8482 4.9979L29.8576 21.37C29.3739 20.9942 28.7834 20.8191 28.2578 20.8191H26.1253V5.98828ZM22.2093 7.43552C22.2093 7.18526 22.4111 6.98156 22.6593 6.98156H25.1402V21.8124H28.2578C29.1582 21.8124 29.9315 22.5434 29.8419 23.5415C29.7734 24.1608 29.188 24.8296 28.3614 24.8296H23.3945C22.9575 24.8296 22.5503 24.9606 22.2093 25.1856V7.43552ZM25.892 28.2081H23.3945C22.741 28.2081 22.2093 27.6742 22.2093 27.018C22.2093 26.3588 22.741 25.8229 23.3945 25.8229H27.0505V28.5565C26.7159 28.3382 26.3194 28.2081 25.892 28.2081Z" fill="#434343"></path>
    <path d="M24.2273 8.36676H23.2422V20.7809H24.2273V8.36676Z" fill="#434343"></path>
    <path d="M18.9907 16.4978L20.3644 13.2303C20.3902 13.1687 20.4034 13.1028 20.4034 13.0363C20.4042 8.81203 20.4045 6.76729 20.4053 2.60298C20.4053 1.62639 19.5932 0.744934 18.5612 0.744934C17.5459 0.744934 16.718 1.58223 16.718 2.60298C16.7172 6.76596 16.7169 8.8137 16.7161 13.0363C16.7161 13.1008 16.7286 13.1649 16.7529 13.2245L17.803 15.8071H4.875V16.8004H18.5343C18.5352 16.8004 18.5362 16.8004 18.5371 16.8004C18.7348 16.8004 18.9135 16.6811 18.9907 16.4978ZM17.7031 2.60298C17.7033 2.11946 18.102 1.73967 18.56 1.73967C19.0339 1.73967 19.419 2.12873 19.419 2.60298V2.97449H17.7031V2.60298ZM17.7012 12.4703L17.7028 3.96777H19.42L19.4183 12.4703H17.7012ZM17.9147 13.4636H19.1963L18.5448 15.0132L17.9147 13.4636Z" fill="#434343"></path>
    <path d="M18.5371 19.5436H4.875V20.5369H18.5371V19.5436Z" fill="#434343"></path>
    <path d="M18.5371 23.28H4.875V24.2733H18.5371V23.28Z" fill="#434343"></path>
    <path d="M18.5371 27.0165H4.875V28.0098H18.5371V27.0165Z" fill="#434343"></path>
  </symbol>
  <symbol fill="none" xmlns="http://www.w3.org/2000/svg" viewBox="0 0 34 37" id="protoIcon">
    <path d="M23.2779 20.5002H21.578C21.2649 20.5002 21.0115 20.7212 21.0115 20.9943V21.5029H19.6133L17.5232 16.7363C17.7557 16.3732 17.8832 15.9653 17.8832 15.5371C17.8832 14.3248 16.8909 13.3116 15.5781 13.081V12.4789H16.1639C16.477 12.4789 16.7304 12.2579 16.7304 11.9848V10.4939C16.7304 9.67021 15.962 9 15.0177 9C14.0679 9 13.2951 9.67021 13.2951 10.4939V11.9848C13.2951 12.2579 13.5484 12.4789 13.8615 12.4789H14.4451V13.0808C13.1326 13.3108 12.1406 14.3242 12.1406 15.5371C12.1406 15.9657 12.2684 16.3744 12.4976 16.7352L10.4072 21.5029H8.98849V20.9943C8.98849 20.7212 8.73513 20.5002 8.42203 20.5002H6.71267C5.76838 20.5002 5 21.1705 5 21.9941C5 22.8226 5.76838 23.4962 6.71267 23.4962H8.42203C8.73513 23.4962 8.98849 23.2752 8.98849 23.0021V22.4911H9.974L9.07037 24.5519C8.8889 24.9641 8.95472 25.4443 9.33452 25.8255L8.68148 27.3312C8.57084 27.5864 8.71854 27.8716 9.01118 27.9681C9.30051 28.0635 9.6298 27.938 9.74139 27.6805L10.3589 26.2569C10.3782 26.2576 10.3976 26.2615 10.4168 26.2615C10.9977 26.2615 11.5475 25.9531 11.7672 25.4523L15.0104 18.0566L18.25 25.4508C18.4701 25.9522 19.02 26.2615 19.602 26.2615C19.6217 26.2615 19.6415 26.2575 19.6613 26.2568L20.2846 27.682C20.3983 27.9413 20.7304 28.0631 21.0159 27.9676C21.308 27.8702 21.4546 27.5845 21.3434 27.3298L20.6854 25.8251C21.067 25.4421 21.1308 24.9628 20.9495 24.5505L20.0466 22.4911H21.0115V23.0021C21.0115 23.2752 21.2649 23.4962 21.578 23.4962H23.2779C24.2278 23.4962 25 22.8226 25 21.9941C25 21.1705 24.2277 20.5002 23.2779 20.5002ZM14.428 10.4939C14.428 10.215 14.6924 9.98819 15.0177 9.98819C15.3374 9.98819 15.5975 10.215 15.5975 10.4939V11.4907H15.0144C15.0134 11.4907 15.0126 11.4903 15.0116 11.4903C15.0107 11.4903 15.0098 11.4907 15.0089 11.4907H14.428V10.4939H14.428ZM7.85557 22.508H6.71268C6.39294 22.508 6.13294 22.2773 6.13294 21.9941C6.13294 21.7152 6.39294 21.4884 6.71268 21.4884H7.85557V22.508ZM15.0076 14.0194C15.009 14.0194 15.0102 14.0201 15.0116 14.0201C15.0128 14.0201 15.0137 14.0195 15.0149 14.0195C15.9721 14.0216 16.7503 14.7013 16.7503 15.5371C16.7503 16.4919 15.734 17.1961 14.7273 17.0295C13.9042 16.9182 13.2735 16.2868 13.2735 15.5371C13.2735 14.7008 14.0514 14.0208 15.0076 14.0194ZM10.7095 25.0991C10.6481 25.2385 10.4655 25.308 10.3084 25.2554C10.1493 25.2033 10.0664 25.0472 10.1281 24.9051C11.3575 22.1016 12.2041 20.171 13.3426 17.5748C13.3789 17.5973 13.8261 17.8181 13.8914 17.8421L10.7095 25.0991ZM19.3088 25.0981L16.1296 17.8421C16.1486 17.8351 16.6234 17.6091 16.6784 17.5748C17.8137 20.164 18.665 22.1056 19.8919 24.9037C19.9525 25.0419 19.8754 25.2009 19.711 25.2554C19.5505 25.3085 19.3696 25.2376 19.3088 25.0981ZM23.2779 22.508H22.1444V21.4884H23.2779C23.6026 21.4884 23.8671 21.7152 23.8671 21.9941C23.8671 22.2822 23.6082 22.508 23.2779 22.508Z" fill="#434343"></path>
    <path d="M30.9168 0H27.7931C27.4995 0 27.2618 0.267142 27.2618 0.597273V4.94383H2.56546C1.15069 4.94383 0 6.23461 0 7.82171V34.0376C0 35.6713 1.18442 37 2.64068 37H6.44452C6.73816 37 6.97577 36.7329 6.97577 36.4027V32.2691H30.6309C32.4887 32.2691 34 30.57 34 28.4813V3.4664C34 1.54277 32.6021 0 30.9168 0ZM28.3243 1.19455H30.9168C32.0106 1.19455 32.9375 2.19807 32.9375 3.4664V25.7183C32.3502 25.0938 31.5386 24.6871 30.6309 24.6871H28.3243C28.3243 16.7022 28.3243 5.78739 28.3243 1.19455ZM5.91327 35.8055H2.64068C1.77066 35.8055 1.0625 35.0122 1.0625 34.0376C1.0625 33.0536 1.76994 32.2691 2.64068 32.2691H5.91327V35.8055ZM30.6309 31.0745C22.5416 31.0745 10.728 31.0745 2.64068 31.0745C2.06278 31.0745 1.45547 31.3327 1.0625 31.6601V7.82171C1.0625 6.89372 1.73694 6.13838 2.56546 6.13838H27.2618V25.2843C27.2618 25.6145 27.4994 25.8816 27.7931 25.8816H30.6309C31.8087 25.8816 32.9375 26.9618 32.9375 28.4813C32.9375 29.9115 31.903 31.0745 30.6309 31.0745Z" fill="#434343"></path>
  </symbol>
  <symbol fill="none" xmlns="http://www.w3.org/2000/svg" viewBox="0 0 26 36" id="researchIcon">
    <path d="M20.598 14.8C20.598 13.476 19.522 12.4 18.198 12.4C17.674 12.4 17.186 12.572 16.79 12.86L14.114 11.02C14.166 10.82 14.198 10.616 14.198 10.4C14.198 9.076 13.122 8 11.798 8C10.474 8 9.39805 9.076 9.39805 10.4C9.39805 10.616 9.43005 10.82 9.48205 11.02L6.80605 12.86C6.41005 12.572 5.92605 12.4 5.39805 12.4C4.07405 12.4 2.99805 13.476 2.99805 14.8C2.99805 15.84 3.67005 16.728 4.59805 17.06V18.94C3.67005 19.268 2.99805 20.156 2.99805 21.2C2.99805 22.524 4.07405 23.6 5.39805 23.6C5.92605 23.6 6.41005 23.428 6.80605 23.14L9.48205 24.98C9.43005 25.176 9.39805 25.384 9.39805 25.6C9.39805 26.924 10.474 28 11.798 28C13.122 28 14.198 26.924 14.198 25.6C14.198 25.384 14.166 25.176 14.114 24.98L16.79 23.14C17.186 23.428 17.674 23.6 18.198 23.6C19.522 23.6 20.598 22.524 20.598 21.2C20.598 20.156 19.93 19.268 18.998 18.94V17.06C19.93 16.728 20.598 15.84 20.598 14.8ZM11.798 9.6C12.242 9.6 12.598 9.96 12.598 10.4C12.598 10.84 12.242 11.2 11.798 11.2C11.358 11.2 10.998 10.84 10.998 10.4C10.998 9.96 11.358 9.6 11.798 9.6ZM5.39805 14C5.84205 14 6.19805 14.36 6.19805 14.8C6.19805 15.24 5.84205 15.6 5.39805 15.6C4.95805 15.6 4.59805 15.24 4.59805 14.8C4.59805 14.36 4.95805 14 5.39805 14ZM5.39805 22C4.95805 22 4.59805 21.64 4.59805 21.2C4.59805 20.76 4.95805 20.4 5.39805 20.4C5.84205 20.4 6.19805 20.76 6.19805 21.2C6.19805 21.64 5.84205 22 5.39805 22ZM11.798 26.4C11.358 26.4 10.998 26.04 10.998 25.6C10.998 25.16 11.358 24.8 11.798 24.8C12.242 24.8 12.598 25.16 12.598 25.6C12.598 26.04 12.242 26.4 11.798 26.4ZM15.798 21.2C15.798 21.416 15.83 21.62 15.882 21.82L13.206 23.66C12.81 23.372 12.326 23.2 11.798 23.2C11.274 23.2 10.786 23.372 10.39 23.66L7.71405 21.82C7.77005 21.62 7.79805 21.416 7.79805 21.2C7.79805 20.156 7.13005 19.268 6.19805 18.94V17.06C7.13005 16.728 7.79805 15.84 7.79805 14.8C7.79805 14.584 7.77005 14.376 7.71405 14.18L10.39 12.34C10.786 12.628 11.274 12.8 11.798 12.8C12.326 12.8 12.81 12.628 13.206 12.34L15.882 14.18C15.83 14.376 15.798 14.584 15.798 14.8C15.798 15.84 16.47 16.728 17.398 17.06V18.94C16.47 19.268 15.798 20.156 15.798 21.2ZM18.198 22C17.758 22 17.398 21.64 17.398 21.2C17.398 20.76 17.758 20.4 18.198 20.4C18.642 20.4 18.998 20.76 18.998 21.2C18.998 21.64 18.642 22 18.198 22ZM18.198 15.6C17.758 15.6 17.398 15.24 17.398 14.8C17.398 14.36 17.758 14 18.198 14C18.642 14 18.998 14.36 18.998 14.8C18.998 15.24 18.642 15.6 18.198 15.6Z" fill="#434343"></path>
    <path d="M23.2 2H19.084C18.736 0.844 17.668 0 16.4 0H9.2C7.936 0 6.864 0.844 6.52 2H2.4C1.076 2 0 3.076 0 4.4V33.6C0 34.924 1.076 36 2.4 36H23.2C24.524 36 25.6 34.924 25.6 33.6V4.4C25.6 3.076 24.524 2 23.2 2ZM9.2 1.6H16.4C17.064 1.6 17.6 2.136 17.6 2.8C17.6 3.46 17.064 4 16.4 4H9.2C8.54 4 8 3.46 8 2.8C8 2.136 8.54 1.6 9.2 1.6ZM24 33.6C24 34.04 23.644 34.4 23.2 34.4H2.4C1.96 34.4 1.6 34.04 1.6 33.6V4.4C1.6 3.96 1.96 3.6 2.4 3.6H6.52C6.864 4.756 7.936 5.6 9.2 5.6H16.4C17.668 5.6 18.736 4.756 19.084 3.6H23.2C23.644 3.6 24 3.96 24 4.4V33.6Z" fill="#434343"></path>
    <path d="M9.79805 30.4H5.79805C5.35805 30.4 4.99805 30.756 4.99805 31.2C4.99805 31.64 5.35805 32 5.79805 32H9.79805C10.242 32 10.598 31.64 10.598 31.2C10.598 30.756 10.242 30.4 9.79805 30.4Z" fill="#434343"></path>
    <path d="M17.798 30.4H13.798C13.358 30.4 12.998 30.756 12.998 31.2C12.998 31.64 13.358 32 13.798 32H17.798C18.242 32 18.598 31.64 18.598 31.2C18.598 30.756 18.242 30.4 17.798 30.4Z" fill="#434343"></path>
  </symbol>
</svg>