<svg width="29" height="40" viewBox="0 0 29 40" fill="none" xmlns="http://www.w3.org/2000/svg">
<g clip-path="url(#clip0_1594:2078)">
<path d="M28.5103 32.4021L26.3889 31.4628L15.0347 36.4904C14.8658 36.5637 14.6824 36.6018 14.4967 36.6021C14.3151 36.602 14.1356 36.5649 13.9704 36.4931L2.60892 31.4628L0.487568 32.4021C0.341731 32.4676 0.218473 32.5712 0.132151 32.7008C0.0458301 32.8304 0 32.9807 0 33.1341C0 33.2876 0.0458301 33.4379 0.132151 33.5675C0.218473 33.6971 0.341731 33.8007 0.487568 33.8662L14.1951 39.9352C14.2901 39.9774 14.3937 39.9993 14.4986 39.9993C14.6034 39.9993 14.707 39.9774 14.802 39.9352L28.5095 33.8662C28.6554 33.8007 28.7787 33.6972 28.8651 33.5676C28.9515 33.438 28.9974 33.2878 28.9975 33.1344C28.9976 32.9809 28.9518 32.8306 28.8655 32.701C28.7793 32.5714 28.6561 32.4677 28.5103 32.4021Z" fill="#0038FF"/>
<path d="M11.6 24.1379C11.4077 24.1379 11.2233 24.2106 11.0873 24.3399C10.9514 24.4693 10.875 24.6447 10.875 24.8276C10.875 25.0105 10.9514 25.1859 11.0873 25.3153C11.2233 25.4446 11.4077 25.5173 11.6 25.5173H17.4C17.5923 25.5173 17.7767 25.4446 17.9127 25.3153C18.0486 25.1859 18.125 25.0105 18.125 24.8276C18.125 24.6447 18.0486 24.4693 17.9127 24.3399C17.7767 24.2106 17.5923 24.1379 17.4 24.1379H11.6Z" fill="#0038FF"/>
<path d="M19.5758 22.0689C19.5758 21.886 19.4994 21.7106 19.3634 21.5813C19.2275 21.4519 19.0431 21.3793 18.8508 21.3793H10.1508C9.9585 21.3793 9.77409 21.4519 9.63813 21.5813C9.50216 21.7106 9.42578 21.886 9.42578 22.0689C9.42578 22.2518 9.50216 22.4273 9.63813 22.5566C9.77409 22.6859 9.9585 22.7586 10.1508 22.7586H18.8508C19.0431 22.7586 19.2275 22.6859 19.3634 22.5566C19.4994 22.4273 19.5758 22.2518 19.5758 22.0689Z" fill="#0038FF"/>
<path d="M28.515 27.5641L26.3987 26.6359L15.0344 31.6131C14.8674 31.687 14.6856 31.7252 14.5015 31.7252C14.3174 31.7252 14.1355 31.687 13.9686 31.6131L2.60569 26.6359L0.489418 27.5641C0.344379 27.6283 0.221629 27.7306 0.135616 27.8588C0.0496024 27.9871 0.00390625 28.1361 0.00390625 28.2883C0.00390625 28.4404 0.0496024 28.5894 0.135616 28.7177C0.221629 28.846 0.344379 28.9483 0.489418 29.0124L14.1984 35.0221C14.2936 35.0638 14.3971 35.0854 14.5019 35.0854C14.6066 35.0854 14.7101 35.0638 14.8053 35.0221L28.5143 29.0138C28.6598 28.9499 28.783 28.8477 28.8693 28.7193C28.9557 28.5909 29.0017 28.4416 29.0017 28.2892C29.0018 28.1368 28.956 27.9875 28.8698 27.859C28.7835 27.7305 28.6604 27.6282 28.515 27.5641Z" fill="#0038FF"/>
<path d="M14.5008 11.0345C15.3016 11.0345 15.9508 10.417 15.9508 9.65519C15.9508 8.89342 15.3016 8.27588 14.5008 8.27588C13.7 8.27588 13.0508 8.89342 13.0508 9.65519C13.0508 10.417 13.7 11.0345 14.5008 11.0345Z" fill="#0038FF"/>
<path d="M0.495893 24.1945L14.1984 30.1945C14.2934 30.2361 14.3968 30.2577 14.5014 30.2577C14.6061 30.2577 14.7094 30.2361 14.8045 30.1945L28.507 24.1945C28.6523 24.1306 28.7753 24.0284 28.8615 23.9001C28.9477 23.7718 28.9935 23.6227 28.9935 23.4704C28.9935 23.3181 28.9477 23.169 28.8615 23.0407C28.7753 22.9124 28.6523 22.8102 28.507 22.7463L19.7193 18.8966C19.6255 19.1936 19.5767 19.5017 19.5743 19.8118V20.127C20.0113 20.2721 20.3879 20.5468 20.6486 20.9107C20.9093 21.2747 21.0403 21.7085 21.0225 22.1486C21.0046 22.5886 20.8388 23.0116 20.5494 23.3553C20.26 23.699 19.8623 23.9453 19.4148 24.058C19.5635 24.4029 19.6092 24.7803 19.5467 25.1483C19.443 25.6488 19.157 26.0985 18.7392 26.4182C18.3214 26.738 17.7984 26.9074 17.2622 26.8966H11.7377C11.2014 26.9072 10.6784 26.7377 10.2604 26.4179C9.84249 26.098 9.55644 25.6482 9.45254 25.1476C9.39068 24.7797 9.43658 24.4027 9.58522 24.058C9.13769 23.9453 8.73998 23.699 8.45058 23.3553C8.16118 23.0116 7.99536 22.5886 7.9775 22.1486C7.95965 21.7085 8.0907 21.2747 8.3514 20.9107C8.61209 20.5468 8.98865 20.2721 9.42572 20.127V19.9311C9.4244 19.5833 9.37293 19.2373 9.27274 18.9028L0.495893 22.7449C0.350208 22.8087 0.2268 22.9109 0.140294 23.0393C0.053789 23.1678 0.0078125 23.3171 0.0078125 23.4697C0.0078125 23.6223 0.053789 23.7716 0.140294 23.9001C0.2268 24.0286 0.350208 24.1307 0.495893 24.1945Z" fill="#0038FF"/>
<path d="M5.8008 9.65512C5.798 10.8869 6.08567 12.1036 6.64264 13.2156C7.19961 14.3277 8.01168 15.3067 9.01908 16.0806C9.61138 16.5496 10.0856 17.139 10.4069 17.8053C10.7283 18.4716 10.8885 19.198 10.8758 19.931V19.9999H18.1258V19.8117C18.1369 19.081 18.317 18.3617 18.6535 17.7048C18.9899 17.0479 19.4744 16.4696 20.0724 16.011C21.1968 15.1191 22.0664 13.9718 22.6007 12.6752C23.135 11.3786 23.3167 9.97477 23.129 8.59364C22.9412 7.21251 22.3901 5.89878 21.5267 4.77413C20.6633 3.64947 19.5155 2.75026 18.1897 2.15978C16.8638 1.5693 15.4027 1.30664 13.9417 1.39614C12.4807 1.48563 11.0671 1.92438 9.83181 2.67176C8.5965 3.41913 7.57943 4.45096 6.8748 5.67167C6.17016 6.89238 5.80076 8.2625 5.8008 9.65512ZM8.92483 7.89374C9.01311 7.63843 9.12119 7.3897 9.24818 7.1496L9.21555 7.07167C9.12822 6.85899 9.10028 6.62841 9.13445 6.4024C9.16863 6.1764 9.26376 5.96266 9.41058 5.78202C9.7047 5.41854 10.0471 5.09284 10.4292 4.81305C10.619 4.67327 10.8437 4.5827 11.0814 4.55019C11.319 4.51767 11.5614 4.54432 11.785 4.62754L11.8669 4.65857C12.1193 4.53777 12.3808 4.43496 12.6492 4.35098L12.6883 4.27581C12.7848 4.06659 12.9366 3.88471 13.129 3.74789C13.3214 3.61108 13.5477 3.52399 13.786 3.49512C14.2631 3.43857 14.7458 3.43857 15.2229 3.49512C15.4606 3.5247 15.6862 3.61209 15.8779 3.74885C16.0697 3.88561 16.2212 4.06711 16.3177 4.27581L16.3525 4.35443C16.6209 4.43841 16.8823 4.54122 17.1347 4.66202L17.2167 4.63098C17.4402 4.5477 17.6826 4.52102 17.9203 4.55353C18.1579 4.58605 18.3826 4.67666 18.5724 4.8165C18.9545 5.09629 19.2969 5.42199 19.591 5.78547C19.7378 5.96611 19.833 6.17984 19.8672 6.40585C19.9013 6.63186 19.8734 6.86244 19.7861 7.07512L19.7534 7.15305C19.8804 7.39315 19.9885 7.64188 20.0768 7.89719L20.1594 7.93098C20.3794 8.02278 20.5706 8.16721 20.7144 8.35019C20.8582 8.53318 20.9498 8.74848 20.9801 8.97512C21.041 9.42891 21.041 9.88823 20.9801 10.342C20.9496 10.5687 20.858 10.784 20.7142 10.9671C20.5704 11.1502 20.3793 11.2948 20.1594 11.3868L20.0768 11.4199C19.9885 11.6753 19.8804 11.924 19.7534 12.1641L19.7861 12.242C19.8734 12.4547 19.9013 12.6853 19.8672 12.9113C19.833 13.1373 19.7378 13.351 19.591 13.5317C19.2969 13.8952 18.9545 14.2209 18.5724 14.5006C18.3826 14.6404 18.1579 14.731 17.9203 14.7635C17.6826 14.796 17.4402 14.7694 17.2167 14.6862L17.1347 14.6551C16.8823 14.7759 16.6209 14.8787 16.3525 14.9627L16.3169 15.0413C16.2204 15.2506 16.0686 15.4324 15.8762 15.5692C15.6839 15.7061 15.4575 15.7931 15.2193 15.822C14.7422 15.8799 14.2594 15.8799 13.7823 15.822C13.544 15.793 13.3177 15.7059 13.1252 15.5691C12.9328 15.4323 12.7808 15.2505 12.684 15.0413L12.6492 14.9627C12.3808 14.8787 12.1193 14.7759 11.8669 14.6551L11.785 14.6862C11.5614 14.7694 11.319 14.7961 11.0813 14.7636C10.8437 14.7311 10.619 14.6405 10.4292 14.5006C10.0471 14.2209 9.7047 13.8952 9.41058 13.5317C9.26376 13.351 9.16863 13.1373 9.13445 12.9113C9.10028 12.6853 9.12822 12.4547 9.21555 12.242L9.24818 12.1641C9.12119 11.924 9.01311 11.6753 8.92483 11.4199L8.84218 11.3862C8.62223 11.2944 8.43103 11.1499 8.2872 10.9669C8.14338 10.784 8.05183 10.5687 8.02148 10.342C7.96058 9.88823 7.96058 9.42891 8.02148 8.97512C8.05174 8.74746 8.14361 8.53118 8.2881 8.34743C8.4326 8.16368 8.62477 8.01876 8.8458 7.92685L8.92483 7.89374Z" fill="#0038FF"/>
<path d="M9.42667 9.6552C9.42683 9.82516 9.43845 9.99493 9.46147 10.1635L9.80947 10.2766C9.91052 10.3179 10.0004 10.3805 10.0722 10.4597C10.1441 10.5389 10.196 10.6327 10.2242 10.7338C10.3244 11.0964 10.4758 11.4444 10.6744 11.7683C10.7296 11.8587 10.7625 11.9599 10.7705 12.0642C10.7786 12.1686 10.7616 12.2732 10.7208 12.3704L10.5627 12.7476C10.6874 12.8461 10.8044 12.9531 10.9129 13.0676C11.0393 13.1875 11.1734 13.2996 11.3146 13.4035L11.6459 13.2504C11.7312 13.2178 11.8223 13.2012 11.9141 13.2014C12.0415 13.2016 12.1665 13.2337 12.2766 13.2945C12.6171 13.4834 12.983 13.6275 13.3641 13.7228C13.4705 13.7495 13.569 13.799 13.6523 13.8673C13.7356 13.9357 13.8014 14.0211 13.8448 14.1173L14.013 14.4911C14.1755 14.4768 14.3388 14.474 14.5017 14.4828C14.6803 14.4826 14.8588 14.4716 15.036 14.4497L15.1549 14.1186C15.1983 14.0225 15.2641 13.937 15.3474 13.8687C15.4307 13.8004 15.5292 13.7509 15.6356 13.7242C16.0168 13.6288 16.3826 13.4848 16.7231 13.2959C16.8181 13.2434 16.9245 13.2121 17.0342 13.2044C17.1438 13.1968 17.2539 13.213 17.356 13.2517L17.7526 13.4021C17.8562 13.2835 17.9686 13.1722 18.089 13.069C18.215 12.9488 18.3329 12.8212 18.442 12.6869L18.2811 12.3717C18.2403 12.2746 18.2233 12.1699 18.2314 12.0656C18.2394 11.9613 18.2723 11.8601 18.3275 11.7697C18.526 11.4458 18.6775 11.0978 18.7777 10.7352C18.8059 10.6341 18.8578 10.5403 18.9297 10.4611C19.0015 10.3819 19.0914 10.3193 19.1924 10.278L19.5448 10.1338C19.5654 9.97502 19.5761 9.8152 19.5767 9.6552C19.5765 9.48524 19.5649 9.31546 19.5419 9.14692L19.1939 9.03382C19.0928 8.99252 19.003 8.92989 18.9311 8.85067C18.8593 8.77145 18.8073 8.67772 18.7792 8.57658C18.679 8.21397 18.5275 7.86597 18.3289 7.54209C18.2737 7.45165 18.2409 7.35045 18.2328 7.24615C18.2248 7.14184 18.2418 7.03716 18.2825 6.94003L18.4406 6.56278C18.3159 6.46425 18.1989 6.35731 18.0904 6.24278C17.9641 6.12293 17.8299 6.01075 17.6888 5.90692L17.3574 6.06003C17.2553 6.0988 17.1453 6.11498 17.0356 6.10733C16.926 6.09969 16.8196 6.06842 16.7245 6.01589C16.384 5.82701 16.0182 5.68294 15.637 5.58761C15.5307 5.56085 15.4322 5.51142 15.3489 5.44308C15.2656 5.37473 15.1998 5.28926 15.1563 5.19313L14.9881 4.81934C14.8264 4.83387 14.6638 4.83664 14.5017 4.82761C14.323 4.82777 14.1445 4.83882 13.9673 4.86072L13.8484 5.19175C13.805 5.28788 13.7392 5.37335 13.6559 5.4417C13.5726 5.51004 13.4741 5.55947 13.3678 5.58623C12.9866 5.68156 12.6207 5.82563 12.2803 6.01451C12.1852 6.06704 12.0788 6.09831 11.9692 6.10595C11.8595 6.1136 11.7495 6.09742 11.6473 6.05865L11.2508 5.9083C11.1472 6.02687 11.0348 6.13819 10.9144 6.2414C10.7884 6.36159 10.6704 6.4892 10.5613 6.62347L10.7222 6.93865C10.763 7.03578 10.78 7.14046 10.772 7.24477C10.7639 7.34907 10.7311 7.45028 10.6758 7.54071C10.4773 7.86459 10.3258 8.21259 10.2256 8.5752C10.1975 8.67634 10.1455 8.77007 10.0737 8.84929C10.0018 8.92851 9.91198 8.99114 9.81092 9.03244L9.41797 9.19244C9.43285 9.34628 9.43576 9.50095 9.42667 9.6552ZM14.5017 6.89658C15.0752 6.89658 15.6359 7.05837 16.1128 7.36149C16.5897 7.66461 16.9614 8.09545 17.1809 8.59952C17.4004 9.10359 17.4578 9.65826 17.3459 10.1934C17.234 10.7285 16.9579 11.22 16.5523 11.6058C16.1467 11.9916 15.63 12.2544 15.0674 12.3608C14.5049 12.4673 13.9218 12.4126 13.3919 12.2038C12.862 11.995 12.4091 11.6415 12.0904 11.1878C11.7718 10.7342 11.6017 10.2008 11.6017 9.6552C11.6017 8.92357 11.9072 8.2219 12.4511 7.70456C12.9949 7.18722 13.7325 6.89658 14.5017 6.89658Z" fill="#0038FF"/>
</g>
<defs>
<clipPath id="clip0_1594:2078">
<rect width="29" height="40" fill="white"/>
</clipPath>
</defs>
</svg>
