<svg width="842" height="75" viewBox="0 0 842 75" fill="none" xmlns="http://www.w3.org/2000/svg">
<mask id="path-1-outside-1" maskUnits="userSpaceOnUse" x="0" y="0" width="842" height="75" fill="black">
<rect fill="white" width="842" height="75"/>
<path d="M74.2163 30.9945C74.2163 15.2764 58.047 3.22082 38.1081 3.22082C18.1693 3.22082 2 15.2764 2 30.9945C2 46.7125 18.1693 58.7682 38.1081 58.7682C43.9608 58.7682 49.5159 57.6999 54.3767 55.8687L61.8165 61.8965L73.2243 54.1138L66.2804 48.4675C71.2403 43.7368 74.2163 37.709 74.2163 30.9945ZM38.1081 46.8652C26.7995 46.8652 17.8717 40.5321 17.8717 30.9945C17.8717 21.4568 26.7995 15.1238 38.1081 15.1238C49.4167 15.1238 58.3446 21.4568 58.3446 30.9945C58.3446 34.2754 57.2534 37.1749 55.4678 39.6165L44.3576 30.5367L32.9498 38.3194L42.9689 46.4836C41.3817 46.7125 39.7945 46.8652 38.1081 46.8652ZM115.666 19.5493V40.3795C115.666 45.7969 111.897 48.2386 106.441 48.2386C101.679 48.2386 97.8107 46.0258 97.8107 41.2952V19.5493H82.931V42.9738C82.931 53.2745 91.4621 58.7682 101.481 58.7682C108.028 58.7682 112.988 56.9369 115.666 54.1138V57.6999H130.546V19.5493H115.666ZM177.468 19.5493V23.1355C174.194 20.236 169.333 18.4811 162.687 18.4811C149.692 18.4811 138.979 27.2557 138.979 38.6246C138.979 49.9935 149.692 58.7682 162.687 58.7682C169.333 58.7682 174.194 57.0132 177.468 54.1138V57.6999H192.347V19.5493H177.468ZM165.663 47.9334C158.818 47.9334 153.858 44.3472 153.858 38.6246C153.858 32.902 158.818 29.3159 165.663 29.3159C172.508 29.3159 177.468 32.902 177.468 38.6246C177.468 44.3472 172.508 47.9334 165.663 47.9334ZM203.264 57.6999H218.144V2H203.264V57.6999ZM236.472 16.192C241.333 16.192 245.4 13.0637 245.4 9.32492C245.4 5.58616 241.333 2.45781 236.472 2.45781C231.611 2.45781 227.544 5.58616 227.544 9.32492C227.544 13.0637 231.611 16.192 236.472 16.192ZM229.032 57.6999H243.912V19.5493H229.032V57.6999ZM283.866 30.5367V19.5493H273.648V8.86711L258.768 12.3007V19.5493H250.832V30.5367H258.768V44.042C258.768 54.7242 264.423 59.226 283.866 57.6999V47.323C277.318 47.6282 273.648 47.323 273.648 44.042V30.5367H283.866ZM324.507 19.5493L315.182 42.8975L304.171 19.5493H287.803L307.544 55.945C305.361 60.5994 302.088 62.278 295.144 62.278V72.9602C309.032 73.4943 317.86 68.6873 323.415 56.5554L340.378 19.5493H324.507ZM415.3 57.6999H432.66L409.051 4.28904H388.814L365.205 57.6999H382.565L386.037 49.3068H411.828L415.3 57.6999ZM390.798 37.8616L398.932 18.2522L407.067 37.8616H390.798ZM451.686 30.6893C451.686 29.3159 453.274 28.5528 455.853 28.5528C459.126 28.5528 461.11 29.9263 462.499 31.9101L475.196 26.6453C471.03 21.2279 463.888 18.4811 455.853 18.4811C445.536 18.4811 436.41 22.6776 436.41 30.9945C436.41 44.1946 460.813 41.9819 460.813 46.1784C460.813 47.7045 459.027 48.5438 455.456 48.5438C451.091 48.5438 448.314 46.9414 447.024 44.042L434.128 49.6883C437.997 55.8687 445.536 58.7682 455.456 58.7682C466.169 58.7682 476.089 55.0294 476.089 46.2547C476.089 32.139 451.686 35.0385 451.686 30.6893ZM495.086 30.6893C495.086 29.3159 496.673 28.5528 499.252 28.5528C502.525 28.5528 504.509 29.9263 505.898 31.9101L518.596 26.6453C514.429 21.2279 507.287 18.4811 499.252 18.4811C488.935 18.4811 479.809 22.6776 479.809 30.9945C479.809 44.1946 504.212 41.9819 504.212 46.1784C504.212 47.7045 502.426 48.5438 498.855 48.5438C494.49 48.5438 491.713 46.9414 490.423 44.042L477.527 49.6883C481.396 55.8687 488.935 58.7682 498.855 58.7682C509.569 58.7682 519.488 55.0294 519.488 46.2547C519.488 32.139 495.086 35.0385 495.086 30.6893ZM558.958 19.5493V40.3795C558.958 45.7969 555.189 48.2386 549.733 48.2386C544.971 48.2386 541.103 46.0258 541.103 41.2952V19.5493H526.223V42.9738C526.223 53.2745 534.754 58.7682 544.773 58.7682C551.32 58.7682 556.28 56.9369 558.958 54.1138V57.6999H573.838V19.5493H558.958ZM599.63 26.3401V19.5493H584.751V57.6999H599.63V40.4558C599.63 32.902 608.36 30.9945 614.51 31.7575V18.7863C608.261 18.7863 601.614 21.2279 599.63 26.3401ZM656.021 19.5493V23.1355C652.748 20.236 647.887 18.4811 641.241 18.4811C628.246 18.4811 617.533 27.2557 617.533 38.6246C617.533 49.9935 628.246 58.7682 641.241 58.7682C647.887 58.7682 652.748 57.0132 656.021 54.1138V57.6999H670.901V19.5493H656.021ZM644.217 47.9334C637.372 47.9334 632.412 44.3472 632.412 38.6246C632.412 32.902 637.372 29.3159 644.217 29.3159C651.062 29.3159 656.021 32.902 656.021 38.6246C656.021 44.3472 651.062 47.9334 644.217 47.9334ZM710.883 18.4811C704.336 18.4811 699.376 20.3123 696.697 23.1355V19.5493H681.818V57.6999H696.697V36.8697C696.697 31.4523 700.467 29.0107 705.923 29.0107C710.684 29.0107 714.553 31.2234 714.553 35.9541V57.6999H729.433V34.2754C729.433 23.9748 720.902 18.4811 710.883 18.4811ZM763.459 58.7682C773.18 58.7682 781.612 54.8768 785.877 48.9253L772.882 43.2027C771.295 45.8732 767.625 47.4756 763.26 47.4756C756.812 47.4756 752.051 43.8894 752.051 38.6246C752.051 33.3598 756.812 29.7737 763.26 29.7737C767.625 29.7737 771.196 31.376 772.882 34.0465L785.877 28.2476C781.612 22.3724 773.081 18.4811 763.459 18.4811C748.38 18.4811 737.171 27.2557 737.171 38.6246C737.171 49.9935 748.38 58.7682 763.459 58.7682ZM804.189 43.2027H839.405C839.802 41.753 840 40.2269 840 38.6246C840 27.1031 829.287 18.4811 814.804 18.4811C799.13 18.4811 788.417 27.2557 788.417 38.6246C788.417 49.9935 798.932 58.7682 815.895 58.7682C825.319 58.7682 832.659 56.0976 837.52 50.9091L825.616 45.6443C823.632 47.323 820.16 48.5438 816.093 48.5438C810.637 48.5438 806.074 47.1704 804.189 43.2027ZM803.892 34.6569C805.281 30.7656 809.05 28.6291 814.705 28.6291C819.168 28.6291 823.632 30.2315 825.22 34.6569H803.892Z"/>
</mask>
<path d="M74.2163 30.9945C74.2163 15.2764 58.047 3.22082 38.1081 3.22082C18.1693 3.22082 2 15.2764 2 30.9945C2 46.7125 18.1693 58.7682 38.1081 58.7682C43.9608 58.7682 49.5159 57.6999 54.3767 55.8687L61.8165 61.8965L73.2243 54.1138L66.2804 48.4675C71.2403 43.7368 74.2163 37.709 74.2163 30.9945ZM38.1081 46.8652C26.7995 46.8652 17.8717 40.5321 17.8717 30.9945C17.8717 21.4568 26.7995 15.1238 38.1081 15.1238C49.4167 15.1238 58.3446 21.4568 58.3446 30.9945C58.3446 34.2754 57.2534 37.1749 55.4678 39.6165L44.3576 30.5367L32.9498 38.3194L42.9689 46.4836C41.3817 46.7125 39.7945 46.8652 38.1081 46.8652ZM115.666 19.5493V40.3795C115.666 45.7969 111.897 48.2386 106.441 48.2386C101.679 48.2386 97.8107 46.0258 97.8107 41.2952V19.5493H82.931V42.9738C82.931 53.2745 91.4621 58.7682 101.481 58.7682C108.028 58.7682 112.988 56.9369 115.666 54.1138V57.6999H130.546V19.5493H115.666ZM177.468 19.5493V23.1355C174.194 20.236 169.333 18.4811 162.687 18.4811C149.692 18.4811 138.979 27.2557 138.979 38.6246C138.979 49.9935 149.692 58.7682 162.687 58.7682C169.333 58.7682 174.194 57.0132 177.468 54.1138V57.6999H192.347V19.5493H177.468ZM165.663 47.9334C158.818 47.9334 153.858 44.3472 153.858 38.6246C153.858 32.902 158.818 29.3159 165.663 29.3159C172.508 29.3159 177.468 32.902 177.468 38.6246C177.468 44.3472 172.508 47.9334 165.663 47.9334ZM203.264 57.6999H218.144V2H203.264V57.6999ZM236.472 16.192C241.333 16.192 245.4 13.0637 245.4 9.32492C245.4 5.58616 241.333 2.45781 236.472 2.45781C231.611 2.45781 227.544 5.58616 227.544 9.32492C227.544 13.0637 231.611 16.192 236.472 16.192ZM229.032 57.6999H243.912V19.5493H229.032V57.6999ZM283.866 30.5367V19.5493H273.648V8.86711L258.768 12.3007V19.5493H250.832V30.5367H258.768V44.042C258.768 54.7242 264.423 59.226 283.866 57.6999V47.323C277.318 47.6282 273.648 47.323 273.648 44.042V30.5367H283.866ZM324.507 19.5493L315.182 42.8975L304.171 19.5493H287.803L307.544 55.945C305.361 60.5994 302.088 62.278 295.144 62.278V72.9602C309.032 73.4943 317.86 68.6873 323.415 56.5554L340.378 19.5493H324.507ZM415.3 57.6999H432.66L409.051 4.28904H388.814L365.205 57.6999H382.565L386.037 49.3068H411.828L415.3 57.6999ZM390.798 37.8616L398.932 18.2522L407.067 37.8616H390.798ZM451.686 30.6893C451.686 29.3159 453.274 28.5528 455.853 28.5528C459.126 28.5528 461.11 29.9263 462.499 31.9101L475.196 26.6453C471.03 21.2279 463.888 18.4811 455.853 18.4811C445.536 18.4811 436.41 22.6776 436.41 30.9945C436.41 44.1946 460.813 41.9819 460.813 46.1784C460.813 47.7045 459.027 48.5438 455.456 48.5438C451.091 48.5438 448.314 46.9414 447.024 44.042L434.128 49.6883C437.997 55.8687 445.536 58.7682 455.456 58.7682C466.169 58.7682 476.089 55.0294 476.089 46.2547C476.089 32.139 451.686 35.0385 451.686 30.6893ZM495.086 30.6893C495.086 29.3159 496.673 28.5528 499.252 28.5528C502.525 28.5528 504.509 29.9263 505.898 31.9101L518.596 26.6453C514.429 21.2279 507.287 18.4811 499.252 18.4811C488.935 18.4811 479.809 22.6776 479.809 30.9945C479.809 44.1946 504.212 41.9819 504.212 46.1784C504.212 47.7045 502.426 48.5438 498.855 48.5438C494.49 48.5438 491.713 46.9414 490.423 44.042L477.527 49.6883C481.396 55.8687 488.935 58.7682 498.855 58.7682C509.569 58.7682 519.488 55.0294 519.488 46.2547C519.488 32.139 495.086 35.0385 495.086 30.6893ZM558.958 19.5493V40.3795C558.958 45.7969 555.189 48.2386 549.733 48.2386C544.971 48.2386 541.103 46.0258 541.103 41.2952V19.5493H526.223V42.9738C526.223 53.2745 534.754 58.7682 544.773 58.7682C551.32 58.7682 556.28 56.9369 558.958 54.1138V57.6999H573.838V19.5493H558.958ZM599.63 26.3401V19.5493H584.751V57.6999H599.63V40.4558C599.63 32.902 608.36 30.9945 614.51 31.7575V18.7863C608.261 18.7863 601.614 21.2279 599.63 26.3401ZM656.021 19.5493V23.1355C652.748 20.236 647.887 18.4811 641.241 18.4811C628.246 18.4811 617.533 27.2557 617.533 38.6246C617.533 49.9935 628.246 58.7682 641.241 58.7682C647.887 58.7682 652.748 57.0132 656.021 54.1138V57.6999H670.901V19.5493H656.021ZM644.217 47.9334C637.372 47.9334 632.412 44.3472 632.412 38.6246C632.412 32.902 637.372 29.3159 644.217 29.3159C651.062 29.3159 656.021 32.902 656.021 38.6246C656.021 44.3472 651.062 47.9334 644.217 47.9334ZM710.883 18.4811C704.336 18.4811 699.376 20.3123 696.697 23.1355V19.5493H681.818V57.6999H696.697V36.8697C696.697 31.4523 700.467 29.0107 705.923 29.0107C710.684 29.0107 714.553 31.2234 714.553 35.9541V57.6999H729.433V34.2754C729.433 23.9748 720.902 18.4811 710.883 18.4811ZM763.459 58.7682C773.18 58.7682 781.612 54.8768 785.877 48.9253L772.882 43.2027C771.295 45.8732 767.625 47.4756 763.26 47.4756C756.812 47.4756 752.051 43.8894 752.051 38.6246C752.051 33.3598 756.812 29.7737 763.26 29.7737C767.625 29.7737 771.196 31.376 772.882 34.0465L785.877 28.2476C781.612 22.3724 773.081 18.4811 763.459 18.4811C748.38 18.4811 737.171 27.2557 737.171 38.6246C737.171 49.9935 748.38 58.7682 763.459 58.7682ZM804.189 43.2027H839.405C839.802 41.753 840 40.2269 840 38.6246C840 27.1031 829.287 18.4811 814.804 18.4811C799.13 18.4811 788.417 27.2557 788.417 38.6246C788.417 49.9935 798.932 58.7682 815.895 58.7682C825.319 58.7682 832.659 56.0976 837.52 50.9091L825.616 45.6443C823.632 47.323 820.16 48.5438 816.093 48.5438C810.637 48.5438 806.074 47.1704 804.189 43.2027ZM803.892 34.6569C805.281 30.7656 809.05 28.6291 814.705 28.6291C819.168 28.6291 823.632 30.2315 825.22 34.6569H803.892Z" stroke="white" stroke-opacity="0.5" stroke-width="4" mask="url(#path-1-outside-1)"/>
</svg>
