<svg width="41" height="39" viewBox="0 0 41 39" fill="none" xmlns="http://www.w3.org/2000/svg">
<path d="M12.9598 21.0148C12.7675 20.4452 12.6992 19.889 12.6992 19.1999C12.6992 18.0304 13.035 17.1442 13.6217 16.1995" stroke="white" stroke-width="1.13333" stroke-miterlimit="10"/>
<path d="M26.1256 21.2583C25.7084 22.4085 24.9507 23.4123 23.9648 24.1663" stroke="white" stroke-width="1.13333" stroke-miterlimit="10"/>
<path d="M26.3633 18.0317C26.4536 18.4466 26.4888 18.6682 26.4888 19.1075" stroke="white" stroke-width="1.13333" stroke-miterlimit="10"/>
<path d="M14.918 14.5064C15.3309 14.1294 15.4937 14.0132 15.997 13.7422" stroke="white" stroke-width="1.13333" stroke-miterlimit="10"/>
<path d="M19.5937 23.0531C21.8783 23.0531 23.7304 21.3279 23.7304 19.1998C23.7304 17.0716 21.8783 15.3464 19.5937 15.3464C17.3091 15.3464 15.457 17.0716 15.457 19.1998C15.457 21.3279 17.3091 23.0531 19.5937 23.0531Z" stroke="white" stroke-width="1.13333" stroke-miterlimit="10"/>
<path d="M15.9915 33.6203C12.9125 32.9838 10.4663 31.6519 8.34766 29.6147" stroke="white" stroke-width="1.13333" stroke-miterlimit="10"/>
<path d="M26.6377 5.96313C30.1911 7.60722 32.9882 10.4555 34.4139 13.935" stroke="white" stroke-width="1.13333" stroke-miterlimit="10"/>
<path d="M23.8281 4.96582C24.2963 5.08335 24.5038 5.145 24.954 5.30042" stroke="white" stroke-width="1.13333" stroke-miterlimit="10"/>
<path d="M6.86592 27.9931C6.52602 27.5808 6.45708 27.4876 6.16406 27.0432" stroke="white" stroke-width="1.13333" stroke-miterlimit="10"/>
<path d="M8.63965 5.15308L10.9907 7.47343" stroke="white" stroke-width="1.13333" stroke-miterlimit="10"/>
<path d="M7.18357 5.7132C8.32588 5.7132 9.2519 4.8506 9.2519 3.78653C9.2519 2.72246 8.32588 1.85986 7.18357 1.85986C6.04126 1.85986 5.11523 2.72246 5.11523 3.78653C5.11523 4.8506 6.04126 5.7132 7.18357 5.7132Z" stroke="white" stroke-width="1.13333" stroke-miterlimit="10"/>
<path d="M16.1465 4.42877C17.2888 4.42877 18.2148 3.56617 18.2148 2.50211C18.2148 1.43804 17.2888 0.575439 16.1465 0.575439C15.0042 0.575439 14.0781 1.43804 14.0781 2.50211C14.0781 3.56617 15.0042 4.42877 16.1465 4.42877Z" stroke="white" stroke-width="1.13333" stroke-miterlimit="10"/>
<path d="M3.04685 11.4932C4.18916 11.4932 5.11518 10.6306 5.11518 9.56656C5.11518 8.50249 4.18916 7.63989 3.04685 7.63989C1.90454 7.63989 0.978516 8.50249 0.978516 9.56656C0.978516 10.6306 1.90454 11.4932 3.04685 11.4932Z" stroke="white" stroke-width="1.13333" stroke-miterlimit="10"/>
<path d="M8.26806 10.5737L7.18357 9.56665H5.11523" stroke="white" stroke-width="1.13333" stroke-miterlimit="10"/>
<path d="M14.6841 3.86426L12.6992 5.71322L14.3642 7.47355" stroke="white" stroke-width="1.13333" stroke-miterlimit="10"/>
<path d="M33.6645 32.603L31.5762 30.3623" stroke="white" stroke-width="1.13333" stroke-miterlimit="10"/>
<path d="M35.1211 35.897C36.2634 35.897 37.1894 35.0344 37.1894 33.9704C37.1894 32.9063 36.2634 32.0437 35.1211 32.0437C33.9788 32.0437 33.0527 32.9063 33.0527 33.9704C33.0527 35.0344 33.9788 35.897 35.1211 35.897Z" stroke="white" stroke-width="1.13333" stroke-miterlimit="10"/>
<path d="M25.1093 37.8243C26.2517 37.8243 27.1777 36.9617 27.1777 35.8976C27.1777 34.8335 26.2517 33.9709 25.1093 33.9709C23.967 33.9709 23.041 34.8335 23.041 35.8976C23.041 36.9617 23.967 37.8243 25.1093 37.8243Z" stroke="white" stroke-width="1.13333" stroke-miterlimit="10"/>
<path d="M37.5185 26.9066C38.6608 26.9066 39.5869 26.044 39.5869 24.9799C39.5869 23.9158 38.6608 23.0532 37.5185 23.0532C36.3762 23.0532 35.4502 23.9158 35.4502 24.9799C35.4502 26.044 36.3762 26.9066 37.5185 26.9066Z" stroke="white" stroke-width="1.13333" stroke-miterlimit="10"/>
<path d="M32.3018 23.9768L33.3821 24.98H35.4505" stroke="white" stroke-width="1.13333" stroke-miterlimit="10"/>
<path d="M26.5713 34.5355L28.5562 32.6865L26.8202 31.0142" stroke="white" stroke-width="1.13333" stroke-miterlimit="10"/>
<path d="M32.0036 21.7688V16.631H29.5519C29.3237 15.8629 29.0011 15.1333 28.5874 14.4552L30.3186 12.8419L26.4184 9.20884L24.6872 10.8221C23.9592 10.4368 23.1759 10.1362 22.3514 9.92363V7.63989H16.8358V9.92363C16.0112 10.1362 15.228 10.4374 14.5 10.8221L12.7688 9.20884L8.8686 12.8419L10.5998 14.4552C10.1861 15.1333 9.86346 15.8623 9.63526 16.631H7.18359V21.7688H9.63526C9.86346 22.5362 10.1861 23.2664 10.5998 23.9446L8.8686 25.5579L12.7688 29.1909L14.5 27.5777C15.2287 27.963 16.0112 28.2636 16.8358 28.4762V30.7599H22.3514V28.4762C23.1759 28.2636 23.9592 27.9624 24.6872 27.5777L26.4184 29.1909L30.3186 25.5579L28.5874 23.9446C29.0011 23.2664 29.3237 22.5369 29.5519 21.7688H32.0036Z" stroke="white" stroke-width="1.13333" stroke-miterlimit="10"/>
</svg>
