<svg width="40" height="47" viewBox="0 0 40 47" fill="none" xmlns="http://www.w3.org/2000/svg">
<path d="M19.5993 5.51613C11.6832 5.51613 5.24414 11.9562 5.24414 19.8723C5.24414 22.6421 6.03427 25.3309 7.53007 27.6479C8.93023 29.8158 10.8793 31.5599 13.179 32.7123V33.6744H12.3055C12.0363 33.6744 11.818 33.8926 11.818 34.1618C11.818 34.4314 12.0363 34.6497 12.3055 34.6497H13.179V43.22C13.179 43.4897 13.3973 43.708 13.6664 43.708H16.222V45.5121C16.222 45.7812 16.4403 46 16.7099 46H22.4896C22.7588 46 22.9776 45.7812 22.9776 45.5121V43.708H25.5321C25.8013 43.708 26.02 43.4897 26.02 43.22V40.7047H26.8936C27.1628 40.7047 27.381 40.4864 27.381 40.2173C27.381 39.9476 27.1628 39.7293 26.8936 39.7293H26.02V37.7639H26.8936C27.1628 37.7639 27.381 37.5457 27.381 37.276C27.381 37.0069 27.1628 36.7886 26.8936 36.7886H26.02V34.6502H26.8936C27.1628 34.6502 27.381 34.432 27.381 34.1623C27.381 33.8932 27.1628 33.6749 26.8936 33.6749H26.02V32.7128C28.3197 31.5604 30.2683 29.8163 31.669 27.6484C33.1643 25.3315 33.9549 22.6426 33.9549 19.8728C33.9549 11.9567 27.5148 5.51613 19.5993 5.51613ZM22.0017 45.0242H17.1973V43.708H22.0017V45.0242ZM25.0442 36.7881H18.2892C18.0195 36.7881 17.8018 37.0064 17.8018 37.2755C17.8018 37.5452 18.02 37.7634 18.2892 37.7634H25.0442V39.7288H18.2892C18.0195 39.7288 17.8018 39.9471 17.8018 40.2167C17.8018 40.4859 18.02 40.7042 18.2892 40.7042H25.0442V42.7321H22.4932C22.4917 42.7321 22.4907 42.7316 22.4891 42.7316C22.4876 42.7316 22.4866 42.7321 22.4856 42.7321H16.713C16.712 42.7321 16.7104 42.7316 16.7089 42.7316C16.7074 42.7316 16.7064 42.7321 16.7054 42.7321H14.1533V34.6492H25.0437V36.7881H25.0442ZM25.3235 31.969C25.3134 31.9741 25.3052 31.9802 25.296 31.9852C25.2803 31.9944 25.264 32.003 25.2493 32.0137C25.2365 32.0234 25.2253 32.0331 25.2136 32.0443C25.2019 32.0544 25.1892 32.0641 25.179 32.0758C25.1684 32.0875 25.1577 32.1002 25.1485 32.1129C25.1378 32.1252 25.1297 32.1369 25.121 32.1501C25.1119 32.1633 25.1058 32.1771 25.0981 32.1908C25.091 32.205 25.0844 32.2193 25.0783 32.234C25.0722 32.2483 25.0681 32.2641 25.064 32.2798C25.06 32.2946 25.0559 32.3093 25.0534 32.3246C25.0503 32.3419 25.0493 32.3602 25.0478 32.3785C25.0468 32.3892 25.0442 32.3994 25.0442 32.4106V33.6749H14.1538V32.4106C14.1538 32.3984 14.1513 32.3867 14.1503 32.375C14.1493 32.3582 14.1482 32.3424 14.1452 32.3256C14.1421 32.3088 14.1371 32.2931 14.1325 32.2763C14.1289 32.2625 14.1248 32.2483 14.1197 32.2351C14.1136 32.2193 14.1055 32.2035 14.0979 32.1877C14.0913 32.176 14.0857 32.1633 14.078 32.1511C14.0689 32.1369 14.0587 32.1236 14.048 32.1104C14.0389 32.0997 14.0302 32.0875 14.02 32.0768C14.0083 32.0646 13.9956 32.0534 13.9829 32.0427C13.9722 32.0326 13.9615 32.0234 13.9493 32.0148C13.9335 32.0041 13.9173 31.9944 13.9 31.9847C13.8913 31.9802 13.8842 31.9741 13.875 31.9695C9.2243 29.7649 6.21946 25.0165 6.21946 19.8733C6.21946 12.4955 12.2215 6.49299 19.5993 6.49299C26.9771 6.49299 32.9791 12.4955 32.9791 19.8733C32.9791 25.016 29.9748 29.7639 25.3235 31.969Z" fill="#0038FF" stroke="#0038FF" stroke-width="0.5"/>
<path d="M19.6007 3.16154C19.8703 3.16154 20.0881 2.94327 20.0881 2.67413V0.487412C20.0881 0.218269 19.8698 0 19.6007 0C19.3315 0 19.1133 0.218269 19.1133 0.487412V2.67413C19.1128 2.94276 19.331 3.16154 19.6007 3.16154Z" fill="#0038FF"/>
<path d="M10.7152 5.18497C10.8052 5.34167 10.9696 5.42868 11.1385 5.42868C11.2209 5.42868 11.3054 5.40731 11.3817 5.36356C11.6147 5.22873 11.6951 4.93007 11.5603 4.69705L10.4669 2.80339C10.3321 2.57037 10.0345 2.49049 9.80042 2.62481C9.5674 2.75963 9.48751 3.05778 9.62183 3.29131L10.7152 5.18497Z" fill="#0038FF"/>
<path d="M2.8045 10.4656L4.69817 11.5589C4.77499 11.6032 4.85843 11.6246 4.94187 11.6246C5.11079 11.6246 5.27461 11.5371 5.36518 11.3809C5.49949 11.1473 5.41962 10.8492 5.1866 10.7144L3.29293 9.621C3.05991 9.48617 2.76177 9.56656 2.62643 9.79958C2.4911 10.0326 2.57097 10.3307 2.8045 10.4656Z" fill="#0038FF"/>
<path d="M3.16205 19.5996C3.16205 19.3299 2.94378 19.1117 2.67463 19.1117H0.487404C0.218261 19.1117 0 19.3299 0 19.5996C0 19.8687 0.218261 20.087 0.487404 20.087H2.67463C2.94327 20.0875 3.16205 19.8687 3.16205 19.5996Z" fill="#0038FF"/>
<path d="M4.69728 27.6398L2.80259 28.7326C2.56957 28.8674 2.48919 29.1656 2.62401 29.3986C2.71406 29.5553 2.8784 29.6428 3.04731 29.6428C3.12974 29.6428 3.21419 29.622 3.29051 29.5772L5.18469 28.4853C5.41822 28.3505 5.49809 28.0519 5.36377 27.8183C5.22945 27.5848 4.9308 27.5049 4.69728 27.6398Z" fill="#0038FF"/>
<path d="M36.3949 28.7332L34.5017 27.6404C34.2677 27.505 33.9695 27.5859 33.8347 27.8195C33.7004 28.0525 33.7803 28.3511 34.0138 28.486L35.9075 29.5783C35.9843 29.6231 36.0677 29.6434 36.1512 29.6434C36.3201 29.6434 36.4839 29.5564 36.574 29.3997C36.7083 29.1667 36.6289 28.868 36.3949 28.7332Z" fill="#0038FF"/>
<path d="M38.7107 19.1128H36.525C36.2559 19.1128 36.0371 19.3311 36.0371 19.6002C36.0371 19.8693 36.2559 20.0876 36.525 20.0876H38.7107C38.9804 20.0876 39.1987 19.8693 39.1987 19.6002C39.1987 19.3311 38.9804 19.1128 38.7107 19.1128Z" fill="#0038FF"/>
<path d="M34.2573 11.6246C34.3402 11.6246 34.4241 11.6032 34.501 11.5589L36.3941 10.4661C36.6281 10.3312 36.7075 10.0331 36.5732 9.79958C36.4384 9.56656 36.1402 9.48617 35.9067 9.621L34.013 10.7144C33.7795 10.8487 33.7006 11.1473 33.835 11.3809C33.9245 11.5365 34.0889 11.6246 34.2573 11.6246Z" fill="#0038FF"/>
<path d="M27.8182 5.36415C27.8945 5.4079 27.979 5.42927 28.0614 5.42927C28.2303 5.42927 28.3942 5.34227 28.4847 5.18557L29.5781 3.29241C29.7129 3.05939 29.6325 2.76073 29.4 2.62591C29.1665 2.49108 28.8678 2.57148 28.733 2.8045L27.6396 4.69765C27.5048 4.93067 27.5852 5.22932 27.8182 5.36415Z" fill="#0038FF"/>
<path d="M19.7061 20.3088C18.8697 20.3088 18.1895 20.989 18.1895 21.826C18.1895 22.4914 18.6209 23.0567 19.2182 23.2602V32.5032C19.2182 32.7728 19.4365 32.9911 19.7061 32.9911C19.9753 32.9911 20.194 32.7728 20.194 32.5032V23.2607C20.7913 23.0572 21.2233 22.4909 21.2233 21.8255C21.2233 20.9895 20.5425 20.3088 19.7061 20.3088ZM19.7061 22.3673C19.4075 22.3673 19.1648 22.1241 19.1648 21.826C19.1648 21.5278 19.4075 21.2846 19.7061 21.2846C20.0043 21.2846 20.2475 21.5278 20.2475 21.826C20.2475 22.1241 20.0043 22.3673 19.7061 22.3673Z" fill="#0038FF"/>
<path d="M29.3072 15.247C28.4708 15.247 27.7905 15.9272 27.7905 16.7637C27.7905 17.4296 28.222 17.9949 28.8193 18.1989V20.6446L25.8241 23.6398C25.816 23.6474 25.8114 23.6566 25.8033 23.6647C25.79 23.68 25.7758 23.6957 25.7641 23.713C25.7534 23.7303 25.7443 23.7481 25.7346 23.7665C25.73 23.7771 25.7239 23.7858 25.7193 23.7965C25.7097 23.8199 25.7036 23.8433 25.6975 23.8672C25.6959 23.8738 25.6929 23.8804 25.6908 23.8876C25.6842 23.9206 25.6807 23.9547 25.6817 23.9873V27.6835L23.614 28.6024V22.437L24.9353 21.1162C24.9582 21.0939 24.978 21.0684 24.9963 21.0414C25.003 21.0318 25.007 21.0206 25.0131 21.0104C25.0228 20.9931 25.033 20.9758 25.0411 20.9575C25.0462 20.9448 25.0493 20.931 25.0533 20.9183C25.0584 20.901 25.0645 20.8842 25.0681 20.8659C25.0727 20.8456 25.0732 20.8252 25.0742 20.8049C25.0757 20.7937 25.0778 20.7825 25.0778 20.7713V20.1068C25.6761 19.9033 26.107 19.3376 26.107 18.6721C26.107 17.8356 25.4263 17.1554 24.5898 17.1554C23.7539 17.1554 23.0737 17.8356 23.0737 18.6721C23.0737 19.3381 23.5051 19.9033 24.1024 20.1073V20.5693L22.7816 21.8906C22.7791 21.8931 22.7781 21.8957 22.7755 21.8982C22.7557 21.9191 22.7369 21.941 22.7211 21.9649C22.7119 21.9776 22.7063 21.9913 22.6992 22.0051C22.6911 22.0193 22.6824 22.0336 22.6758 22.0493C22.6692 22.0656 22.6651 22.0829 22.6601 22.1007C22.6565 22.114 22.6509 22.1267 22.6483 22.1409C22.6417 22.1725 22.6387 22.2045 22.6387 22.2366V29.3544C22.6387 29.5192 22.7221 29.6734 22.8605 29.7634C22.9409 29.8163 23.0335 29.8423 23.1261 29.8423C23.1938 29.8423 23.2614 29.828 23.3245 29.8L26.367 28.4487C26.5435 28.3699 26.6565 28.1954 26.6565 28.002V24.1882L29.6517 21.1936C29.6674 21.1778 29.6802 21.16 29.6934 21.1422C29.6995 21.1346 29.7061 21.1279 29.7112 21.1208C29.7239 21.1005 29.7351 21.0796 29.7448 21.0582C29.7483 21.0506 29.7529 21.0445 29.7554 21.0369C29.7661 21.0125 29.7733 20.987 29.7794 20.9616C29.7804 20.9565 29.7829 20.9514 29.7839 20.9463C29.7906 20.9132 29.7941 20.8797 29.7941 20.8461V18.202C30.3914 17.9985 30.8234 17.4322 30.8234 16.7667C30.8244 15.9277 30.1437 15.247 29.3072 15.247ZM24.0495 18.6711C24.0495 18.3724 24.2922 18.1297 24.5904 18.1297C24.889 18.1297 25.1317 18.3724 25.1317 18.6711C25.1317 18.9692 24.8885 19.2124 24.5904 19.2124C24.2922 19.2129 24.0495 18.9697 24.0495 18.6711ZM29.3072 17.3055C29.0086 17.3055 28.7664 17.0628 28.7664 16.7642C28.7664 16.466 29.0091 16.2228 29.3072 16.2228C29.6054 16.2228 29.8486 16.466 29.8486 16.7642C29.8491 17.0628 29.6054 17.3055 29.3072 17.3055Z" fill="#0038FF"/>
<path d="M16.7512 22.1038C16.7461 22.085 16.741 22.0656 16.7334 22.0473C16.7278 22.0331 16.7197 22.0203 16.712 22.0071C16.7044 21.9924 16.6978 21.9771 16.6886 21.9634C16.6734 21.941 16.6556 21.9201 16.6367 21.9003C16.6332 21.8967 16.6311 21.8926 16.6281 21.8896L15.3073 20.5683V20.1063C15.9046 19.9028 16.3366 19.3365 16.3366 18.6711C16.3366 17.8346 15.6563 17.1544 14.8199 17.1544C13.9835 17.1544 13.3032 17.8346 13.3032 18.6711C13.3032 19.3365 13.7347 19.9023 14.3325 20.1058V20.7703C14.3325 20.7759 14.334 20.7815 14.334 20.7871C14.3345 20.813 14.3366 20.8395 14.3422 20.8654C14.3447 20.8817 14.3508 20.8964 14.3559 20.9122C14.3605 20.927 14.3635 20.9422 14.3696 20.957C14.3768 20.9743 14.3864 20.9896 14.3956 21.0063C14.4022 21.018 14.4068 21.0298 14.4144 21.0409C14.4322 21.0679 14.4526 21.0928 14.4755 21.1152L15.7962 22.436V28.6019L13.7291 27.683V23.9868C13.7296 23.9532 13.7265 23.9196 13.7194 23.887C13.7184 23.8804 13.7153 23.8748 13.7138 23.8682C13.7077 23.8433 13.7016 23.8194 13.6919 23.796C13.6879 23.7858 13.6818 23.7782 13.6777 23.7685C13.668 23.7497 13.6589 23.7303 13.6472 23.7125C13.637 23.6978 13.6248 23.6851 13.6136 23.6718C13.6044 23.6611 13.5973 23.6494 13.5876 23.6398L10.5925 20.6446V18.1989C11.1898 17.9954 11.6212 17.4296 11.6212 16.7642C11.6212 15.9277 10.941 15.247 10.1046 15.247C9.26813 15.247 8.58789 15.9277 8.58789 16.7642C8.58789 17.4302 9.01933 17.9954 9.61714 18.1994V20.8456C9.61714 20.8781 9.6207 20.9107 9.62681 20.9427C9.62884 20.9534 9.63292 20.9621 9.63547 20.9718C9.64157 20.9926 9.64666 21.014 9.6548 21.0343C9.65937 21.0455 9.66599 21.0557 9.67209 21.0664C9.68074 21.0837 9.68888 21.1015 9.70058 21.1188C9.70974 21.1325 9.72145 21.1447 9.73264 21.158C9.74231 21.1692 9.74993 21.1814 9.76062 21.192L12.7553 24.1867V28.001C12.7553 28.1938 12.8687 28.3683 13.0453 28.4467L16.0878 29.7985C16.1514 29.827 16.2185 29.8402 16.2857 29.8402C16.3788 29.8402 16.4714 29.8138 16.5518 29.7614C16.6902 29.6713 16.7736 29.5177 16.7736 29.3528V22.2361C16.7736 22.2035 16.77 22.1709 16.7639 22.1389C16.7588 22.1267 16.7543 22.1155 16.7512 22.1038ZM14.8199 19.2129C14.5218 19.2129 14.2786 18.9697 14.2786 18.6716C14.2786 18.3729 14.5218 18.1302 14.8199 18.1302C15.1185 18.1302 15.3612 18.3729 15.3612 18.6716C15.3612 18.9697 15.1185 19.2129 14.8199 19.2129ZM10.1035 17.3055C9.8054 17.3055 9.56219 17.0628 9.56219 16.7642C9.56219 16.466 9.8054 16.2228 10.1035 16.2228C10.4022 16.2228 10.6449 16.466 10.6449 16.7642C10.6449 17.0628 10.4022 17.3055 10.1035 17.3055Z" fill="#0038FF"/>
</svg>
