<svg width="174" height="176" viewBox="0 0 174 176" fill="none" xmlns="http://www.w3.org/2000/svg">
<path d="M87.0005 107.933C87.0005 103.625 94.4422 98.5333 101.931 98.5333C110.645 98.5333 113.634 104.8 121.467 104.8C129.398 104.8 135.633 99.6425 135.633 99.6425L171.062 158.067C171.062 158.067 164.942 161.2 155.934 161.2C141.702 161.2 131.39 151.8 115.201 151.8C98.7787 151.8 93.2672 161.2 87.0005 161.2C80.6681 161.2 75.2223 151.8 58.8005 151.8C42.6106 151.8 32.2988 161.2 18.0672 161.2C9.05885 161.2 2.93945 158.067 2.93945 158.067L21.5389 127.394" stroke="white" stroke-width="3" stroke-miterlimit="10"/>
<path d="M130.061 141.789C125.53 140.354 120.705 139.267 115.199 139.267C106.808 139.267 101.269 140.902 97.0166 142.503" stroke="white" stroke-width="3" stroke-miterlimit="10"/>
<path d="M152.136 148.447C147.138 147.874 142.551 146.267 137.886 144.549" stroke="white" stroke-width="3" stroke-miterlimit="10"/>
<path d="M142.866 133.768C134.315 130.982 126.087 126.733 115.201 126.733C113.061 126.733 111.106 126.84 109.308 127.025" stroke="white" stroke-width="3" stroke-miterlimit="10"/>
<path d="M64.6405 139.552C62.8576 139.37 60.9212 139.267 58.7999 139.267C47.9147 139.267 39.6866 143.516 31.1357 146.301" stroke="white" stroke-width="3" stroke-miterlimit="10"/>
<path d="M51.8406 127.31C44.2078 128.566 37.7688 131.606 31.1387 133.768" stroke="white" stroke-width="3" stroke-miterlimit="10"/>
<path d="M77.1245 130.033C72.86 128.413 67.3015 126.733 58.8008 126.733" stroke="white" stroke-width="3" stroke-miterlimit="10"/>
<path d="M164.403 160.269L170.945 166.812C172.342 168.209 171.355 170.6 169.378 170.6H100.83C100 170.6 99.201 170.929 98.6151 171.518L97.3179 172.815C96.7288 173.404 95.9329 173.733 95.1026 173.733H78.897C78.0667 173.733 77.2677 173.404 76.6817 172.815L75.3845 171.518C74.7955 170.929 73.9996 170.6 73.1693 170.6H4.62132C2.64418 170.6 1.65405 168.209 3.05152 166.812L9.59392 160.269" stroke="white" stroke-width="3" stroke-miterlimit="10"/>
<path d="M86.9986 161.2V107.933C86.9986 103.625 79.5569 98.5333 72.0682 98.5333C63.3544 98.5333 60.3652 104.8 52.5319 104.8C44.6014 104.8 38.3661 99.6425 38.3661 99.6425L19.4658 130.81" stroke="white" stroke-width="3" stroke-miterlimit="10"/>
<path d="M46.2666 35.8667V19.3509C46.2666 19.3509 77.5999 22.8101 77.5999 42.1334" stroke="white" stroke-width="3" stroke-miterlimit="10"/>
<path d="M68.1999 26.7612C77.4307 20.7546 90.1333 19.3509 90.1333 19.3509V45.2667C90.1333 57.3802 80.3134 67.2 68.1999 67.2C56.0865 67.2 46.2666 57.3802 46.2666 45.2667V32.7334" stroke="white" stroke-width="3" stroke-miterlimit="10"/>
<path d="M77.5996 48.4V54.6667" stroke="white" stroke-width="3" stroke-miterlimit="10"/>
<path d="M68.2002 67.2V89.1333" stroke="white" stroke-width="3" stroke-miterlimit="10"/>
<path d="M79.2734 21.7541C78.3365 11.7212 68.2002 2.763 68.2002 2.763C68.2002 2.763 58.0638 11.7212 57.127 21.751" stroke="white" stroke-width="3" stroke-miterlimit="10"/>
<path d="M90.1494 26.2631C96.8829 27.93 112.067 33.3601 112.067 48.4001" stroke="white" stroke-width="3" stroke-miterlimit="10"/>
<path d="M105.796 34.1214C113.222 27.1874 124.599 25.6176 124.599 25.6176V51.5334C124.599 61.9172 116.183 70.3334 105.799 70.3334C96.8662 70.3334 89.3901 64.1043 87.4756 55.7508" stroke="white" stroke-width="3" stroke-miterlimit="10"/>
<path d="M105.801 70.3334V89.1334" stroke="white" stroke-width="3" stroke-miterlimit="10"/>
<path d="M26.6712 45.9748C25.2267 37.9723 18.067 30.7437 18.067 30.7437C18.067 30.7437 10.9074 37.9754 9.46289 45.9748" stroke="white" stroke-width="3" stroke-miterlimit="10"/>
<path d="M18.0674 79.7333V111.067" stroke="white" stroke-width="3" stroke-miterlimit="10"/>
<path d="M2.40039 57.8001V44.4176C13.7807 45.9874 21.2004 50.2644 21.2004 64.0667" stroke="white" stroke-width="3" stroke-miterlimit="10"/>
<path d="M18.0639 51.9313C21.2662 47.3629 26.7558 45.3827 33.7337 44.4176V64.0667C33.7337 72.7179 26.7182 79.7334 18.0671 79.7334C9.41592 79.7334 2.40039 72.7179 2.40039 64.0667V54.6667" stroke="white" stroke-width="3" stroke-miterlimit="10"/>
<path d="M161.405 36.5748C159.96 28.5723 152.8 21.3437 152.8 21.3437C152.8 21.3437 145.641 28.5754 144.196 36.5748" stroke="white" stroke-width="3" stroke-miterlimit="10"/>
<path d="M137.134 48.4V35.0176C148.514 36.5874 155.934 40.8644 155.934 54.6667" stroke="white" stroke-width="3" stroke-miterlimit="10"/>
<path d="M152.797 42.5313C156 37.9629 161.489 35.9826 168.467 35.0176V54.6667C168.467 63.3178 161.452 70.3334 152.8 70.3334C144.149 70.3334 137.134 63.3178 137.134 54.6667V45.2667" stroke="white" stroke-width="3" stroke-miterlimit="10"/>
<path d="M96.9512 28.5378C98.3956 20.5384 105.8 11.9437 105.8 11.9437C105.8 11.9437 113.204 20.5384 114.648 28.5378" stroke="white" stroke-width="3" stroke-miterlimit="10"/>
<path d="M152.801 70.3334V104.8" stroke="white" stroke-width="3" stroke-miterlimit="10"/>
<path d="M2.40039 92.2667V111.067" stroke="#E54887" stroke-width="3" stroke-miterlimit="10"/>
<path d="M2.40039 117.333V123.6" stroke="#E54887" stroke-width="3" stroke-miterlimit="10"/>
<path d="M127.733 73.4667V79.7333" stroke="#E54887" stroke-width="3" stroke-miterlimit="10"/>
<path d="M127.733 86V92.2667" stroke="#E54887" stroke-width="3" stroke-miterlimit="10"/>
<path d="M46.2666 70.3334V76.6" stroke="white" stroke-width="3" stroke-miterlimit="10"/>
<path d="M46.2666 82.8667V89.1334" stroke="white" stroke-width="3" stroke-miterlimit="10"/>
<path d="M168.467 82.8667V89.1334" stroke="#E54887" stroke-width="3" stroke-miterlimit="10"/>
<path d="M168.467 95.4V117.333" stroke="#E54887" stroke-width="3" stroke-miterlimit="10"/>
<path d="M165.334 1.40002V7.66669" stroke="#E54887" stroke-width="3" stroke-miterlimit="10"/>
<path d="M24.334 1.40002V7.66669" stroke="#E54887" stroke-width="3" stroke-miterlimit="10"/>
<path d="M24.334 13.9333V20.2" stroke="#E54887" stroke-width="3" stroke-miterlimit="10"/>
</svg>
