<svg width="38" height="30" viewBox="0 0 38 30" fill="none" xmlns="http://www.w3.org/2000/svg">
<path d="M36.4164 0.747681H1.57812V23.2477H36.409V0.747681H36.4164ZM13.223 16.7156L12.1023 17.7774L6.00156 11.9977L12.1023 6.21799L13.223 7.27971L8.24297 11.9977L13.223 16.7156ZM16.5629 19.7742L15.0934 19.2188L21.4242 4.22112L22.8938 4.77659L16.5629 19.7742ZM25.8922 17.7774L24.7715 16.7156L29.7516 11.9977L24.7715 7.27971L25.8922 6.21799L31.993 11.9977L25.8922 17.7774Z" fill="#0038FF"/>
<path d="M0 24.7524V26.4751L1.94453 29.2524H36.048L37.9926 26.4751V24.7524H0ZM16.625 27.7478H15.0441V26.2501H16.625V27.7478ZM19.7941 27.7478H18.2133V26.2501H19.7941V27.7478ZM22.9559 27.7478H21.375V26.2501H22.9559V27.7478Z" fill="#0038FF"/>
</svg>
