<svg width="641" height="88" viewBox="0 0 641 88" fill="none" xmlns="http://www.w3.org/2000/svg">
<path d="M38.4499 68.6631C59.8102 68.6631 75.8998 60.4115 75.8998 46.6588V3.20043H53.7073V45.3753C53.7073 50.2345 50.2397 54.3603 38.4499 54.3603C26.6601 54.3603 23.1925 50.2345 23.1925 45.3753V3.20043H1V46.6588C1 60.4115 17.0896 68.6631 38.4499 68.6631ZM166.837 67.3795L137.848 34.4648L165.45 3.20043H140.206L125.226 20.162L110.246 3.20043H85.0022L112.604 34.4648L83.6152 67.3795H108.859L125.226 48.8593L141.593 67.3795H166.837ZM250.076 3.20043H211.239V67.3795H250.076C276.845 67.3795 297.235 53.4435 297.235 35.29C297.235 17.1365 276.845 3.20043 250.076 3.20043ZM250.076 53.2601H233.431V17.3198H250.076C265.333 17.3198 275.874 24.2878 275.874 35.29C275.874 46.2921 265.333 53.2601 250.076 53.2601ZM327.605 49.9595H376.845C377.4 48.2175 377.677 46.3838 377.677 44.4584C377.677 30.6141 362.697 20.2537 342.447 20.2537C320.531 20.2537 305.551 30.7974 305.551 44.4584C305.551 58.1194 320.254 68.6631 343.972 68.6631C357.149 68.6631 367.413 65.4542 374.21 59.2196L357.565 52.8934C354.791 54.9104 349.937 56.3774 344.25 56.3774C336.621 56.3774 330.241 54.7271 327.605 49.9595ZM327.189 39.6908C329.131 35.0149 334.402 32.4478 342.308 32.4478C348.549 32.4478 354.791 34.3731 357.01 39.6908H327.189ZM406.465 34.9232C406.465 33.2729 408.684 32.3561 412.29 32.3561C416.867 32.3561 419.641 34.0064 421.583 36.3902L439.337 30.064C433.512 23.5544 423.525 20.2537 412.29 20.2537C397.865 20.2537 385.104 25.2964 385.104 35.29C385.104 51.1514 419.225 48.4925 419.225 53.5352C419.225 55.3689 416.729 56.3774 411.735 56.3774C405.632 56.3774 401.749 54.452 399.946 50.968L381.914 57.7527C387.324 65.1791 397.865 68.6631 411.735 68.6631C426.715 68.6631 440.586 64.1706 440.586 53.6269C440.586 36.6652 406.465 40.1493 406.465 34.9232ZM461.376 17.5032C468.172 17.5032 473.859 13.7441 473.859 9.2516C473.859 4.75906 468.172 1 461.376 1C454.58 1 448.893 4.75906 448.893 9.2516C448.893 13.7441 454.58 17.5032 461.376 17.5032ZM450.973 67.3795H471.779V21.5373H450.973V67.3795ZM537.908 21.5373V26.2132C533.331 22.4542 526.673 20.2537 517.657 20.2537C497.961 20.2537 483.536 30.8891 483.536 43.5416C483.536 56.194 497.961 66.8294 517.657 66.8294C526.673 66.8294 533.331 64.629 537.908 60.8699V65.0874C537.908 71.597 531.944 74.8977 522.234 74.8977C513.08 74.8977 509.057 72.3305 506.422 69.1215L488.668 75.9062C495.048 83.4243 507.116 87 521.541 87C539.988 87 558.158 80.4904 558.158 65.0874V21.5373H537.908ZM521.125 54.177C511.277 54.177 504.342 49.8678 504.342 43.5416C504.342 37.2154 511.277 32.9062 521.125 32.9062C530.973 32.9062 537.908 37.2154 537.908 43.5416C537.908 49.8678 530.973 54.177 521.125 54.177ZM614.062 20.2537C604.908 20.2537 597.973 22.4542 594.228 25.8465V21.5373H573.422V67.3795H594.228V42.3497C594.228 35.8401 599.499 32.9062 607.127 32.9062C613.785 32.9062 619.194 35.565 619.194 41.2495V67.3795H640V39.2324C640 26.855 628.071 20.2537 614.062 20.2537Z" stroke="white" stroke-opacity="0.5" stroke-width="2"/>
</svg>
