<svg width="58" height="50" viewBox="0 0 58 50" fill="none" xmlns="http://www.w3.org/2000/svg">
<path d="M11.395 23.098V3.88235C11.395 2.29033 12.6925 1 14.2933 1H53.9035C55.5034 1 56.8018 2.29033 56.8018 3.88235V32.7059C56.8018 34.2979 55.5034 35.5882 53.9035 35.5882H37.4798" stroke="white" stroke-width="2" stroke-miterlimit="10"/>
<path d="M28.363 35.5883L25.4038 44.2353" stroke="white" stroke-width="2" stroke-miterlimit="10"/>
<path d="M40.8457 35.5883L43.7894 44.2353" stroke="white" stroke-width="2" stroke-miterlimit="10"/>
<path d="M21.0562 44.2353H49.0731" stroke="white" stroke-width="2" stroke-miterlimit="10"/>
<path d="M51.0054 44.2353H52.9376" stroke="white" stroke-width="2" stroke-miterlimit="10"/>
<path d="M12.3613 48.0784H38.4461" stroke="white" stroke-width="2" stroke-miterlimit="10"/>
<path d="M40.3784 48.0784H42.3106" stroke="white" stroke-width="2" stroke-miterlimit="10"/>
<path d="M44.2427 48.0784H46.1749" stroke="white" stroke-width="2" stroke-miterlimit="10"/>
<path d="M27.8188 29.8235H56.8019" stroke="white" stroke-width="2" stroke-miterlimit="10"/>
<path d="M40.0954 20.4972L25.6039 6.0854C25.429 5.9115 25.1875 5.80389 24.9208 5.80389C24.6542 5.80389 24.4127 5.9115 24.2378 6.0854L20.3734 9.92854C20.1976 10.1024 20.0903 10.3426 20.0903 10.6078C20.0903 10.873 20.1976 11.1132 20.3734 11.2871L34.8649 25.6989C35.0398 25.8728 35.2813 25.9804 35.548 25.9804C35.8146 25.9804 36.0561 25.8728 36.231 25.6989L40.0954 21.8557C40.2712 21.6818 40.3785 21.4416 40.3785 21.1764C40.3785 20.9113 40.2712 20.6711 40.0954 20.4972Z" stroke="white" stroke-width="2" stroke-miterlimit="10"/>
<path d="M31.1406 16.7934L36.061 21.6867" stroke="white" stroke-width="2" stroke-miterlimit="10"/>
<path d="M28.2817 13.9504L29.3358 14.9987" stroke="white" stroke-width="2" stroke-miterlimit="10"/>
<path d="M22.3055 8.00702L19.6072 5.32355L15.2598 9.64708L21.3414 23.099" stroke="white" stroke-width="2" stroke-miterlimit="10"/>
<path d="M21.4503 30.7901L24.4395 27.8174C24.7467 27.5109 24.9206 27.0949 24.9215 26.6616C24.9215 26.2264 24.7476 25.8084 24.4395 25.5019L22.5073 23.5804C22.1981 23.2729 21.7788 23.1 21.3412 23.099C20.9035 23.098 20.4813 23.2719 20.1712 23.5804L17.0439 26.6904" stroke="white" stroke-width="2" stroke-miterlimit="10"/>
<path d="M31.6817 35.5883H23.2524" stroke="white" stroke-width="2" stroke-miterlimit="10"/>
<path d="M35.547 35.5883H33.6206" stroke="white" stroke-width="2" stroke-miterlimit="10"/>
<path d="M8.92686 47.8162L9.73646 46.9543C10.0591 46.6142 10.2668 46.2664 10.3664 45.811C10.5605 44.9271 10.292 43.9346 9.63019 43.313L5.20351 39.1595C4.86151 38.8386 4.51661 38.633 4.05771 38.534C3.1689 38.3399 2.16512 38.607 1.54102 39.2661L1 39.8445" stroke="white" stroke-width="2" stroke-miterlimit="10"/>
<path d="M4.85205 38.8713C4.85205 38.8713 6.26836 32.3552 7.67017 30.5701C9.01112 28.8656 14.003 24.521 14.003 24.521C14.3469 24.2279 14.7884 24.0579 15.256 24.0588C16.3371 24.0608 17.1921 24.8976 17.1921 25.9804C17.1921 26.554 16.9728 26.9719 16.6385 27.3255L13.6813 30.6152C13.5199 30.7776 13.4088 30.9823 13.3595 31.2042C13.1982 31.9382 13.6581 32.5416 14.2783 32.6761C14.5314 32.7318 14.7894 32.7069 15.0251 32.6041L20.6816 30.94C20.9434 30.842 21.2246 30.7843 21.5134 30.7843C22.9037 30.7843 23.9548 31.7451 23.9548 33.1844C23.9548 35.2347 21.1666 39.7235 18.0761 41.6912C16.9264 42.4242 9.99171 43.7424 9.99171 43.7424" stroke="white" stroke-width="2" stroke-miterlimit="10"/>
<path d="M31.1802 6.30449L34.1558 3.34528" stroke="white" stroke-width="2" stroke-miterlimit="10"/>
<path d="M36.0249 11.094L37.0248 10.0996" stroke="white" stroke-width="2" stroke-miterlimit="10"/>
<path d="M38.8384 8.2962L42.867 4.28973" stroke="white" stroke-width="2" stroke-miterlimit="10"/>
<path d="M40.8042 15.9488L41.9007 14.8583" stroke="white" stroke-width="2" stroke-miterlimit="10"/>
<path d="M44.7197 12.0548L52.4998 4.31757" stroke="white" stroke-width="2" stroke-miterlimit="10"/>
<path d="M43.7314 20.724L50.5396 13.9533" stroke="white" stroke-width="2" stroke-miterlimit="10"/>
<path d="M52.3696 12.1335L53.4719 11.0373" stroke="white" stroke-width="2" stroke-miterlimit="10"/>
</svg>
