<svg width="60" height="60" viewBox="0 0 60 60" fill="none" xmlns="http://www.w3.org/2000/svg">
<path d="M47.4194 29.0323C50.0874 29.0323 52.2581 26.8616 52.2581 24.1935V13.5484H60V0H42.5806V13.5484H50.3226V24.1935C50.3226 25.7942 49.02 27.0968 47.4194 27.0968H40.4671C40.1748 26.2771 39.5294 25.6316 38.7097 25.3394V23.0468C39.8332 22.6461 40.6452 21.5816 40.6452 20.3216V16.4506C40.6452 14.85 39.3426 13.5474 37.7419 13.5474H22.2581C20.6574 13.5474 19.3548 14.85 19.3548 16.4506V20.3216C19.3548 21.5816 20.1668 22.6461 21.2903 23.0468V25.3394C20.4706 25.6316 19.8252 26.2771 19.5329 27.0968H12.5806C10.98 27.0968 9.67742 25.7942 9.67742 24.1935V13.5484H17.4194V0H0V13.5484H7.74194V24.1935C7.74194 26.8616 9.91258 29.0323 12.5806 29.0323H19.3548V30.9677H12.5806C9.91258 30.9677 7.74194 33.1384 7.74194 35.8064V46.4516H0V60H17.4194V46.4516H9.67742V35.8064C9.67742 34.2058 10.98 32.9032 12.5806 32.9032H19.5329C19.8252 33.7229 20.4706 34.3684 21.2903 34.6606V36.9532C20.1668 37.3539 19.3548 38.4184 19.3548 39.6784V43.5494C19.3548 45.15 20.6574 46.4526 22.2581 46.4526H37.7419C39.3426 46.4526 40.6452 45.15 40.6452 43.5494V39.6784C40.6452 38.4184 39.8332 37.3539 38.7097 36.9532V34.6606C39.5294 34.3684 40.1748 33.7229 40.4671 32.9032H47.4194C49.02 32.9032 50.3226 34.2058 50.3226 35.8064V46.4516H42.5806V60H60V46.4516H52.2581V35.8064C52.2581 33.1384 50.0874 30.9677 47.4194 30.9677H40.6452V29.0323H47.4194ZM44.5161 1.93548H58.0645V11.6129H44.5161V1.93548ZM1.93548 1.93548H15.4839V11.6129H1.93548V1.93548ZM15.4839 58.0645H1.93548V48.3871H15.4839V58.0645ZM58.0645 58.0645H44.5161V48.3871H58.0645V58.0645ZM36.7742 23.2258V25.1613H23.2258V23.2258H36.7742ZM21.2903 16.4516C21.2903 15.9184 21.7239 15.4839 22.2581 15.4839H37.7419C38.2761 15.4839 38.7097 15.9184 38.7097 16.4516V20.3226C38.7097 20.8558 38.2761 21.2903 37.7419 21.2903H22.2581C21.7239 21.2903 21.2903 20.8558 21.2903 20.3226V16.4516ZM23.2258 36.7742V34.8387H36.7742V36.7742H23.2258ZM38.7097 43.5484C38.7097 44.0826 38.2761 44.5161 37.7419 44.5161H22.2581C21.7239 44.5161 21.2903 44.0826 21.2903 43.5484V39.6774C21.2903 39.1432 21.7239 38.7097 22.2581 38.7097H37.7419C38.2761 38.7097 38.7097 39.1432 38.7097 39.6774V43.5484ZM38.7097 31.9355C38.7097 32.4697 38.2761 32.9032 37.7419 32.9032H22.2581C21.7239 32.9032 21.2903 32.4697 21.2903 31.9355V28.0645C21.2903 27.5313 21.7239 27.0968 22.2581 27.0968H37.7419C38.2761 27.0968 38.7097 27.5313 38.7097 28.0645V31.9355Z" fill="white"/>
</svg>
